<?xml version="1.0" standalone="no"?>
<!DOCTYPE svg PUBLIC "-//W3C//DTD SVG 1.1//EN" "http://www.w3.org/Graphics/SVG/1.1/DTD/svg11.dtd" >
<svg xmlns="http://www.w3.org/2000/svg" xmlns:xlink="http://www.w3.org/1999/xlink" version="1.1">
<metadata>
Created by FontForge 20170731 at Mon Aug 31 08:25:13 2020
 By Aleksey,,,
Copyright (c) 1993 ParaType Inc., ParaType Ltd. All rights reserved.Franklin Gothic is a registered trade mark of International Typeface Corporation.
</metadata>
<defs>
<font id="FranklinGothicITC-Heavy" horiz-adv-x="1259" >
  <font-face 
    font-family="FranklinGothicITC Heavy"
    font-weight="900"
    font-stretch="normal"
    units-per-em="2048"
    panose-1="2 11 9 4 3 5 2 2 2 4"
    ascent="1606"
    descent="-442"
    x-height="1049"
    cap-height="1405"
    bbox="-731 -719 2097 1991"
    underline-thickness="102"
    underline-position="-307"
    unicode-range="U+0020-FEFF"
  />
<missing-glyph horiz-adv-x="477" 
 />
    <glyph glyph-name="IJ" unicode="IJ" horiz-adv-x="1509" 
d="M555 1405v-1405h-430v1405h430zM1382 1405v-879q0 -91 -2.5 -142.5t-22 -128t-57.5 -128.5q-107 -147 -385 -147q-121 0 -186 12l-100 20v328q94 -25 162 -25q92 0 131 58q30 43 30 166v866h430z" />
    <glyph glyph-name="ij" unicode="ij" 
d="M516 1049v-1049h-405v1049h405zM516 1425v-278h-405v278h405zM1149 1049v-988v-15q0 -56 -1.5 -86.5t-8 -77t-23.5 -82t-45 -64.5q-88 -96 -293 -96q-102 0 -235 28v281q67 -15 96 -15q58 0 84 37q4 6 7.5 13t5.5 12.5t3.5 14t2 14t1 15.5t0.5 14.5v16v15.5v963h406z
M1149 1425v-278h-406v278h406z" />
    <glyph glyph-name="afii10017.var.accented" unicode="&#x410;`" horiz-adv-x="1339" 
d="M891 1405l440 -1405h-442l-78 279h-375l-84 -279h-352l436 1405h455zM737 582l-114 409l-115 -409h229zM944 1866l70 -201l-492 -139l-53 139z" />
    <glyph glyph-name="afii10022.var.accented" unicode="&#x415;`" horiz-adv-x="1232" 
d="M125 1405h1057v-328h-627v-209h504v-303h-504v-229h627v-336h-1057v1405zM891 1866l70 -201l-492 -139l-53 139z" />
    <glyph glyph-name="afii10026.var.accented" unicode="&#x418;`" horiz-adv-x="1441" 
d="M125 1405h430v-586q0 -131 -12 -205q16 72 55 150l289 539v102h430v-1405h-430v586q0 131 12 205q-16 -72 -55 -150l-289 -535v-106h-430v1405zM995 1866l70 -201l-492 -139l-53 139z" />
    <glyph glyph-name="afii10032.var.accented" unicode="&#x41e;`" horiz-adv-x="1462" 
d="M731 1425q273 0 455 -161q98 -88 156.5 -232t58.5 -330q0 -160 -47.5 -299.5t-134.5 -232.5q-78 -83 -199.5 -136.5t-288.5 -53.5q-282 0 -455 165q-215 203 -215 557q0 384 242 582q171 141 428 141zM731 1118q-108 0 -164 -114q-47 -94 -47 -293q0 -205 47 -299
q55 -117 164 -117t164 117q47 94 47 299q0 199 -47 293q-56 114 -164 114zM1006 1866l69 -201l-491 -139l-54 139z" />
    <glyph glyph-name="afii10037.var.accented" unicode="&#x423;`" horiz-adv-x="1308" 
d="M0 1405h475l252 -555h4l230 555h378l-436 -993q-57 -129 -93 -194t-73 -105q-68 -76 -153 -104.5t-197 -28.5q-98 0 -213 24v313q88 -22 172 -22q60 0 100 29q39 28 56 69zM928 1866l69 -201l-491 -139l-53 139z" />
    <glyph glyph-name="afii10045.var.accented" unicode="&#x42b;`" horiz-adv-x="1966" 
d="M125 1405h430v-528h305q74 0 154.5 -20.5t140.5 -63.5q154 -110 154 -338q0 -67 -11.5 -126.5t-44.5 -121.5t-85 -106.5t-139.5 -72.5t-201.5 -28h-702v1405zM555 569v-254h193q65 0 100 37q31 33 31 88q0 59 -35.5 94t-95.5 35h-193zM1411 1405h430v-1405h-430v1405z
M1257 1866l70 -201l-491 -139l-54 139z" />
    <glyph glyph-name="afii10047.var.accented" unicode="&#x42d;`" horiz-adv-x="1368" 
d="M434 903l-389 72q38 189 184 313q90 75 196 106t239 31q53 0 98 -4t102 -18t106.5 -38t102 -66.5t96.5 -100.5t73 -124.5t42.5 -135.5t18 -124t4.5 -120q0 -345 -193 -538q-176 -176 -465 -176q-93 0 -174 14.5t-135 38t-79 37.5t-44 28q-60 44 -109.5 119.5t-66.5 177.5
l389 72q9 -62 55 -111q58 -61 152 -61q122 0 176 98q35 62 35 172h-334v299h334q0 107 -41 172q-52 82 -152 82q-108 0 -170 -86q-36 -51 -51 -129zM958 1866l70 -201l-491 -139l-54 139z" />
    <glyph glyph-name="afii10048.var.accented" unicode="&#x42e;`" horiz-adv-x="2058" 
d="M555 872h152q28 232 190 385q180 168 442 168q145 0 266 -48t209.5 -138.5t137.5 -228t49 -308.5q0 -349 -201 -550q-175 -172 -461 -172q-58 0 -108.5 6t-113.5 23.5t-124.5 56t-113.5 96.5q-73 81 -118 190.5t-54 220.5h-152v-573h-430v1405h430v-533zM1339 1118
q-107 0 -163 -114q-48 -96 -48 -293q0 -203 48 -299q55 -117 163 -117q109 0 164 117q47 94 47 299q0 199 -47 293q-56 114 -164 114zM1303 1866l69 -201l-491 -139l-54 139z" />
    <glyph glyph-name="afii10049.var.accented" unicode="&#x42f;`" horiz-adv-x="1460" 
d="M1335 1405v-1405h-430v524h-129l-239 -524h-455l311 573q-104 30 -180 109q-98 102 -98 285q0 136 54.5 226t131.5 138q119 74 326 74h708zM905 1090h-196q-83 0 -123 -33q-41 -34 -41 -96q0 -57 41 -93q44 -37 123 -37h196v259zM1004 1866l69 -201l-491 -139l-54 139z
" />
    <glyph glyph-name="afii10023.var.accented" unicode="&#x401;`" horiz-adv-x="1232" 
d="M125 1405h1057v-328h-627v-209h504v-303h-504v-229h627v-336h-1057v1405zM430 1808v-268h-266v268h266zM1147 1808v-268h-266v268h266zM621 1905l227 -131l-250 -267l-135 78z" />
    <glyph glyph-name="afii10065.var.accented" unicode="&#x430;`" horiz-adv-x="1239" 
d="M461 707l-373 34q39 158 172 244q77 51 170.5 67.5t206.5 16.5q59 0 106.5 -3t103.5 -14.5t98.5 -30.5t82 -53t64.5 -81q19 -36 28.5 -83t11 -78t1.5 -87v-410q0 -128 30 -229h-385q-14 63 -14 145q-107 -165 -342 -165q-97 0 -171.5 28t-116 74t-61.5 97t-20 106
q0 72 30.5 139t88.5 113q140 111 496 139l75 6v16q0 64 -24 90q-27 31 -101 31q-140 0 -157 -112zM743 492l-63 -11q-106 -17 -156 -53q-57 -41 -57 -106q0 -41 29.5 -67t83.5 -26q44 0 76 14.5t48 34.5t25.5 50.5t11.5 52.5t2 51v60zM864 1559l70 -201l-492 -139l-53 139z
" />
    <glyph glyph-name="afii10070.var.accented" unicode="&#x435;`" horiz-adv-x="1228" 
d="M788 367l377 -25q-34 -159 -172 -258q-145 -104 -377 -104q-116 0 -213.5 29.5t-183.5 111.5q-162 154 -162 403q0 147 53 251t130 169q148 125 387 125q244 0 395 -158q149 -155 149 -413v-64h-700q-3 -85 37 -141q46 -64 129 -64q70 0 111 41q37 37 40 97zM471 639h299
q7 83 -37 133q-38 47 -106 47t-111 -47q-48 -51 -45 -133zM860 1559l70 -201l-492 -139l-53 139z" />
    <glyph glyph-name="afii10074.var.accented" unicode="&#x438;`" horiz-adv-x="1265" 
d="M111 1049h405v-400q0 -55 -8 -88q11 14 16.5 22.5t8.5 14.5l4 8l213 369v74h405v-1049h-405v430q0 32 10 80q-6 -12 -9.5 -18.5t-6 -10t-8.5 -13.5t-15 -26l-205 -368v-74h-405v1049zM879 1559l69 -201l-491 -139l-54 139z" />
    <glyph glyph-name="afii10080.var.accented" unicode="&#x43e;`" horiz-adv-x="1220" 
d="M610 1069q231 0 383 -141q82 -75 126 -182t44 -222t-44 -221.5t-126 -181.5q-152 -141 -383 -141t-383 141q-82 75 -126 181.5t-44 221.5t44 222t126 182q152 141 383 141zM610 229q75 0 111 76q18 35 23.5 83.5t5.5 135.5t-5.5 135.5t-23.5 83.5q-37 76 -111 76
q-73 0 -110 -76q-18 -35 -23.5 -83.5t-5.5 -135.5q0 -158 29 -219q37 -76 110 -76zM856 1559l70 -201l-492 -139l-53 139z" />
    <glyph glyph-name="afii10085.var.accented" unicode="&#x443;`" horiz-adv-x="1077" 
d="M1085 1049l-403 -1112q-20 -52 -34.5 -83.5t-45 -73.5t-70.5 -73q-61 -46 -127.5 -61t-146.5 -15q-114 0 -199 17v295q84 -17 166 -17q94 0 129 23q27 19 29 43l2 18l-393 1039h440l172 -560l182 560h299zM784 1559l70 -201l-492 -139l-53 139z" />
    <glyph glyph-name="afii10093.var.accented" unicode="&#x44b;`" horiz-adv-x="1714" 
d="M111 1049h405v-361h229q196 0 293 -86q44 -39 72.5 -100t28.5 -135q0 -79 -31 -158t-84 -125q-32 -30 -70 -48.5t-80 -25.5t-66 -8.5t-60 -1.5h-637v1049zM516 483v-233h78q61 0 94 29q37 31 37 90q0 58 -37 88q-33 26 -90 26h-82zM1198 1049h406v-1049h-406v1049z
M1102 1559l69 -201l-491 -139l-53 139z" />
    <glyph glyph-name="afii10095.var.accented" unicode="&#x44d;`" horiz-adv-x="1163" 
d="M373 680l-348 47q49 149 174 238q145 104 366 104q231 0 377 -131q164 -148 164 -401q0 -106 -33 -209.5t-96 -177.5q-146 -170 -432 -170q-204 0 -334 79q-155 93 -191 265l355 45q8 -47 45 -90q47 -50 115 -50q88 0 129 60q24 37 28 96q3 25 0 49h-272v205h272
q0 86 -37 131q-39 49 -114 49q-67 0 -113 -41q-44 -40 -55 -98zM827 1559l70 -201l-491 -139l-54 139z" />
    <glyph glyph-name="afii10096.var.accented" unicode="&#x44e;`" horiz-adv-x="1757" 
d="M516 684h111q18 86 63 158t105 119q137 108 352 108q233 0 383 -141q82 -75 126 -181.5t44 -222.5t-44 -222t-126 -181q-150 -141 -383 -141q-239 0 -387 143q-126 122 -144 287h-100v-410h-405v1049h405v-365zM1147 229q74 0 110 76q18 35 23.5 83.5t5.5 135.5
t-5.5 135.5t-23.5 83.5q-37 76 -110 76q-74 0 -111 -76q-17 -34 -22.5 -82t-5.5 -137q0 -83 5 -131.5t23 -87.5q37 -76 111 -76zM1124 1559l70 -201l-492 -139l-53 139z" />
    <glyph glyph-name="afii10097.var.accented" unicode="&#x44f;`" horiz-adv-x="1236" 
d="M1126 1049v-1049h-405v354h-86l-164 -354h-430l238 408q-85 28 -138 90q-67 78 -67 200q0 171 121 267q109 84 321 84h610zM721 799h-98q-68 0 -101 -31q-35 -31 -35 -90q0 -58 35 -90q33 -29 113 -29h86v240zM864 1559l70 -201l-492 -139l-53 139z" />
    <glyph glyph-name="afii10071.var.accented" unicode="&#x451;`" horiz-adv-x="1228" 
d="M788 367l377 -25q-34 -159 -172 -258q-145 -104 -377 -104q-116 0 -213.5 29.5t-183.5 111.5q-162 154 -162 403q0 147 53 251t130 169q148 125 387 125q244 0 395 -158q149 -155 149 -413v-64h-700q-3 -85 37 -141q46 -64 129 -64q70 0 111 41q37 37 40 97zM471 639h299
q7 83 -37 133q-38 47 -106 47t-111 -47q-48 -51 -45 -133zM410 1475v-258h-246v258h246zM1106 1475v-258h-246v258h246zM621 1597l206 -143l-258 -266l-127 78z" />
    <glyph glyph-name="fi" unicode="fi" horiz-adv-x="1286" 
d="M530 0h-405v772h-117v277h117v26q0 201 135 289q92 61 277 61q27 0 73.5 -2t51.5 -2v-262h-19h-20q-40 -2 -66 -24q-27 -24 -27 -68v-18h132v-277h-132v-772zM1176 1049v-1049h-406v1049h406zM1176 1425v-278h-406v278h406z" />
    <glyph glyph-name="fl" unicode="fl" horiz-adv-x="1288" 
d="M530 0h-405v772h-117v277h117v26q0 201 135 289q92 61 277 61q27 0 73.5 -2t51.5 -2v-262h-19h-20q-40 -2 -66 -24q-27 -24 -27 -68v-18h132v-277h-132v-772zM1178 1405v-1405h-406v1405h406z" />
    <glyph glyph-name=".notdef" horiz-adv-x="477" 
 />
    <glyph glyph-name=".null" horiz-adv-x="0" 
 />
    <glyph glyph-name="nonmarkingreturn" horiz-adv-x="682" 
 />
    <glyph glyph-name="space" unicode=" " horiz-adv-x="477" 
 />
    <glyph glyph-name="exclam" unicode="!" horiz-adv-x="667" 
d="M532 375v-375h-391v375h391zM580 1405l-117 -932h-252l-117 932h486z" />
    <glyph glyph-name="quotedbl" unicode="&#x22;" horiz-adv-x="888" 
d="M344 811h-203l-53 594h309zM748 811h-203l-53 594h309z" />
    <glyph glyph-name="numbersign" unicode="#" horiz-adv-x="1366" 
d="M891 0h-238l74 338h-231l-72 -338h-238l72 338h-217v221h260l57 248h-217v221h260l88 397h238l-88 -397h231l88 397h238l-88 -397h217v-221h-260l-57 -248h217v-221h-260zM770 559l57 248h-231l-57 -248h231z" />
    <glyph glyph-name="dollar" unicode="$" 
d="M723 1548v-170q149 -11 266 -92t168 -225l-321 -100q-47 131 -203 131q-127 0 -127 -84q0 -27 20 -45.5t43 -26t62 -16.5l71 -17q17 -4 66.5 -14.5t70 -16t57 -16t64 -23t54.5 -28.5q57 -34 95.5 -81t55 -95.5t22 -83t5.5 -68.5q0 -182 -133 -301.5t-336 -134.5v-178
h-197v180q-173 12 -299.5 117t-169.5 274l361 68q12 -50 40 -84.5t62.5 -49t59.5 -19.5t49 -5q168 0 168 80q0 21 -10 37.5t-21.5 26t-36 19t-38 13t-42.5 10.5l-137 33q-62 15 -99.5 26t-99.5 44t-102 78q-88 100 -88 245q0 102 46 191t139 151t218 76v174h197z" />
    <glyph glyph-name="percent" unicode="%" horiz-adv-x="1449" 
d="M1253 1405l-858 -1405h-194l858 1405h194zM328 680q-32 0 -63.5 7t-70.5 25t-73 58.5t-55 99.5q-25 64 -25 172t25 172q21 59 55 99.5t73 59t70.5 25.5t63.5 7t63.5 -7t70.5 -25.5t73 -59t55 -99.5q24 -62 24 -172t-24 -172q-21 -59 -55 -99.5t-73 -58.5t-70.5 -25
t-63.5 -7zM328 1249q-41 0 -58 -51q-16 -47 -16 -156q0 -108 16 -155q17 -51 58 -51q40 0 57 51q16 47 16 155q0 109 -16 156q-17 51 -57 51zM1122 0q-32 0 -63.5 7t-70.5 25t-73 58.5t-55 99.5q-24 62 -24 172q0 111 24 173q21 59 55 99.5t73 58.5t70.5 25t63.5 7t63.5 -7
t70.5 -25t73 -58.5t55 -99.5q25 -64 25 -173q0 -108 -25 -172q-21 -59 -55 -99.5t-73 -58.5t-70.5 -25t-63.5 -7zM1122 569q-40 0 -57 -51q-16 -47 -16 -156q0 -33 1 -56t5 -54t11 -49.5t21.5 -32.5t34.5 -14q41 0 58 51q16 47 16 155q0 109 -16 156q-17 51 -58 51z" />
    <glyph glyph-name="ampersand" unicode="&#x26;" horiz-adv-x="1560" 
d="M903 735l144 -151q77 85 106 237l365 -43q-53 -261 -232 -434q47 -39 131 -39q46 0 101 10v-307q-95 -22 -166 -22q-197 0 -308 92l-24 20q-157 -118 -402 -118q-227 0 -380 98q-185 121 -185 334q0 190 150 301q73 54 176 86q-115 134 -115 274q0 71 31 143t106 125
q68 49 143.5 66.5t172.5 17.5q62 0 102 -3t96 -19t103 -47q82 -53 116.5 -127t34.5 -148q0 -44 -10 -87t-36 -94t-82.5 -95t-137.5 -70zM803 340l-234 256q-35 -14 -59 -41q-43 -46 -43 -111q0 -83 59 -129q38 -32 117 -32q101 0 160 57zM739 938l41 25q62 38 62 104
q0 53 -31 80t-76 27q-47 0 -72.5 -26t-25.5 -65q0 -50 61 -108z" />
    <glyph glyph-name="quotesingle" unicode="'" horiz-adv-x="485" 
d="M344 811h-203l-53 594h309z" />
    <glyph glyph-name="parenleft" unicode="(" horiz-adv-x="716" 
d="M387 1405h277q-267 -397 -267 -866q0 -228 69.5 -450t197.5 -419h-277q-326 411 -326 873q0 238 84 459.5t242 402.5z" />
    <glyph glyph-name="parenright" unicode=")" horiz-adv-x="716" 
d="M53 1405h277q157 -181 241 -402.5t84 -459.5q0 -463 -325 -873h-277q128 197 197 419t69 450q0 470 -266 866z" />
    <glyph glyph-name="asterisk" unicode="*" horiz-adv-x="1216" 
d="M487 1405h242l-27 -313l287 122l80 -225l-301 -71l205 -232l-205 -143l-160 268l-159 -268l-205 143l205 232l-302 71l80 225l287 -122z" />
    <glyph glyph-name="plus" unicode="+" 
d="M477 1114h307v-371h371v-307h-371v-370h-307v370h-371v307h371v371z" />
    <glyph glyph-name="comma" unicode="," horiz-adv-x="604" 
d="M496 373v-344l-226 -389h-161l161 360h-161v373h387z" />
    <glyph glyph-name="hyphen" unicode="-" horiz-adv-x="561" 
d="M541 725v-324h-521v324h521z" />
    <glyph glyph-name="period" unicode="." horiz-adv-x="608" 
d="M109 375h391v-375h-391v375z" />
    <glyph glyph-name="slash" unicode="/" horiz-adv-x="1193" 
d="M1143 1405l-1004 -1755h-270l1003 1755h271z" />
    <glyph glyph-name="zero" unicode="0" 
d="M631 1425q143 0 248.5 -57.5t169.5 -142.5q49 -66 81.5 -155t43.5 -177.5t13.5 -127.5t2.5 -73q0 -138 -36.5 -279t-104.5 -233q-64 -85 -169.5 -142.5t-248.5 -57.5t-248.5 57.5t-169.5 142.5q-68 92 -104.5 233t-36.5 279q0 34 2.5 73t13.5 127.5t43.5 177.5t81.5 155
q64 85 169.5 142.5t248.5 57.5zM631 1130q-27 0 -49 -8.5t-35 -19.5t-23 -28.5t-14 -29.5t-8 -28q-25 -98 -25 -326q0 -201 25 -305q5 -21 11.5 -36.5t20 -35.5t38.5 -31.5t59 -11.5t59 11.5t38.5 31.5t20 35.5t11.5 36.5q24 100 24 305q0 232 -24 326q-4 16 -8 28t-14 29.5
t-23 28.5t-35 19.5t-49 8.5z" />
    <glyph glyph-name="one" unicode="1" 
d="M840 1425v-1089h331v-336h-1079v336h346v645q-186 -86 -309 -104v317q115 21 233 82q109 57 173 149h305z" />
    <glyph glyph-name="two" unicode="2" 
d="M442 866l-354 70q19 158 102 272q156 217 459 217q224 0 361 -110q82 -66 119.5 -156.5t37.5 -187.5q0 -106 -48 -202.5t-134 -160.5l-358 -272h547l-17 -336h-1069v322l481 362q30 23 68 60.5t59 64.5q58 80 58 154q0 57 -33 102q-36 45 -105 45q-91 0 -139 -94
q-30 -58 -35 -150z" />
    <glyph glyph-name="three" unicode="3" 
d="M428 961l-340 55q33 137 119 231t198.5 136t245.5 42q125 0 235.5 -39.5t176.5 -111.5q92 -99 92 -238q0 -97 -50.5 -181.5t-158.5 -121.5q119 -31 185.5 -118.5t66.5 -211.5q0 -93 -37 -170t-100 -131q-76 -63 -190.5 -92.5t-233.5 -29.5q-245 0 -400.5 121t-199.5 327
l366 47q18 -74 54 -115q56 -65 153 -65q88 0 135 49q39 39 39 98q0 67 -45 105q-43 37 -151 37h-160v274h156q102 0 139 43q29 33 29 82q0 60 -41 96q-39 39 -109 39q-71 0 -117 -45t-57 -112z" />
    <glyph glyph-name="four" unicode="4" 
d="M1030 1425v-813h199v-303h-199v-309h-405v309h-574v303l529 813h450zM625 612v422l-267 -422h267z" />
    <glyph glyph-name="five" unicode="5" 
d="M1128 1405l-36 -328h-588l-19 -211q111 76 246 76q201 0 330 -119q62 -57 99.5 -144t37.5 -196q0 -103 -40.5 -196t-115.5 -164q-154 -143 -405 -143q-143 0 -263 49t-196 131q-95 102 -117 243l363 46q10 -50 41 -89q55 -65 153 -65q78 0 127 49q48 48 48 119
q0 73 -43 119q-50 53 -134 53q-109 0 -163 -82l-324 45l61 807h938z" />
    <glyph glyph-name="six" unicode="6" 
d="M1155 1008l-358 -43q0 28 -7.5 56t-22.5 54t-43.5 42t-66.5 16q-106 0 -147 -140q-29 -103 -29 -225q93 129 293 129q108 0 193 -38.5t134.5 -102.5t75 -139t25.5 -156q0 -37 -6 -75t-22 -88t-51 -100.5t-85 -91.5q-153 -126 -376 -126q-288 0 -445 200
q-149 191 -149 488q0 114 20 220.5t65 205t111 171.5t165 116.5t220 43.5q203 0 341.5 -110.5t164.5 -306.5zM645 264q69 0 111 49q41 52 41 117q0 70 -41 121q-45 51 -109 51q-70 0 -115 -47q-47 -47 -47 -123q0 -49 23 -90q44 -78 137 -78z" />
    <glyph glyph-name="seven" unicode="7" 
d="M1157 1405v-264q-136 -182 -212.5 -349.5t-121.5 -373.5q-37 -167 -37 -312q0 -71 2 -106h-464q18 384 206 737q91 172 238 340h-649l28 328h1010z" />
    <glyph glyph-name="eight" unicode="8" 
d="M276 686q-87 48 -131.5 127.5t-44.5 175.5q0 110 48.5 194.5t115.5 135.5q139 106 361 106q219 0 360 -84q172 -103 172 -288q0 -97 -49.5 -172t-130.5 -117q101 -43 164 -133t63 -209q0 -56 -13.5 -111t-54 -118.5t-104.5 -106.5q-162 -106 -424 -106
q-172 0 -288.5 44.5t-178.5 114.5q-86 97 -86 230q0 113 61 196t160 121zM674 883l37 -15q41 22 64.5 62.5t23.5 79.5q0 72 -64 112q-54 33 -121 33q-68 0 -101.5 -32t-33.5 -74q0 -66 74 -109q55 -32 121 -57zM555 535l-35 12q-45 -24 -71.5 -65.5t-26.5 -84.5
q0 -73 61 -110q58 -37 150 -37q73 0 112 22q54 30 54 90q0 65 -86 105q-119 55 -158 68z" />
    <glyph glyph-name="nine" unicode="9" 
d="M104 397l359 43q0 -28 7 -56t22.5 -54t43.5 -42t66 -16q53 0 91 37t57 103q28 100 28 225q-93 -129 -293 -129q-108 0 -193 38.5t-134.5 102.5t-75 139t-25.5 156q0 37 6 75t22 87.5t51 100t85 91.5q154 127 377 127q286 0 444 -200q150 -193 150 -488q0 -114 -20 -220.5
t-65.5 -205t-111.5 -171.5t-165 -116.5t-220 -43.5q-203 0 -341.5 110.5t-164.5 306.5zM614 1141q-68 0 -110 -49q-41 -52 -41 -117q0 -70 41 -121q45 -51 108 -51q70 0 115 47q47 47 47 123q0 51 -22 90q-44 78 -138 78z" />
    <glyph glyph-name="colon" unicode=":" horiz-adv-x="608" 
d="M500 375v-375h-391v375h391zM500 1047v-375h-391v375h391z" />
    <glyph glyph-name="semicolon" unicode=";" horiz-adv-x="608" 
d="M498 373v-344l-226 -389h-161l161 360h-161v373h387zM500 1047v-375h-391v375h391z" />
    <glyph glyph-name="less" unicode="&#x3c;" 
d="M541 594l610 -225v-340l-1042 403v324l1042 403v-340z" />
    <glyph glyph-name="equal" unicode="=" 
d="M106 684v307h1049v-307h-1049zM106 188v308h1049v-308h-1049z" />
    <glyph glyph-name="greater" unicode="&#x3e;" 
d="M719 594l-610 225v340l1042 -403v-324l-1042 -403v340z" />
    <glyph glyph-name="question" unicode="?" horiz-adv-x="1155" 
d="M399 901l-376 43q23 218 182 356q65 57 151.5 91t221.5 34q230 0 368 -114q152 -123 152 -328q0 -67 -16 -121t-48.5 -95t-61 -66.5t-73.5 -57.5q-3 -2 -20 -14.5t-23.5 -17.5t-22 -17t-24 -20.5t-20 -20.5t-19.5 -24t-14 -25q-12 -27 -15 -58h-342v29q0 105 19 158
q24 67 94 127l41 35q115 97 115 213q0 64 -34 97.5t-83 33.5q-57 0 -94 -37q-8 -8 -14.5 -17.5t-12 -21.5t-9 -20.5t-7 -23.5t-5 -22t-3.5 -25.5t-2.5 -23t-2.5 -25t-2 -22.5zM780 375v-375h-391v375h391z" />
    <glyph glyph-name="at" unicode="@" horiz-adv-x="1531" 
d="M991 1055h199l-96 -572q-4 -20 -4 -28q0 -9 1 -13.5t7.5 -9t19.5 -4.5q16 0 36 10.5t43.5 36.5t42.5 64.5t31.5 100.5t12.5 138q0 67 -14 129t-49 123t-89 105.5t-140.5 72t-196.5 27.5q-235 0 -372.5 -145.5t-137.5 -384.5q0 -251 147.5 -392t394.5 -141q215 0 363 107
h188q-101 -142 -247.5 -220.5t-319.5 -78.5q-155 0 -293.5 58.5t-235.5 157t-153.5 232t-56.5 279.5q0 150 54 282.5t149 229t231 152.5t293 56q179 0 331.5 -81.5t241 -219t88.5 -297.5q0 -109 -35 -203t-89 -155t-120 -104.5t-126.5 -62.5t-110.5 -19q-58 0 -83.5 29
t-23.5 67q-42 -46 -83.5 -67t-94.5 -21q-62 0 -120.5 24.5t-104.5 68.5t-74 112.5t-28 150.5q0 74 27 147.5t75 134.5t123 99.5t164 38.5q147 0 217 -96zM778 840q-62 0 -111 -47.5t-49 -130.5q0 -60 34 -101t91 -41q36 0 65.5 14t47.5 34.5t30 46t16.5 47.5t4.5 40
q0 60 -35 99t-94 39z" />
    <glyph glyph-name="A" unicode="A" horiz-adv-x="1339" 
d="M891 1405l440 -1405h-442l-78 279h-375l-84 -279h-352l436 1405h455zM737 582l-114 409l-115 -409h229z" />
    <glyph glyph-name="B" unicode="B" horiz-adv-x="1406" 
d="M125 1405h715q123 0 209 -18t155 -80q107 -95 107 -256q0 -112 -58 -197q-61 -91 -180 -123v-4q93 -18 164 -76q109 -90 109 -254q0 -177 -111 -284q-118 -113 -352 -113h-758v1405zM555 1098v-238h182q86 0 121 35q31 31 31 86q0 54 -35 84q-37 33 -125 33h-174z
M555 561v-254h209q24 0 38.5 1.5t37.5 10.5t41 27q34 34 34 88t-32 86q-41 41 -119 41h-209z" />
    <glyph glyph-name="C" unicode="C" horiz-adv-x="1355" 
d="M1319 870l-401 -20q-1 64 -14 113.5t-32.5 77t-46 45t-49.5 23t-47 5.5q-209 0 -209 -414q0 -100 7.5 -164t31.5 -118q54 -123 170 -123q105 0 158 98q39 73 39 148l393 -25q-16 -227 -170 -377q-162 -159 -432 -159q-98 0 -184 21.5t-145.5 54t-109.5 78t-80.5 87
t-54.5 88.5q-82 160 -82 381q0 383 230 586q171 149 426 149q279 0 442 -165q66 -66 111.5 -165.5t48.5 -224.5z" />
    <glyph glyph-name="D" unicode="D" horiz-adv-x="1431" 
d="M125 1405h518q72 0 131 -6t129 -22.5t136 -52t124 -89.5q101 -94 154 -233.5t53 -301.5q0 -155 -53.5 -287.5t-138.5 -222.5q-104 -109 -229 -149.5t-277 -40.5h-547v1405zM555 328h82q26 0 45.5 2.5t51 12.5t61 35.5t53.5 65.5q63 108 63 275q0 185 -75 280
q-27 34 -68 52.5t-72 22t-78 3.5h-63v-749z" />
    <glyph glyph-name="E" unicode="E" horiz-adv-x="1232" 
d="M125 1405h1057v-328h-627v-209h504v-303h-504v-229h627v-336h-1057v1405z" />
    <glyph glyph-name="F" unicode="F" horiz-adv-x="1159" 
d="M1145 1405v-328h-590v-209h459v-303h-459v-565h-430v1405h1020z" />
    <glyph glyph-name="G" unicode="G" horiz-adv-x="1443" 
d="M1335 786v-786h-211l-57 147q-65 -73 -127 -110q-93 -57 -254 -57q-124 0 -226.5 35t-191.5 120q-207 197 -207 545q0 377 205 573q178 172 461 172q273 0 430 -141q69 -61 116 -151t62 -195l-417 -43q-1 44 -16.5 88t-39.5 74q-48 61 -129 61q-121 0 -174 -125
q-39 -95 -39 -280q0 -229 55 -318q59 -100 170 -100q85 0 134 49q21 21 38 57.5t17 67.5v14h-232v303h633z" />
    <glyph glyph-name="H" unicode="H" horiz-adv-x="1441" 
d="M1317 1405v-1405h-430v553h-332v-553h-430v1405h430v-524h332v524h430z" />
    <glyph glyph-name="I" unicode="I" horiz-adv-x="679" 
d="M555 1405v-1405h-430v1405h430z" />
    <glyph glyph-name="J" unicode="J" horiz-adv-x="892" 
d="M768 1405v-879q0 -91 -2.5 -142.5t-22 -128t-57.5 -128.5q-107 -147 -385 -147q-122 0 -186 12l-101 20v328q94 -25 162 -25q92 0 131 58q31 45 31 166v866h430z" />
    <glyph glyph-name="K" unicode="K" horiz-adv-x="1435" 
d="M555 1405v-580h4l383 580h389l-354 -514l467 -891h-500l-242 530l-147 -204v-326h-430v1405h430z" />
    <glyph glyph-name="L" unicode="L" horiz-adv-x="1140" 
d="M555 1405v-1069h557v-336h-987v1405h430z" />
    <glyph glyph-name="M" unicode="M" horiz-adv-x="1814" 
d="M696 1405l211 -746h4l207 746h572v-1405h-410v1004h-4l-266 -1004h-275l-274 1004h-4v-1004h-332v1405h571z" />
    <glyph glyph-name="N" unicode="N" horiz-adv-x="1462" 
d="M535 1405l477 -784h4q-31 131 -31 227v557h352v-1405h-356l-457 750l-75 161h-5q4 -22 11 -55.5t9 -45t5.5 -33.5t4.5 -37t2 -36.5t1 -48.5v-655h-352v1405h410z" />
    <glyph glyph-name="O" unicode="O" horiz-adv-x="1462" 
d="M731 1425q273 0 455 -161q98 -88 156.5 -232t58.5 -330q0 -160 -47.5 -299.5t-134.5 -232.5q-78 -83 -199.5 -136.5t-288.5 -53.5q-282 0 -455 165q-215 203 -215 557q0 384 242 582q171 141 428 141zM731 1118q-108 0 -164 -114q-47 -94 -47 -293q0 -205 47 -299
q55 -117 164 -117t164 117q47 94 47 299q0 199 -47 293q-56 114 -164 114z" />
    <glyph glyph-name="P" unicode="P" horiz-adv-x="1351" 
d="M125 1405h565q71 0 105.5 -1t98 -7t114 -22t96.5 -42q209 -118 209 -370q0 -137 -66 -244q-36 -57 -85.5 -97.5t-96.5 -62t-107 -33.5t-102.5 -15t-97.5 -3h-203v-508h-430v1405zM555 823h160q84 0 127 39q41 41 41 96q0 59 -35 97q-43 43 -133 43h-160v-275z" />
    <glyph glyph-name="Q" unicode="Q" horiz-adv-x="1462" 
d="M1391 74v-320q-74 -10 -170 -10q-88 0 -154.5 19.5t-122.5 80.5q-60 68 -72 156q-85 -20 -153 -20q-131 0 -253.5 48t-213.5 142q-191 198 -191 532q0 402 265 598q169 125 405 125q293 0 473 -180q94 -94 145.5 -232.5t51.5 -310.5q0 -240 -96 -401q-62 -106 -162 -172
q8 -23 33 -43q36 -27 92 -27t123 15zM731 1118q-108 0 -164 -114q-47 -94 -47 -295q0 -203 47 -297q55 -117 164 -117t164 117q47 94 47 297q0 201 -47 295q-56 114 -164 114z" />
    <glyph glyph-name="R" unicode="R" horiz-adv-x="1462" 
d="M125 1405h709q280 0 409 -133q107 -112 107 -289q0 -83 -24 -155t-79.5 -133.5t-138.5 -90.5l270 -604h-479l-205 524h-139v-524h-430v1405zM555 1098v-271h197q84 0 127 39q41 38 41 97q0 61 -37 94q-43 41 -133 41h-195z" />
    <glyph glyph-name="S" unicode="S" horiz-adv-x="1282" 
d="M1200 1081l-356 -108q-16 53 -53 90q-55 55 -175 55q-70 0 -106 -24q-33 -23 -33 -66q0 -13 3 -23.5t9.5 -19.5t12.5 -15.5t18 -12t18.5 -9t21 -7.5t19.5 -5.5t20.5 -4.5t16.5 -3l152 -31q210 -42 317 -123q154 -114 154 -321q0 -96 -36 -175.5t-96.5 -134t-141.5 -92
t-170 -54.5t-183 -17q-160 0 -285.5 45.5t-207.5 124.5q-105 102 -142 249l402 66q12 -50 41.5 -84t60.5 -51q57 -35 160 -35q92 0 129 29q31 24 31 59q0 92 -166 125l-156 33q-60 13 -134.5 42.5t-123.5 61.5q-170 114 -170 322q0 115 51 204.5t129 147.5q148 106 404 106
q430 0 565 -344z" />
    <glyph glyph-name="T" unicode="T" horiz-adv-x="1011" 
d="M0 1405h1012v-328h-291v-1077h-430v1077h-291v328z" />
    <glyph glyph-name="U" unicode="U" horiz-adv-x="1384" 
d="M125 1405h430v-899q0 -59 7.5 -97t35.5 -67q45 -47 133 -47t133 47q28 29 35.5 67t7.5 97v899h353v-903q0 -48 -1 -75.5t-9 -79t-23 -88t-45 -81t-74 -80.5q-145 -118 -399 -118q-268 0 -424 112q-52 38 -86 85t-49 100.5t-20 98t-5 103.5v926z" />
    <glyph glyph-name="V" unicode="V" horiz-adv-x="1327" 
d="M-8 1405h454l267 -899l266 899h356l-444 -1405h-447z" />
    <glyph glyph-name="W" unicode="W" horiz-adv-x="1900" 
d="M14 1405h406l201 -811l190 811h338l207 -811l198 811h332l-368 -1405h-369l-193 774l-192 -774h-369z" />
    <glyph glyph-name="X" unicode="X" horiz-adv-x="1363" 
d="M-6 1405h500l219 -379l223 379h389l-407 -653l475 -752h-500l-264 442l-260 -442h-398l455 727z" />
    <glyph glyph-name="Y" unicode="Y" horiz-adv-x="1253" 
d="M1296 1405l-442 -811v-594h-430v594l-467 811h475l244 -463l244 463h376z" />
    <glyph glyph-name="Z" unicode="Z" horiz-adv-x="1263" 
d="M90 1405h1102v-272l-596 -797h616v-336h-1167v268l621 805h-576v332z" />
    <glyph glyph-name="bracketleft" unicode="[" horiz-adv-x="720" 
d="M614 1405v-170h-180v-1395h180v-170h-485v1735h485z" />
    <glyph glyph-name="backslash" unicode="\" horiz-adv-x="1175" 
d="M326 1405l802 -1405h-270l-803 1405h271z" />
    <glyph glyph-name="bracketright" unicode="]" horiz-adv-x="720" 
d="M106 1405h486v-1735h-486v170h181v1395h-181v170z" />
    <glyph glyph-name="asciicircum" unicode="^" horiz-adv-x="1288" 
d="M643 1044l-217 -509h-348l414 870h303l413 -870h-348z" />
    <glyph glyph-name="underscore" unicode="_" horiz-adv-x="1024" 
d="M1024 -133v-127h-1024v127h1024z" />
    <glyph glyph-name="grave" unicode="`" horiz-adv-x="1064" 
d="M287 1550l475 -200l-53 -131l-492 131z" />
    <glyph glyph-name="a" unicode="a" horiz-adv-x="1239" 
d="M461 707l-373 34q39 158 172 244q77 51 170.5 67.5t206.5 16.5q59 0 106.5 -3t103.5 -14.5t98.5 -30.5t82 -53t64.5 -81q19 -36 28.5 -83t11 -78t1.5 -87v-410q0 -128 30 -229h-385q-14 63 -14 145q-107 -165 -342 -165q-97 0 -171.5 28t-116 74t-61.5 97t-20 106
q0 72 30.5 139t88.5 113q140 111 496 139l75 6v16q0 64 -24 90q-27 31 -101 31q-140 0 -157 -112zM743 492l-63 -11q-106 -17 -156 -53q-57 -41 -57 -106q0 -41 29.5 -67t83.5 -26q44 0 76 14.5t48 34.5t25.5 50.5t11.5 52.5t2 51v60z" />
    <glyph glyph-name="b" unicode="b" horiz-adv-x="1243" 
d="M518 1405v-483q92 147 266 147q186 0 293 -141q54 -73 81.5 -178.5t27.5 -214.5q0 -107 -30 -218t-93 -188q-121 -149 -332 -149q-219 0 -328 163l-57 -143h-233v1405h405zM518 651v-252q0 -71 23 -114q5 -11 15 -22t31.5 -22.5t47.5 -11.5q73 0 110 88q27 78 27 218
q0 134 -29 194q-38 78 -110 78q-49 0 -78 -33q-17 -18 -26 -41.5t-10 -38.5t-1 -43z" />
    <glyph glyph-name="c" unicode="c" horiz-adv-x="1101" 
d="M1077 653l-358 -28q0 35 -8.5 77.5t-22.5 65.5q-29 51 -92 51q-62 0 -96 -57q-17 -29 -23 -80t-6 -156q0 -165 31 -229q35 -68 100 -68q60 0 92 56q24 44 29 137l358 -29q-9 -93 -51.5 -172.5t-107.5 -134.5q-128 -106 -336 -106q-232 0 -377 143q-152 148 -152 397
q0 127 39 229t105 171q145 149 383 149q221 0 338 -102q60 -50 103 -133t52 -181z" />
    <glyph glyph-name="d" unicode="d" horiz-adv-x="1241" 
d="M725 1405h405v-1405h-376v135h-4q-29 -63 -93 -104q-76 -51 -196 -51q-175 0 -287 149q-117 156 -117 406q0 244 115 393q61 77 134 109t169 32q100 0 166 -37q46 -25 84 -69v442zM725 412v237q0 84 -29 121q-30 37 -82 37q-76 0 -114 -78q-29 -60 -29 -194
q0 -153 27 -218q37 -88 112 -88q63 0 92 56q6 10 11 22.5t7 21t3.5 24t1.5 20v21.5v18z" />
    <glyph glyph-name="e" unicode="e" horiz-adv-x="1228" 
d="M788 367l377 -25q-34 -159 -172 -258q-145 -104 -377 -104q-116 0 -213.5 29.5t-183.5 111.5q-162 154 -162 403q0 147 53 251t130 169q148 125 387 125q244 0 395 -158q149 -155 149 -413v-64h-700q-3 -85 37 -141q46 -64 129 -64q70 0 111 41q37 37 40 97zM471 639h299
q7 83 -37 133q-38 47 -106 47t-111 -47q-48 -51 -45 -133z" />
    <glyph glyph-name="f" unicode="f" horiz-adv-x="831" 
d="M860 1399v-254q-85 14 -178 14q-65 0 -94 -29q-27 -27 -27 -81v-25h254v-274h-254v-750h-405v750h-148v274h148v53q0 83 18 148t74 116q88 84 268 84q204 0 344 -26z" />
    <glyph glyph-name="g" unicode="g" horiz-adv-x="1200" 
d="M1200 1284l-10 -280l-25 2q-50 4 -71 4q-83 0 -119 -41q60 -46 88.5 -110t28.5 -126q0 -40 -9.5 -78.5t-38.5 -83.5t-75.5 -78.5t-128 -56t-187.5 -22.5q-25 0 -76 2t-77 2q-80 0 -80 -53q0 -46 67 -46l310 -14q137 -4 200 -26q94 -33 150 -109q53 -75 53 -195
q0 -172 -162 -262q-134 -73 -452 -73q-287 0 -412 49q-172 65 -172 209q0 72 41.5 126t110.5 76q-97 61 -97 166q0 86 54 151.5t147 80.5v4q-80 22 -125 84.5t-45 152.5q0 39 8.5 74.5t28 74.5t56.5 70t89 57t131.5 40t178.5 14q132 0 215 -20q7 96 63 159q42 49 96 65.5
t125 16.5q33 0 95 -4zM590 606q13 0 25 1.5t32.5 9t35 20t25.5 38t11 60.5t-11 60.5t-25.5 38t-35 20t-32.5 9t-25 1.5t-25 -1.5t-32.5 -9t-35 -20t-25.5 -38t-11 -60.5t11 -60.5t25.5 -38t35 -20t32.5 -9t25 -1.5zM731 2l-287 12q-49 6 -75.5 -13.5t-26.5 -51.5
q0 -17 6.5 -31t20.5 -23.5t29 -17t38.5 -12t43 -7t49 -3.5t49 -1.5t49.5 -0.5h17q34 0 51 0.5t44 2.5t41 7t29.5 13.5t22 23t6.5 34.5q0 22 -9.5 36.5t-25.5 20.5t-32 8t-32 3h-8z" />
    <glyph glyph-name="h" unicode="h" horiz-adv-x="1241" 
d="M516 1405v-479q115 143 295 143q62 0 125 -19t104 -59q90 -86 90 -291v-700h-405v678q0 66 -20 98q-20 31 -70 31q-37 0 -70 -23q-49 -39 -49 -129v-655h-405v1405h405z" />
    <glyph glyph-name="i" unicode="i" horiz-adv-x="626" 
d="M516 1049v-1049h-405v1049h405zM516 1425v-278h-405v278h405z" />
    <glyph glyph-name="j" unicode="j" horiz-adv-x="624" 
d="M514 1049v-988v-15q0 -56 -1.5 -86.5t-8 -77t-23.5 -82t-45 -64.5q-88 -96 -293 -96q-102 0 -235 28v281q68 -15 96 -15q58 0 84 37q3 5 6 10.5t5 10t3.5 11t2.5 10.5t2 12t1.5 11t0.5 12.5v12v13v12.5v963h405zM514 1425v-278h-405v278h405z" />
    <glyph glyph-name="k" unicode="k" horiz-adv-x="1224" 
d="M516 1405v-758l334 402h352l-315 -363l352 -686h-422l-199 420l-102 -131v-289h-405v1405h405z" />
    <glyph glyph-name="l" unicode="l" horiz-adv-x="626" 
d="M516 1405v-1405h-405v1405h405z" />
    <glyph glyph-name="m" unicode="m" horiz-adv-x="1806" 
d="M508 0h-397v1049h376v-148h5q40 76 111 122t173 46q130 0 211 -65q50 -39 80 -103q45 82 125 125t184 43q72 0 136 -23t106 -65q78 -78 78 -213v-768h-398v666q0 79 -14 104q-21 37 -72 37q-38 0 -64 -20t-36 -50q-10 -35 -10 -114v-623h-397v666q0 71 -17 102
q-22 39 -70 39q-74 0 -100 -70q-10 -25 -10 -114v-623z" />
    <glyph glyph-name="n" unicode="n" horiz-adv-x="1241" 
d="M516 0h-405v1049h376v-148h5q98 168 303 168q139 0 227 -65q108 -83 108 -248v-756h-405v678q0 27 -1 41t-9 33t-23 34q-24 21 -57 21q-53 0 -84 -35q-35 -39 -35 -129v-643z" />
    <glyph glyph-name="o" unicode="o" horiz-adv-x="1220" 
d="M610 1069q231 0 383 -141q82 -75 126 -182t44 -222t-44 -221.5t-126 -181.5q-152 -141 -383 -141t-383 141q-82 75 -126 181.5t-44 221.5t44 222t126 182q152 141 383 141zM610 229q75 0 111 76q18 35 23.5 83.5t5.5 135.5t-5.5 135.5t-23.5 83.5q-37 76 -111 76
q-73 0 -110 -76q-18 -35 -23.5 -83.5t-5.5 -135.5q0 -158 29 -219q37 -76 110 -76z" />
    <glyph glyph-name="p" unicode="p" horiz-adv-x="1241" 
d="M516 -332h-405v1381h376v-152h5q39 67 98 111q85 61 219 61q171 0 272 -141q103 -143 103 -393q0 -259 -109 -406q-111 -149 -289 -149q-84 0 -157 34q-71 35 -109 99h-4v-445zM516 649v-229q0 -93 23 -135q35 -56 92 -56q78 0 114 88q25 62 25 209q0 142 -29 205
q-36 76 -110 76q-47 0 -78 -31q-37 -37 -37 -127z" />
    <glyph glyph-name="q" unicode="q" horiz-adv-x="1245" 
d="M1130 -332h-405v447h-4q-73 -135 -254 -135t-293 149q-117 155 -117 403q0 244 129 396q122 141 330 141q123 0 213 -57q61 -40 102 -107l74 144h234q-2 -19 -5.5 -47.5t-3.5 -51.5v-1282zM725 399v267q0 65 -25 106q-30 47 -88 47q-75 0 -112 -82q-29 -73 -29 -202
q0 -156 27 -218q37 -88 112 -88q63 0 92 56q23 39 23 114z" />
    <glyph glyph-name="r" unicode="r" horiz-adv-x="808" 
d="M111 1049h348v-218h4q2 73 47 138q72 100 223 100q17 0 53 -4v-367q-46 11 -73 11q-109 0 -160 -74q-23 -34 -30 -74t-7 -106v-455h-405v1049z" />
    <glyph glyph-name="s" unicode="s" horiz-adv-x="1118" 
d="M1036 795l-309 -60q-27 58 -70 84q-41 25 -122 25q-68 0 -99 -25q-22 -16 -22 -47q0 -26 23 -40.5t75 -20.5l190 -25q206 -24 299 -123q80 -83 80 -213q0 -99 -46.5 -169.5t-114.5 -112.5q-138 -88 -388 -88q-252 0 -389 120q-85 75 -127 197l326 43q17 -49 64 -82
q59 -41 145 -41q122 0 149 27q21 21 21 45q0 33 -33 47q-22 10 -74 18l-145 19q-185 23 -283 94q-54 39 -87 102.5t-33 143.5q0 33 7 67t24.5 74.5t53.5 79t87 67.5q73 42 148 55t169 13q106 0 188 -16.5t152 -67.5q98 -73 141 -190z" />
    <glyph glyph-name="t" unicode="t" horiz-adv-x="782" 
d="M549 1393v-344h205v-275h-205v-379q0 -69 20 -94q22 -27 74 -27q51 0 111 21v-287q-140 -28 -258 -28q-190 0 -277 98q-27 31 -43.5 66.5t-23 79t-8 72t-1.5 81.5v397h-151v275h170l31 331z" />
    <glyph glyph-name="u" unicode="u" horiz-adv-x="1241" 
d="M1130 1049v-1049h-376v172h-4q-23 -53 -60 -91.5t-70.5 -57t-74 -29t-61.5 -12.5t-42 -2q-123 0 -202 53q-77 51 -103 125.5t-26 167.5v723h405v-621q0 -88 23 -119q27 -35 73 -35q51 0 80 37q33 40 33 115v623h405z" />
    <glyph glyph-name="v" unicode="v" horiz-adv-x="1064" 
d="M1073 1049l-383 -1049h-307l-391 1049h424l176 -555h4l182 555h295z" />
    <glyph glyph-name="w" unicode="w" horiz-adv-x="1568" 
d="M1554 1049l-335 -1049h-291l-137 567h-5l-141 -567h-291l-340 1049h404l137 -514h4l129 514h303l127 -514h4l148 514h284z" />
    <glyph glyph-name="x" unicode="x" horiz-adv-x="1167" 
d="M1116 1049l-305 -478l371 -571h-463l-191 334l-204 -334h-338l370 555l-321 494h459l139 -254l145 254h338z" />
    <glyph glyph-name="y" unicode="y" horiz-adv-x="1077" 
d="M1085 1049l-403 -1112q-20 -52 -34.5 -83.5t-45 -73.5t-70.5 -73q-61 -46 -127.5 -61t-146.5 -15q-114 0 -199 17v295q84 -17 166 -17q94 0 129 23q27 19 29 43l2 18l-393 1039h440l172 -560l182 560h299z" />
    <glyph glyph-name="z" unicode="z" horiz-adv-x="997" 
d="M944 1049v-224l-448 -559h465v-266h-924v227l442 564h-403v258h868z" />
    <glyph glyph-name="braceleft" unicode="{" horiz-adv-x="800" 
d="M731 1405v-180h-96q-71 0 -98 -31q-21 -26 -21 -102v-320q0 -97 -41 -145q-31 -36 -94 -56t-117 -22v-4q54 -2 117 -22t94 -56q41 -48 41 -145v-338q0 -77 21 -103q27 -31 98 -31h96v-180h-166q-146 0 -231 56q-115 77 -115 245v369v10.5v11t-0.5 10t-1.5 11t-2.5 10
t-4 10.5t-6 9.5t-9 10t-11.5 9.5q-38 31 -112 31h-52v172h52q74 0 112 31q7 5 12.5 11t9.5 10.5t6.5 12t4 10.5t2 12.5t0.5 11v12.5v12v346q0 169 115 246q83 55 231 55h166z" />
    <glyph glyph-name="bar" unicode="|" horiz-adv-x="675" 
d="M492 1405v-1405h-308v1405h308z" />
    <glyph glyph-name="braceright" unicode="}" horiz-adv-x="800" 
d="M70 1405h166q148 0 231 -55q115 -77 115 -246v-346v-13.5v-14.5t1 -12.5t3.5 -14t6 -12t9.5 -13.5t14 -12q38 -31 113 -31h51v-172h-51q-75 0 -113 -31q-8 -6 -14 -12t-9.5 -13.5t-6 -12t-3.5 -14t-1 -12.5v-14.5v-13.5v-369q0 -168 -115 -245q-85 -56 -231 -56h-166v180
h96q71 0 98 31q21 26 21 103v338q0 97 41 145q31 36 94 56t117 22v4q-54 2 -117 22t-94 56q-41 48 -41 145v320q0 76 -21 102q-27 31 -98 31h-96v180z" />
    <glyph glyph-name="asciitilde" unicode="~" horiz-adv-x="1368" 
d="M285 387l-176 102q55 124 120 191q91 98 238 98q90 0 190 -41q34 -13 78 -30t62.5 -24t43.5 -15t41 -10.5t33 -2.5q67 0 117 50q31 31 51 73l177 -102q-42 -99 -119 -176q-113 -113 -250 -113q-54 0 -143 29q-49 18 -110.5 41.5t-84 31.5t-50 14.5t-52.5 6.5
q-64 0 -117 -53q-30 -33 -49 -70z" />
    <glyph glyph-name="uni00A0" unicode="&#xa0;" horiz-adv-x="477" 
 />
    <glyph glyph-name="exclamdown" unicode="&#xa1;" horiz-adv-x="667" 
d="M573 -362h-485l117 931h252zM526 668h-391v374h391v-374z" />
    <glyph glyph-name="cent" unicode="&#xa2;" 
d="M1122 877l-344 -27q1 64 -34.5 110t-86.5 46q-133 0 -133 -261q0 -52 5.5 -91t19 -74.5t41 -54.5t67.5 -19q55 0 93.5 39.5t42.5 101.5l329 -29q-23 -151 -125 -252t-254 -124v-267h-196v267q-180 31 -291 159q-117 134 -117 334q0 227 125 365q109 123 283 155v209h196
v-209q154 -20 256.5 -122t122.5 -256z" />
    <glyph glyph-name="sterling" unicode="&#xa3;" 
d="M1186 1135l-312 -105q-39 88 -120 88q-50 0 -84.5 -30.5t-34.5 -90.5q0 -9 12 -84l10 -53h217v-242h-186v-38q0 -78 -40 -149t-107 -116h149q179 0 211 148l330 -62q-17 -84 -60 -160t-104 -128q-132 -113 -344 -113h-684v315h24q116 0 166 37q29 23 47.5 59.5t18.5 77.5
q0 52 -8 91l-8 38h-179v242h136l-11 70q-19 130 27 232.5t137 166.5q137 96 334 96q168 0 283 -69q128 -78 180 -221z" />
    <glyph glyph-name="currency" unicode="&#xa4;" 
d="M109 236l90 88q-78 121 -78 266t78 266l-90 88l157 164l90 -90q120 78 275 78q154 0 274 -78l90 90l158 -164l-90 -88q78 -121 78 -266t-78 -266l90 -88l-158 -164l-90 90q-120 -78 -274 -78q-155 0 -275 78l-90 -90zM381 590q0 -104 73 -177t177 -73t177 73t73 177
t-73 177t-177 73t-177 -73t-73 -177z" />
    <glyph glyph-name="yen" unicode="&#xa5;" 
d="M434 1405l244 -463l244 463h376l-241 -459h157v-211h-274l-63 -102h321v-211h-342v-422h-430v422h-342v211h322l-68 102h-270v211h157l-266 459h475z" />
    <glyph glyph-name="brokenbar" unicode="&#xa6;" horiz-adv-x="675" 
d="M492 561v-561h-308v561h308zM492 1405v-561h-308v561h308z" />
    <glyph glyph-name="section" unicode="&#xa7;" horiz-adv-x="1239" 
d="M1094 1176l-256 -72q-16 35 -43 59t-58 35t-56.5 15t-51.5 4q-63 0 -94 -19q-35 -20 -35 -59q0 -30 28 -58q12 -11 29 -20.5t30 -14.5t40 -14.5t41 -15.5l84 -33q152 -58 206 -96q71 -50 110.5 -123.5t39.5 -155.5q0 -66 -29 -137t-88 -129q50 -32 83 -73.5t46 -83
t17 -66t4 -47.5q0 -90 -42.5 -177.5t-137.5 -144.5q-147 -80 -336 -80q-34 0 -64 2.5t-82 11t-98.5 29.5t-96 53t-92 86.5t-71.5 124.5l303 52q65 -138 221 -138q83 0 123.5 33t40.5 72q0 17 -6 32t-20.5 28.5t-26 22.5t-36 21t-36 17t-40.5 16t-36 14l-53 21
q-159 60 -216 92q-82 45 -126 102q-68 90 -68 201q0 158 123 291q-100 87 -100 219q0 168 143 270q67 47 144.5 64.5t177.5 17.5q86 0 151.5 -12t130.5 -47q120 -66 179 -190zM604 694l-102 43q-27 -20 -42.5 -47.5t-15.5 -52.5q0 -44 45.5 -74.5t124.5 -60.5l136 -51
q24 15 41.5 39.5t17.5 50.5q0 41 -43.5 72.5t-161.5 80.5z" />
    <glyph glyph-name="dieresis" unicode="&#xa8;" horiz-adv-x="1134" 
d="M481 1495v-256h-272v256h272zM926 1495v-256h-273v256h273z" />
    <glyph glyph-name="copyright" unicode="&#xa9;" horiz-adv-x="1560" 
d="M780 1425q143 0 277 -55.5t235 -157.5t156 -234t55 -276q0 -143 -55 -275t-156 -234t-235 -157.5t-277 -55.5t-277 55.5t-235 157.5t-156 234t-55 275q0 144 55 276t156 234t235 157.5t277 55.5zM780 141q112 0 214 43t180 123q161 161 161 395q0 235 -161 396
q-78 80 -180 123t-214 43t-213.5 -43t-179.5 -123q-162 -162 -162 -396q0 -233 162 -395q78 -80 179.5 -123t213.5 -43zM899 612l266 -16q-8 -135 -104 -227q-105 -101 -281 -101q-167 0 -276 101q-125 116 -125 315q0 111 34 202.5t93 147.5q105 101 280 101
q198 0 295 -119q72 -87 84 -225l-272 -15q0 94 -37 131q-27 27 -68 27q-28 0 -53 -21q-59 -47 -59 -213q0 -109 20 -159q27 -68 95 -68q61 0 88 55q20 41 20 84z" />
    <glyph glyph-name="ordfeminine" unicode="&#xaa;" horiz-adv-x="839" 
d="M319 1206l-241 23q30 100 121 149q84 47 252 47q144 0 229 -53q14 -9 25.5 -19t20 -22.5t14.5 -20.5t9.5 -24t6 -22t3.5 -25t1 -23v-25.5v-23.5v-245q0 -72 20 -138h-256q-2 16 -3.5 34.5t-2.5 23.5l-2 30q-71 -100 -221 -100q-118 0 -178 55.5t-60 133.5q0 13 2.5 28
t13 39.5t28.5 46t53 44t82 36.5q99 32 233 37l35 2v16q0 68 -80 68q-92 0 -105 -72zM780 705v-168h-723v168h723zM504 1077l-25 -2q-47 -3 -80 -18q-27 -10 -43 -29q-22 -26 -22 -53q0 -8 2 -15.5t8.5 -17.5t21.5 -16t37 -6q57 0 84 41q17 28 17 81v35z" />
    <glyph glyph-name="guillemotleft" unicode="&#xab;" horiz-adv-x="796" 
d="M281 526l108 -280h-145l-178 280l178 299h145zM608 526l109 -280h-146l-178 280l178 299h146z" />
    <glyph glyph-name="logicalnot" unicode="&#xac;" 
d="M1182 991v-667h-308v360h-794v307h1102z" />
    <glyph glyph-name="uni00AD" unicode="&#xad;" horiz-adv-x="561" 
d="M541 725v-324h-521v324h521z" />
    <glyph glyph-name="registered" unicode="&#xae;" horiz-adv-x="1560" 
d="M780 1425q143 0 277 -55.5t235 -157.5t156 -234t55 -276q0 -143 -55 -275t-156 -234t-235 -157.5t-277 -55.5t-277 55.5t-235 157.5t-156 234t-55 275q0 144 55 276t156 234t235 157.5t277 55.5zM780 141q112 0 214 43t180 123q161 161 161 395q0 235 -161 396
q-78 80 -180 123t-214 43t-213.5 -43t-179.5 -123q-162 -162 -162 -396q0 -233 162 -395q78 -80 179.5 -123t213.5 -43zM422 1096h414q139 0 217 -64q77 -62 77 -176q0 -69 -35.5 -127t-101.5 -80l144 -340h-283l-115 299h-63v-299h-254v787zM676 776h98q49 0 74 25
q18 18 18 49q0 34 -24 55q-25 19 -64 19h-102v-148z" />
    <glyph glyph-name="macron" unicode="&#xaf;" horiz-adv-x="1003" 
d="M827 1411v-151h-651v151h651z" />
    <glyph glyph-name="degree" unicode="&#xb0;" horiz-adv-x="1236" 
d="M311 1118q0 128 89.5 217.5t217.5 89.5t218 -90t90 -217t-90 -217t-218 -90t-217.5 89.5t-89.5 217.5zM492 1118q0 -54 36 -90.5t90 -36.5t90.5 36.5t36.5 90.5t-36.5 90.5t-90.5 36.5t-90 -36.5t-36 -90.5z" />
    <glyph glyph-name="plusminus" unicode="&#xb1;" 
d="M477 1405h307v-371h371v-307h-371v-371h-307v371h-371v307h371v371zM106 0v307h1049v-307h-1049z" />
    <glyph glyph-name="twosuperior" unicode="&#xb2;" horiz-adv-x="813" 
d="M758 776l-13 -215h-706v201l158 100q48 31 115.5 81t97.5 79q63 59 63 115q0 33 -21 57.5t-65 24.5q-56 0 -86 -54q-18 -35 -18 -92l-244 43q28 179 166 254q81 45 211 45q140 0 227 -63q53 -38 81 -93t28 -110q0 -85 -56 -162q-49 -67 -153 -131l-129 -80h344z" />
    <glyph glyph-name="threesuperior" unicode="&#xb3;" horiz-adv-x="813" 
d="M14 827l248 27q9 -44 29 -70q34 -43 104 -43q54 0 80.5 25t26.5 57q0 43 -35 68q-23 16 -66 16h-133v172h119q45 0 68.5 19.5t23.5 52.5t-23 54.5t-67 21.5q-49 0 -80 -31q-24 -24 -30 -66l-232 33q20 93 86 156q100 98 277 98q152 0 243 -61q97 -66 97 -174
q0 -122 -123 -181q62 -14 105.5 -66.5t43.5 -127.5q0 -106 -82 -176q-95 -80 -291 -80q-95 0 -168.5 23t-134.5 88q-68 75 -86 165z" />
    <glyph glyph-name="acute" unicode="&#xb4;" horiz-adv-x="1064" 
d="M778 1559l70 -201l-492 -139l-53 139z" />
    <glyph glyph-name="mu" unicode="&#xb5;" horiz-adv-x="1236" 
d="M1128 1049v-1049h-383v172h-4q-19 -65 -71 -117q-68 -68 -156 -75v-310h-405v1379h405v-639q0 -90 25 -115q21 -21 65 -21q43 0 76 31q43 41 43 139v605h405z" />
    <glyph glyph-name="paragraph" unicode="&#xb6;" horiz-adv-x="1093" 
d="M1083 1405v-162h-135v-1573h-180v1573h-156v-1573h-180v846q-80 3 -153.5 30t-134.5 77.5t-97.5 133t-36.5 185.5q0 71 16 137t53 126t91.5 104t136 70t182.5 26h594z" />
    <glyph glyph-name="periodcentered" unicode="&#xb7;" horiz-adv-x="608" 
d="M500 778v-375h-391v375h391z" />
    <glyph glyph-name="cedilla" unicode="&#xb8;" horiz-adv-x="866" 
d="M553 0l-33 -98q83 14 139 -39q43 -40 43 -111q0 -82 -61 -127t-143 -45q-111 0 -228 70l37 84q80 -45 148 -45q43 0 61.5 18t18.5 41q0 43 -43 64q-45 22 -117 14l61 174h117z" />
    <glyph glyph-name="onesuperior" unicode="&#xb9;" horiz-adv-x="813" 
d="M555 758h188v-197h-659v197h199v383q-18 -7 -51.5 -20.5t-48 -18.5t-42 -12t-59.5 -11v199q86 15 158 51q83 40 108 88h207v-659z" />
    <glyph glyph-name="ordmasculine" unicode="&#xba;" horiz-adv-x="839" 
d="M420 1425q91 0 164 -28.5t117.5 -76.5t68 -106t23.5 -120q0 -146 -109 -234t-264 -88t-264 88t-109 234q0 62 23.5 120t68 106t117.5 76.5t164 28.5zM420 1274q-22 0 -38 -7.5t-25.5 -23.5t-15.5 -31t-8 -40t-2.5 -39t-0.5 -39q0 -26 0.5 -41.5t5.5 -43t13.5 -43.5
t26.5 -29t44 -13t44 13t26.5 29t13.5 43.5t5.5 43t0.5 41.5q0 25 -0.5 39t-2.5 39t-8 40t-15.5 31t-25.5 23.5t-38 7.5zM793 705v-168h-746v168h746z" />
    <glyph glyph-name="guillemotright" unicode="&#xbb;" horiz-adv-x="796" 
d="M188 526l-108 299h145l178 -299l-178 -280h-145zM516 526l-108 299h145l178 -299l-178 -280h-145z" />
    <glyph glyph-name="onequarter" unicode="&#xbc;" horiz-adv-x="2004" 
d="M1577 1405l-854 -1405h-223l860 1405h217zM588 758h188v-197h-659v197h198v383q-19 -7 -51.5 -20.5t-47 -18.5t-42 -12t-59.5 -11v199q84 16 160.5 51.5t105.5 87.5h207v-659zM1991 182h-131v-182h-256v182h-381v189l348 483h289v-479h131v-193zM1626 354v305l-217 -305
h217z" />
    <glyph glyph-name="onehalf" unicode="&#xbd;" horiz-adv-x="2007" 
d="M1579 1405l-854 -1405h-223l860 1405h217zM588 758h188v-197h-659v197h198v383q-19 -7 -51.5 -20.5t-47 -18.5t-42 -12t-59.5 -11v199q84 16 160.5 51.5t105.5 87.5h207v-659zM1950 215l-13 -215h-706v201l158 100q48 31 115.5 81t97.5 79q63 59 63 114q0 33 -21 57.5
t-65 24.5q-57 0 -86 -53q-18 -35 -18 -92l-244 43q28 179 166 254q81 45 211 45q140 0 227 -63q53 -38 81 -93t28 -110q0 -85 -56 -162q-49 -67 -153 -131l-129 -80h344z" />
    <glyph glyph-name="threequarters" unicode="&#xbe;" horiz-adv-x="2000" 
d="M1573 1405l-854 -1405h-221l856 1405h219zM14 827l248 27q9 -44 29 -70q34 -43 104 -43q54 0 80.5 25t26.5 57q0 43 -35 68q-23 16 -66 16h-133v172h119q45 0 68.5 19.5t23.5 52.5t-23 54.5t-67 21.5q-49 0 -80 -31q-24 -24 -30 -66l-232 33q20 93 86 156q100 98 277 98
q152 0 243 -61q97 -66 97 -174q0 -122 -123 -181q62 -14 105.5 -66.5t43.5 -127.5q0 -106 -82 -176q-95 -80 -291 -80q-95 0 -168.5 23t-134.5 88q-68 75 -86 165zM1987 182h-132v-182h-253v182h-381v189l346 483h288v-479h132v-193zM1624 354v305l-219 -305h219z" />
    <glyph glyph-name="questiondown" unicode="&#xbf;" horiz-adv-x="1155" 
d="M756 162l377 -43q-23 -218 -183 -357q-65 -57 -150.5 -90.5t-221.5 -33.5q-231 0 -369 114q-152 123 -152 328q0 67 16 121t48.5 95t61 66.5t73.5 57.5q3 2 20 14.5t23.5 17.5t22 17t24 20.5t20 20.5t19.5 24t14 25q12 27 15 57h342v-28q0 -105 -19 -158
q-24 -67 -94 -127l-41 -35q-115 -97 -115 -213q0 -64 34 -97.5t83 -33.5q57 0 94 37q53 56 58 201zM766 688h-391v375h391v-375z" />
    <glyph glyph-name="Agrave" unicode="&#xc0;" horiz-adv-x="1339" 
d="M891 1405l440 -1405h-442l-78 279h-375l-84 -279h-352l436 1405h455zM737 582l-114 409l-115 -409h229zM395 1866l475 -201l-53 -139l-491 139z" />
    <glyph glyph-name="Aacute" unicode="&#xc1;" horiz-adv-x="1339" 
d="M891 1405l440 -1405h-442l-78 279h-375l-84 -279h-352l436 1405h455zM737 582l-114 409l-115 -409h229zM944 1866l70 -201l-492 -139l-53 139z" />
    <glyph glyph-name="Acircumflex" unicode="&#xc2;" horiz-adv-x="1339" 
d="M891 1405l440 -1405h-442l-78 279h-375l-84 -279h-352l436 1405h455zM737 582l-114 409l-115 -409h229zM670 1661l-168 -121h-254l422 334l422 -334h-254z" />
    <glyph glyph-name="Atilde" unicode="&#xc3;" horiz-adv-x="1339" 
d="M891 1405l440 -1405h-442l-78 279h-375l-84 -279h-352l436 1405h455zM737 582l-114 409l-115 -409h229zM393 1526l-98 129q48 48 116.5 83.5t131.5 35.5q39 0 92 -21q10 -4 50.5 -20t67 -23.5t46.5 -7.5q55 0 116 57l29 27l98 -129q-44 -50 -100 -84q-74 -43 -154 -43
q-25 0 -49 6q-29 6 -86 31q-5 2 -21 8.5t-24.5 10t-22.5 8t-26 6.5t-24 2q-53 0 -127 -64z" />
    <glyph glyph-name="Adieresis" unicode="&#xc4;" horiz-adv-x="1339" 
d="M891 1405l440 -1405h-442l-78 279h-375l-84 -279h-352l436 1405h455zM737 582l-114 409l-115 -409h229zM580 1808v-268h-285v268h285zM1044 1808v-268h-284v268h284z" />
    <glyph glyph-name="Aring" unicode="&#xc5;" horiz-adv-x="1339" 
d="M891 1405l440 -1405h-442l-78 279h-375l-84 -279h-352l436 1405h455zM737 582l-114 409l-115 -409h229zM465 1731q0 86 59.5 145t145.5 59t145 -59t59 -145t-59 -145.5t-145 -59.5t-145.5 59.5t-59.5 145.5zM600 1731q0 -28 21 -49t49 -21t48.5 21t20.5 49t-20.5 48.5
t-48.5 20.5t-49 -20.5t-21 -48.5z" />
    <glyph glyph-name="AE" unicode="&#xc6;" horiz-adv-x="1921" 
d="M598 1405h1257v-328h-626v-209h508v-303h-508v-229h641v-336h-1067v279h-336l-131 -279h-365zM803 582v499l-221 -499h221z" />
    <glyph glyph-name="Ccedilla" unicode="&#xc7;" horiz-adv-x="1355" 
d="M1319 870l-401 -20q-1 64 -14 113.5t-32.5 77t-46 45t-49.5 23t-47 5.5q-209 0 -209 -414q0 -100 7.5 -164t31.5 -118q54 -123 170 -123q105 0 158 98q39 73 39 148l393 -25q-14 -226 -170 -377q-147 -147 -367 -159l-32 -78q12 2 36 2q69 0 111 -39q47 -42 47 -113
q0 -78 -57 -123q-61 -49 -158 -49q-111 0 -248 70l37 94q34 -21 76.5 -33t73.5 -12q37 0 57 17.5t20 41.5q0 38 -43 56q-33 14 -86 14q-20 0 -30 -2l55 158q-184 16 -306.5 105t-191.5 220q-82 160 -82 381q0 383 230 586q171 149 426 149q279 0 442 -165
q66 -66 111.5 -165.5t48.5 -224.5z" />
    <glyph glyph-name="Egrave" unicode="&#xc8;" horiz-adv-x="1232" 
d="M125 1405h1057v-328h-627v-209h504v-303h-504v-229h627v-336h-1057v1405zM342 1866l475 -201l-53 -139l-492 139z" />
    <glyph glyph-name="Eacute" unicode="&#xc9;" horiz-adv-x="1232" 
d="M125 1405h1057v-328h-627v-209h504v-303h-504v-229h627v-336h-1057v1405zM891 1866l70 -201l-492 -139l-53 139z" />
    <glyph glyph-name="Ecircumflex" unicode="&#xca;" horiz-adv-x="1232" 
d="M125 1405h1057v-328h-627v-209h504v-303h-504v-229h627v-336h-1057v1405zM616 1661l-167 -121h-254l421 334l422 -334h-254z" />
    <glyph glyph-name="Edieresis" unicode="&#xcb;" horiz-adv-x="1232" 
d="M125 1405h1057v-328h-627v-209h504v-303h-504v-229h627v-336h-1057v1405zM526 1808v-268h-284v268h284zM991 1808v-268h-284v268h284z" />
    <glyph glyph-name="Igrave" unicode="&#xcc;" horiz-adv-x="679" 
d="M555 1405v-1405h-430v1405h430zM66 1866l475 -201l-54 -139l-491 139z" />
    <glyph glyph-name="Iacute" unicode="&#xcd;" horiz-adv-x="679" 
d="M555 1405v-1405h-430v1405h430zM614 1866l70 -201l-491 -139l-54 139z" />
    <glyph glyph-name="Icircumflex" unicode="&#xce;" horiz-adv-x="679" 
d="M555 1405v-1405h-430v1405h430zM340 1661l-168 -121h-254l422 334l422 -334h-254z" />
    <glyph glyph-name="Idieresis" unicode="&#xcf;" horiz-adv-x="679" 
d="M555 1405v-1405h-430v1405h430zM250 1808v-268h-285v268h285zM715 1808v-268h-285v268h285z" />
    <glyph glyph-name="Eth" unicode="&#xd0;" horiz-adv-x="1423" 
d="M117 1405h518q72 0 131 -6t129 -22.5t136 -52t124 -89.5q101 -94 154 -232t53 -298q0 -143 -50.5 -280t-142.5 -235q-104 -109 -228.5 -149.5t-276.5 -40.5h-547v549h-127v336h127v520zM547 1077v-192h164v-336h-164v-213h82q64 0 117 23t94 92q63 106 63 268
q0 96 -22 169t-54 111q-39 49 -91.5 63.5t-125.5 14.5h-63z" />
    <glyph glyph-name="Ntilde" unicode="&#xd1;" horiz-adv-x="1462" 
d="M535 1405l477 -784h4q-31 131 -31 227v557h352v-1405h-356l-457 750l-75 161h-5q4 -22 11 -55.5t9 -45t5.5 -33.5t4.5 -37t2 -36.5t1 -48.5v-655h-352v1405h410zM455 1526l-99 129q48 48 116.5 83.5t131.5 35.5q40 0 92 -21q10 -4 50.5 -20t67 -23.5t46.5 -7.5
q56 0 117 57l29 27l98 -129q-44 -50 -100 -84q-74 -43 -154 -43q-25 0 -49 6q-29 6 -86 31q-4 2 -21 9t-25 10t-22.5 7.5t-26.5 6.5t-24 2q-53 0 -127 -64z" />
    <glyph glyph-name="Ograve" unicode="&#xd2;" horiz-adv-x="1462" 
d="M731 1425q273 0 455 -161q98 -88 156.5 -232t58.5 -330q0 -160 -47.5 -299.5t-134.5 -232.5q-78 -83 -199.5 -136.5t-288.5 -53.5q-282 0 -455 165q-215 203 -215 557q0 384 242 582q171 141 428 141zM731 1118q-108 0 -164 -114q-47 -94 -47 -293q0 -205 47 -299
q55 -117 164 -117t164 117q47 94 47 299q0 199 -47 293q-56 114 -164 114zM457 1866l475 -201l-53 -139l-492 139z" />
    <glyph glyph-name="Oacute" unicode="&#xd3;" horiz-adv-x="1462" 
d="M731 1425q273 0 455 -161q98 -88 156.5 -232t58.5 -330q0 -160 -47.5 -299.5t-134.5 -232.5q-78 -83 -199.5 -136.5t-288.5 -53.5q-282 0 -455 165q-215 203 -215 557q0 384 242 582q171 141 428 141zM731 1118q-108 0 -164 -114q-47 -94 -47 -293q0 -205 47 -299
q55 -117 164 -117t164 117q47 94 47 299q0 199 -47 293q-56 114 -164 114zM1006 1866l69 -201l-491 -139l-54 139z" />
    <glyph glyph-name="Ocircumflex" unicode="&#xd4;" horiz-adv-x="1462" 
d="M731 1425q273 0 455 -161q98 -88 156.5 -232t58.5 -330q0 -160 -47.5 -299.5t-134.5 -232.5q-78 -83 -199.5 -136.5t-288.5 -53.5q-282 0 -455 165q-215 203 -215 557q0 384 242 582q171 141 428 141zM731 1118q-108 0 -164 -114q-47 -94 -47 -293q0 -205 47 -299
q55 -117 164 -117t164 117q47 94 47 299q0 199 -47 293q-56 114 -164 114zM731 1661l-168 -121h-254l422 334l422 -334h-254z" />
    <glyph glyph-name="Otilde" unicode="&#xd5;" horiz-adv-x="1462" 
d="M731 1425q273 0 455 -161q98 -88 156.5 -232t58.5 -330q0 -160 -47.5 -299.5t-134.5 -232.5q-78 -83 -199.5 -136.5t-288.5 -53.5q-282 0 -455 165q-215 203 -215 557q0 384 242 582q171 141 428 141zM731 1118q-108 0 -164 -114q-47 -94 -47 -293q0 -205 47 -299
q55 -117 164 -117t164 117q47 94 47 299q0 199 -47 293q-56 114 -164 114zM455 1526l-99 129q48 48 116.5 83.5t131.5 35.5q40 0 92 -21q10 -4 50.5 -20t67 -23.5t46.5 -7.5q56 0 117 57l29 27l98 -129q-44 -50 -100 -84q-74 -43 -154 -43q-25 0 -49 6q-29 6 -86 31
q-4 2 -21 9t-25 10t-22.5 7.5t-26.5 6.5t-24 2q-53 0 -127 -64z" />
    <glyph glyph-name="Odieresis" unicode="&#xd6;" horiz-adv-x="1462" 
d="M731 1425q273 0 455 -161q98 -88 156.5 -232t58.5 -330q0 -160 -47.5 -299.5t-134.5 -232.5q-78 -83 -199.5 -136.5t-288.5 -53.5q-282 0 -455 165q-215 203 -215 557q0 384 242 582q171 141 428 141zM731 1118q-108 0 -164 -114q-47 -94 -47 -293q0 -205 47 -299
q55 -117 164 -117t164 117q47 94 47 299q0 199 -47 293q-56 114 -164 114zM641 1808v-268h-285v268h285zM1106 1808v-268h-285v268h285z" />
    <glyph glyph-name="multiply" unicode="&#xd7;" 
d="M631 373l-307 -307l-218 217l308 307l-308 307l218 217l307 -307l307 307l217 -217l-307 -307l307 -307l-217 -217z" />
    <glyph glyph-name="Oslash" unicode="&#xd8;" horiz-adv-x="1462" 
d="M1110 1556h217l-162 -276q116 -88 176 -247t60 -331q0 -160 -47.5 -299.5t-134.5 -232.5q-83 -90 -209.5 -140t-278.5 -50q-168 0 -305 61l-98 -160h-217l157 273q-65 65 -108.5 138.5t-63.5 147.5t-27.5 134t-7.5 128q0 386 242 582q173 141 428 141q139 0 266 -47z
M526 588l299 502q-36 28 -94 28q-211 0 -211 -407q0 -41 6 -123zM930 883l-320 -535q41 -53 121 -53q211 0 211 416q0 82 -12 172z" />
    <glyph glyph-name="Ugrave" unicode="&#xd9;" horiz-adv-x="1384" 
d="M125 1405h430v-899q0 -59 7.5 -97t35.5 -67q45 -47 133 -47t133 47q28 29 35.5 67t7.5 97v899h353v-903q0 -48 -1 -75.5t-9 -79t-23 -88t-45 -81t-74 -80.5q-145 -118 -399 -118q-268 0 -424 112q-52 38 -86 85t-49 100.5t-20 98t-5 103.5v926zM418 1866l475 -201
l-53 -139l-492 139z" />
    <glyph glyph-name="Uacute" unicode="&#xda;" horiz-adv-x="1384" 
d="M125 1405h430v-899q0 -59 7.5 -97t35.5 -67q45 -47 133 -47t133 47q28 29 35.5 67t7.5 97v899h353v-903q0 -48 -1 -75.5t-9 -79t-23 -88t-45 -81t-74 -80.5q-145 -118 -399 -118q-268 0 -424 112q-52 38 -86 85t-49 100.5t-20 98t-5 103.5v926zM967 1866l69 -201
l-491 -139l-53 139z" />
    <glyph glyph-name="Ucircumflex" unicode="&#xdb;" horiz-adv-x="1384" 
d="M125 1405h430v-899q0 -59 7.5 -97t35.5 -67q45 -47 133 -47t133 47q28 29 35.5 67t7.5 97v899h353v-903q0 -48 -1 -75.5t-9 -79t-23 -88t-45 -81t-74 -80.5q-145 -118 -399 -118q-268 0 -424 112q-52 38 -86 85t-49 100.5t-20 98t-5 103.5v926zM692 1661l-168 -121h-254
l422 334l422 -334h-254z" />
    <glyph glyph-name="Udieresis" unicode="&#xdc;" horiz-adv-x="1384" 
d="M125 1405h430v-899q0 -59 7.5 -97t35.5 -67q45 -47 133 -47t133 47q28 29 35.5 67t7.5 97v899h353v-903q0 -48 -1 -75.5t-9 -79t-23 -88t-45 -81t-74 -80.5q-145 -118 -399 -118q-268 0 -424 112q-52 38 -86 85t-49 100.5t-20 98t-5 103.5v926zM623 1808v-268h-285v268
h285zM1087 1808v-268h-284v268h284z" />
    <glyph glyph-name="Yacute" unicode="&#xdd;" horiz-adv-x="1253" 
d="M1296 1405l-442 -811v-594h-430v594l-467 811h475l244 -463l244 463h376zM901 1866l70 -201l-492 -139l-53 139z" />
    <glyph glyph-name="Thorn" unicode="&#xde;" horiz-adv-x="1374" 
d="M125 1405h430v-252h135q71 0 105.5 -1t98 -7t114 -22t96.5 -42q209 -118 209 -370q0 -137 -66 -244q-36 -57 -85.5 -97.5t-96.5 -62t-107 -33.5t-102.5 -15t-97.5 -3h-203v-256h-430v1405zM555 846v-275h160q84 0 127 39q41 41 41 97q0 58 -35 96q-43 43 -133 43h-160z
" />
    <glyph glyph-name="germandbls" unicode="&#xdf;" horiz-adv-x="1376" 
d="M45 657v244h76q3 173 88 299q152 225 498 225q51 0 89.5 -3t98 -14t114.5 -39.5t99 -72.5q76 -79 76 -184q0 -72 -39 -137.5t-109 -104.5q-42 -23 -90.5 -31.5t-73 -10.5t-24.5 -13q0 -13 127 -55q156 -60 227 -119q137 -110 137 -270q0 -55 -15.5 -105t-41 -86.5
t-46 -59t-42.5 -40.5q-126 -100 -348 -100q-155 0 -252 34l90 273q66 -37 119 -37q37 0 63.5 10.5t38.5 28t16.5 34t4.5 33.5q0 40 -31 82t-80 68l-117 63q-114 62 -114 162q0 25 30 95t52 92q9 11 41 20q16 4 22 4q40 6 41 6q47 17 47 80q0 50 -20 78q-34 49 -101 49
q-84 0 -127 -53t-43 -148v-954h-405v657h-76z" />
    <glyph glyph-name="agrave" unicode="&#xe0;" horiz-adv-x="1239" 
d="M461 707l-373 34q39 158 172 244q77 51 170.5 67.5t206.5 16.5q59 0 106.5 -3t103.5 -14.5t98.5 -30.5t82 -53t64.5 -81q19 -36 28.5 -83t11 -78t1.5 -87v-410q0 -128 30 -229h-385q-14 63 -14 145q-107 -165 -342 -165q-97 0 -171.5 28t-116 74t-61.5 97t-20 106
q0 72 30.5 139t88.5 113q140 111 496 139l75 6v16q0 64 -24 90q-27 31 -101 31q-140 0 -157 -112zM743 492l-63 -11q-106 -17 -156 -53q-57 -41 -57 -106q0 -41 29.5 -67t83.5 -26q44 0 76 14.5t48 34.5t25.5 50.5t11.5 52.5t2 51v60zM373 1550l475 -200l-53 -131l-492 131z
" />
    <glyph glyph-name="aacute" unicode="&#xe1;" horiz-adv-x="1239" 
d="M461 707l-373 34q39 158 172 244q77 51 170.5 67.5t206.5 16.5q59 0 106.5 -3t103.5 -14.5t98.5 -30.5t82 -53t64.5 -81q19 -36 28.5 -83t11 -78t1.5 -87v-410q0 -128 30 -229h-385q-14 63 -14 145q-107 -165 -342 -165q-97 0 -171.5 28t-116 74t-61.5 97t-20 106
q0 72 30.5 139t88.5 113q140 111 496 139l75 6v16q0 64 -24 90q-27 31 -101 31q-140 0 -157 -112zM743 492l-63 -11q-106 -17 -156 -53q-57 -41 -57 -106q0 -41 29.5 -67t83.5 -26q44 0 76 14.5t48 34.5t25.5 50.5t11.5 52.5t2 51v60zM864 1559l70 -201l-492 -139l-53 139z
" />
    <glyph glyph-name="acircumflex" unicode="&#xe2;" horiz-adv-x="1239" 
d="M461 707l-373 34q39 158 172 244q77 51 170.5 67.5t206.5 16.5q59 0 106.5 -3t103.5 -14.5t98.5 -30.5t82 -53t64.5 -81q19 -36 28.5 -83t11 -78t1.5 -87v-410q0 -128 30 -229h-385q-14 63 -14 145q-107 -165 -342 -165q-97 0 -171.5 28t-116 74t-61.5 97t-20 106
q0 72 30.5 139t88.5 113q140 111 496 139l75 6v16q0 64 -24 90q-27 31 -101 31q-140 0 -157 -112zM743 492l-63 -11q-106 -17 -156 -53q-57 -41 -57 -106q0 -41 29.5 -67t83.5 -26q44 0 76 14.5t48 34.5t25.5 50.5t11.5 52.5t2 51v60zM618 1360l-167 -121h-254l421 334
l422 -334h-254z" />
    <glyph glyph-name="atilde" unicode="&#xe3;" horiz-adv-x="1239" 
d="M461 707l-373 34q39 158 172 244q77 51 170.5 67.5t206.5 16.5q59 0 106.5 -3t103.5 -14.5t98.5 -30.5t82 -53t64.5 -81q19 -36 28.5 -83t11 -78t1.5 -87v-410q0 -128 30 -229h-385q-14 63 -14 145q-107 -165 -342 -165q-97 0 -171.5 28t-116 74t-61.5 97t-20 106
q0 72 30.5 139t88.5 113q140 111 496 139l75 6v16q0 64 -24 90q-27 31 -101 31q-140 0 -157 -112zM743 492l-63 -11q-106 -17 -156 -53q-57 -41 -57 -106q0 -41 29.5 -67t83.5 -26q44 0 76 14.5t48 34.5t25.5 50.5t11.5 52.5t2 51v60zM342 1219l-100 131q145 116 245 116
q45 0 97 -20q15 -6 48 -19t46.5 -17.5t34 -9.5t35.5 -5q18 0 37.5 7.5t30 14.5t28.5 20.5t20 14.5l29 23l104 -125q-130 -127 -260 -127q-41 0 -90 18q-21 8 -57 24.5t-58 22.5t-49 6q-55 0 -127 -63z" />
    <glyph glyph-name="adieresis" unicode="&#xe4;" horiz-adv-x="1239" 
d="M461 707l-373 34q39 158 172 244q77 51 170.5 67.5t206.5 16.5q59 0 106.5 -3t103.5 -14.5t98.5 -30.5t82 -53t64.5 -81q19 -36 28.5 -83t11 -78t1.5 -87v-410q0 -128 30 -229h-385q-14 63 -14 145q-107 -165 -342 -165q-97 0 -171.5 28t-116 74t-61.5 97t-20 106
q0 72 30.5 139t88.5 113q140 111 496 139l75 6v16q0 64 -24 90q-27 31 -101 31q-140 0 -157 -112zM743 492l-63 -11q-106 -17 -156 -53q-57 -41 -57 -106q0 -41 29.5 -67t83.5 -26q44 0 76 14.5t48 34.5t25.5 50.5t11.5 52.5t2 51v60zM532 1495v-256h-272v256h272zM977 1495
v-256h-272v256h272z" />
    <glyph glyph-name="aring" unicode="&#xe5;" horiz-adv-x="1239" 
d="M461 707l-373 34q39 158 172 244q77 51 170.5 67.5t206.5 16.5q59 0 106.5 -3t103.5 -14.5t98.5 -30.5t82 -53t64.5 -81q19 -36 28.5 -83t11 -78t1.5 -87v-410q0 -128 30 -229h-385q-14 63 -14 145q-107 -165 -342 -165q-97 0 -171.5 28t-116 74t-61.5 97t-20 106
q0 72 30.5 139t88.5 113q140 111 496 139l75 6v16q0 64 -24 90q-27 31 -101 31q-140 0 -157 -112zM743 492l-63 -11q-106 -17 -156 -53q-57 -41 -57 -106q0 -41 29.5 -67t83.5 -26q44 0 76 14.5t48 34.5t25.5 50.5t11.5 52.5t2 51v60zM414 1423q0 86 59 145.5t145 59.5
t145.5 -59.5t59.5 -145.5t-59.5 -145t-145.5 -59t-145 59t-59 145zM549 1423q0 -28 20.5 -48.5t48.5 -20.5t49 20.5t21 48.5t-21 49t-49 21t-48.5 -21t-20.5 -49z" />
    <glyph glyph-name="ae" unicode="&#xe6;" horiz-adv-x="1689" 
d="M424 705l-346 34q28 123 110 205q129 125 392 125q83 0 149 -15.5t129 -58.5q108 74 264 74q51 0 101.5 -9.5t114 -34t122.5 -78.5t101 -132q65 -121 61 -291l-2 -90h-625v-33q0 -59 27 -106q18 -29 49.5 -47.5t69.5 -18.5q55 0 95 38t52 100l348 -25q-27 -119 -106 -205
q-67 -71 -171 -114t-233 -43q-116 0 -206 38q-104 41 -177 138q-62 -91 -157.5 -133.5t-198.5 -42.5q-85 0 -151.5 27.5t-105 73t-58 98.5t-19.5 110q0 201 191 301q155 79 389 92l37 2v14q0 66 -27 93q-28 28 -84 28q-37 0 -70 -16q-57 -29 -65 -98zM995 639h265v35
q0 53 -33 98q-38 47 -99 47q-71 0 -108 -57q-25 -35 -25 -100v-23zM670 494l-45 -11q-57 -13 -103 -37q-80 -45 -80 -133q0 -25 8.5 -43t20 -27t26.5 -13.5t23.5 -5.5t16.5 -1q74 0 110 70q23 51 23 137v64z" />
    <glyph glyph-name="ccedilla" unicode="&#xe7;" horiz-adv-x="1101" 
d="M1077 653l-358 -28q0 35 -8.5 77.5t-22.5 65.5q-29 51 -92 51q-62 0 -96 -57q-17 -29 -23 -80t-6 -156q0 -165 31 -229q35 -68 100 -68q60 0 92 56q24 44 29 137l358 -29q-9 -93 -51.5 -172.5t-107.5 -134.5q-113 -91 -256 -102l-27 -82q8 2 27 2q71 0 112 -41
q43 -40 43 -111q0 -82 -61 -127t-144 -45q-110 0 -227 70l37 84q80 -45 147 -45q43 0 61.5 18t18.5 41q0 43 -43 64q-31 16 -86 16q-20 0 -30 -2l55 154q-198 5 -340 143q-152 148 -152 397q0 127 39 229t105 171q145 149 383 149q221 0 338 -102q60 -50 103 -133t52 -181z
" />
    <glyph glyph-name="egrave" unicode="&#xe8;" horiz-adv-x="1228" 
d="M788 367l377 -25q-34 -159 -172 -258q-145 -104 -377 -104q-116 0 -213.5 29.5t-183.5 111.5q-162 154 -162 403q0 147 53 251t130 169q148 125 387 125q244 0 395 -158q149 -155 149 -413v-64h-700q-3 -85 37 -141q46 -64 129 -64q70 0 111 41q37 37 40 97zM471 639h299
q7 83 -37 133q-38 47 -106 47t-111 -47q-48 -51 -45 -133zM369 1550l475 -200l-53 -131l-492 131z" />
    <glyph glyph-name="eacute" unicode="&#xe9;" horiz-adv-x="1228" 
d="M788 367l377 -25q-34 -159 -172 -258q-145 -104 -377 -104q-116 0 -213.5 29.5t-183.5 111.5q-162 154 -162 403q0 147 53 251t130 169q148 125 387 125q244 0 395 -158q149 -155 149 -413v-64h-700q-3 -85 37 -141q46 -64 129 -64q70 0 111 41q37 37 40 97zM471 639h299
q7 83 -37 133q-38 47 -106 47t-111 -47q-48 -51 -45 -133zM860 1559l70 -201l-492 -139l-53 139z" />
    <glyph glyph-name="ecircumflex" unicode="&#xea;" horiz-adv-x="1228" 
d="M788 367l377 -25q-34 -159 -172 -258q-145 -104 -377 -104q-116 0 -213.5 29.5t-183.5 111.5q-162 154 -162 403q0 147 53 251t130 169q148 125 387 125q244 0 395 -158q149 -155 149 -413v-64h-700q-3 -85 37 -141q46 -64 129 -64q70 0 111 41q37 37 40 97zM471 639h299
q7 83 -37 133q-38 47 -106 47t-111 -47q-48 -51 -45 -133zM614 1360l-168 -121h-253l421 334l422 -334h-254z" />
    <glyph glyph-name="edieresis" unicode="&#xeb;" horiz-adv-x="1228" 
d="M788 367l377 -25q-34 -159 -172 -258q-145 -104 -377 -104q-116 0 -213.5 29.5t-183.5 111.5q-162 154 -162 403q0 147 53 251t130 169q148 125 387 125q244 0 395 -158q149 -155 149 -413v-64h-700q-3 -85 37 -141q46 -64 129 -64q70 0 111 41q37 37 40 97zM471 639h299
q7 83 -37 133q-38 47 -106 47t-111 -47q-48 -51 -45 -133zM528 1495v-256h-272v256h272zM973 1495v-256h-273v256h273z" />
    <glyph glyph-name="igrave" unicode="&#xec;" horiz-adv-x="626" 
d="M516 1049v-1049h-405v1049h405zM68 1550l475 -200l-54 -131l-491 131z" />
    <glyph glyph-name="iacute" unicode="&#xed;" horiz-adv-x="626" 
d="M516 1049v-1049h-405v1049h405zM559 1559l70 -201l-492 -139l-53 139z" />
    <glyph glyph-name="icircumflex" unicode="&#xee;" horiz-adv-x="626" 
d="M516 1049v-1049h-405v1049h405zM313 1360l-168 -121h-254l422 334l422 -334h-254z" />
    <glyph glyph-name="idieresis" unicode="&#xef;" horiz-adv-x="626" 
d="M516 1049v-1049h-405v1049h405zM227 1495v-256h-272v256h272zM672 1495v-256h-273v256h273z" />
    <glyph glyph-name="eth" unicode="&#xf0;" horiz-adv-x="1216" 
d="M317 1231l156 69q-88 55 -182 72l90 127q165 -24 317 -100l222 98l67 -131l-147 -63q66 -56 120 -124.5t100.5 -159.5t72.5 -210t26 -254q0 -269 -148.5 -422t-389.5 -153q-268 0 -424 176q-140 158 -140 376q0 109 48 208t128 169q147 129 357 129q75 0 137 -22
q-20 45 -60.5 99t-80.5 85l-207 -94zM608 791q-71 0 -104 -72q-33 -68 -33 -209t33 -209q33 -72 104 -72q72 0 105 72q32 66 32 209t-32 209q-33 72 -105 72z" />
    <glyph glyph-name="ntilde" unicode="&#xf1;" horiz-adv-x="1241" 
d="M516 0h-405v1049h376v-148h5q98 168 303 168q139 0 227 -65q108 -83 108 -248v-756h-405v678q0 27 -1 41t-9 33t-23 34q-24 21 -57 21q-53 0 -84 -35q-35 -39 -35 -129v-643zM342 1219l-100 131q145 116 245 116q45 0 97 -20q15 -6 48 -19t46.5 -17.5t34 -9.5t35.5 -5
q18 0 37.5 7.5t30 14.5t28.5 20.5t20 14.5l29 23l104 -125q-130 -127 -260 -127q-41 0 -90 18q-21 8 -57 24.5t-58 22.5t-49 6q-55 0 -127 -63z" />
    <glyph glyph-name="ograve" unicode="&#xf2;" horiz-adv-x="1220" 
d="M610 1069q231 0 383 -141q82 -75 126 -182t44 -222t-44 -221.5t-126 -181.5q-152 -141 -383 -141t-383 141q-82 75 -126 181.5t-44 221.5t44 222t126 182q152 141 383 141zM610 229q75 0 111 76q18 35 23.5 83.5t5.5 135.5t-5.5 135.5t-23.5 83.5q-37 76 -111 76
q-73 0 -110 -76q-18 -35 -23.5 -83.5t-5.5 -135.5q0 -158 29 -219q37 -76 110 -76zM365 1550l475 -200l-54 -131l-491 131z" />
    <glyph glyph-name="oacute" unicode="&#xf3;" horiz-adv-x="1220" 
d="M610 1069q231 0 383 -141q82 -75 126 -182t44 -222t-44 -221.5t-126 -181.5q-152 -141 -383 -141t-383 141q-82 75 -126 181.5t-44 221.5t44 222t126 182q152 141 383 141zM610 229q75 0 111 76q18 35 23.5 83.5t5.5 135.5t-5.5 135.5t-23.5 83.5q-37 76 -111 76
q-73 0 -110 -76q-18 -35 -23.5 -83.5t-5.5 -135.5q0 -158 29 -219q37 -76 110 -76zM856 1559l70 -201l-492 -139l-53 139z" />
    <glyph glyph-name="ocircumflex" unicode="&#xf4;" horiz-adv-x="1220" 
d="M610 1069q231 0 383 -141q82 -75 126 -182t44 -222t-44 -221.5t-126 -181.5q-152 -141 -383 -141t-383 141q-82 75 -126 181.5t-44 221.5t44 222t126 182q152 141 383 141zM610 229q75 0 111 76q18 35 23.5 83.5t5.5 135.5t-5.5 135.5t-23.5 83.5q-37 76 -111 76
q-73 0 -110 -76q-18 -35 -23.5 -83.5t-5.5 -135.5q0 -158 29 -219q37 -76 110 -76zM610 1360l-168 -121h-254l422 334l422 -334h-254z" />
    <glyph glyph-name="otilde" unicode="&#xf5;" horiz-adv-x="1220" 
d="M610 1069q231 0 383 -141q82 -75 126 -182t44 -222t-44 -221.5t-126 -181.5q-152 -141 -383 -141t-383 141q-82 75 -126 181.5t-44 221.5t44 222t126 182q152 141 383 141zM610 229q75 0 111 76q18 35 23.5 83.5t5.5 135.5t-5.5 135.5t-23.5 83.5q-37 76 -111 76
q-73 0 -110 -76q-18 -35 -23.5 -83.5t-5.5 -135.5q0 -158 29 -219q37 -76 110 -76zM332 1219l-101 131q145 116 246 116q44 0 96 -20q15 -6 48 -19t46.5 -17.5t34 -9.5t35.5 -5q18 0 37.5 7.5t30.5 14t29.5 20.5t19.5 15l29 23l104 -125q-130 -127 -260 -127q-41 0 -90 18
q-21 8 -57 24.5t-58 22.5t-49 6q-55 0 -127 -63z" />
    <glyph glyph-name="odieresis" unicode="&#xf6;" horiz-adv-x="1220" 
d="M610 1069q231 0 383 -141q82 -75 126 -182t44 -222t-44 -221.5t-126 -181.5q-152 -141 -383 -141t-383 141q-82 75 -126 181.5t-44 221.5t44 222t126 182q152 141 383 141zM610 229q75 0 111 76q18 35 23.5 83.5t5.5 135.5t-5.5 135.5t-23.5 83.5q-37 76 -111 76
q-73 0 -110 -76q-18 -35 -23.5 -83.5t-5.5 -135.5q0 -158 29 -219q37 -76 110 -76zM524 1495v-256h-272v256h272zM969 1495v-256h-273v256h273z" />
    <glyph glyph-name="divide" unicode="&#xf7;" 
d="M106 406v307h1049v-307h-1049zM791 307v-307h-318v307h318zM791 1118v-307h-318v307h318z" />
    <glyph glyph-name="oslash" unicode="&#xf8;" 
d="M934 1165h192l-131 -217q96 -83 144.5 -195.5t48.5 -228.5q0 -100 -34.5 -195t-100.5 -174t-174.5 -127t-243.5 -48q-134 0 -219 43l-76 -136h-193l132 211q-90 70 -143.5 184t-53.5 242q0 73 19 146.5t63 146t106.5 128t157 90t207.5 34.5q112 0 213 -37zM496 457
l209 340q-28 22 -70 22q-32 0 -56.5 -12.5t-39 -37.5t-24 -51t-13.5 -64t-5 -65t-1 -65v-67zM774 588l-209 -338q27 -21 70 -21q73 0 104.5 64t34.5 231v64z" />
    <glyph glyph-name="ugrave" unicode="&#xf9;" horiz-adv-x="1241" 
d="M1130 1049v-1049h-376v172h-4q-23 -53 -60 -91.5t-70.5 -57t-74 -29t-61.5 -12.5t-42 -2q-123 0 -202 53q-77 51 -103 125.5t-26 167.5v723h405v-621q0 -88 23 -119q27 -35 73 -35q51 0 80 37q33 40 33 115v623h405zM375 1550l475 -200l-53 -131l-492 131z" />
    <glyph glyph-name="uacute" unicode="&#xfa;" horiz-adv-x="1241" 
d="M1130 1049v-1049h-376v172h-4q-23 -53 -60 -91.5t-70.5 -57t-74 -29t-61.5 -12.5t-42 -2q-123 0 -202 53q-77 51 -103 125.5t-26 167.5v723h405v-621q0 -88 23 -119q27 -35 73 -35q51 0 80 37q33 40 33 115v623h405zM866 1559l70 -201l-492 -139l-53 139z" />
    <glyph glyph-name="ucircumflex" unicode="&#xfb;" horiz-adv-x="1241" 
d="M1130 1049v-1049h-376v172h-4q-23 -53 -60 -91.5t-70.5 -57t-74 -29t-61.5 -12.5t-42 -2q-123 0 -202 53q-77 51 -103 125.5t-26 167.5v723h405v-621q0 -88 23 -119q27 -35 73 -35q51 0 80 37q33 40 33 115v623h405zM621 1360l-168 -121h-254l422 334l421 -334h-254z" />
    <glyph glyph-name="udieresis" unicode="&#xfc;" horiz-adv-x="1241" 
d="M1130 1049v-1049h-376v172h-4q-23 -53 -60 -91.5t-70.5 -57t-74 -29t-61.5 -12.5t-42 -2q-123 0 -202 53q-77 51 -103 125.5t-26 167.5v723h405v-621q0 -88 23 -119q27 -35 73 -35q51 0 80 37q33 40 33 115v623h405zM535 1495v-256h-273v256h273zM979 1495v-256h-272v256
h272z" />
    <glyph glyph-name="yacute" unicode="&#xfd;" horiz-adv-x="1077" 
d="M1085 1049l-403 -1112q-20 -52 -34.5 -83.5t-45 -73.5t-70.5 -73q-61 -46 -127.5 -61t-146.5 -15q-114 0 -199 17v295q84 -17 166 -17q94 0 129 23q27 19 29 43l2 18l-393 1039h440l172 -560l182 560h299zM784 1559l70 -201l-492 -139l-53 139z" />
    <glyph glyph-name="thorn" unicode="&#xfe;" horiz-adv-x="1241" 
d="M111 1405h376v-508h5q45 82 129 127t188 45q169 0 272 -141q103 -143 103 -393q0 -259 -109 -406q-111 -149 -289 -149q-46 0 -92.5 10.5t-96 42t-77.5 80.5h-4v-445h-405v1737zM516 649v-229q0 -93 23 -135q35 -56 92 -56q78 0 114 88q25 62 25 209q0 142 -29 205
q-36 76 -110 76q-47 0 -78 -31q-37 -37 -37 -127z" />
    <glyph glyph-name="ydieresis" unicode="&#xff;" horiz-adv-x="1077" 
d="M1085 1049l-403 -1112q-20 -52 -34.5 -83.5t-45 -73.5t-70.5 -73q-61 -46 -127.5 -61t-146.5 -15q-114 0 -199 17v295q84 -17 166 -17q94 0 129 23q27 19 29 43l2 18l-393 1039h440l172 -560l182 560h299zM475 1495v-256h-272v256h272zM920 1495v-256h-273v256h273z" />
    <glyph glyph-name="Amacron" unicode="&#x100;" horiz-adv-x="1339" 
d="M891 1405l440 -1405h-442l-78 279h-375l-84 -279h-352l436 1405h455zM737 582l-114 409l-115 -409h229zM995 1710v-170h-651v170h651z" />
    <glyph glyph-name="amacron" unicode="&#x101;" horiz-adv-x="1239" 
d="M461 707l-373 34q39 158 172 244q77 51 170.5 67.5t206.5 16.5q59 0 106.5 -3t103.5 -14.5t98.5 -30.5t82 -53t64.5 -81q19 -36 28.5 -83t11 -78t1.5 -87v-410q0 -128 30 -229h-385q-14 63 -14 145q-107 -165 -342 -165q-97 0 -171.5 28t-116 74t-61.5 97t-20 106
q0 72 30.5 139t88.5 113q140 111 496 139l75 6v16q0 64 -24 90q-27 31 -101 31q-140 0 -157 -112zM743 492l-63 -11q-106 -17 -156 -53q-57 -41 -57 -106q0 -41 29.5 -67t83.5 -26q44 0 76 14.5t48 34.5t25.5 50.5t11.5 52.5t2 51v60zM944 1411v-151h-651v151h651z" />
    <glyph glyph-name="Abreve" unicode="&#x102;" horiz-adv-x="1339" 
d="M891 1405l440 -1405h-442l-78 279h-375l-84 -279h-352l436 1405h455zM737 582l-114 409l-115 -409h229zM854 1833h184q-18 -118 -98 -201q-100 -106 -270 -106q-171 0 -271 106q-80 83 -98 201h184q17 -55 58 -88q51 -43 127 -43t127 43q40 32 57 88z" />
    <glyph glyph-name="abreve" unicode="&#x103;" horiz-adv-x="1239" 
d="M461 707l-373 34q39 158 172 244q77 51 170.5 67.5t206.5 16.5q59 0 106.5 -3t103.5 -14.5t98.5 -30.5t82 -53t64.5 -81q19 -36 28.5 -83t11 -78t1.5 -87v-410q0 -128 30 -229h-385q-14 63 -14 145q-107 -165 -342 -165q-97 0 -171.5 28t-116 74t-61.5 97t-20 106
q0 72 30.5 139t88.5 113q140 111 496 139l75 6v16q0 64 -24 90q-27 31 -101 31q-140 0 -157 -112zM743 492l-63 -11q-106 -17 -156 -53q-57 -41 -57 -106q0 -41 29.5 -67t83.5 -26q44 0 76 14.5t48 34.5t25.5 50.5t11.5 52.5t2 51v60zM809 1542h182q-26 -125 -106 -211
q-103 -112 -267 -112q-163 0 -266 112q-80 86 -106 211h182q21 -58 66 -100q50 -47 124 -47q75 0 125 47q45 42 66 100z" />
    <glyph glyph-name="Aogonek" unicode="&#x104;" horiz-adv-x="1339" 
d="M891 1405l440 -1405q-15 -8 -29.5 -17.5t-22.5 -16.5t-9 -7q-35 -31 -35 -63q0 -28 19 -49t65 -21q62 0 143 29l27 -99q-113 -49 -238 -49q-100 0 -149 35q-55 38 -55 106q0 56 49 105q25 25 61 47h-268l-78 279h-375l-84 -279h-352l436 1405h455zM737 582l-114 409
l-115 -409h229z" />
    <glyph glyph-name="aogonek" unicode="&#x105;" horiz-adv-x="1239" 
d="M461 707l-373 34q39 158 172 244q77 51 170.5 67.5t206.5 16.5q59 0 106.5 -3t103.5 -14.5t98.5 -30.5t82 -53t64.5 -81q19 -36 28.5 -83t11 -78t1.5 -87v-410q0 -128 30 -229q-24 -13 -63 -47q-33 -33 -33 -68q0 -69 90 -69q54 0 137 28l27 -88q-98 -49 -213 -49
q-88 0 -141 35q-58 36 -58 106q0 50 43 99q34 34 68 53h-242q-14 63 -14 145q-107 -165 -342 -165q-97 0 -171.5 28t-116 74t-61.5 97t-20 106q0 72 30.5 139t88.5 113q140 111 496 139l75 6v16q0 64 -24 90q-27 31 -101 31q-140 0 -157 -112zM743 492l-63 -11
q-106 -17 -156 -53q-57 -41 -57 -106q0 -41 29.5 -67t83.5 -26q44 0 76 14.5t48 34.5t25.5 50.5t11.5 52.5t2 51v60z" />
    <glyph glyph-name="Cacute" unicode="&#x106;" horiz-adv-x="1355" 
d="M1319 870l-401 -20q-1 64 -14 113.5t-32.5 77t-46 45t-49.5 23t-47 5.5q-209 0 -209 -414q0 -100 7.5 -164t31.5 -118q54 -123 170 -123q105 0 158 98q39 73 39 148l393 -25q-16 -227 -170 -377q-162 -159 -432 -159q-98 0 -184 21.5t-145.5 54t-109.5 78t-80.5 87
t-54.5 88.5q-82 160 -82 381q0 383 230 586q171 149 426 149q279 0 442 -165q66 -66 111.5 -165.5t48.5 -224.5zM952 1866l70 -201l-492 -139l-53 139z" />
    <glyph glyph-name="cacute" unicode="&#x107;" horiz-adv-x="1101" 
d="M1077 653l-358 -28q0 35 -8.5 77.5t-22.5 65.5q-29 51 -92 51q-62 0 -96 -57q-17 -29 -23 -80t-6 -156q0 -165 31 -229q35 -68 100 -68q60 0 92 56q24 44 29 137l358 -29q-9 -93 -51.5 -172.5t-107.5 -134.5q-128 -106 -336 -106q-232 0 -377 143q-152 148 -152 397
q0 127 39 229t105 171q145 149 383 149q221 0 338 -102q60 -50 103 -133t52 -181zM797 1559l69 -201l-491 -139l-53 139z" />
    <glyph glyph-name="Ccircumflex" unicode="&#x108;" horiz-adv-x="1355" 
d="M1319 870l-401 -20q-1 64 -14 113.5t-32.5 77t-46 45t-49.5 23t-47 5.5q-209 0 -209 -414q0 -100 7.5 -164t31.5 -118q54 -123 170 -123q105 0 158 98q39 73 39 148l393 -25q-16 -227 -170 -377q-162 -159 -432 -159q-98 0 -184 21.5t-145.5 54t-109.5 78t-80.5 87
t-54.5 88.5q-82 160 -82 381q0 383 230 586q171 149 426 149q279 0 442 -165q66 -66 111.5 -165.5t48.5 -224.5zM678 1661l-168 -121h-254l422 334l422 -334h-254z" />
    <glyph glyph-name="ccircumflex" unicode="&#x109;" horiz-adv-x="1101" 
d="M1077 653l-358 -28q0 35 -8.5 77.5t-22.5 65.5q-29 51 -92 51q-62 0 -96 -57q-17 -29 -23 -80t-6 -156q0 -165 31 -229q35 -68 100 -68q60 0 92 56q24 44 29 137l358 -29q-9 -93 -51.5 -172.5t-107.5 -134.5q-128 -106 -336 -106q-232 0 -377 143q-152 148 -152 397
q0 127 39 229t105 171q145 149 383 149q221 0 338 -102q60 -50 103 -133t52 -181zM551 1360l-168 -121h-254l422 334l422 -334h-254z" />
    <glyph glyph-name="Cdotaccent" unicode="&#x10a;" horiz-adv-x="1355" 
d="M1319 870l-401 -20q-1 64 -14 113.5t-32.5 77t-46 45t-49.5 23t-47 5.5q-209 0 -209 -414q0 -100 7.5 -164t31.5 -118q54 -123 170 -123q105 0 158 98q39 73 39 148l393 -25q-16 -227 -170 -377q-162 -159 -432 -159q-98 0 -184 21.5t-145.5 54t-109.5 78t-80.5 87
t-54.5 88.5q-82 160 -82 381q0 383 230 586q171 149 426 149q279 0 442 -165q66 -66 111.5 -165.5t48.5 -224.5zM836 1810v-270h-287v270h287z" />
    <glyph glyph-name="cdotaccent" unicode="&#x10b;" horiz-adv-x="1101" 
d="M1077 653l-358 -28q0 35 -8.5 77.5t-22.5 65.5q-29 51 -92 51q-62 0 -96 -57q-17 -29 -23 -80t-6 -156q0 -165 31 -229q35 -68 100 -68q60 0 92 56q24 44 29 137l358 -29q-9 -93 -51.5 -172.5t-107.5 -134.5q-128 -106 -336 -106q-232 0 -377 143q-152 148 -152 397
q0 127 39 229t105 171q145 149 383 149q221 0 338 -102q60 -50 103 -133t52 -181zM713 1507v-268h-285v268h285z" />
    <glyph glyph-name="Ccaron" unicode="&#x10c;" horiz-adv-x="1355" 
d="M1319 870l-401 -20q-1 64 -14 113.5t-32.5 77t-46 45t-49.5 23t-47 5.5q-209 0 -209 -414q0 -100 7.5 -164t31.5 -118q54 -123 170 -123q105 0 158 98q39 73 39 148l393 -25q-16 -227 -170 -377q-162 -159 -432 -159q-98 0 -184 21.5t-145.5 54t-109.5 78t-80.5 87
t-54.5 88.5q-82 160 -82 381q0 383 230 586q171 149 426 149q279 0 442 -165q66 -66 111.5 -165.5t48.5 -224.5zM696 1741l168 119h254l-422 -334l-422 334h254z" />
    <glyph glyph-name="ccaron" unicode="&#x10d;" horiz-adv-x="1101" 
d="M1077 653l-358 -28q0 35 -8.5 77.5t-22.5 65.5q-29 51 -92 51q-62 0 -96 -57q-17 -29 -23 -80t-6 -156q0 -165 31 -229q35 -68 100 -68q60 0 92 56q24 44 29 137l358 -29q-9 -93 -51.5 -172.5t-107.5 -134.5q-128 -106 -336 -106q-232 0 -377 143q-152 148 -152 397
q0 127 39 229t105 171q145 149 383 149q221 0 338 -102q60 -50 103 -133t52 -181zM565 1434l168 118h254l-422 -333l-422 333h254z" />
    <glyph glyph-name="Dcaron" unicode="&#x10e;" horiz-adv-x="1431" 
d="M125 1405h518q72 0 131 -6t129 -22.5t136 -52t124 -89.5q101 -94 154 -233.5t53 -301.5q0 -155 -53.5 -287.5t-138.5 -222.5q-104 -109 -229 -149.5t-277 -40.5h-547v1405zM555 328h82q26 0 45.5 2.5t51 12.5t61 35.5t53.5 65.5q63 108 63 275q0 185 -75 280
q-27 34 -68 52.5t-72 22t-78 3.5h-63v-749zM662 1741l167 119h254l-421 -334l-422 334h254z" />
    <glyph glyph-name="dcaron" unicode="&#x10f;" horiz-adv-x="1556" 
d="M725 1405h405v-1405h-376v135h-4q-29 -63 -93 -104q-76 -51 -196 -51q-175 0 -287 149q-117 156 -117 406q0 244 115 393q61 77 134 109t169 32q100 0 166 -37q46 -25 84 -69v442zM725 412v237q0 84 -29 121q-30 37 -82 37q-76 0 -114 -78q-29 -60 -29 -194
q0 -153 27 -218q37 -88 112 -88q63 0 92 56q6 10 11 22.5t7 21t3.5 24t1.5 20v21.5v18zM1640 1407v-295l-192 -311h-162l141 278h-141v328h354z" />
    <glyph glyph-name="Dcroat" unicode="&#x110;" horiz-adv-x="1423" 
d="M117 1405h518q72 0 131 -6t129 -22.5t136 -52t124 -89.5q101 -94 154 -232t53 -298q0 -143 -50.5 -280t-142.5 -235q-104 -109 -228.5 -149.5t-276.5 -40.5h-547v549h-127v336h127v520zM547 1077v-192h164v-336h-164v-213h82q64 0 117 23t94 92q63 106 63 268
q0 96 -22 169t-54 111q-39 49 -91.5 63.5t-125.5 14.5h-63z" />
    <glyph glyph-name="dcroat" unicode="&#x111;" horiz-adv-x="1251" 
d="M1130 1405v-94h111v-183h-111v-1128h-376v135h-4q-30 -61 -95 -104q-77 -51 -180 -51q-189 0 -301 149q-117 156 -117 406q0 233 115 378q61 74 134.5 105t168.5 31q156 0 250 -107v186h-287v183h287v94h405zM725 412v217q0 79 -29 119q-30 38 -80 38q-77 0 -116 -71
q-29 -56 -29 -180q0 -150 27 -218q37 -88 112 -88q63 0 92 56q6 10 11 22.5t7 21t3.5 24t1.5 20v21.5v18z" />
    <glyph glyph-name="Emacron" unicode="&#x112;" horiz-adv-x="1232" 
d="M125 1405h1057v-328h-627v-209h504v-303h-504v-229h627v-336h-1057v1405zM942 1710v-170h-651v170h651z" />
    <glyph glyph-name="emacron" unicode="&#x113;" horiz-adv-x="1228" 
d="M788 367l377 -25q-34 -159 -172 -258q-145 -104 -377 -104q-116 0 -213.5 29.5t-183.5 111.5q-162 154 -162 403q0 147 53 251t130 169q148 125 387 125q244 0 395 -158q149 -155 149 -413v-64h-700q-3 -85 37 -141q46 -64 129 -64q70 0 111 41q37 37 40 97zM471 639h299
q7 83 -37 133q-38 47 -106 47t-111 -47q-48 -51 -45 -133zM940 1411v-151h-651v151h651z" />
    <glyph glyph-name="Edotaccent" unicode="&#x116;" horiz-adv-x="1232" 
d="M125 1405h1057v-328h-627v-209h504v-303h-504v-229h627v-336h-1057v1405zM760 1810v-270h-287v270h287z" />
    <glyph glyph-name="edotaccent" unicode="&#x117;" horiz-adv-x="1228" 
d="M788 367l377 -25q-34 -159 -172 -258q-145 -104 -377 -104q-116 0 -213.5 29.5t-183.5 111.5q-162 154 -162 403q0 147 53 251t130 169q148 125 387 125q244 0 395 -158q149 -155 149 -413v-64h-700q-3 -85 37 -141q46 -64 129 -64q70 0 111 41q37 37 40 97zM471 639h299
q7 83 -37 133q-38 47 -106 47t-111 -47q-48 -51 -45 -133zM756 1507v-268h-285v268h285z" />
    <glyph glyph-name="Eogonek" unicode="&#x118;" horiz-adv-x="1232" 
d="M125 1405h1057v-328h-627v-209h504v-303h-504v-229h627v-336h-299q-15 -8 -29.5 -17.5t-23 -16.5t-9.5 -7q-35 -31 -35 -63q0 -28 19 -49t65 -21q63 0 144 29l26 -99q-113 -49 -237 -49q-101 0 -150 35q-55 38 -55 106q0 56 49 105q24 24 62 47h-584v1405z" />
    <glyph glyph-name="eogonek" unicode="&#x119;" horiz-adv-x="1228" 
d="M788 367l377 -25q-32 -143 -135 -231q-88 -79 -213 -107q-36 -24 -63 -51q-33 -33 -33 -68q0 -69 90 -69q54 0 137 28l27 -88q-98 -49 -213 -49q-88 0 -141 35q-58 41 -58 106q0 62 43 99l39 33h-29q-120 2 -215.5 31t-181.5 110q-162 154 -162 403q0 147 53 251t130 169
q148 125 387 125q244 0 395 -158q149 -155 149 -413v-64h-700q-3 -85 37 -141q46 -64 129 -64q70 0 111 41q37 37 40 97zM471 639h299q7 83 -37 133q-38 47 -106 47t-111 -47q-48 -51 -45 -133z" />
    <glyph glyph-name="Ecaron" unicode="&#x11a;" horiz-adv-x="1232" 
d="M125 1405h1057v-328h-627v-209h504v-303h-504v-229h627v-336h-1057v1405zM616 1741l168 119h254l-422 -334l-421 334h254z" />
    <glyph glyph-name="ecaron" unicode="&#x11b;" horiz-adv-x="1228" 
d="M788 367l377 -25q-34 -159 -172 -258q-145 -104 -377 -104q-116 0 -213.5 29.5t-183.5 111.5q-162 154 -162 403q0 147 53 251t130 169q148 125 387 125q244 0 395 -158q149 -155 149 -413v-64h-700q-3 -85 37 -141q46 -64 129 -64q70 0 111 41q37 37 40 97zM471 639h299
q7 83 -37 133q-38 47 -106 47t-111 -47q-48 -51 -45 -133zM614 1434l168 118h254l-422 -333l-421 333h253z" />
    <glyph glyph-name="Gcircumflex" unicode="&#x11c;" horiz-adv-x="1443" 
d="M1335 786v-786h-211l-57 147q-65 -73 -127 -110q-93 -57 -254 -57q-124 0 -226.5 35t-191.5 120q-207 197 -207 545q0 377 205 573q178 172 461 172q273 0 430 -141q69 -61 116 -151t62 -195l-417 -43q-1 44 -16.5 88t-39.5 74q-48 61 -129 61q-121 0 -174 -125
q-39 -95 -39 -280q0 -229 55 -318q59 -100 170 -100q85 0 134 49q21 21 38 57.5t17 67.5v14h-232v303h633zM721 1661l-168 -121h-254l422 334l422 -334h-254z" />
    <glyph glyph-name="gcircumflex" unicode="&#x11d;" horiz-adv-x="1200" 
d="M1200 1284l-10 -280l-25 2q-50 4 -71 4q-83 0 -119 -41q60 -46 88.5 -110t28.5 -126q0 -40 -9.5 -78.5t-38.5 -83.5t-75.5 -78.5t-128 -56t-187.5 -22.5q-25 0 -76 2t-77 2q-80 0 -80 -53q0 -46 67 -46l310 -14q137 -4 200 -26q94 -33 150 -109q53 -75 53 -195
q0 -172 -162 -262q-134 -73 -452 -73q-287 0 -412 49q-172 65 -172 209q0 72 41.5 126t110.5 76q-97 61 -97 166q0 86 54 151.5t147 80.5v4q-80 22 -125 84.5t-45 152.5q0 39 8.5 74.5t28 74.5t56.5 70t89 57t131.5 40t178.5 14q132 0 215 -20q7 96 63 159q42 49 96 65.5
t125 16.5q33 0 95 -4zM590 606q13 0 25 1.5t32.5 9t35 20t25.5 38t11 60.5t-11 60.5t-25.5 38t-35 20t-32.5 9t-25 1.5t-25 -1.5t-32.5 -9t-35 -20t-25.5 -38t-11 -60.5t11 -60.5t25.5 -38t35 -20t32.5 -9t25 -1.5zM731 2l-287 12q-49 6 -75.5 -13.5t-26.5 -51.5
q0 -17 6.5 -31t20.5 -23.5t29 -17t38.5 -12t43 -7t49 -3.5t49 -1.5t49.5 -0.5h17q34 0 51 0.5t44 2.5t41 7t29.5 13.5t22 23t6.5 34.5q0 22 -9.5 36.5t-25.5 20.5t-32 8t-32 3h-8zM606 1470l-168 -120h-254l422 333l422 -333h-254z" />
    <glyph glyph-name="Gbreve" unicode="&#x11e;" horiz-adv-x="1443" 
d="M1335 786v-786h-211l-57 147q-65 -73 -127 -110q-93 -57 -254 -57q-124 0 -226.5 35t-191.5 120q-207 197 -207 545q0 377 205 573q178 172 461 172q273 0 430 -141q69 -61 116 -151t62 -195l-417 -43q-1 44 -16.5 88t-39.5 74q-48 61 -129 61q-121 0 -174 -125
q-39 -95 -39 -280q0 -229 55 -318q59 -100 170 -100q85 0 134 49q21 21 38 57.5t17 67.5v14h-232v303h633zM905 1833h185q-18 -117 -99 -201q-100 -106 -270 -106t-270 106q-81 84 -99 201h185q17 -56 57 -88q51 -43 127 -43t127 43q40 32 57 88z" />
    <glyph glyph-name="gbreve" unicode="&#x11f;" horiz-adv-x="1200" 
d="M1200 1284l-10 -280l-25 2q-50 4 -71 4q-83 0 -119 -41q60 -46 88.5 -110t28.5 -126q0 -40 -9.5 -78.5t-38.5 -83.5t-75.5 -78.5t-128 -56t-187.5 -22.5q-25 0 -76 2t-77 2q-80 0 -80 -53q0 -46 67 -46l310 -14q137 -4 200 -26q94 -33 150 -109q53 -75 53 -195
q0 -172 -162 -262q-134 -73 -452 -73q-287 0 -412 49q-172 65 -172 209q0 72 41.5 126t110.5 76q-97 61 -97 166q0 86 54 151.5t147 80.5v4q-80 22 -125 84.5t-45 152.5q0 39 8.5 74.5t28 74.5t56.5 70t89 57t131.5 40t178.5 14q132 0 215 -20q7 96 63 159q42 49 96 65.5
t125 16.5q33 0 95 -4zM590 606q13 0 25 1.5t32.5 9t35 20t25.5 38t11 60.5t-11 60.5t-25.5 38t-35 20t-32.5 9t-25 1.5t-25 -1.5t-32.5 -9t-35 -20t-25.5 -38t-11 -60.5t11 -60.5t25.5 -38t35 -20t32.5 -9t25 -1.5zM731 2l-287 12q-49 6 -75.5 -13.5t-26.5 -51.5
q0 -17 6.5 -31t20.5 -23.5t29 -17t38.5 -12t43 -7t49 -3.5t49 -1.5t49.5 -0.5h17q34 0 51 0.5t44 2.5t41 7t29.5 13.5t22 23t6.5 34.5q0 22 -9.5 36.5t-25.5 20.5t-32 8t-32 3h-8zM791 1542h182q-25 -123 -107 -211q-103 -112 -266 -112t-266 112q-82 88 -107 211h183
q21 -60 65 -100q50 -47 125 -47t125 47q45 42 66 100z" />
    <glyph glyph-name="Gdotaccent" unicode="&#x120;" horiz-adv-x="1443" 
d="M1335 786v-786h-211l-57 147q-65 -73 -127 -110q-93 -57 -254 -57q-124 0 -226.5 35t-191.5 120q-207 197 -207 545q0 377 205 573q178 172 461 172q273 0 430 -141q69 -61 116 -151t62 -195l-417 -43q-1 44 -16.5 88t-39.5 74q-48 61 -129 61q-121 0 -174 -125
q-39 -95 -39 -280q0 -229 55 -318q59 -100 170 -100q85 0 134 49q21 21 38 57.5t17 67.5v14h-232v303h633zM860 1810v-270h-287v270h287z" />
    <glyph glyph-name="gdotaccent" unicode="&#x121;" horiz-adv-x="1200" 
d="M1200 1284l-10 -280l-25 2q-50 4 -71 4q-83 0 -119 -41q60 -46 88.5 -110t28.5 -126q0 -40 -9.5 -78.5t-38.5 -83.5t-75.5 -78.5t-128 -56t-187.5 -22.5q-25 0 -76 2t-77 2q-80 0 -80 -53q0 -46 67 -46l310 -14q137 -4 200 -26q94 -33 150 -109q53 -75 53 -195
q0 -172 -162 -262q-134 -73 -452 -73q-287 0 -412 49q-172 65 -172 209q0 72 41.5 126t110.5 76q-97 61 -97 166q0 86 54 151.5t147 80.5v4q-80 22 -125 84.5t-45 152.5q0 39 8.5 74.5t28 74.5t56.5 70t89 57t131.5 40t178.5 14q132 0 215 -20q7 96 63 159q42 49 96 65.5
t125 16.5q33 0 95 -4zM590 606q13 0 25 1.5t32.5 9t35 20t25.5 38t11 60.5t-11 60.5t-25.5 38t-35 20t-32.5 9t-25 1.5t-25 -1.5t-32.5 -9t-35 -20t-25.5 -38t-11 -60.5t11 -60.5t25.5 -38t35 -20t32.5 -9t25 -1.5zM731 2l-287 12q-49 6 -75.5 -13.5t-26.5 -51.5
q0 -17 6.5 -31t20.5 -23.5t29 -17t38.5 -12t43 -7t49 -3.5t49 -1.5t49.5 -0.5h17q34 0 51 0.5t44 2.5t41 7t29.5 13.5t22 23t6.5 34.5q0 22 -9.5 36.5t-25.5 20.5t-32 8t-32 3h-8zM741 1507v-268h-284v268h284z" />
    <glyph glyph-name="Gcommaaccent" unicode="&#x122;" horiz-adv-x="1443" 
d="M1335 786v-786h-211l-57 147q-65 -73 -127 -110q-93 -57 -254 -57q-124 0 -226.5 35t-191.5 120q-207 197 -207 545q0 377 205 573q178 172 461 172q273 0 430 -141q69 -61 116 -151t62 -195l-417 -43q-1 44 -16.5 88t-39.5 74q-48 61 -129 61q-121 0 -174 -125
q-39 -95 -39 -280q0 -229 55 -318q59 -100 170 -100q85 0 134 49q21 21 38 57.5t17 67.5v14h-232v303h633zM907 -117v-307l-182 -293h-158l140 275h-140v325h340z" />
    <glyph glyph-name="gcommaaccent" unicode="&#x123;" horiz-adv-x="1200" 
d="M1200 1284l-10 -280l-25 2q-46 4 -67 4q-91 0 -123 -41q60 -46 88.5 -110t28.5 -126q0 -40 -9.5 -78.5t-38.5 -83.5t-75.5 -78.5t-128 -56t-187.5 -22.5q-25 0 -76 2t-77 2q-80 0 -80 -53q0 -46 67 -46l310 -14q41 -2 72 -5t75.5 -12.5t77 -23t68 -38.5t58.5 -58.5
t37.5 -83t14.5 -111.5q0 -65 -22 -117.5t-56.5 -86.5t-88 -59t-103.5 -38t-117.5 -20.5t-115.5 -9.5t-111 -2q-69 0 -127.5 2.5t-120 10t-109.5 19.5t-91.5 32t-72.5 46.5t-46 64t-17 83.5q0 72 41.5 126t110.5 76q-97 61 -97 166q0 86 54 151.5t147 80.5v4
q-80 22 -125 84.5t-45 152.5q0 39 8.5 74.5t28 74.5t56.5 70t89 57t131.5 40t178.5 14q132 0 215 -20q2 26 7.5 52.5t23.5 62t45.5 62t78.5 45.5t117 19q33 0 107 -4zM590 606q13 0 25 1.5t32.5 9t35 20t25.5 38t11 60.5t-11 60.5t-25.5 38t-35 20t-32.5 9t-25 1.5t-25 -1.5
t-32.5 -9t-35 -20t-25.5 -38t-11 -60.5t11 -60.5t25.5 -38t35 -20t32.5 -9t25 -1.5zM444 14q-49 6 -75.5 -13.5t-26.5 -51.5q0 -17 6.5 -31t20.5 -23.5t29 -17t38.5 -12t43 -7t49 -3.5t49 -1.5t49.5 -0.5h17q34 0 51 0.5t44 2.5t41 7t29.5 13.5t22 23t6.5 34.5
q0 22 -9.5 36.5t-25.5 20.5t-32 8t-32 3h-8zM410 1260v307l182 293h158l-140 -275h140v-325h-340z" />
    <glyph glyph-name="Hcircumflex" unicode="&#x124;" horiz-adv-x="1441" 
d="M1317 1405v-1405h-430v553h-332v-553h-430v1405h430v-524h332v524h430zM721 1661l-168 -121h-254l422 334l422 -334h-254z" />
    <glyph glyph-name="hcircumflex" unicode="&#x125;" horiz-adv-x="1241" 
d="M516 1405v-479q115 143 295 143q62 0 125 -19t104 -59q90 -86 90 -291v-700h-405v678q0 66 -20 98q-20 31 -70 31q-37 0 -70 -23q-49 -39 -49 -129v-655h-405v1405h405zM317 1657l-167 -121h-254l421 334l422 -334h-254z" />
    <glyph glyph-name="Hbar" unicode="&#x126;" horiz-adv-x="1441" 
d="M1317 1405v-94h125v-183h-125v-1128h-430v553h-332v-553h-430v1128h-125v183h125v94h430v-94h332v94h430zM555 881h332v247h-332v-247z" />
    <glyph glyph-name="hbar" unicode="&#x127;" horiz-adv-x="1241" 
d="M516 1405v-94h348v-183h-348v-202q115 143 295 143q62 0 125 -19t104 -59q90 -86 90 -291v-700h-405v678q0 66 -20 98q-20 31 -70 31q-37 0 -70 -23q-49 -39 -49 -129v-655h-405v1128h-146v183h146v94h405z" />
    <glyph glyph-name="Imacron" unicode="&#x12a;" horiz-adv-x="679" 
d="M555 1405v-1405h-430v1405h430zM666 1710v-170h-652v170h652z" />
    <glyph glyph-name="imacron" unicode="&#x12b;" horiz-adv-x="626" 
d="M516 1049v-1049h-405v1049h405zM639 1411v-151h-651v151h651z" />
    <glyph glyph-name="Iogonek" unicode="&#x12e;" horiz-adv-x="679" 
d="M555 1405v-1405q-15 -8 -29.5 -17.5t-22.5 -16.5t-9 -7q-35 -31 -35 -63q0 -28 19 -49t65 -21q62 0 143 29l27 -99q-113 -49 -238 -49q-100 0 -149 35q-56 39 -56 106q0 56 49 105q24 24 62 47h-256v1405h430z" />
    <glyph glyph-name="iogonek" unicode="&#x12f;" horiz-adv-x="626" 
d="M516 1049v-1049q-24 -13 -63 -47q-33 -33 -33 -68q0 -69 90 -69q54 0 137 28l27 -88q-98 -49 -213 -49q-89 0 -142 35q-57 35 -57 106q0 50 43 99q34 34 68 53h-262v1049h405zM516 1425v-278h-405v278h405z" />
    <glyph glyph-name="Idotaccent" unicode="&#x130;" horiz-adv-x="679" 
d="M555 1405v-1405h-430v1405h430zM555 1808v-268h-430v268h430z" />
    <glyph glyph-name="dotlessi" unicode="&#x131;" horiz-adv-x="626" 
d="M516 1049v-1049h-405v1049h405z" />
    <glyph glyph-name="Jcircumflex" unicode="&#x134;" horiz-adv-x="892" 
d="M768 1405v-879q0 -91 -2.5 -142.5t-22 -128t-57.5 -128.5q-107 -147 -385 -147q-122 0 -186 12l-101 20v328q94 -25 162 -25q92 0 131 58q31 45 31 166v866h430zM557 1661l-168 -121h-254l422 334l422 -334h-254z" />
    <glyph glyph-name="jcircumflex" unicode="&#x135;" horiz-adv-x="624" 
d="M516 1049v-988v-15q0 -56 -1.5 -86.5t-8 -77t-23.5 -82t-45 -64.5q-88 -96 -293 -96q-102 0 -235 28v281q68 -15 96 -15q58 0 84 37q3 5 6 10.5t5 10t3.5 11t2.5 10.5t2 12t1.5 11t0.5 12.5v12v13v12.5v963h405zM735 1239h-254l-168 121l-168 -121h-256l424 334z" />
    <glyph glyph-name="Kcommaaccent" unicode="&#x136;" horiz-adv-x="1435" 
d="M555 1405v-580h4l383 580h389l-354 -514l467 -891h-500l-242 530l-147 -204v-326h-430v1405h430zM913 -117v-307l-182 -293h-158l140 275h-140v325h340z" />
    <glyph glyph-name="kcommaaccent" unicode="&#x137;" horiz-adv-x="1224" 
d="M516 1405v-758l334 402h352l-315 -363l352 -686h-422l-199 420l-102 -131v-289h-405v1405h405zM811 -117v-307l-182 -293h-158l139 275h-139v325h340z" />
    <glyph glyph-name="Lacute" unicode="&#x139;" horiz-adv-x="1140" 
d="M555 1405v-1069h557v-336h-987v1405h430zM782 1866l70 -201l-492 -139l-53 139z" />
    <glyph glyph-name="lacute" unicode="&#x13a;" horiz-adv-x="626" 
d="M516 1405v-1405h-405v1405h405zM559 1874l70 -201l-492 -139l-53 139z" />
    <glyph glyph-name="Lcommaaccent" unicode="&#x13b;" horiz-adv-x="1140" 
d="M555 1405v-1069h557v-336h-987v1405h430zM778 -117v-307l-182 -293h-158l140 275h-140v325h340z" />
    <glyph glyph-name="lcommaaccent" unicode="&#x13c;" horiz-adv-x="626" 
d="M516 1405v-1405h-405v1405h405zM483 -119v-307l-182 -293h-158l140 275h-140v325h340z" />
    <glyph glyph-name="Lcaron" unicode="&#x13d;" horiz-adv-x="1140" 
d="M555 1405v-1069h557v-336h-987v1405h430zM1133 1405v-295l-193 -311h-162l142 278h-142v328h355z" />
    <glyph glyph-name="lcaron" unicode="&#x13e;" horiz-adv-x="1060" 
d="M516 1405v-1405h-405v1405h405zM1026 1405v-295l-192 -311h-162l141 278h-141v328h354z" />
    <glyph glyph-name="Ldot" unicode="&#x13f;" horiz-adv-x="1140" 
d="M555 1405v-1069h557v-336h-987v1405h430zM1098 973v-375h-391v375h391z" />
    <glyph glyph-name="ldot" unicode="&#x140;" horiz-adv-x="1112" 
d="M516 1405v-1405h-405v1405h405zM1061 936v-375h-391v375h391z" />
    <glyph glyph-name="Lslash" unicode="&#x141;" horiz-adv-x="1140" 
d="M125 1405h430v-354l164 155v-243l-164 -162v-465h555v-336h-985v477l-105 -96v244l105 100v680z" />
    <glyph glyph-name="lslash" unicode="&#x142;" horiz-adv-x="675" 
d="M135 1405h406v-420l149 123v-244l-149 -125v-739h-406v504l-149 -123v244l149 123v657z" />
    <glyph glyph-name="Nacute" unicode="&#x143;" horiz-adv-x="1462" 
d="M535 1405l477 -784h4q-31 131 -31 227v557h352v-1405h-356l-457 750l-75 161h-5q4 -22 11 -55.5t9 -45t5.5 -33.5t4.5 -37t2 -36.5t1 -48.5v-655h-352v1405h410zM1006 1866l69 -201l-491 -139l-54 139z" />
    <glyph glyph-name="nacute" unicode="&#x144;" horiz-adv-x="1241" 
d="M516 0h-405v1049h376v-148h5q98 168 303 168q139 0 227 -65q108 -83 108 -248v-756h-405v678q0 27 -1 41t-9 33t-23 34q-24 21 -57 21q-53 0 -84 -35q-35 -39 -35 -129v-643zM866 1559l70 -201l-492 -139l-53 139z" />
    <glyph glyph-name="Ncommaaccent" unicode="&#x145;" horiz-adv-x="1462" 
d="M535 1405l477 -784h4q-31 131 -31 227v557h352v-1405h-356l-457 750l-75 161h-5q4 -22 11 -55.5t9 -45t5.5 -33.5t4.5 -37t2 -36.5t1 -48.5v-655h-352v1405h410zM918 -117v-307l-183 -293h-157l139 275h-139v325h340z" />
    <glyph glyph-name="ncommaaccent" unicode="&#x146;" horiz-adv-x="1241" 
d="M516 0h-405v1049h376v-148h5q98 168 303 168q139 0 227 -65q108 -83 108 -248v-756h-405v678q0 27 -1 41t-9 33t-23 34q-24 21 -57 21q-53 0 -84 -35q-35 -39 -35 -129v-643zM805 -117v-307l-182 -293h-158l139 275h-139v325h340z" />
    <glyph glyph-name="Ncaron" unicode="&#x147;" horiz-adv-x="1462" 
d="M535 1405l477 -784h4q-31 131 -31 227v557h352v-1405h-356l-457 750l-75 161h-5q4 -22 11 -55.5t9 -45t5.5 -33.5t4.5 -37t2 -36.5t1 -48.5v-655h-352v1405h410zM731 1741l168 119h254l-422 -334l-422 334h254z" />
    <glyph glyph-name="ncaron" unicode="&#x148;" horiz-adv-x="1241" 
d="M516 0h-405v1049h376v-148h5q98 168 303 168q139 0 227 -65q108 -83 108 -248v-756h-405v678q0 27 -1 41t-9 33t-23 34q-24 21 -57 21q-53 0 -84 -35q-35 -39 -35 -129v-643zM621 1434l167 118h254l-421 -333l-422 333h254z" />
    <glyph glyph-name="Omacron" unicode="&#x14c;" horiz-adv-x="1462" 
d="M731 1425q273 0 455 -161q98 -88 156.5 -232t58.5 -330q0 -160 -47.5 -299.5t-134.5 -232.5q-78 -83 -199.5 -136.5t-288.5 -53.5q-282 0 -455 165q-215 203 -215 557q0 384 242 582q171 141 428 141zM731 1118q-108 0 -164 -114q-47 -94 -47 -293q0 -205 47 -299
q55 -117 164 -117t164 117q47 94 47 299q0 199 -47 293q-56 114 -164 114zM1057 1710v-170h-651v170h651z" />
    <glyph glyph-name="omacron" unicode="&#x14d;" horiz-adv-x="1220" 
d="M610 1069q231 0 383 -141q82 -75 126 -182t44 -222t-44 -221.5t-126 -181.5q-152 -141 -383 -141t-383 141q-82 75 -126 181.5t-44 221.5t44 222t126 182q152 141 383 141zM610 229q75 0 111 76q18 35 23.5 83.5t5.5 135.5t-5.5 135.5t-23.5 83.5q-37 76 -111 76
q-73 0 -110 -76q-18 -35 -23.5 -83.5t-5.5 -135.5q0 -158 29 -219q37 -76 110 -76zM936 1411v-151h-651v151h651z" />
    <glyph glyph-name="Obreve" unicode="&#x14e;" horiz-adv-x="1462" 
d="M731 1425q273 0 455 -161q98 -88 156.5 -232t58.5 -330q0 -160 -47.5 -299.5t-134.5 -232.5q-78 -83 -199.5 -136.5t-288.5 -53.5q-282 0 -455 165q-215 203 -215 557q0 384 242 582q171 141 428 141zM731 1118q-108 0 -164 -114q-47 -94 -47 -293q0 -205 47 -299
q55 -117 164 -117t164 117q47 94 47 299q0 199 -47 293q-56 114 -164 114zM915 1833h185q-18 -117 -99 -201q-100 -106 -270 -106t-270 106q-81 84 -99 201h185q17 -56 57 -88q51 -43 127 -43t127 43q40 32 57 88z" />
    <glyph glyph-name="obreve" unicode="&#x14f;" horiz-adv-x="1220" 
d="M610 1069q231 0 383 -141q82 -75 126 -182t44 -222t-44 -221.5t-126 -181.5q-152 -141 -383 -141t-383 141q-82 75 -126 181.5t-44 221.5t44 222t126 182q152 141 383 141zM610 229q75 0 111 76q18 35 23.5 83.5t5.5 135.5t-5.5 135.5t-23.5 83.5q-37 76 -111 76
q-73 0 -110 -76q-18 -35 -23.5 -83.5t-5.5 -135.5q0 -158 29 -219q37 -76 110 -76zM801 1542h182q-26 -125 -106 -211q-103 -112 -267 -112q-163 0 -266 112q-80 86 -106 211h182q21 -60 65 -100q50 -47 125 -47t125 47q45 42 66 100z" />
    <glyph glyph-name="Ohungarumlaut" unicode="&#x150;" horiz-adv-x="1462" 
d="M731 1425q273 0 455 -161q98 -88 156.5 -232t58.5 -330q0 -160 -47.5 -299.5t-134.5 -232.5q-78 -83 -199.5 -136.5t-288.5 -53.5q-282 0 -455 165q-215 203 -215 557q0 384 242 582q171 141 428 141zM731 1118q-108 0 -164 -114q-47 -94 -47 -293q0 -205 47 -299
q55 -117 164 -117t164 117q47 94 47 299q0 199 -47 293q-56 114 -164 114zM784 1991l136 -164l-414 -301l-98 114zM1233 1991l135 -164l-414 -301l-98 114z" />
    <glyph glyph-name="ohungarumlaut" unicode="&#x151;" horiz-adv-x="1220" 
d="M610 1069q231 0 383 -141q82 -75 126 -182t44 -222t-44 -221.5t-126 -181.5q-152 -141 -383 -141t-383 141q-82 75 -126 181.5t-44 221.5t44 222t126 182q152 141 383 141zM610 229q75 0 111 76q18 35 23.5 83.5t5.5 135.5t-5.5 135.5t-23.5 83.5q-37 76 -111 76
q-73 0 -110 -76q-18 -35 -23.5 -83.5t-5.5 -135.5q0 -158 29 -219q37 -76 110 -76zM625 1683l135 -163l-414 -301l-98 114zM1073 1683l135 -163l-413 -301l-99 114z" />
    <glyph glyph-name="OE" unicode="&#x152;" horiz-adv-x="2007" 
d="M1956 0h-1008l-48 -6l-48 -6q-78 -8 -119 -8q-55 0 -107 6.5t-120.5 28t-128 56.5t-121 99t-106.5 149q-89 168 -89 379q0 229 86 392q49 93 118.5 160.5t149 104.5t158 53.5t160.5 16.5q49 0 135 -12q30 -4 86 -8h1002v-328h-639v-209h514v-303h-514v-229h639v-336z
M918 602v270q0 104 -35 164q-46 82 -152 82q-41 0 -72.5 -14.5t-51 -40.5t-30.5 -48.5t-20 -51.5q-37 -115 -37 -263q0 -147 25 -231q48 -174 194 -174q98 0 144 90q35 72 35 217z" />
    <glyph glyph-name="oe" unicode="&#x153;" horiz-adv-x="1785" 
d="M1382 367l349 -25q-44 -176 -181 -269t-319 -93q-183 0 -320 96q-145 -96 -305 -96q-134 0 -230 43t-153 98q-82 75 -126 181.5t-44 221.5t44 222t126 182q71 67 171 104t212 37q157 0 305 -96q122 96 306 96q123 0 233.5 -47.5t183.5 -153.5q104 -154 99 -366l-2 -68
h-641v-33q0 -20 8 -53t18 -51q37 -68 119 -68q60 0 98.5 41t48.5 97zM1087 639h275q3 64 -25 119q-31 61 -108 61q-57 0 -96 -39q-54 -54 -46 -141zM606 819q-73 0 -110 -76q-18 -35 -23.5 -83.5t-5.5 -135.5q0 -158 29 -219q37 -76 110 -76q75 0 111 76q17 34 22.5 82
t5.5 137t-5.5 137t-22.5 82q-37 76 -111 76z" />
    <glyph glyph-name="Racute" unicode="&#x154;" horiz-adv-x="1462" 
d="M125 1405h709q280 0 409 -133q107 -112 107 -289q0 -83 -24 -155t-79.5 -133.5t-138.5 -90.5l270 -604h-479l-205 524h-139v-524h-430v1405zM555 1098v-271h197q84 0 127 39q41 38 41 97q0 61 -37 94q-43 41 -133 41h-195zM1006 1866l69 -201l-491 -139l-54 139z" />
    <glyph glyph-name="racute" unicode="&#x155;" horiz-adv-x="808" 
d="M111 1049h348v-218h4q2 73 47 138q72 100 223 100q17 0 53 -4v-367q-46 11 -73 11q-109 0 -160 -74q-23 -34 -30 -74t-7 -106v-455h-405v1049zM651 1559l70 -201l-492 -139l-53 139z" />
    <glyph glyph-name="Rcommaaccent" unicode="&#x156;" horiz-adv-x="1462" 
d="M125 1405h709q280 0 409 -133q107 -112 107 -289q0 -83 -24 -155t-79.5 -133.5t-138.5 -90.5l270 -604h-479l-205 524h-139v-524h-430v1405zM555 1098v-271h197q84 0 127 39q41 38 41 97q0 61 -37 94q-43 41 -133 41h-195zM907 -117v-307l-182 -293h-158l140 275h-140
v325h340z" />
    <glyph glyph-name="rcommaaccent" unicode="&#x157;" horiz-adv-x="808" 
d="M111 1049h348v-218h4q2 73 47 138q72 100 223 100q17 0 53 -4v-367q-46 11 -73 11q-109 0 -160 -74q-23 -34 -30 -74t-7 -106v-455h-405v1049zM475 -113v-307l-182 -293h-158l139 275h-139v325h340z" />
    <glyph glyph-name="Rcaron" unicode="&#x158;" horiz-adv-x="1462" 
d="M125 1405h709q280 0 409 -133q107 -112 107 -289q0 -83 -24 -155t-79.5 -133.5t-138.5 -90.5l270 -604h-479l-205 524h-139v-524h-430v1405zM555 1098v-271h197q84 0 127 39q41 38 41 97q0 61 -37 94q-43 41 -133 41h-195zM731 1741l168 119h254l-422 -334l-422 334h254z
" />
    <glyph glyph-name="rcaron" unicode="&#x159;" horiz-adv-x="808" 
d="M111 1049h348v-218h4q2 73 47 138q72 100 223 100q17 0 53 -4v-367q-46 11 -73 11q-109 0 -160 -74q-23 -34 -30 -74t-7 -106v-455h-405v1049zM406 1434l167 118h254l-421 -333l-422 333h254z" />
    <glyph glyph-name="Sacute" unicode="&#x15a;" horiz-adv-x="1282" 
d="M1200 1081l-356 -108q-16 53 -53 90q-55 55 -175 55q-70 0 -106 -24q-33 -23 -33 -66q0 -13 3 -23.5t9.5 -19.5t12.5 -15.5t18 -12t18.5 -9t21 -7.5t19.5 -5.5t20.5 -4.5t16.5 -3l152 -31q210 -42 317 -123q154 -114 154 -321q0 -96 -36 -175.5t-96.5 -134t-141.5 -92
t-170 -54.5t-183 -17q-160 0 -285.5 45.5t-207.5 124.5q-105 102 -142 249l402 66q12 -50 41.5 -84t60.5 -51q57 -35 160 -35q92 0 129 29q31 24 31 59q0 92 -166 125l-156 33q-60 13 -134.5 42.5t-123.5 61.5q-170 114 -170 322q0 115 51 204.5t129 147.5q148 106 404 106
q430 0 565 -344zM915 1866l70 -201l-491 -139l-54 139z" />
    <glyph glyph-name="sacute" unicode="&#x15b;" horiz-adv-x="1118" 
d="M1036 795l-309 -60q-27 58 -70 84q-41 25 -122 25q-68 0 -99 -25q-22 -16 -22 -47q0 -26 23 -40.5t75 -20.5l190 -25q206 -24 299 -123q80 -83 80 -213q0 -99 -46.5 -169.5t-114.5 -112.5q-138 -88 -388 -88q-252 0 -389 120q-85 75 -127 197l326 43q17 -49 64 -82
q59 -41 145 -41q122 0 149 27q21 21 21 45q0 33 -33 47q-22 10 -74 18l-145 19q-185 23 -283 94q-54 39 -87 102.5t-33 143.5q0 33 7 67t24.5 74.5t53.5 79t87 67.5q73 42 148 55t169 13q106 0 188 -16.5t152 -67.5q98 -73 141 -190zM805 1559l69 -201l-491 -139l-53 139z
" />
    <glyph glyph-name="Scircumflex" unicode="&#x15c;" horiz-adv-x="1282" 
d="M1200 1081l-356 -108q-16 53 -53 90q-55 55 -175 55q-70 0 -106 -24q-33 -23 -33 -66q0 -13 3 -23.5t9.5 -19.5t12.5 -15.5t18 -12t18.5 -9t21 -7.5t19.5 -5.5t20.5 -4.5t16.5 -3l152 -31q210 -42 317 -123q154 -114 154 -321q0 -96 -36 -175.5t-96.5 -134t-141.5 -92
t-170 -54.5t-183 -17q-160 0 -285.5 45.5t-207.5 124.5q-105 102 -142 249l402 66q12 -50 41.5 -84t60.5 -51q57 -35 160 -35q92 0 129 29q31 24 31 59q0 92 -166 125l-156 33q-60 13 -134.5 42.5t-123.5 61.5q-170 114 -170 322q0 115 51 204.5t129 147.5q148 106 404 106
q430 0 565 -344zM641 1661l-168 -121h-254l422 334l422 -334h-254z" />
    <glyph glyph-name="scircumflex" unicode="&#x15d;" horiz-adv-x="1118" 
d="M1036 795l-309 -60q-27 58 -70 84q-41 25 -122 25q-68 0 -99 -25q-22 -16 -22 -47q0 -26 23 -40.5t75 -20.5l190 -25q206 -24 299 -123q80 -83 80 -213q0 -99 -46.5 -169.5t-114.5 -112.5q-138 -88 -388 -88q-252 0 -389 120q-85 75 -127 197l326 43q17 -49 64 -82
q59 -41 145 -41q122 0 149 27q21 21 21 45q0 33 -33 47q-22 10 -74 18l-145 19q-185 23 -283 94q-54 39 -87 102.5t-33 143.5q0 33 7 67t24.5 74.5t53.5 79t87 67.5q73 42 148 55t169 13q106 0 188 -16.5t152 -67.5q98 -73 141 -190zM559 1360l-168 -121h-254l422 334
l422 -334h-254z" />
    <glyph glyph-name="Scedilla" unicode="&#x15e;" horiz-adv-x="1282" 
d="M1200 1081l-356 -108q-16 53 -53 90q-55 55 -175 55q-70 0 -106 -24q-33 -23 -33 -66q0 -13 3 -23.5t9.5 -19.5t12.5 -15.5t18 -12t18.5 -9t21 -7.5t19.5 -5.5t20.5 -4.5t16.5 -3l152 -31q210 -42 317 -123q154 -114 154 -321q0 -96 -36.5 -176t-93.5 -131.5t-131 -88
t-145.5 -53.5t-140.5 -20l-33 -82q16 2 52 2q66 0 110 -39q47 -42 47 -113q0 -78 -57 -123q-60 -49 -158 -49q-121 0 -247 70l36 94q34 -21 76.5 -33t73.5 -12q37 0 57.5 17.5t20.5 41.5q0 38 -43 56q-33 14 -86 14q-21 0 -31 -2l55 154q-126 2 -245.5 46t-200.5 124
q-105 102 -142 249l402 66q12 -50 41.5 -84t60.5 -51q57 -35 160 -35q92 0 129 29q31 24 31 59q0 92 -166 125l-156 33q-60 13 -134.5 42.5t-123.5 61.5q-170 114 -170 322q0 115 51 204.5t129 147.5q148 106 404 106q430 0 565 -344z" />
    <glyph glyph-name="scedilla" unicode="&#x15f;" horiz-adv-x="1118" 
d="M1036 795l-309 -60q-27 58 -70 84q-41 25 -122 25q-68 0 -99 -25q-22 -16 -22 -47q0 -26 23 -40.5t75 -20.5l190 -25q206 -24 299 -123q80 -83 80 -213q0 -27 -5.5 -56t-20 -70t-49.5 -82.5t-86 -73.5q-58 -36 -139 -58.5t-160 -25.5l-27 -82q8 2 27 2q71 0 112 -41
q43 -40 43 -111q0 -82 -61 -127t-144 -45q-110 0 -227 70l37 84q80 -45 147 -45q43 0 61.5 18t18.5 41q0 43 -43 64q-31 16 -86 16q-20 0 -30 -2l55 154q-99 0 -198 31.5t-163 88.5q-15 13 -32 31.5t-47 65.5t-48 100l326 43q17 -49 64 -82q59 -41 145 -41q122 0 149 27
q21 21 21 45q0 33 -33 47q-22 10 -74 18l-145 19q-185 23 -283 94q-54 39 -87 102.5t-33 143.5q0 33 7 67t24.5 74.5t53.5 79t87 67.5q73 42 148 55t169 13q106 0 188 -16.5t152 -67.5q98 -73 141 -190z" />
    <glyph glyph-name="Scaron" unicode="&#x160;" horiz-adv-x="1282" 
d="M1200 1081l-356 -108q-16 53 -53 90q-55 55 -175 55q-70 0 -106 -24q-33 -23 -33 -66q0 -13 3 -23.5t9.5 -19.5t12.5 -15.5t18 -12t18.5 -9t21 -7.5t19.5 -5.5t20.5 -4.5t16.5 -3l152 -31q210 -42 317 -123q154 -114 154 -321q0 -96 -36 -175.5t-96.5 -134t-141.5 -92
t-170 -54.5t-183 -17q-160 0 -285.5 45.5t-207.5 124.5q-105 102 -142 249l402 66q12 -50 41.5 -84t60.5 -51q57 -35 160 -35q92 0 129 29q31 24 31 59q0 92 -166 125l-156 33q-60 13 -134.5 42.5t-123.5 61.5q-170 114 -170 322q0 115 51 204.5t129 147.5q148 106 404 106
q430 0 565 -344zM641 1741l168 119h254l-422 -334l-422 334h254z" />
    <glyph glyph-name="scaron" unicode="&#x161;" horiz-adv-x="1118" 
d="M1036 795l-309 -60q-27 58 -70 84q-41 25 -122 25q-68 0 -99 -25q-22 -16 -22 -47q0 -26 23 -40.5t75 -20.5l190 -25q206 -24 299 -123q80 -83 80 -213q0 -99 -46.5 -169.5t-114.5 -112.5q-138 -88 -388 -88q-252 0 -389 120q-85 75 -127 197l326 43q17 -49 64 -82
q59 -41 145 -41q122 0 149 27q21 21 21 45q0 33 -33 47q-22 10 -74 18l-145 19q-185 23 -283 94q-54 39 -87 102.5t-33 143.5q0 33 7 67t24.5 74.5t53.5 79t87 67.5q73 42 148 55t169 13q106 0 188 -16.5t152 -67.5q98 -73 141 -190zM559 1434l168 118h254l-422 -333
l-422 333h254z" />
    <glyph glyph-name="Tcedilla" unicode="&#x162;" horiz-adv-x="1011" 
d="M0 1405h1012v-328h-291v-1077h-125l-39 -98q10 2 31 2q68 0 110 -39q47 -42 47 -113q0 -78 -57 -123q-61 -49 -158 -49q-110 0 -247 70l36 94q34 -21 76.5 -33t73.5 -12q37 0 57.5 17.5t20.5 41.5q0 38 -43 56q-33 14 -86 14q-21 0 -31 -2l62 174h-158v1077h-291v328z
" />
    <glyph glyph-name="tcedilla" unicode="&#x163;" horiz-adv-x="782" 
d="M549 1393v-344h205v-275h-205v-379q0 -69 20 -94q22 -27 74 -27q51 0 111 21v-287q-81 -16 -213 -28l-27 -78q8 2 27 2q71 0 112 -41q43 -40 43 -111q0 -82 -61 -127t-143 -45q-111 0 -228 70l37 84q80 -45 148 -45q43 0 61 18t18 41q0 43 -43 64q-31 16 -86 16
q-20 0 -30 -2l55 158q-129 5 -205 94q-27 31 -43.5 66t-23 78.5t-8 72.5t-1.5 82v397h-151v275h170l31 331z" />
    <glyph glyph-name="Tcaron" unicode="&#x164;" horiz-adv-x="1011" 
d="M0 1405h1012v-328h-291v-1077h-430v1077h-291v328zM504 1741l168 119h254l-422 -334l-422 334h254z" />
    <glyph glyph-name="tcaron" unicode="&#x165;" horiz-adv-x="884" 
d="M549 1393v-344h205v-275h-205v-379q0 -69 20 -94q22 -27 74 -27q51 0 111 21v-287q-140 -28 -258 -28q-190 0 -277 98q-27 31 -43.5 66.5t-23 79t-8 72t-1.5 81.5v397h-151v275h170l31 331zM1071 1767v-294l-192 -312h-162l141 279h-141v327h354z" />
    <glyph glyph-name="Umacron" unicode="&#x16a;" horiz-adv-x="1384" 
d="M125 1405h430v-899q0 -59 7.5 -97t35.5 -67q45 -47 133 -47t133 47q28 29 35.5 67t7.5 97v899h353v-903q0 -48 -1 -75.5t-9 -79t-23 -88t-45 -81t-74 -80.5q-145 -118 -399 -118q-268 0 -424 112q-52 38 -86 85t-49 100.5t-20 98t-5 103.5v926zM1018 1710v-170h-651v170
h651z" />
    <glyph glyph-name="umacron" unicode="&#x16b;" horiz-adv-x="1241" 
d="M1130 1049v-1049h-376v172h-4q-23 -53 -60 -91.5t-70.5 -57t-74 -29t-61.5 -12.5t-42 -2q-123 0 -202 53q-77 51 -103 125.5t-26 167.5v723h405v-621q0 -88 23 -119q27 -35 73 -35q51 0 80 37q33 40 33 115v623h405zM946 1411v-151h-651v151h651z" />
    <glyph glyph-name="Ubreve" unicode="&#x16c;" horiz-adv-x="1384" 
d="M125 1405h430v-899q0 -59 7.5 -97t35.5 -67q45 -47 133 -47t133 47q28 29 35.5 67t7.5 97v899h353v-903q0 -48 -1 -75.5t-9 -79t-23 -88t-45 -81t-74 -80.5q-145 -118 -399 -118q-268 0 -424 112q-52 38 -86 85t-49 100.5t-20 98t-5 103.5v926zM909 1833h185
q-18 -117 -99 -201q-100 -106 -270 -106t-270 106q-81 84 -99 201h185q17 -56 57 -88q51 -43 127 -43t127 43q40 32 57 88z" />
    <glyph glyph-name="ubreve" unicode="&#x16d;" horiz-adv-x="1241" 
d="M1130 1049v-1049h-376v172h-4q-23 -53 -60 -91.5t-70.5 -57t-74 -29t-61.5 -12.5t-42 -2q-123 0 -202 53q-77 51 -103 125.5t-26 167.5v723h405v-621q0 -88 23 -119q27 -35 73 -35q51 0 80 37q33 40 33 115v623h405zM811 1542h182q-26 -125 -106 -211
q-103 -112 -266 -112q-164 0 -267 112q-80 86 -106 211h182q21 -58 66 -100q50 -47 125 -47q74 0 124 47q45 42 66 100z" />
    <glyph glyph-name="Uring" unicode="&#x16e;" horiz-adv-x="1384" 
d="M125 1405h430v-899q0 -59 7.5 -97t35.5 -67q45 -47 133 -47t133 47q28 29 35.5 67t7.5 97v899h353v-903q0 -48 -1 -75.5t-9 -79t-23 -88t-45 -81t-74 -80.5q-145 -118 -399 -118q-268 0 -424 112q-52 38 -86 85t-49 100.5t-20 98t-5 103.5v926zM520 1731q0 86 59.5 145
t145.5 59t145.5 -59t59.5 -145t-59.5 -145.5t-145.5 -59.5t-145.5 59.5t-59.5 145.5zM655 1731q0 -28 21 -49t49 -21t49 21t21 49t-21 48.5t-49 20.5t-49 -20.5t-21 -48.5z" />
    <glyph glyph-name="uring" unicode="&#x16f;" horiz-adv-x="1241" 
d="M1130 1049v-1049h-376v172h-4q-23 -53 -60 -91.5t-70.5 -57t-74 -29t-61.5 -12.5t-42 -2q-123 0 -202 53q-77 51 -103 125.5t-26 167.5v723h405v-621q0 -88 23 -119q27 -35 73 -35q51 0 80 37q33 40 33 115v623h405zM416 1423q0 86 59.5 145.5t145.5 59.5t145 -59.5
t59 -145.5t-59 -145t-145 -59t-145.5 59t-59.5 145zM551 1423q0 -28 21 -48.5t49 -20.5t48.5 20.5t20.5 48.5t-20.5 49t-48.5 21t-49 -21t-21 -49z" />
    <glyph glyph-name="Uhungarumlaut" unicode="&#x170;" horiz-adv-x="1384" 
d="M125 1405h430v-899q0 -59 7.5 -97t35.5 -67q45 -47 133 -47t133 47q28 29 35.5 67t7.5 97v899h353v-903q0 -48 -1 -75.5t-9 -79t-23 -88t-45 -81t-74 -80.5q-145 -118 -399 -118q-268 0 -424 112q-52 38 -86 85t-49 100.5t-20 98t-5 103.5v926zM745 1991l136 -164
l-414 -301l-98 114zM1194 1991l135 -164l-414 -301l-98 114z" />
    <glyph glyph-name="uhungarumlaut" unicode="&#x171;" horiz-adv-x="1241" 
d="M1130 1049v-1049h-376v172h-4q-23 -53 -60 -91.5t-70.5 -57t-74 -29t-61.5 -12.5t-42 -2q-123 0 -202 53q-77 51 -103 125.5t-26 167.5v723h405v-621q0 -88 23 -119q27 -35 73 -35q51 0 80 37q33 40 33 115v623h405zM635 1683l135 -163l-414 -301l-98 114zM1083 1683
l136 -163l-414 -301l-98 114z" />
    <glyph glyph-name="Uogonek" unicode="&#x172;" horiz-adv-x="1384" 
d="M125 1405h430v-899q0 -59 7.5 -97t35.5 -67q45 -47 133 -47t133 47q28 29 35.5 67t7.5 97v899h353v-903q0 -48 -1 -75.5t-9 -79t-23 -88t-45 -81t-74 -80.5q-82 -69 -199 -96q-53 -38 -59 -43q-35 -26 -35 -63q0 -28 19 -49t65 -21q62 0 143 29l27 -99q-113 -49 -238 -49
q-100 0 -149 35q-55 38 -55 106q0 62 49 105l31 27q-127 -6 -238.5 27.5t-183.5 84.5q-52 37 -86 84t-49 100.5t-20 98.5t-5 104v926z" />
    <glyph glyph-name="uogonek" unicode="&#x173;" horiz-adv-x="1241" 
d="M1130 1049v-1049q-24 -13 -63 -47q-33 -33 -33 -68q0 -69 90 -69q55 0 138 28l26 -88q-98 -49 -213 -49q-88 0 -141 35q-57 35 -57 106q0 50 43 99q36 35 67 53h-233v172h-4q-23 -53 -60 -91.5t-70.5 -57t-74 -29t-61.5 -12.5t-42 -2q-123 0 -202 53q-77 51 -103 125.5
t-26 167.5v723h405v-621q0 -88 23 -119q27 -35 73 -35q51 0 80 37q33 40 33 115v623h405z" />
    <glyph glyph-name="Ydieresis" unicode="&#x178;" horiz-adv-x="1253" 
d="M1296 1405l-442 -811v-594h-430v594l-467 811h475l244 -463l244 463h376zM537 1808v-268h-285v268h285zM1001 1808v-268h-284v268h284z" />
    <glyph glyph-name="Zacute" unicode="&#x179;" horiz-adv-x="1263" 
d="M90 1405h1102v-272l-596 -797h616v-336h-1167v268l621 805h-576v332zM905 1866l70 -201l-492 -139l-53 139z" />
    <glyph glyph-name="zacute" unicode="&#x17a;" horiz-adv-x="997" 
d="M944 1049v-224l-448 -559h465v-266h-924v227l442 564h-403v258h868zM745 1559l70 -201l-491 -139l-54 139z" />
    <glyph glyph-name="Zdotaccent" unicode="&#x17b;" horiz-adv-x="1263" 
d="M90 1405h1102v-272l-596 -797h616v-336h-1167v268l621 805h-576v332zM776 1810v-270h-287v270h287z" />
    <glyph glyph-name="zdotaccent" unicode="&#x17c;" horiz-adv-x="997" 
d="M944 1049v-224l-448 -559h465v-266h-924v227l442 564h-403v258h868zM641 1507v-268h-285v268h285z" />
    <glyph glyph-name="Zcaron" unicode="&#x17d;" horiz-adv-x="1263" 
d="M90 1405h1102v-272l-596 -797h616v-336h-1167v268l621 805h-576v332zM631 1741l168 119h254l-422 -334l-422 334h254z" />
    <glyph glyph-name="zcaron" unicode="&#x17e;" horiz-adv-x="997" 
d="M944 1049v-224l-448 -559h465v-266h-924v227l442 564h-403v258h868zM500 1434l168 118h254l-422 -333l-422 333h254z" />
    <glyph glyph-name="uni018F" unicode="&#x18f;" horiz-adv-x="1386" 
d="M451 924l-390 71q49 179 187 293q90 75 195.5 106t238.5 31q67 0 124.5 -8t127 -29.5t135 -69.5t119.5 -120q137 -181 137 -496q0 -354 -192 -546q-176 -176 -465 -176q-306 0 -475 196q-43 50 -73 112t-45 114.5t-23.5 123t-9.5 111.5t-1 106v56h825v30q0 117 -30 183
q-47 106 -162 106q-103 0 -170 -86q-34 -44 -53 -108zM442 535q-4 -95 41 -166q59 -95 172 -95q117 0 174 95q41 67 37 166h-424z" />
    <glyph glyph-name="florin" unicode="&#x192;" 
d="M1198 1405l-45 -252q-44 8 -98 8q-72 0 -113 -22q-67 -38 -72 -117h220l-50 -272h-200l-138 -719q-9 -47 -16.5 -77.5t-24 -74.5t-43 -80.5t-63.5 -66.5q-119 -94 -358 -94q-91 0 -197 24l47 279q42 -9 109 -9q24 0 40.5 2t35 9t33 22.5t26.5 40.5q13 30 28 105l127 639
h-157l49 272h158l6 49q16 119 67 191q116 165 385 165q125 0 244 -22z" />
    <glyph glyph-name="uni01CF" unicode="&#x1cf;" horiz-adv-x="679" 
d="M555 1405v-1405h-430v1405h430zM340 1741l168 119h254l-422 -334l-422 334h254z" />
    <glyph glyph-name="uni01D0" unicode="&#x1d0;" horiz-adv-x="626" 
d="M516 1049v-1049h-405v1049h405zM313 1434l168 118h254l-422 -333l-422 333h254z" />
    <glyph glyph-name="uni01DD" unicode="&#x1dd;" horiz-adv-x="1228" 
d="M440 682l-377 25q34 158 173 258q145 104 376 104q117 0 214.5 -29.5t183.5 -111.5q161 -153 161 -404q0 -147 -52.5 -251t-129.5 -169q-146 -124 -387 -124q-245 0 -395 157q-150 156 -150 414v63h701q3 86 -37 142q-45 63 -129 63q-70 0 -111 -41q-39 -39 -41 -96z
M758 410h-299q-7 -84 37 -134q38 -47 106 -47t111 47q48 51 45 134z" />
    <glyph glyph-name="Gcaron" unicode="&#x1e6;" horiz-adv-x="1443" 
d="M1335 786v-786h-211l-57 147q-65 -73 -127 -110q-93 -57 -254 -57q-124 0 -226.5 35t-191.5 120q-207 197 -207 545q0 377 205 573q178 172 461 172q273 0 430 -141q69 -61 116 -151t62 -195l-417 -43q-1 44 -16.5 88t-39.5 74q-48 61 -129 61q-121 0 -174 -125
q-39 -95 -39 -280q0 -229 55 -318q59 -100 170 -100q85 0 134 49q21 21 38 57.5t17 67.5v14h-232v303h633zM729 1741l168 119h254l-422 -334l-422 334h254z" />
    <glyph glyph-name="gcaron" unicode="&#x1e7;" horiz-adv-x="1200" 
d="M1200 1284l-10 -280l-25 2q-50 4 -71 4q-83 0 -119 -41q60 -46 88.5 -110t28.5 -126q0 -40 -9.5 -78.5t-38.5 -83.5t-75.5 -78.5t-128 -56t-187.5 -22.5q-25 0 -76 2t-77 2q-80 0 -80 -53q0 -46 67 -46l310 -14q137 -4 200 -26q94 -33 150 -109q53 -75 53 -195
q0 -172 -162 -262q-134 -73 -452 -73q-287 0 -412 49q-172 65 -172 209q0 72 41.5 126t110.5 76q-97 61 -97 166q0 86 54 151.5t147 80.5v4q-80 22 -125 84.5t-45 152.5q0 39 8.5 74.5t28 74.5t56.5 70t89 57t131.5 40t178.5 14q132 0 215 -20q7 96 63 159q42 49 96 65.5
t125 16.5q33 0 95 -4zM590 606q13 0 25 1.5t32.5 9t35 20t25.5 38t11 60.5t-11 60.5t-25.5 38t-35 20t-32.5 9t-25 1.5t-25 -1.5t-32.5 -9t-35 -20t-25.5 -38t-11 -60.5t11 -60.5t25.5 -38t35 -20t32.5 -9t25 -1.5zM731 2l-287 12q-49 6 -75.5 -13.5t-26.5 -51.5
q0 -17 6.5 -31t20.5 -23.5t29 -17t38.5 -12t43 -7t49 -3.5t49 -1.5t49.5 -0.5h17q34 0 51 0.5t44 2.5t41 7t29.5 13.5t22 23t6.5 34.5q0 22 -9.5 36.5t-25.5 20.5t-32 8t-32 3h-8zM596 1434l168 118h254l-422 -333l-422 333h254z" />
    <glyph glyph-name="Scommaaccent" unicode="&#x218;" horiz-adv-x="1282" 
d="M1200 1081l-356 -108q-16 53 -53 90q-55 55 -175 55q-70 0 -106 -24q-33 -23 -33 -66q0 -13 3 -23.5t9.5 -19.5t12.5 -15.5t18 -12t18.5 -9t21 -7.5t19.5 -5.5t20.5 -4.5t16.5 -3l152 -31q210 -42 317 -123q154 -114 154 -321q0 -96 -36 -175.5t-96.5 -134t-141.5 -92
t-170 -54.5t-183 -17q-160 0 -285.5 45.5t-207.5 124.5q-105 102 -142 249l402 66q12 -50 41.5 -84t60.5 -51q57 -35 160 -35q92 0 129 29q31 24 31 59q0 92 -166 125l-156 33q-60 13 -134.5 42.5t-123.5 61.5q-170 114 -170 322q0 115 51 204.5t129 147.5q148 106 404 106
q430 0 565 -344zM821 -117v-307l-182 -293h-158l140 275h-140v325h340z" />
    <glyph glyph-name="scommaaccent" unicode="&#x219;" horiz-adv-x="1118" 
d="M1036 795l-309 -60q-27 58 -70 84q-41 25 -122 25q-68 0 -99 -25q-22 -16 -22 -47q0 -26 23 -40.5t75 -20.5l190 -25q206 -24 299 -123q80 -83 80 -213q0 -99 -46.5 -169.5t-114.5 -112.5q-138 -88 -388 -88q-252 0 -389 120q-85 75 -127 197l326 43q17 -49 64 -82
q59 -41 145 -41q122 0 149 27q21 21 21 45q0 33 -33 47q-22 10 -74 18l-145 19q-185 23 -283 94q-54 39 -87 102.5t-33 143.5q0 33 7 67t24.5 74.5t53.5 79t87 67.5q73 42 148 55t169 13q106 0 188 -16.5t152 -67.5q98 -73 141 -190zM739 -117v-307l-182 -293h-158l140 275
h-140v325h340z" />
    <glyph glyph-name="Tcommaaccent" unicode="&#x21a;" horiz-adv-x="1011" 
d="M0 1405h1012v-328h-291v-1077h-430v1077h-291v328zM686 -117v-307l-182 -293h-158l139 275h-139v325h340z" />
    <glyph glyph-name="tcommaaccent" unicode="&#x21b;" horiz-adv-x="782" 
d="M549 1393v-344h205v-275h-205v-379q0 -69 20 -94q22 -27 74 -27q51 0 111 21v-287q-140 -28 -258 -28q-190 0 -277 98q-27 31 -43.5 66.5t-23 79t-8 72t-1.5 81.5v397h-151v275h170l31 331zM571 -117v-307l-182 -293h-158l140 275h-140v325h340z" />
    <glyph glyph-name="uni0228" unicode="&#x228;" horiz-adv-x="1232" 
d="M125 1405h1057v-328h-627v-209h504v-303h-504v-229h627v-336h-414l-39 -98q8 2 37 2q57 0 104 -39q48 -43 48 -113q0 -77 -58 -123q-61 -49 -158 -49q-110 0 -247 70l37 94q73 -45 149 -45q37 0 57.5 17.5t20.5 41.5q0 38 -43 56q-40 14 -78 14q-29 0 -39 -2l62 174h-496
v1405z" />
    <glyph glyph-name="uni0229" unicode="&#x229;" horiz-adv-x="1228" 
d="M788 367l377 -25q-34 -159 -172 -258q-116 -84 -299 -100l-26 -82q10 2 28 2q67 0 111 -41q43 -40 43 -111q0 -81 -62 -127q-61 -45 -143 -45q-110 0 -227 70l37 84q80 -45 147 -45q43 0 61.5 18t18.5 41q0 43 -43 64q-31 16 -84 16q-23 0 -33 -2l53 154q-103 5 -190 36
t-166 105q-162 154 -162 403q0 147 53 251t130 169q148 125 387 125q244 0 395 -158q149 -155 149 -413v-64h-700q0 -89 37 -141q46 -64 129 -64q70 0 111 41q37 37 40 97zM471 639h299q0 91 -37 133q-38 47 -106 47t-111 -47q-45 -48 -45 -133z" />
    <glyph glyph-name="uni0259" unicode="&#x259;" horiz-adv-x="1228" 
d="M440 682l-377 25q34 158 173 258q145 104 376 104q117 0 214.5 -29.5t183.5 -111.5q161 -153 161 -404q0 -147 -52.5 -251t-129.5 -169q-146 -124 -387 -124q-245 0 -395 157q-150 156 -150 414v63h701q3 86 -37 142q-45 63 -129 63q-70 0 -111 -41q-39 -39 -41 -96z
M758 410h-299q-7 -84 37 -134q38 -47 106 -47t111 47q48 51 45 134z" />
    <glyph glyph-name="afii57929" unicode="&#x2bc;" horiz-adv-x="675" 
d="M524 1405v-295l-192 -311h-162l141 278h-141v328h354z" />
    <glyph glyph-name="circumflex" unicode="&#x2c6;" horiz-adv-x="1077" 
d="M539 1360l-168 -121h-254l422 334l422 -334h-254z" />
    <glyph glyph-name="caron" unicode="&#x2c7;" horiz-adv-x="1077" 
d="M539 1434l168 118h254l-422 -333l-422 333h254z" />
    <glyph glyph-name="breve" unicode="&#x2d8;" horiz-adv-x="1056" 
d="M719 1542h182q-26 -125 -106 -211q-103 -112 -267 -112q-163 0 -266 112q-80 86 -106 211h182q21 -60 65 -100q50 -47 125 -47t125 47q45 42 66 100z" />
    <glyph glyph-name="dotaccent" unicode="&#x2d9;" horiz-adv-x="1075" 
d="M680 1507v-268h-285v268h285z" />
    <glyph glyph-name="ring" unicode="&#x2da;" horiz-adv-x="1060" 
d="M326 1423q0 86 59 145.5t145 59.5t145.5 -59.5t59.5 -145.5t-59.5 -145t-145.5 -59t-145 59t-59 145zM461 1423q0 -28 20.5 -48.5t48.5 -20.5t49 20.5t21 48.5t-21 49t-49 21t-48.5 -21t-20.5 -49z" />
    <glyph glyph-name="ogonek" unicode="&#x2db;" horiz-adv-x="841" 
d="M479 0h144q-27 -14 -64 -47q-33 -33 -33 -68q0 -69 90 -69q55 0 138 28l26 -88q-98 -49 -213 -49q-88 0 -141 35q-57 35 -57 106q0 50 43 99q35 35 67 53z" />
    <glyph glyph-name="tilde" unicode="&#x2dc;" horiz-adv-x="1058" 
d="M252 1219l-100 131q145 116 245 116q45 0 97 -20q16 -6 48 -18.5t46 -17.5t34 -10t35 -5q18 0 37.5 7.5t30.5 14t29.5 20.5t19.5 15l29 23l104 -125q-130 -127 -260 -127q-41 0 -90 18q-21 8 -57 24.5t-58 22.5t-49 6q-55 0 -127 -63z" />
    <glyph glyph-name="hungarumlaut" unicode="&#x2dd;" horiz-adv-x="1173" 
d="M602 1683l135 -163l-413 -301l-99 114zM1051 1683l135 -163l-414 -301l-98 114z" />
    <glyph glyph-name="acutecomb" unicode="&#x301;" horiz-adv-x="4" 
d="M-180 1559l69 -201l-491 -139l-53 139z" />
    <glyph glyph-name="pi" unicode="&#x3c0;" horiz-adv-x="1458" 
d="M221 0v774h-143v275h1302v-275h-143v-774h-406v774h-204v-774h-406z" />
    <glyph glyph-name="afii10023" unicode="&#x401;" horiz-adv-x="1232" 
d="M125 1405h1057v-328h-627v-209h504v-303h-504v-225h627v-340h-1057v1405zM557 1808v-268h-285v268h285zM1034 1808v-268h-284v268h284z" />
    <glyph glyph-name="afii10051" unicode="&#x402;" horiz-adv-x="1501" 
d="M0 1405h1012v-328h-312v-235q131 47 271 47q222 0 344 -113q125 -117 125 -327q0 -66 -5.5 -117.5t-35 -124.5t-82.5 -123q-64 -62 -148 -83t-194 -21q-92 0 -184 20l22 299q18 -6 51 -6q80 0 115 39q31 31 31 92q0 55 -39 94t-125 39q-75 0 -146 -35v-522h-430v1077
h-270v328z" />
    <glyph glyph-name="afii10052" unicode="&#x403;" horiz-adv-x="1089" 
d="M125 1405h958v-328h-528v-1077h-430v1405zM819 1866l70 -201l-492 -139l-53 139z" />
    <glyph glyph-name="afii10053" unicode="&#x404;" horiz-adv-x="1368" 
d="M1323 975l-389 -72q-15 78 -51 129q-62 86 -170 86q-100 0 -152 -82q-41 -65 -41 -172h334v-299h-334q0 -110 35 -172q54 -98 176 -98q94 0 152 61q46 49 55 111l389 -72q-17 -102 -66.5 -177.5t-109.5 -119.5q-19 -14 -44 -28t-79 -37.5t-135 -38t-174 -14.5
q-289 0 -465 176q-193 193 -193 538q0 65 4.5 120t18 124t42.5 135.5t73 124.5q54 72 119.5 120t135 69.5t127 29.5t124.5 8q133 0 238.5 -31t195.5 -106q146 -124 184 -313z" />
    <glyph glyph-name="afii10054" unicode="&#x405;" horiz-adv-x="1282" 
d="M1200 1081l-356 -108q-16 53 -53 90q-55 55 -175 55q-70 0 -106 -24q-33 -23 -33 -66q0 -13 3 -23.5t9.5 -19.5t12.5 -15.5t18 -12t18.5 -9t21 -7.5t19.5 -5.5t20.5 -4.5t16.5 -3l152 -31q210 -42 317 -123q154 -114 154 -321q0 -96 -36 -175.5t-96.5 -134t-141.5 -92
t-170 -54.5t-183 -17q-160 0 -285.5 45.5t-207.5 124.5q-105 102 -142 249l402 66q12 -50 41.5 -84t60.5 -51q57 -35 160 -35q92 0 129 29q31 24 31 59q0 92 -166 125l-156 33q-60 13 -134.5 42.5t-123.5 61.5q-170 114 -170 322q0 115 51 204.5t129 147.5q148 106 404 106
q430 0 565 -344z" />
    <glyph glyph-name="afii10055" unicode="&#x406;" horiz-adv-x="679" 
d="M555 1405v-1405h-430v1405h430z" />
    <glyph glyph-name="afii10056" unicode="&#x407;" horiz-adv-x="806" 
d="M618 1405v-1405h-430v1405h430zM735 1808v-268h-246v268h246zM317 1808v-268h-245v268h245z" />
    <glyph glyph-name="afii10057" unicode="&#x408;" horiz-adv-x="892" 
d="M768 1405v-879q0 -91 -2.5 -142.5t-22 -128t-57.5 -128.5q-107 -147 -385 -147q-122 0 -186 12l-101 20v328q94 -25 162 -25q92 0 131 58q31 45 31 166v866h430z" />
    <glyph glyph-name="afii10058" unicode="&#x409;" horiz-adv-x="2111" 
d="M1296 877h285q270 0 389 -158q80 -108 80 -264q0 -215 -119 -334q-73 -74 -163 -97.5t-199 -23.5h-703v1077h-229q-10 -323 -25 -459q-19 -182 -60 -311t-122 -213q-111 -114 -283 -114q-69 0 -127 20v317q10 -2 29 -2q51 0 103 33q58 40 84 133.5t38 253.5
q16 236 21 547l2 123h999v-528zM1296 569v-254h193q65 0 100 37q31 33 31 88q0 52 -29 86q-36 43 -102 43h-193z" />
    <glyph glyph-name="afii10059" unicode="&#x40a;" horiz-adv-x="2131" 
d="M1317 1405v-528h285q270 0 389 -158q80 -108 80 -264q0 -215 -119 -334q-73 -74 -163.5 -97.5t-199.5 -23.5h-702v553h-332v-553h-430v1405h430v-524h332v524h430zM1317 569v-254h192q66 0 101 37q30 32 30 88q0 54 -28 86q-36 43 -103 43h-192z" />
    <glyph glyph-name="afii10060" unicode="&#x40b;" horiz-adv-x="1495" 
d="M0 1405h1012v-328h-312v-235q131 47 271 47q224 0 344 -113q68 -65 88 -140t20 -187v-449h-409v371v18.5v20t-0.5 18.5t-2.5 19.5t-5 17.5t-7.5 18.5t-11.5 17t-16 17.5q-43 39 -125 39q-73 0 -146 -35v-522h-430v1077h-270v328z" />
    <glyph glyph-name="afii10061" unicode="&#x40c;" horiz-adv-x="1374" 
d="M125 1405h430v-535h41q57 0 96 27q44 31 74 137q4 13 17 60t17 60t15.5 47.5t19.5 50.5t21 38t27 39q80 92 262 92q68 0 170 -16v-313h-25q-59 0 -86 -17q-31 -18 -63 -110q-34 -101 -66 -138q-55 -68 -143 -77v-9q127 -15 198 -100q19 -22 35.5 -53t26 -55.5t25.5 -69.5
q32 -98 57 -123q27 -27 76 -27q24 0 34 4v-317q-97 -20 -215 -20q-106 0 -176.5 29t-113.5 118q-10 20 -17.5 41t-14.5 51t-11 46.5t-13 60.5t-12 61q-21 107 -57 141q-9 9 -20 16t-24.5 11.5t-23.5 7t-26.5 3.5t-22.5 1h-23h-18h-41v-567h-430v1405zM961 1866l69 -201
l-491 -139l-54 139z" />
    <glyph glyph-name="afii10062" unicode="&#x40e;" horiz-adv-x="1308" 
d="M0 1405h475l252 -555h4l230 555h378l-436 -993q-57 -129 -93 -194t-73 -105q-68 -76 -153 -104.5t-197 -28.5q-98 0 -213 24v313q88 -22 172 -22q60 0 100 29q39 28 56 69zM252 1817h315q-3 -44 29 -76q29 -29 92 -29t92 29q32 32 29 76h315q-3 -137 -118 -215
q-111 -76 -318 -76q-206 0 -317 76q-116 78 -119 215z" />
    <glyph glyph-name="afii10145" unicode="&#x40f;" horiz-adv-x="1441" 
d="M125 1405h430v-1069h332v1069h430v-1405h-402v-287h-389v287h-401v1405z" />
    <glyph glyph-name="afii10017" unicode="&#x410;" horiz-adv-x="1339" 
d="M891 1405l440 -1405h-442l-78 279h-375l-84 -279h-352l436 1405h455zM737 582l-114 409l-115 -409h229z" />
    <glyph glyph-name="afii10018" unicode="&#x411;" horiz-adv-x="1370" 
d="M1219 1405v-328h-664v-209h268q193 0 305 -69q181 -113 181 -359q0 -202 -119 -321q-122 -119 -363 -119h-702v1405h1094zM555 569v-254h186q74 0 107 35q31 36 31 90q0 56 -29 88q-37 41 -102 41h-193z" />
    <glyph glyph-name="afii10019" unicode="&#x412;" horiz-adv-x="1406" 
d="M125 1405h715q123 0 209 -18t155 -80q107 -95 107 -256q0 -112 -58 -197q-61 -91 -180 -123v-4q93 -18 164 -76q109 -90 109 -254q0 -177 -111 -284q-118 -113 -352 -113h-758v1405zM555 1098v-238h182q86 0 121 35q31 31 31 86q0 54 -35 84q-37 33 -125 33h-174z
M555 561v-254h209q24 0 38.5 1.5t37.5 10.5t41 27q34 34 34 88t-32 86q-41 41 -119 41h-209z" />
    <glyph glyph-name="afii10020" unicode="&#x413;" horiz-adv-x="1089" 
d="M125 1405h958v-328h-528v-1077h-430v1405z" />
    <glyph glyph-name="afii10021" unicode="&#x414;" horiz-adv-x="1437" 
d="M272 1405h992v-1069h122v-623h-389v287h-598v-287h-389v623h103q87 162 120 350q39 215 39 520v199zM604 1077v-112q0 -191 -39 -373q-23 -109 -84 -256h353v741h-230z" />
    <glyph glyph-name="afii10022" unicode="&#x415;" horiz-adv-x="1232" 
d="M125 1405h1057v-328h-627v-209h504v-303h-504v-229h627v-336h-1057v1405z" />
    <glyph glyph-name="afii10024" unicode="&#x416;" horiz-adv-x="1867" 
d="M739 1405h389v-535h21q66 0 104 76q8 17 15.5 42t11.5 40.5t13 55t12 53.5q27 130 69 188q39 55 102 75.5t160 20.5q85 0 170 -16v-313h-24q-59 0 -86 -17q-37 -22 -64 -106q-32 -95 -65 -133q-49 -60 -144 -76v-8q130 -20 199 -103q36 -43 66 -127q4 -13 14 -43
t15 -44.5t13.5 -35.5t17 -35t17.5 -24q27 -27 76 -27q25 0 35 4v-317q-94 -20 -215 -20q-39 0 -67 2.5t-61 11t-57.5 24t-48.5 43t-41 66.5q-24 53 -71 260q-23 105 -55 141q-37 39 -99 39h-33v-567h-389v567h-32q-62 0 -99 -39q-32 -36 -55 -141q-46 -203 -72 -260
q-21 -48 -50.5 -79t-67.5 -45t-72.5 -18.5t-83.5 -4.5q-121 0 -215 20v317q10 -4 35 -4q48 0 75 27q9 10 17.5 23.5t17.5 36t13.5 34.5t15.5 45.5t14 42.5q30 84 66 127q69 83 198 103v8q-94 16 -143 76q-33 38 -65 133q-27 84 -64 106q-27 17 -86 17h-25v313q85 16 170 16
q98 0 161 -20.5t102 -75.5q42 -58 69 -188l12 -54l12 -54t11.5 -42t15.5 -41q38 -76 105 -76h20v535z" />
    <glyph glyph-name="afii10025" unicode="&#x417;" horiz-adv-x="1294" 
d="M403 942l-342 72q24 143 123 246q49 51 112.5 86.5t127.5 51t113.5 21.5t97.5 6q271 0 414 -96q165 -111 165 -303q0 -109 -72.5 -194.5t-191.5 -108.5v-4q119 -12 201 -94q82 -86 82 -222q0 -111 -46.5 -189t-105.5 -122q-147 -112 -446 -112q-266 0 -412 106
q-70 52 -119 132t-63 177l360 72q18 -71 62 -115q57 -57 160 -57q96 0 141 45q39 39 39 100q0 63 -45 95q-41 30 -119 30h-186v299h196q72 0 109 41q35 40 35 96q0 52 -48 89q-38 28 -110 28q-102 0 -162 -53q-48 -43 -70 -123z" />
    <glyph glyph-name="afii10026" unicode="&#x418;" horiz-adv-x="1441" 
d="M125 1405h430v-586q0 -131 -12 -205q16 72 55 150l289 539v102h430v-1405h-430v586q0 131 12 205q-16 -72 -55 -150l-289 -535v-106h-430v1405z" />
    <glyph glyph-name="afii10027" unicode="&#x419;" horiz-adv-x="1441" 
d="M125 1405h430v-586q0 -131 -12 -205q16 72 55 150l289 539v102h430v-1405h-430v586q0 131 12 205q-16 -72 -55 -150l-289 -535v-106h-430v1405zM285 1831h315q-3 -44 29 -76q29 -29 92 -29t92 29q32 32 29 76h315q-3 -137 -119 -215q-111 -76 -317 -76q-207 0 -318 76
q-115 78 -118 215z" />
    <glyph glyph-name="afii10028" unicode="&#x41a;" horiz-adv-x="1374" 
d="M125 1405h430v-535h41q57 0 96 27q44 31 74 137q4 13 17 60t17 60t15.5 47.5t19.5 50.5t21 38t27 39q80 92 262 92q68 0 170 -16v-313h-25q-59 0 -86 -17q-31 -18 -63 -110q-34 -101 -66 -138q-55 -68 -143 -77v-9q127 -15 198 -100q19 -22 35.5 -53t26 -55.5t25.5 -69.5
q32 -98 57 -123q27 -27 76 -27q24 0 34 4v-317q-97 -20 -215 -20q-106 0 -176.5 29t-113.5 118q-10 20 -17.5 41t-14.5 51t-11 46.5t-13 60.5t-12 61q-21 107 -57 141q-9 9 -20 16t-24.5 11.5t-23.5 7t-26.5 3.5t-22.5 1h-23h-18h-41v-567h-430v1405z" />
    <glyph glyph-name="afii10029" unicode="&#x41b;" horiz-adv-x="1421" 
d="M297 1405h999v-1405h-430v1077h-229q-10 -323 -25 -459q-19 -182 -60 -311t-122 -213q-111 -114 -283 -114q-69 0 -127 20v317q10 -2 29 -2q51 0 103 33q58 40 84 133.5t38 253.5q16 236 21 547z" />
    <glyph glyph-name="afii10030" unicode="&#x41c;" horiz-adv-x="1814" 
d="M696 1405l211 -746h4l207 746h572v-1405h-410v1004h-4l-266 -1004h-275l-274 1004h-4v-1004h-332v1405h571z" />
    <glyph glyph-name="afii10031" unicode="&#x41d;" horiz-adv-x="1441" 
d="M1317 1405v-1405h-430v553h-332v-553h-430v1405h430v-524h332v524h430z" />
    <glyph glyph-name="afii10032" unicode="&#x41e;" horiz-adv-x="1462" 
d="M731 1425q273 0 455 -161q98 -88 156.5 -232t58.5 -330q0 -160 -47.5 -299.5t-134.5 -232.5q-78 -83 -199.5 -136.5t-288.5 -53.5q-282 0 -455 165q-215 203 -215 557q0 384 242 582q171 141 428 141zM731 1118q-108 0 -164 -114q-47 -94 -47 -293q0 -205 47 -299
q55 -117 164 -117t164 117q47 94 47 299q0 199 -47 293q-56 114 -164 114z" />
    <glyph glyph-name="afii10033" unicode="&#x41f;" horiz-adv-x="1441" 
d="M125 1405h1192v-1405h-430v1077h-332v-1077h-430v1405z" />
    <glyph glyph-name="afii10034" unicode="&#x420;" horiz-adv-x="1351" 
d="M125 1405h565q71 0 105.5 -1t98 -7t114 -22t96.5 -42q209 -118 209 -370q0 -137 -66 -244q-36 -57 -85.5 -97.5t-96.5 -62t-107 -33.5t-102.5 -15t-97.5 -3h-203v-508h-430v1405zM555 823h160q84 0 127 39q41 41 41 96q0 59 -35 97q-43 43 -133 43h-160v-275z" />
    <glyph glyph-name="afii10035" unicode="&#x421;" horiz-adv-x="1355" 
d="M1319 870l-401 -20q0 93 -27 156q-18 42 -57.5 75t-104.5 33t-107 -36t-69 -111q-33 -93 -33 -267q0 -100 7.5 -164t31.5 -118q54 -123 170 -123q105 0 158 98q39 73 39 148l393 -25q-16 -227 -170 -377q-162 -159 -432 -159q-98 0 -184 21.5t-145.5 54t-109.5 78
t-80.5 87t-54.5 88.5q-82 160 -82 381q0 383 230 586q171 149 426 149q279 0 442 -165q66 -66 111.5 -165.5t48.5 -224.5z" />
    <glyph glyph-name="afii10036" unicode="&#x422;" horiz-adv-x="1011" 
d="M0 1405h1012v-328h-291v-1077h-430v1077h-291v328z" />
    <glyph glyph-name="afii10037" unicode="&#x423;" horiz-adv-x="1308" 
d="M0 1405h475l252 -555h4l230 555h378l-436 -993q-57 -129 -93 -194t-73 -105q-68 -76 -153 -104.5t-197 -28.5q-98 0 -213 24v313q88 -22 172 -22q60 0 100 29q39 28 56 69z" />
    <glyph glyph-name="afii10038" unicode="&#x424;" horiz-adv-x="1810" 
d="M690 1446h430v-137h21q201 0 346 -80q262 -145 262 -504q0 -152 -48 -266t-159 -197q-169 -125 -422 -119v-143h-430v143q-253 -6 -422 119q-111 83 -159 197t-48 266q0 358 263 504q145 80 346 80h20v137zM702 426v600l-36 -2q-83 -5 -134 -72q-57 -78 -57 -227
q0 -147 60 -225q63 -78 167 -74zM1108 1026v-600q105 -4 168 74q59 76 59 225t-57 227q-51 67 -133 72z" />
    <glyph glyph-name="afii10039" unicode="&#x425;" horiz-adv-x="1363" 
d="M-6 1405h500l219 -379l223 379h389l-407 -653l475 -752h-500l-264 442l-260 -442h-398l455 727z" />
    <glyph glyph-name="afii10040" unicode="&#x426;" horiz-adv-x="1476" 
d="M111 1405h430v-1069h331v1069h431v-1069h122v-623h-389v287h-925v1405z" />
    <glyph glyph-name="afii10041" unicode="&#x427;" horiz-adv-x="1368" 
d="M92 1405h410v-371v-40t3 -36.5t9 -39t19 -29t32 -25.5q31 -16 121 -16q70 0 127 8v549h430v-1405h-430v545q-127 -13 -250 -13q-169 0 -246 25q-139 45 -192 178q-9 24 -16 52t-10 47t-5 54t-2 46v50.5v41.5v379z" />
    <glyph glyph-name="afii10042" unicode="&#x428;" horiz-adv-x="1974" 
d="M125 1405h410v-1069h247v1069h410v-1069h248v1069h409v-1405h-1724v1405z" />
    <glyph glyph-name="afii10043" unicode="&#x429;" horiz-adv-x="2023" 
d="M125 1405h410v-1069h247v1069h410v-1069h248v1069h409v-1069h123v-623h-389v287h-1458v1405z" />
    <glyph glyph-name="afii10044" unicode="&#x42a;" horiz-adv-x="1576" 
d="M-8 1405h770v-528h305q78 0 144 -16.5t110 -44t70.5 -50.5t44.5 -47q80 -101 80 -264q0 -215 -119 -334q-73 -74 -163.5 -97.5t-199.5 -23.5h-702v1077h-340v328zM762 569v-254h192q66 0 101 37q30 32 30 88q0 54 -28 86q-36 43 -103 43h-192z" />
    <glyph glyph-name="afii10045" unicode="&#x42b;" horiz-adv-x="1966" 
d="M125 1405h430v-528h305q74 0 154.5 -20.5t140.5 -63.5q154 -110 154 -338q0 -67 -11.5 -126.5t-44.5 -121.5t-85 -106.5t-139.5 -72.5t-201.5 -28h-702v1405zM555 569v-254h193q65 0 100 37q31 33 31 88q0 59 -35.5 94t-95.5 35h-193zM1411 1405h430v-1405h-430v1405z
" />
    <glyph glyph-name="afii10046" unicode="&#x42c;" horiz-adv-x="1370" 
d="M125 1405h430v-528h285q270 0 389 -158q80 -108 80 -264q0 -215 -119 -334q-73 -74 -163.5 -97.5t-199.5 -23.5h-702v1405zM555 569v-254h193q65 0 100 37q31 33 31 88q0 52 -29 86q-36 43 -102 43h-193z" />
    <glyph glyph-name="afii10047" unicode="&#x42d;" horiz-adv-x="1368" 
d="M434 903l-389 72q38 189 184 313q90 75 196 106t239 31q53 0 98 -4t102 -18t106.5 -38t102 -66.5t96.5 -100.5t73 -124.5t42.5 -135.5t18 -124t4.5 -120q0 -345 -193 -538q-176 -176 -465 -176q-93 0 -174 14.5t-135 38t-79 37.5t-44 28q-60 44 -109.5 119.5t-66.5 177.5
l389 72q9 -62 55 -111q58 -61 152 -61q122 0 176 98q35 62 35 172h-334v299h334q0 107 -41 172q-52 82 -152 82q-108 0 -170 -86q-36 -51 -51 -129z" />
    <glyph glyph-name="afii10048" unicode="&#x42e;" horiz-adv-x="2058" 
d="M555 872h152q28 232 190 385q180 168 442 168q145 0 266 -48t209.5 -138.5t137.5 -228t49 -308.5q0 -349 -201 -550q-175 -172 -461 -172q-58 0 -108.5 6t-113.5 23.5t-124.5 56t-113.5 96.5q-73 81 -118 190.5t-54 220.5h-152v-573h-430v1405h430v-533zM1339 1118
q-107 0 -163 -114q-48 -96 -48 -293q0 -203 48 -299q55 -117 163 -117q109 0 164 117q47 94 47 299q0 199 -47 293q-56 114 -164 114z" />
    <glyph glyph-name="afii10049" unicode="&#x42f;" horiz-adv-x="1460" 
d="M1335 1405v-1405h-430v524h-129l-239 -524h-455l311 573q-104 30 -180 109q-98 102 -98 285q0 136 54.5 226t131.5 138q119 74 326 74h708zM905 1090h-196q-83 0 -123 -33q-41 -34 -41 -96q0 -57 41 -93q44 -37 123 -37h196v259z" />
    <glyph glyph-name="afii10065" unicode="&#x430;" horiz-adv-x="1239" 
d="M461 707l-373 34q39 158 172 244q77 51 170.5 67.5t206.5 16.5q59 0 106.5 -3t103.5 -14.5t98.5 -30.5t82 -53t64.5 -81q19 -36 28.5 -83t11 -78t1.5 -87v-410q0 -128 30 -229h-385q-14 63 -14 145q-107 -165 -342 -165q-97 0 -171.5 28t-116 74t-61.5 97t-20 106
q0 72 30.5 139t88.5 113q140 111 496 139l75 6v16q0 64 -24 90q-27 31 -101 31q-140 0 -157 -112zM743 492l-63 -11q-106 -17 -156 -53q-57 -41 -57 -106q0 -41 29.5 -67t83.5 -26q44 0 76 14.5t48 34.5t25.5 50.5t11.5 52.5t2 51v60z" />
    <glyph glyph-name="afii10066" unicode="&#x431;" horiz-adv-x="1269" 
d="M1124 1427v-276q-54 -18 -108 -31q-55 -12 -98 -20t-61 -10.5t-56 -6.5t-53 -6q-200 -22 -275 -63q-56 -32 -94 -94.5t-41 -137.5h4q121 185 385 185q167 0 285 -70q35 -21 65 -49.5t63 -76t52.5 -119t19.5 -158.5q0 -245 -159 -392q-78 -71 -173.5 -96.5t-220.5 -25.5
q-71 0 -128 7.5t-117.5 27.5t-113 59t-95.5 98q-62 83 -94.5 208.5t-32.5 256.5q0 105 23 219t65 199q91 185 274 256q27 10 56 18t74.5 15t77.5 11.5t107 14.5t122 16q130 17 247 41zM645 737q-76 0 -115 -65q-38 -63 -38 -189q0 -125 38 -188q40 -66 115 -66t115 66
q39 64 39 188q0 125 -39 189q-39 65 -115 65z" />
    <glyph glyph-name="afii10067" unicode="&#x432;" horiz-adv-x="1218" 
d="M111 1049h649q83 0 145.5 -11.5t112.5 -48.5q41 -29 68.5 -80t27.5 -118q0 -102 -61 -166q-57 -60 -140 -72v-4q108 -7 179 -74q75 -72 75 -180q0 -71 -30.5 -132t-81.5 -97q-41 -31 -99 -46.5t-95.5 -17.5t-102.5 -2h-647v1049zM516 844v-213h72q66 0 96 24q37 32 37 84
t-43 84q-33 21 -90 21h-72zM516 426v-221h109q63 0 96 31q33 33 33 79q0 60 -45 88q-33 23 -84 23h-109z" />
    <glyph glyph-name="afii10068" unicode="&#x433;" horiz-adv-x="980" 
d="M111 1049h860v-275h-455v-774h-405v1049z" />
    <glyph glyph-name="afii10069" unicode="&#x434;" horiz-adv-x="1208" 
d="M236 1049h829v-775h123v-548h-365v274h-428v-274h-364v548h100q62 121 83.5 275t21.5 432v68zM522 774v-31q0 -286 -65 -469h202v500h-137z" />
    <glyph glyph-name="afii10070" unicode="&#x435;" horiz-adv-x="1228" 
d="M788 367l377 -25q-34 -159 -172 -258q-145 -104 -377 -104q-116 0 -213.5 29.5t-183.5 111.5q-162 154 -162 403q0 147 53 251t130 169q148 125 387 125q244 0 395 -158q149 -155 149 -413v-64h-700q-3 -85 37 -141q46 -64 129 -64q70 0 111 41q37 37 40 97zM471 639h299
q7 83 -37 133q-38 47 -106 47t-111 -47q-48 -51 -45 -133z" />
    <glyph glyph-name="afii10072" unicode="&#x436;" horiz-adv-x="1712" 
d="M670 1049h372v-379h21q35 0 63 30q37 40 64 150q24 90 43 122q24 39 61 60q50 29 174 29q103 0 179 -12v-275q-16 4 -41 4q-36 0 -60 -16q-24 -17 -45 -70q-19 -45 -51 -71q-43 -32 -123 -41v-5q100 -12 156 -75q25 -28 61 -109q5 -11 12 -29t10 -25t8 -17t8.5 -16
t8.5 -11q21 -23 62 -23q15 0 39 4v-274q-99 -12 -203 -12q-45 0 -71 1.5t-65.5 14t-66.5 37.5q-51 45 -86 168q-33 117 -49 149q-17 32 -36.5 45t-51.5 13h-21v-416h-372v416h-21q-32 0 -51.5 -13t-36.5 -45q-16 -32 -49 -149q-35 -123 -86 -168q-27 -25 -66.5 -37.5
t-65.5 -14t-71 -1.5q-104 0 -203 12v274q16 -4 39 -4q41 0 62 23q5 5 8.5 11t8.5 16t8 17t10 25t12 29q36 81 61 109q56 63 156 75v5q-80 9 -123 41q-32 26 -51 71q-21 53 -45 70q-24 16 -60 16q-24 0 -40 -4v275q76 12 178 12q124 0 174 -29q31 -17 52 -48t29.5 -55.5
t19.5 -66.5l3 -12q27 -110 64 -150q28 -30 63 -30h21v379z" />
    <glyph glyph-name="afii10073" unicode="&#x437;" horiz-adv-x="1130" 
d="M389 670l-330 59q30 134 125 219q138 121 412 121q152 0 264 -45q79 -31 128 -79.5t64 -87.5t15 -77q0 -94 -68 -162q-56 -56 -139 -67v-4q95 -18 152 -72q67 -64 67 -170q0 -75 -44 -146t-111 -112q-108 -67 -346 -67q-239 0 -367 86q-145 97 -160 253l346 50
q4 -62 39 -97q43 -43 109 -43q61 0 92 35q29 29 29 74q0 51 -37 74q-27 18 -97 18h-94v205h94q63 0 97 29q28 25 28 65q0 46 -34 70q-26 20 -72 20q-66 0 -111 -45q-42 -42 -51 -104z" />
    <glyph glyph-name="afii10074" unicode="&#x438;" horiz-adv-x="1265" 
d="M111 1049h405v-400q0 -55 -8 -88q11 14 16.5 22.5t8.5 14.5l4 8l213 369v74h405v-1049h-405v430q0 32 10 80q-6 -12 -9.5 -18.5t-6 -10t-8.5 -13.5t-15 -26l-205 -368v-74h-405v1049z" />
    <glyph glyph-name="afii10075" unicode="&#x439;" horiz-adv-x="1265" 
d="M111 1049h405v-400q0 -55 -8 -88q11 14 16.5 22.5t8.5 14.5l4 8l213 369v74h405v-1049h-405v430q0 32 10 80q-6 -12 -9.5 -18.5t-6 -10t-8.5 -13.5t-15 -26l-205 -368v-74h-405v1049zM252 1516h287q0 -48 14 -76q23 -47 80 -47t80 47q14 28 14 76h287q-2 -124 -94 -207
q-35 -30 -82 -50.5t-92.5 -28t-69.5 -9.5t-43 -2t-43 2t-69.5 9.5t-92.5 28t-82 50.5q-92 83 -94 207z" />
    <glyph glyph-name="afii10076" unicode="&#x43a;" horiz-adv-x="1212" 
d="M111 1049h405v-379h45q44 0 78 30q30 30 63 150q10 39 15 54t17.5 45.5t30 49.5t42.5 33q51 29 180 29q98 0 180 -12v-275q-3 0 -22 2t-27 2q-38 0 -59 -16q-17 -12 -45 -70q-24 -51 -60 -76q-42 -28 -110 -36v-5q93 -19 143 -75q36 -41 62 -109q5 -11 12 -29t10 -25
t8 -17t8.5 -16t8.5 -11q21 -23 61 -23q15 0 39 4v-274q-88 -12 -203 -12q-70 0 -117.5 10t-84.5 43q-22 20 -39.5 51.5t-26 54.5t-20.5 62q-38 125 -50 149q-18 35 -38.5 46.5t-55.5 11.5h-45v-416h-405v1049z" />
    <glyph glyph-name="afii10077" unicode="&#x43b;" horiz-adv-x="1191" 
d="M233 1049h848v-1049h-405v774h-135q-13 -249 -23 -332q-19 -146 -53 -230t-98 -142q-95 -82 -234 -82q-74 0 -123 12v274h31q80 5 121 72q48 76 63 328q8 117 8 272v103z" />
    <glyph glyph-name="afii10078" unicode="&#x43c;" horiz-adv-x="1572" 
d="M111 1049h520l160 -543l159 543h512v-1049h-364v674q0 13 1 26t3 34.5t4 41.5q-2 -5 -5 -14t-5 -14q-5 -15 -6 -17q-4 -11 -13 -43l-198 -688h-240l-209 688q-13 50 -27 88q7 -95 7 -102v-674h-299v1049z" />
    <glyph glyph-name="afii10079" unicode="&#x43d;" horiz-adv-x="1257" 
d="M111 1049h405v-365h225v365h406v-1049h-406v410h-225v-410h-405v1049z" />
    <glyph glyph-name="afii10080" unicode="&#x43e;" horiz-adv-x="1220" 
d="M610 1069q231 0 383 -141q82 -75 126 -182t44 -222t-44 -221.5t-126 -181.5q-152 -141 -383 -141t-383 141q-82 75 -126 181.5t-44 221.5t44 222t126 182q152 141 383 141zM610 229q75 0 111 76q18 35 23.5 83.5t5.5 135.5t-5.5 135.5t-23.5 83.5q-37 76 -111 76
q-73 0 -110 -76q-18 -35 -23.5 -83.5t-5.5 -135.5q0 -158 29 -219q37 -76 110 -76z" />
    <glyph glyph-name="afii10081" unicode="&#x43f;" horiz-adv-x="1257" 
d="M111 1049h1036v-1049h-406v774h-225v-774h-405v1049z" />
    <glyph glyph-name="afii10082" unicode="&#x440;" horiz-adv-x="1241" 
d="M516 -332h-405v1381h376v-152h5q39 67 98 111q85 61 219 61q171 0 272 -141q103 -143 103 -393q0 -259 -109 -406q-111 -149 -289 -149q-84 0 -157 34q-71 35 -109 99h-4v-445zM516 649v-229q0 -93 23 -135q35 -56 92 -56q78 0 114 88q25 62 25 209q0 142 -29 205
q-36 76 -110 76q-47 0 -78 -31q-37 -37 -37 -127z" />
    <glyph glyph-name="afii10083" unicode="&#x441;" horiz-adv-x="1101" 
d="M1077 653l-358 -28q0 35 -8.5 77.5t-22.5 65.5q-29 51 -92 51q-62 0 -96 -57q-17 -29 -23 -80t-6 -156q0 -165 31 -229q35 -68 100 -68q60 0 92 56q24 44 29 137l358 -29q-9 -93 -51.5 -172.5t-107.5 -134.5q-128 -106 -336 -106q-232 0 -377 143q-152 148 -152 397
q0 127 39 229t105 171q145 149 383 149q221 0 338 -102q60 -50 103 -133t52 -181z" />
    <glyph glyph-name="afii10084" unicode="&#x442;" horiz-adv-x="983" 
d="M6 1049h971v-275h-283v-774h-405v774h-283v275z" />
    <glyph glyph-name="afii10085" unicode="&#x443;" horiz-adv-x="1077" 
d="M1085 1049l-403 -1112q-20 -52 -34.5 -83.5t-45 -73.5t-70.5 -73q-61 -46 -127.5 -61t-146.5 -15q-114 0 -199 17v295q84 -17 166 -17q94 0 129 23q27 19 29 43l2 18l-393 1039h440l172 -560l182 560h299z" />
    <glyph glyph-name="afii10086" unicode="&#x444;" horiz-adv-x="1679" 
d="M637 1405h405v-356h33q114 0 212 -34.5t167 -90.5q168 -137 168 -389q0 -129 -44.5 -234t-121.5 -174q-145 -131 -414 -127v-332h-405v332q-269 -4 -414 127q-76 69 -121 173t-45 230q0 260 168 394q69 56 167 90.5t212 34.5h33v356zM666 250v549l-21 -2q-19 -2 -32 -5
t-35.5 -12t-43.5 -28.5t-40 -49.5q-43 -66 -43 -178t47 -184q28 -42 70 -66t77 -24h21zM1014 799v-549h20q35 0 77.5 24t70.5 66q47 72 47 184t-43 178q-19 30 -40 49.5t-44 28.5t-35.5 12t-32.5 5z" />
    <glyph glyph-name="afii10087" unicode="&#x445;" horiz-adv-x="1167" 
d="M1116 1049l-305 -478l371 -571h-463l-191 334l-204 -334h-338l370 555l-321 494h459l139 -254l145 254h338z" />
    <glyph glyph-name="afii10088" unicode="&#x446;" horiz-adv-x="1323" 
d="M111 1049h405v-775h221v775h406v-775h123v-548h-365v274h-790v1049z" />
    <glyph glyph-name="afii10089" unicode="&#x447;" horiz-adv-x="1193" 
d="M72 1049h405v-261q0 -36 1.5 -57.5t11 -46t26.5 -37.5q23 -16 76 -16q6 0 86 8v410h405v-1049h-405v393q-118 -12 -213 -12q-223 0 -311 86q-82 79 -82 268v314z" />
    <glyph glyph-name="afii10090" unicode="&#x448;" horiz-adv-x="1806" 
d="M111 1049h397v-775h197v775h397v-775h196v775h398v-1049h-1585v1049z" />
    <glyph glyph-name="afii10091" unicode="&#x449;" horiz-adv-x="1875" 
d="M111 1049h397v-775h197v775h397v-775h196v775h398v-775h123v-548h-365v274h-1343v1049z" />
    <glyph glyph-name="afii10092" unicode="&#x44a;" horiz-adv-x="1374" 
d="M-20 1049h720v-361h230q196 0 293 -86q44 -39 72 -99.5t28 -135.5q0 -79 -31 -158t-84 -125q-32 -30 -70 -48.5t-80 -25.5t-66 -8.5t-60 -1.5h-637v774h-315v275zM700 483v-233h78q61 0 94 29q37 31 37 90q0 58 -37 88q-33 26 -90 26h-82z" />
    <glyph glyph-name="afii10093" unicode="&#x44b;" horiz-adv-x="1714" 
d="M111 1049h405v-361h229q196 0 293 -86q44 -39 72.5 -100t28.5 -135q0 -79 -31 -158t-84 -125q-32 -30 -70 -48.5t-80 -25.5t-66 -8.5t-60 -1.5h-637v1049zM516 483v-233h78q61 0 94 29q37 31 37 90q0 58 -37 88q-33 26 -90 26h-82zM1198 1049h406v-1049h-406v1049z" />
    <glyph glyph-name="afii10094" unicode="&#x44c;" horiz-adv-x="1189" 
d="M111 1049h405v-361h229q196 0 293 -86q44 -39 72.5 -100t28.5 -135q0 -79 -31 -158t-84 -125q-32 -30 -70 -48.5t-80 -25.5t-66 -8.5t-60 -1.5h-637v1049zM516 483v-233h78q61 0 94 29q37 31 37 90q0 58 -37 88q-33 26 -90 26h-82z" />
    <glyph glyph-name="afii10095" unicode="&#x44d;" horiz-adv-x="1163" 
d="M373 680l-348 47q49 149 174 238q145 104 366 104q231 0 377 -131q164 -148 164 -401q0 -106 -33 -209.5t-96 -177.5q-146 -170 -432 -170q-204 0 -334 79q-155 93 -191 265l355 45q8 -47 45 -90q47 -50 115 -50q88 0 129 60q24 37 28 96q3 25 0 49h-272v205h272
q0 86 -37 131q-39 49 -114 49q-67 0 -113 -41q-44 -40 -55 -98z" />
    <glyph glyph-name="afii10096" unicode="&#x44e;" horiz-adv-x="1757" 
d="M516 684h111q18 86 63 158t105 119q137 108 352 108q233 0 383 -141q82 -75 126 -181.5t44 -222.5t-44 -222t-126 -181q-150 -141 -383 -141q-239 0 -387 143q-126 122 -144 287h-100v-410h-405v1049h405v-365zM1147 229q74 0 110 76q18 35 23.5 83.5t5.5 135.5
t-5.5 135.5t-23.5 83.5q-37 76 -110 76q-74 0 -111 -76q-17 -34 -22.5 -82t-5.5 -137q0 -83 5 -131.5t23 -87.5q37 -76 111 -76z" />
    <glyph glyph-name="afii10097" unicode="&#x44f;" horiz-adv-x="1236" 
d="M1126 1049v-1049h-405v354h-86l-164 -354h-430l238 408q-85 28 -138 90q-67 78 -67 200q0 171 121 267q109 84 321 84h610zM721 799h-98q-68 0 -101 -31q-35 -31 -35 -90q0 -58 35 -90q33 -29 113 -29h86v240z" />
    <glyph glyph-name="afii10071" unicode="&#x451;" horiz-adv-x="1228" 
d="M788 367l377 -25q-34 -159 -172 -258q-145 -104 -377 -104q-116 0 -213.5 29.5t-183.5 111.5q-162 154 -162 403q0 147 53 251t130 169q148 125 387 125q244 0 395 -158q149 -155 149 -413v-64h-700q-3 -85 37 -141q46 -64 129 -64q70 0 111 41q37 37 40 97zM471 639h299
q7 83 -37 133q-38 47 -106 47t-111 -47q-48 -51 -45 -133zM535 1507v-268h-285v268h285zM979 1507v-268h-285v268h285z" />
    <glyph glyph-name="afii10099" unicode="&#x452;" horiz-adv-x="1247" 
d="M117 1128h-148v183h148v94h405v-94h346v-183h-346v-254q112 144 309 144q62 0 120.5 -21t95.5 -57q90 -86 90 -291v-534q0 -136 -16 -222.5t-68 -146.5q-92 -106 -287 -106q-80 0 -215 28v283q43 -17 82 -17q55 0 78 39q20 30 20 142v512q0 68 -20 98q-23 31 -70 31
q-40 0 -70 -23q-49 -39 -49 -129v-604h-405v1128z" />
    <glyph glyph-name="afii10100" unicode="&#x453;" horiz-adv-x="980" 
d="M111 1049h860v-275h-455v-774h-405v1049zM737 1559l70 -201l-492 -139l-53 139z" />
    <glyph glyph-name="afii10101" unicode="&#x454;" horiz-adv-x="1163" 
d="M1139 727l-348 -47q-11 57 -56 98q-46 41 -112 41q-76 0 -115 -49q-37 -45 -37 -131h272v-205h-272q-3 -24 0 -49q3 -58 29 -96q41 -60 129 -60q67 0 114 50q37 43 45 90l355 -45q-36 -172 -191 -265q-130 -79 -334 -79q-286 0 -432 170q-63 74 -96 177.5t-33 209.5
q0 253 164 401q146 131 377 131q222 0 367 -104q125 -89 174 -238z" />
    <glyph glyph-name="afii10102" unicode="&#x455;" horiz-adv-x="1118" 
d="M1036 795l-309 -60q-27 58 -70 84q-41 25 -122 25q-68 0 -99 -25q-22 -16 -22 -47q0 -26 23 -40.5t75 -20.5l190 -25q206 -24 299 -123q80 -83 80 -213q0 -99 -46.5 -169.5t-114.5 -112.5q-138 -88 -388 -88q-252 0 -389 120q-85 75 -127 197l326 43q17 -49 64 -82
q59 -41 145 -41q122 0 149 27q21 21 21 45q0 33 -33 47q-22 10 -74 18l-145 19q-185 23 -283 94q-54 39 -87 102.5t-33 143.5q0 33 7 67t24.5 74.5t53.5 79t87 67.5q73 42 148 55t169 13q106 0 188 -16.5t152 -67.5q98 -73 141 -190z" />
    <glyph glyph-name="afii10103" unicode="&#x456;" horiz-adv-x="626" 
d="M516 1049v-1049h-405v1049h405zM516 1425v-278h-405v278h405z" />
    <glyph glyph-name="afii10104" unicode="&#x457;" horiz-adv-x="753" 
d="M580 1049v-1049h-406v1049h406zM702 1415v-268h-245v268h245zM297 1415v-268h-246v268h246z" />
    <glyph glyph-name="afii10105" unicode="&#x458;" horiz-adv-x="624" 
d="M514 1049v-988v-15q0 -56 -1.5 -86.5t-8 -77t-23.5 -82t-45 -64.5q-88 -96 -293 -96q-102 0 -235 28v281q68 -15 96 -15q58 0 84 37q3 5 6 10.5t5 10t3.5 11t2.5 10.5t2 12t1.5 11t0.5 12.5v12v13v12.5v963h405zM514 1425v-278h-405v278h405z" />
    <glyph glyph-name="afii10106" unicode="&#x459;" horiz-adv-x="1755" 
d="M1081 688h230q196 0 293 -86q44 -39 72 -99.5t28 -135.5q0 -79 -31 -158t-84 -125q-32 -30 -70 -48.5t-80 -25.5t-66 -8.5t-60 -1.5h-637v774h-135q-13 -249 -23 -332q-19 -146 -53 -230t-98 -142q-95 -82 -234 -82q-74 0 -123 12v274h31q80 5 121 72q48 76 63 328
q8 117 8 272v103h848v-361zM1081 483v-233h78q61 0 94 29q37 31 37 90q0 58 -37 88q-33 26 -90 26h-82z" />
    <glyph glyph-name="afii10107" unicode="&#x45a;" horiz-adv-x="1820" 
d="M1147 1049v-361h229q196 0 293 -86q44 -39 72 -99.5t28 -135.5q0 -79 -30.5 -158t-83.5 -125q-32 -30 -70.5 -48.5t-80 -25.5t-66 -8.5t-60.5 -1.5h-637v410h-225v-410h-405v1049h405v-365h225v365h406zM1147 483v-233h78q61 0 94 29q37 31 37 90q0 58 -37 88
q-33 26 -90 26h-82z" />
    <glyph glyph-name="afii10108" unicode="&#x45b;" horiz-adv-x="1247" 
d="M522 1405v-94h346v-183h-346v-254q115 144 305 144q62 0 121.5 -20.5t98.5 -57.5q90 -86 90 -291v-649h-406v627q0 68 -20 98q-22 31 -70 31q-65 0 -96 -51q-23 -40 -23 -101v-604h-405v1128h-148v183h148v94h405z" />
    <glyph glyph-name="afii10109" unicode="&#x45c;" horiz-adv-x="1212" 
d="M111 1049h405v-379h45q44 0 78 30q30 30 63 150q10 39 15 54t17.5 45.5t30 49.5t42.5 33q51 29 180 29q98 0 180 -12v-275q-3 0 -22 2t-27 2q-38 0 -59 -16q-17 -12 -45 -70q-24 -51 -60 -76q-42 -28 -110 -36v-5q93 -19 143 -75q36 -41 62 -109q5 -11 12 -29t10 -25
t8 -17t8.5 -16t8.5 -11q21 -23 61 -23q15 0 39 4v-274q-88 -12 -203 -12q-70 0 -117.5 10t-84.5 43q-22 20 -39.5 51.5t-26 54.5t-20.5 62q-38 125 -50 149q-18 35 -38.5 46.5t-55.5 11.5h-45v-416h-405v1049zM852 1559l70 -201l-492 -139l-53 139z" />
    <glyph glyph-name="afii10110" unicode="&#x45e;" horiz-adv-x="1077" 
d="M1085 1049l-403 -1112q-20 -52 -34.5 -83.5t-45 -73.5t-70.5 -73q-61 -46 -127.5 -61t-146.5 -15q-114 0 -199 17v295q84 -17 166 -17q94 0 129 23q27 19 29 43l2 18l-393 1039h440l172 -560l182 560h299zM182 1516h287q0 -48 14 -76q23 -47 80 -47t80 47q14 28 14 76
h287q-2 -124 -94 -207q-35 -30 -82 -50.5t-92.5 -28t-69.5 -9.5t-43 -2t-43 2t-69.5 9.5t-92.5 28t-82 50.5q-92 83 -94 207z" />
    <glyph glyph-name="afii10193" unicode="&#x45f;" horiz-adv-x="1253" 
d="M111 1049h405v-775h221v775h406v-1049h-334v-283h-365v283h-333v1049z" />
    <glyph glyph-name="afii10146" unicode="&#x462;" horiz-adv-x="1519" 
d="M274 1444h431v-121h409v-287h-409v-159h284q270 0 389 -158q80 -108 80 -264q0 -215 -119 -334q-73 -74 -163 -97.5t-199 -23.5h-703v1036h-282v287h282v121zM705 569v-254h192q65 0 100 37q31 33 31 88q0 52 -29 86q-36 43 -102 43h-192z" />
    <glyph glyph-name="afii10194" unicode="&#x463;" horiz-adv-x="1236" 
d="M158 1405h405v-285h283v-205h-283v-227h230q195 0 292 -86q44 -39 72.5 -100t28.5 -135q0 -79 -31 -158t-84 -125q-32 -30 -70 -48.5t-80 -25.5t-66 -8.5t-60 -1.5h-637v915h-178v205h178v285zM563 483v-233h78q61 0 94 29q37 31 37 90q0 58 -37 88q-33 26 -90 26h-82z
" />
    <glyph glyph-name="afii10147" unicode="&#x472;" horiz-adv-x="1462" 
d="M731 1425q273 0 455 -161q98 -88 156.5 -232t58.5 -330q0 -160 -47.5 -299.5t-134.5 -232.5q-78 -83 -199.5 -136.5t-288.5 -53.5q-282 0 -455 165q-215 203 -215 557q0 384 242 582q171 141 428 141zM895 412q31 62 41 180q-52 -25 -84 -25q-75 0 -133 21
q-66 24 -109 24q-22 0 -32.5 -0.5t-24.5 -5t-27 -14.5q10 -118 41 -180q55 -117 164 -117t164 117zM731 1118q-108 0 -164 -114q-29 -58 -39 -162q43 24 88 24q63 0 111 -18q75 -27 129 -27q45 0 78 17q-10 108 -39 166q-56 114 -164 114z" />
    <glyph glyph-name="afii10195" unicode="&#x473;" horiz-adv-x="1220" 
d="M610 1069q231 0 383 -141q82 -75 126 -182t44 -222t-44 -221.5t-126 -181.5q-152 -141 -383 -141t-383 141q-82 75 -126 181.5t-44 221.5t44 222t126 182q152 141 383 141zM610 209q37 0 68.5 23t50.5 63q24 49 27 147q-36 -20 -66 -20q-57 0 -94 18q-29 15 -78 15
q-29 0 -55 -15q3 -89 29 -145q42 -86 118 -86zM492 754q-18 -35 -23 -103q35 13 57 13q15 0 26.5 -2t28.5 -7.5t25 -7.5q66 -16 88 -16q34 0 56 14q-4 70 -21 109q-19 39 -51 62.5t-68 23.5t-67.5 -23.5t-50.5 -62.5z" />
    <glyph glyph-name="afii10148" unicode="&#x474;" horiz-adv-x="1409" 
d="M1208 965l-317 -965h-447l-452 1405h454l267 -899l127 459q35 128 69 207t90 139q105 114 283 114q69 0 127 -20v-318q-15 3 -29 3q-49 0 -102 -31q-46 -27 -70 -94z" />
    <glyph glyph-name="afii10196" unicode="&#x475;" horiz-adv-x="1138" 
d="M981 702l-291 -702h-307l-391 1049h424l176 -555h4l55 211q27 101 58.5 164.5t81.5 109.5q49 46 98 64t121 18q74 0 123 -12v-275h-31q-84 0 -121 -72z" />
    <glyph glyph-name="afii10050" unicode="&#x490;" horiz-adv-x="1126" 
d="M137 1405h637v219h342v-547h-549v-1077h-430v1405z" />
    <glyph glyph-name="afii10098" unicode="&#x491;" horiz-adv-x="980" 
d="M111 1049h598v174h262v-449h-455v-774h-405v1049z" />
    <glyph glyph-name="uni0492" unicode="&#x492;" horiz-adv-x="1159" 
d="M1145 1405v-328h-590v-209h459v-303h-459v-565h-430v565h-125v303h125v537h1020z" />
    <glyph glyph-name="uni0493" unicode="&#x493;" horiz-adv-x="980" 
d="M111 1049h860v-275h-455v-188h352v-250h-352v-336h-405v336h-123v250h123v463z" />
    <glyph glyph-name="uni0494" unicode="&#x494;" horiz-adv-x="1355" 
d="M125 1405h1022v-328h-592v-235q131 47 270 47q222 0 344 -113q125 -117 125 -327q0 -66 -5.5 -117.5t-35 -124.5t-82.5 -123q-64 -62 -148 -83t-194 -21q-92 0 -184 20l23 299q18 -6 51 -6q80 0 115 39q30 30 30 92q0 55 -39 94t-125 39q-74 0 -145 -35v-522h-430v1405z
" />
    <glyph glyph-name="uni0495" unicode="&#x495;" horiz-adv-x="1181" 
d="M111 1049h860v-275h-455v-219q111 41 240 41q174 0 266 -90q59 -57 78.5 -127t19.5 -162v-102q0 -136 -16 -222.5t-68 -146.5q-90 -106 -286 -106q-120 0 -215 22v283q44 -11 81 -11q54 0 78 39q21 31 21 142v102q0 66 -21 94q-24 35 -71 35q-56 0 -107 -35v-311h-405
v1049z" />
    <glyph glyph-name="uni0496" unicode="&#x496;" horiz-adv-x="1957" 
d="M739 1405h389v-535h21q66 0 104 76q8 17 15.5 42t11.5 40.5t13 55t12 53.5q27 130 69 188q39 55 102 75.5t160 20.5q85 0 170 -16v-313h-24q-59 0 -86 -17q-37 -22 -64 -106q-32 -95 -65 -133q-49 -60 -144 -76v-8q134 -23 199 -103q21 -25 38.5 -60t26 -59.5t21.5 -68.5
q27 -79 49 -101q24 -24 66 -24h84v-623h-389v287q-45 15 -76.5 44.5t-55.5 82.5q-4 9 -8 19t-8.5 22.5t-7.5 22t-7.5 26.5t-7 26.5t-7.5 32t-7.5 32.5t-8.5 38.5t-9 40.5q-23 105 -55 141q-37 39 -99 39h-33v-567h-389v567h-32q-62 0 -99 -39q-32 -36 -55 -141
q-46 -203 -72 -260q-21 -48 -50.5 -79t-67.5 -45t-72.5 -18.5t-83.5 -4.5q-121 0 -215 20v317q10 -4 35 -4q48 0 75 27q9 10 17.5 23.5t17.5 36t13.5 34.5t15.5 45.5t14 42.5q30 84 66 127q69 83 198 103v8q-94 16 -143 76q-33 38 -65 133q-27 84 -64 106q-27 17 -86 17h-25
v313q85 16 170 16q98 0 161 -20.5t102 -75.5q42 -58 69 -188l12 -54l12 -54t11.5 -42t15.5 -41q38 -76 105 -76h20v535z" />
    <glyph glyph-name="uni0497" unicode="&#x497;" horiz-adv-x="1781" 
d="M670 1049h372v-379h21q35 0 63 30q37 40 64 150q24 90 43 122q24 39 61 60q50 29 174 29q103 0 179 -12v-275q-16 4 -41 4q-36 0 -60 -16q-24 -17 -45 -70q-19 -45 -51 -71q-43 -32 -123 -41v-5q96 -11 156 -75q35 -39 61 -109q27 -72 47 -92q25 -25 66 -25h67v-548h-364
v274q-36 12 -63 32.5t-45 51t-29 58t-23 67.5q-33 117 -49 149q-17 32 -36.5 45t-51.5 13h-21v-416h-372v416h-21q-32 0 -51.5 -13t-36.5 -45q-16 -32 -49 -149q-35 -123 -86 -168q-27 -25 -66.5 -37.5t-65.5 -14t-71 -1.5q-104 0 -203 12v274q16 -4 39 -4q41 0 62 23
q5 5 8.5 11t8.5 16t8 17t10 25t12 29q36 81 61 109q56 63 156 75v5q-80 9 -123 41q-32 26 -51 71q-21 53 -45 70q-24 16 -60 16q-24 0 -40 -4v275q76 12 178 12q124 0 174 -29q31 -17 52 -48t29.5 -55.5t19.5 -66.5l3 -12q27 -110 64 -150q28 -30 63 -30h21v379z" />
    <glyph glyph-name="uni0498" unicode="&#x498;" horiz-adv-x="1294" 
d="M403 942l-342 72q24 143 123 246q49 51 112.5 86.5t127.5 51t113.5 21.5t97.5 6q271 0 414 -96q165 -111 165 -303q0 -109 -72.5 -194.5t-191.5 -108.5v-4q119 -12 201 -94q82 -86 82 -222q0 -81 -31 -157q-45 -98 -121 -154q-97 -73 -235 -96v-283h-389v281
q-5 1 -14.5 2t-14.5 2q-114 18 -205 88q-23 17 -45.5 39.5t-51.5 60t-52 92.5t-33 117l360 72q18 -71 62 -115q57 -57 160 -57q96 0 141 45q39 39 39 100q0 63 -45 95q-41 30 -119 30h-186v299h196q72 0 109 41q35 40 35 96q0 52 -48 89q-38 28 -110 28q-102 0 -162 -53
q-48 -43 -70 -123z" />
    <glyph glyph-name="uni0499" unicode="&#x499;" horiz-adv-x="1130" 
d="M389 670l-330 59q30 134 125 219q138 121 412 121q152 0 264 -45q79 -31 128 -79.5t64 -87.5t15 -77q0 -94 -68 -162q-56 -56 -139 -67v-4q95 -18 152 -72q67 -64 67 -170q0 -68 -36 -132t-93 -107q-42 -34 -96 -52q-47 -17 -100 -20v-268h-365v268q-38 8 -57 14
q-98 30 -162 86q-100 89 -119 225l346 50q4 -62 39 -97q43 -43 109 -43q61 0 92 35q29 29 29 74q0 51 -37 74q-27 18 -97 18h-94v205h94q63 0 97 29q28 25 28 65q0 46 -34 70q-26 20 -72 20q-66 0 -111 -45q-42 -42 -51 -104z" />
    <glyph glyph-name="uni049A" unicode="&#x49a;" horiz-adv-x="1449" 
d="M125 1405h430v-535h41q57 0 96 27q44 31 74 137q4 13 17 60t17 60t15.5 47.5t19.5 50.5t21 38t27 39q80 92 262 92q68 0 170 -16v-313h-25q-59 0 -86 -17q-31 -18 -63 -110q-34 -101 -66 -138q-55 -68 -143 -77v-9q127 -15 198 -100q26 -30 43 -67t44 -111l7.5 -22.5
t8.5 -24t8.5 -20t11.5 -21t13 -15.5q24 -24 65 -24h68v-623h-389v287q-86 34 -131 127q-10 20 -17.5 41.5t-14.5 50.5t-11.5 48t-12.5 59.5t-12 60.5q-21 107 -57 141q-9 9 -20 16t-24.5 11.5t-23.5 7t-26.5 3.5t-22.5 1h-23h-18h-41v-567h-430v1405z" />
    <glyph glyph-name="uni049B" unicode="&#x49b;" horiz-adv-x="1294" 
d="M111 1049h405v-379h45q44 0 78 30q30 30 63 150q10 39 15 54t17.5 45.5t30 49.5t42.5 33q51 29 180 29q98 0 180 -12v-275q-3 0 -22 2t-27 2q-38 0 -59 -16q-17 -12 -45 -70q-24 -51 -60 -76q-42 -28 -110 -36v-5q93 -19 143 -75q36 -41 62 -109q5 -13 13.5 -34.5t12 -29
t9.5 -19.5t12.5 -19.5t15.5 -14.5h125v-548h-365v274q-42 5 -81 41q-23 22 -40 51.5t-25 52t-21 64.5q-42 133 -50 149q-18 35 -38.5 46.5t-55.5 11.5h-45v-416h-405v1049z" />
    <glyph glyph-name="uni049C" unicode="&#x49c;" horiz-adv-x="1638" 
d="M125 1405h430v-535h131v267h197v-267q44 0 78 27q36 31 69 137q5 17 20.5 73t25 84.5t29 69.5t42.5 68q80 92 262 92q68 0 170 -16v-313h-25q-59 0 -86 -17q-31 -18 -63 -110q-34 -101 -66 -138q-55 -68 -143 -77v-9q128 -15 199 -100q19 -22 35.5 -53.5t25 -54
t25.5 -70.5q32 -98 57 -123q27 -27 76 -27q25 0 35 4v-317q-97 -20 -215 -20q-107 0 -177.5 29t-113.5 118q-32 67 -68 260q-22 106 -59 141q-52 49 -133 39v-266h-197v266h-131v-567h-430v1405z" />
    <glyph glyph-name="uni049D" unicode="&#x49d;" horiz-adv-x="1433" 
d="M111 1049h405v-379h111v204h180v-204q48 0 78 30t63 150q10 39 15 54t17.5 45.5t30 49.5t42.5 33q50 29 180 29q88 0 156 -12v-275q-3 0 -22.5 2t-27.5 2q-38 0 -59 -16q-17 -12 -45 -70q-9 -19 -14 -28t-17 -22.5t-28 -25.5q-42 -28 -111 -36v-5q93 -19 143 -75
q36 -41 62 -109q5 -11 12 -29t10 -25t8 -17t8.5 -16t8.5 -11q21 -23 61 -23q23 0 39 4v-274q-79 -12 -178 -12q-70 0 -118 10t-85 43q-22 20 -39.5 51.5t-26 54.5t-20.5 62q-41 133 -49 149q-32 61 -94 58v-205h-180v205h-111v-416h-405v1049z" />
    <glyph glyph-name="uni04A0" unicode="&#x4a0;" horiz-adv-x="1581" 
d="M-8 1405h770v-535h41q57 0 96 27q44 31 74 137q4 13 17 60t17 60t15.5 47.5t19.5 50.5t21 38t27 39q80 92 262 92q68 0 170 -16v-313h-25q-59 0 -86 -17q-31 -18 -63 -110q-34 -101 -66 -138q-55 -68 -143 -77v-9q127 -15 198 -100q19 -22 35.5 -53.5t25 -54t25.5 -70.5
q32 -97 58 -123q27 -27 75 -27q25 0 35 4v-317q-97 -20 -215 -20q-107 0 -177.5 29t-113.5 118q-10 20 -17.5 41.5t-14 50t-11 48t-12.5 59.5t-12 61q-21 107 -57 141q-9 9 -20 16t-24.5 11.5t-23.5 7t-26.5 3.5t-22.5 1h-23h-18h-41v-567h-430v1077h-340v328z" />
    <glyph glyph-name="uni04A1" unicode="&#x4a1;" horiz-adv-x="1396" 
d="M-20 1049h720v-379h45q44 0 78 30q31 31 64 150q24 90 43 122q24 39 61 60q51 29 180 29q99 0 181 -12v-275q-3 0 -22 2t-27 2q-39 0 -60 -16q-17 -12 -45 -70q-9 -19 -14 -28t-17 -22.5t-28 -25.5q-42 -28 -111 -36v-5q93 -19 143 -75q36 -41 62 -109q5 -11 12 -29
t10 -25t8 -17t8.5 -16t8.5 -11q21 -23 61 -23q15 0 39 4v-274q-88 -12 -202 -12q-70 0 -118 10t-85 43q-22 20 -39.5 51.5t-26 54.5t-20.5 62q-40 130 -49 149q-18 35 -39 46.5t-56 11.5h-45v-416h-405v774h-315v275z" />
    <glyph glyph-name="uni04A2" unicode="&#x4a2;" horiz-adv-x="1490" 
d="M1317 1405v-1069h123v-623h-389v287h-164v553h-332v-553h-430v1405h430v-524h332v524h430z" />
    <glyph glyph-name="uni04A3" unicode="&#x4a3;" horiz-adv-x="1327" 
d="M111 1049h405v-365h225v365h406v-775h123v-548h-365v274h-164v410h-225v-410h-405v1049z" />
    <glyph glyph-name="uni04A4" unicode="&#x4a4;" horiz-adv-x="1746" 
d="M555 1405v-524h332v524h854v-328h-424v-1077h-430v553h-332v-553h-430v1405h430z" />
    <glyph glyph-name="uni04A5" unicode="&#x4a5;" horiz-adv-x="1564" 
d="M111 1049h405v-365h225v365h813v-275h-407v-774h-406v410h-225v-410h-405v1049z" />
    <glyph glyph-name="uni04AA" unicode="&#x4aa;" horiz-adv-x="1359" 
d="M1319 870l-401 -20q0 93 -27 156q-18 42 -57.5 75t-104.5 33t-107 -36t-69 -111q-33 -93 -33 -267q0 -100 7.5 -164t31.5 -118q54 -123 170 -123q105 0 158 98q39 73 39 148l393 -25q-16 -227 -170 -377q-104 -100 -240 -135v-291h-389v291q-136 34 -230.5 118.5
t-146.5 186.5q-82 160 -82 381q0 383 230 586q171 149 426 149q279 0 442 -165q66 -66 111.5 -165.5t48.5 -224.5z" />
    <glyph glyph-name="uni04AB" unicode="&#x4ab;" horiz-adv-x="1101" 
d="M782 -274h-364v276q-7 2 -20.5 6t-20.5 6q-93 34 -168 109q-152 152 -152 397q0 127 39 229t105 171q145 149 383 149q221 0 338 -102q60 -50 103 -133t52 -181l-358 -28q0 35 -8.5 77.5t-22.5 65.5q-29 51 -92 51q-62 0 -96 -57q-17 -29 -23 -80t-6 -156q0 -165 31 -229
q35 -68 100 -68q60 0 92 56q24 44 29 137l358 -29q-18 -189 -159 -307q-48 -37 -74 -51q-26 -16 -66 -33v-276z" />
    <glyph glyph-name="uni04AE" unicode="&#x4ae;" horiz-adv-x="1253" 
d="M1296 1405l-442 -811v-594h-430v594l-467 811h475l244 -463l244 463h376z" />
    <glyph glyph-name="uni04AF" unicode="&#x4af;" horiz-adv-x="1064" 
d="M1073 1049l-344 -902v-421h-364v421l-373 902h424l176 -480h4l182 480h295z" />
    <glyph glyph-name="uni04B0" unicode="&#x4b0;" horiz-adv-x="1298" 
d="M1319 1405l-371 -678h301v-287h-372v-440h-431v440h-372v287h297l-391 678h475l243 -463l244 463h377z" />
    <glyph glyph-name="uni04B1" unicode="&#x4b1;" horiz-adv-x="1064" 
d="M1073 1049l-295 -775h234v-274h-283v-274h-364v274h-283v274h229l-319 775h424l176 -480h4l182 480h295z" />
    <glyph glyph-name="uni04B2" unicode="&#x4b2;" horiz-adv-x="1355" 
d="M-6 1405h500l219 -379l223 379h389l-407 -653l264 -416h123v-623h-390v287h-22l-264 442l-260 -442h-398l455 727z" />
    <glyph glyph-name="uni04B3" unicode="&#x4b3;" horiz-adv-x="1185" 
d="M1116 1049l-305 -478l195 -297h122v-548h-364v274h-45l-191 334l-204 -334h-338l370 555l-321 494h459l139 -254l145 254h338z" />
    <glyph glyph-name="uni04B6" unicode="&#x4b6;" horiz-adv-x="1417" 
d="M92 1405h410v-371v-40t3 -36.5t9 -39t19 -29t32 -25.5q31 -16 121 -16q70 0 127 8v549h430v-1069h123v-623h-389v287h-164v545q-127 -13 -250 -13q-169 0 -246 25q-139 45 -192 178q-9 24 -16 52t-10 47t-5 54t-2 46v50.5v41.5v379z" />
    <glyph glyph-name="uni04B7" unicode="&#x4b7;" horiz-adv-x="1263" 
d="M72 1049h405v-261q0 -36 1.5 -57.5t11 -46t26.5 -37.5q23 -16 76 -16q6 0 86 8v410h405v-775h123v-548h-364v274h-164v393q-122 -12 -213 -12q-114 0 -190.5 18t-124.5 70q-78 90 -78 289v291z" />
    <glyph glyph-name="uni04B8" unicode="&#x4b8;" horiz-adv-x="1415" 
d="M92 1405h410v-371q0 -1 -0.5 -22t0.5 -27t2.5 -25t5.5 -28t11 -24t18 -25.5t26 -18.5q17 -11 45 -16v207h142v-207q59 0 108 8v549h430v-1405h-430v545l-108 -8v-218h-142v213h-47q-174 3 -246 25q-139 45 -192 178q-9 24 -16 52t-10 47t-5 54t-2 46v50.5v41.5v379z" />
    <glyph glyph-name="uni04B9" unicode="&#x4b9;" horiz-adv-x="1296" 
d="M72 1049h405v-261q0 -35 1.5 -57t11 -47t26.5 -37q11 -7 47 -16v176h135v-176q57 5 82 8v410h406v-1049h-406v393q-40 -6 -82 -6v-190h-135v186q-23 0 -49 -1t-49 -1q-218 0 -311 86q-82 79 -82 268v314z" />
    <glyph glyph-name="uni04BA" unicode="&#x4ba;" horiz-adv-x="1359" 
d="M555 1405v-563q131 47 270 47q224 0 344 -113q68 -65 88.5 -140.5t20.5 -186.5v-449h-410v371q0 102 -45 147q-39 39 -114 39q-80 0 -154 -35v-522h-430v1405h430z" />
    <glyph glyph-name="uni04BB" unicode="&#x4bb;" horiz-adv-x="1241" 
d="M516 1405v-479q115 143 295 143q62 0 125 -19t104 -59q90 -86 90 -291v-700h-405v678q0 66 -20 98q-20 31 -70 31q-37 0 -70 -23q-49 -39 -49 -129v-655h-405v1405h405z" />
    <glyph glyph-name="uni04C0" unicode="&#x4c0;" horiz-adv-x="626" 
d="M516 1405v-1405h-405v1405h405z" />
    <glyph glyph-name="uni04C3" unicode="&#x4c3;" horiz-adv-x="1392" 
d="M125 1405h430v-535h41q57 0 96 27q44 31 74 137q4 13 17 60t17 60t15.5 47.5t19.5 50.5t21 38t27 39q80 92 262 92q68 0 170 -16v-313h-25q-59 0 -86 -17q-31 -18 -63 -110q-34 -101 -66 -138q-55 -68 -143 -77v-9q79 -6 153 -35.5t125 -80.5q121 -123 121 -375
q0 -308 -123 -461q-68 -85 -148.5 -113t-180.5 -28q-105 0 -197 20l23 299q24 -6 47 -6q81 0 118 88q31 74 31 193q0 153 -45 231q-15 26 -36 45t-40.5 28t-48.5 14t-48 6t-50 1h-78v-567h-430v1405z" />
    <glyph glyph-name="uni04C4" unicode="&#x4c4;" horiz-adv-x="1236" 
d="M111 1049h405v-379h45q44 0 78 30q30 30 63 150q10 39 15 54t17.5 45.5t30 49.5t42.5 33q51 29 180 29q98 0 180 -12v-275q-3 0 -22 2t-27 2q-38 0 -59 -16q-17 -12 -45 -70q-24 -51 -60 -76q-42 -28 -110 -36v-5q156 -19 239 -102q103 -103 103 -319q0 -228 -103 -365
q-60 -79 -134 -110t-175 -31q-93 0 -178 20v281q18 -6 43 -6q78 0 106 69q27 67 27 168q0 104 -37 162q-17 26 -38.5 42.5t-48.5 22.5t-43.5 7.5t-43.5 1.5h-45v-416h-405v1049z" />
    <glyph glyph-name="uni04C7" unicode="&#x4c7;" horiz-adv-x="1441" 
d="M887 1405h430v-1290q0 -123 -18 -208t-62.5 -147t-122 -91t-192.5 -29q-78 0 -215 28v316q43 -17 81 -17q55 0 78 39q21 32 21 141v406h-332v-553h-430v1405h430v-524h332v524z" />
    <glyph glyph-name="uni04C8" unicode="&#x4c8;" horiz-adv-x="1257" 
d="M111 1049h405v-365h225v365h406v-934q0 -136 -16 -222.5t-68 -146.5q-92 -106 -287 -106q-80 0 -215 28v283q43 -17 82 -17q55 0 78 39q20 30 20 142v295h-225v-410h-405v1049z" />
    <glyph glyph-name="uni04D0" unicode="&#x4d0;" horiz-adv-x="1339" 
d="M891 1405l440 -1405h-442l-78 279h-375l-84 -279h-352l436 1405h455zM737 582l-114 409l-115 -409h229zM238 1817h315q-3 -44 29 -76q29 -29 92 -29t92 29q32 32 29 76h315q-3 -137 -119 -215q-111 -76 -317 -76q-207 0 -318 76q-115 78 -118 215z" />
    <glyph glyph-name="uni04D1" unicode="&#x4d1;" horiz-adv-x="1239" 
d="M461 707l-373 34q39 158 172 244q77 51 170.5 67.5t206.5 16.5q59 0 106.5 -3t103.5 -14.5t98.5 -30.5t82 -53t64.5 -81q19 -36 28.5 -83t11 -78t1.5 -87v-410q0 -128 30 -229h-385q-14 63 -14 145q-107 -165 -342 -165q-97 0 -171.5 28t-116 74t-61.5 97t-20 106
q0 72 30.5 139t88.5 113q140 111 496 139l75 6v16q0 64 -24 90q-27 31 -101 31q-140 0 -157 -112zM743 492l-63 -11q-106 -17 -156 -53q-57 -41 -57 -106q0 -41 29.5 -67t83.5 -26q44 0 76 14.5t48 34.5t25.5 50.5t11.5 52.5t2 51v60zM238 1516h286q0 -46 15 -76
q23 -47 79 -47t80 47q15 30 15 76h286q-2 -124 -94 -207q-35 -30 -82 -50.5t-92.5 -28t-69.5 -9.5t-43 -2t-42.5 2t-69.5 9.5t-92.5 28t-81.5 50.5q-92 83 -94 207z" />
    <glyph glyph-name="uni04D2" unicode="&#x4d2;" horiz-adv-x="1339" 
d="M891 1405l440 -1405h-442l-78 279h-375l-84 -279h-352l436 1405h455zM737 582l-114 409l-115 -409h229zM565 1808v-268h-284v268h284zM1030 1808v-268h-285v268h285z" />
    <glyph glyph-name="uni04D3" unicode="&#x4d3;" horiz-adv-x="1239" 
d="M461 707l-373 34q39 158 172 244q77 51 170.5 67.5t206.5 16.5q59 0 106.5 -3t103.5 -14.5t98.5 -30.5t82 -53t64.5 -81q19 -36 28.5 -83t11 -78t1.5 -87v-410q0 -128 30 -229h-385q-14 63 -14 145q-107 -165 -342 -165q-97 0 -171.5 28t-116 74t-61.5 97t-20 106
q0 72 30.5 139t88.5 113q140 111 496 139l75 6v16q0 64 -24 90q-27 31 -101 31q-140 0 -157 -112zM743 492l-63 -11q-106 -17 -156 -53q-57 -41 -57 -106q0 -41 29.5 -67t83.5 -26q44 0 76 14.5t48 34.5t25.5 50.5t11.5 52.5t2 51v60zM532 1495v-256h-272v256h272zM977 1495
v-256h-272v256h272z" />
    <glyph glyph-name="uni04D4" unicode="&#x4d4;" horiz-adv-x="1921" 
d="M598 1405h1257v-328h-626v-209h508v-303h-508v-229h641v-336h-1067v279h-336l-131 -279h-365zM803 582v499l-221 -499h221z" />
    <glyph glyph-name="uni04D5" unicode="&#x4d5;" horiz-adv-x="1689" 
d="M424 705l-346 34q28 123 110 205q129 125 392 125q83 0 149 -15.5t129 -58.5q108 74 264 74q51 0 101.5 -9.5t114 -34t122.5 -78.5t101 -132q65 -121 61 -291l-2 -90h-625v-33q0 -59 27 -106q18 -29 49.5 -47.5t69.5 -18.5q55 0 95 38t52 100l348 -25q-27 -119 -106 -205
q-67 -71 -171 -114t-233 -43q-116 0 -206 38q-104 41 -177 138q-62 -91 -157.5 -133.5t-198.5 -42.5q-85 0 -151.5 27.5t-105 73t-58 98.5t-19.5 110q0 201 191 301q155 79 389 92l37 2v14q0 66 -27 93q-28 28 -84 28q-37 0 -70 -16q-57 -29 -65 -98zM995 639h265v35
q0 53 -33 98q-38 47 -99 47q-71 0 -108 -57q-25 -35 -25 -100v-23zM670 494l-45 -11q-57 -13 -103 -37q-80 -45 -80 -133q0 -25 8.5 -43t20 -27t26.5 -13.5t23.5 -5.5t16.5 -1q74 0 110 70q23 51 23 137v64z" />
    <glyph glyph-name="uni04D6" unicode="&#x4d6;" horiz-adv-x="1232" 
d="M125 1405h1057v-328h-627v-209h504v-303h-504v-229h627v-336h-1057v1405zM203 1817h315q-3 -44 29 -76q29 -29 92 -29t92 29q32 32 29 76h315q-3 -137 -119 -215q-111 -76 -317 -76t-317 76q-116 78 -119 215z" />
    <glyph glyph-name="uni04D7" unicode="&#x4d7;" horiz-adv-x="1228" 
d="M788 367l377 -25q-34 -159 -172 -258q-145 -104 -377 -104q-116 0 -213.5 29.5t-183.5 111.5q-162 154 -162 403q0 147 53 251t130 169q148 125 387 125q244 0 395 -158q149 -155 149 -413v-64h-700q-3 -85 37 -141q46 -64 129 -64q70 0 111 41q37 37 40 97zM471 639h299
q7 83 -37 133q-38 47 -106 47t-111 -47q-48 -51 -45 -133zM233 1516h287q0 -46 15 -76q23 -47 79 -47t80 47q15 30 15 76h286q-2 -124 -94 -207q-35 -30 -82 -50.5t-92.5 -28t-69.5 -9.5t-43 -2t-42.5 2t-69.5 9.5t-92.5 28t-81.5 50.5q-93 84 -95 207z" />
    <glyph glyph-name="uni04D8" unicode="&#x4d8;" horiz-adv-x="1386" 
d="M451 924l-390 71q49 179 187 293q90 75 195.5 106t238.5 31q67 0 124.5 -8t127 -29.5t135 -69.5t119.5 -120q137 -181 137 -496q0 -354 -192 -546q-176 -176 -465 -176q-306 0 -475 196q-43 50 -73 112t-45 114.5t-23.5 123t-9.5 111.5t-1 106v56h825v30q0 117 -30 183
q-47 106 -162 106q-103 0 -170 -86q-34 -44 -53 -108zM442 535q-4 -95 41 -166q59 -95 172 -95q117 0 174 95q41 67 37 166h-424z" />
    <glyph glyph-name="afii10846" unicode="&#x4d9;" horiz-adv-x="1228" 
d="M440 682l-377 25q34 158 173 258q145 104 376 104q117 0 214.5 -29.5t183.5 -111.5q161 -153 161 -404q0 -147 -52.5 -251t-129.5 -169q-146 -124 -387 -124q-245 0 -395 157q-150 156 -150 414v63h701q3 86 -37 142q-45 63 -129 63q-70 0 -111 -41q-39 -39 -41 -96z
M758 410h-299q-7 -84 37 -134q38 -47 106 -47t111 47q48 51 45 134z" />
    <glyph glyph-name="uni04DA" unicode="&#x4da;" horiz-adv-x="1386" 
d="M451 924l-390 71q49 179 187 293q90 75 195.5 106t238.5 31q67 0 124.5 -8t127 -29.5t135 -69.5t119.5 -120q137 -181 137 -496q0 -354 -192 -546q-176 -176 -465 -176q-306 0 -475 196q-43 50 -73 112t-45 114.5t-23.5 123t-9.5 111.5t-1 106v56h825v30q0 117 -30 183
q-47 106 -162 106q-103 0 -170 -86q-34 -44 -53 -108zM442 535q-4 -95 41 -166q59 -95 172 -95q117 0 174 95q41 67 37 166h-424zM602 1808v-268h-285v268h285zM1067 1808v-268h-285v268h285z" />
    <glyph glyph-name="uni04DB" unicode="&#x4db;" horiz-adv-x="1228" 
d="M440 682l-377 25q34 158 173 258q145 104 376 104q117 0 214.5 -29.5t183.5 -111.5q161 -153 161 -404q0 -147 -52.5 -251t-129.5 -169q-146 -124 -387 -124q-245 0 -395 157q-150 156 -150 414v63h701q3 86 -37 142q-45 63 -129 63q-70 0 -111 -41q-39 -39 -41 -96z
M758 410h-299q-7 -84 37 -134q38 -47 106 -47t111 47q48 51 45 134zM528 1495v-256h-272v256h272zM973 1495v-256h-273v256h273z" />
    <glyph glyph-name="uni04DC" unicode="&#x4dc;" horiz-adv-x="1867" 
d="M739 1405h389v-535h21q66 0 104 76q8 17 15.5 42t11.5 40.5t13 55t12 53.5q27 130 69 188q39 55 102 75.5t160 20.5q85 0 170 -16v-313h-24q-59 0 -86 -17q-37 -22 -64 -106q-32 -95 -65 -133q-49 -60 -144 -76v-8q130 -20 199 -103q36 -43 66 -127q4 -13 14 -43
t15 -44.5t13.5 -35.5t17 -35t17.5 -24q27 -27 76 -27q25 0 35 4v-317q-94 -20 -215 -20q-39 0 -67 2.5t-61 11t-57.5 24t-48.5 43t-41 66.5q-24 53 -71 260q-23 105 -55 141q-37 39 -99 39h-33v-567h-389v567h-32q-62 0 -99 -39q-32 -36 -55 -141q-46 -203 -72 -260
q-21 -48 -50.5 -79t-67.5 -45t-72.5 -18.5t-83.5 -4.5q-121 0 -215 20v317q10 -4 35 -4q48 0 75 27q9 10 17.5 23.5t17.5 36t13.5 34.5t15.5 45.5t14 42.5q30 84 66 127q69 83 198 103v8q-94 16 -143 76q-33 38 -65 133q-27 84 -64 106q-27 17 -86 17h-25v313q85 16 170 16
q98 0 161 -20.5t102 -75.5q42 -58 69 -188l12 -54l12 -54t11.5 -42t15.5 -41q38 -76 105 -76h20v535zM846 1808v-268h-285v268h285zM1311 1808v-268h-285v268h285z" />
    <glyph glyph-name="uni04DD" unicode="&#x4dd;" horiz-adv-x="1712" 
d="M670 1049h372v-379h21q35 0 63 30q37 40 64 150q24 90 43 122q24 39 61 60q50 29 174 29q103 0 179 -12v-275q-16 4 -41 4q-36 0 -60 -16q-24 -17 -45 -70q-19 -45 -51 -71q-43 -32 -123 -41v-5q100 -12 156 -75q25 -28 61 -109q5 -11 12 -29t10 -25t8 -17t8.5 -16
t8.5 -11q21 -23 62 -23q15 0 39 4v-274q-99 -12 -203 -12q-45 0 -71 1.5t-65.5 14t-66.5 37.5q-51 45 -86 168q-33 117 -49 149q-17 32 -36.5 45t-51.5 13h-21v-416h-372v416h-21q-32 0 -51.5 -13t-36.5 -45q-16 -32 -49 -149q-35 -123 -86 -168q-27 -25 -66.5 -37.5
t-65.5 -14t-71 -1.5q-104 0 -203 12v274q16 -4 39 -4q41 0 62 23q5 5 8.5 11t8.5 16t8 17t10 25t12 29q36 81 61 109q56 63 156 75v5q-80 9 -123 41q-32 26 -51 71q-21 53 -45 70q-24 16 -60 16q-24 0 -40 -4v275q76 12 178 12q124 0 174 -29q31 -17 52 -48t29.5 -55.5
t19.5 -66.5l3 -12q27 -110 64 -150q28 -30 63 -30h21v379zM770 1495v-256h-272v256h272zM1214 1495v-256h-272v256h272z" />
    <glyph glyph-name="uni04DE" unicode="&#x4de;" horiz-adv-x="1294" 
d="M403 942l-342 72q24 143 123 246q49 51 112.5 86.5t127.5 51t113.5 21.5t97.5 6q271 0 414 -96q165 -111 165 -303q0 -109 -72.5 -194.5t-191.5 -108.5v-4q119 -12 201 -94q82 -86 82 -222q0 -111 -46.5 -189t-105.5 -122q-147 -112 -446 -112q-266 0 -412 106
q-70 52 -119 132t-63 177l360 72q18 -71 62 -115q57 -57 160 -57q96 0 141 45q39 39 39 100q0 63 -45 95q-41 30 -119 30h-186v299h196q72 0 109 41q35 40 35 96q0 52 -48 89q-38 28 -110 28q-102 0 -162 -53q-48 -43 -70 -123zM557 1808v-268h-285v268h285zM1022 1808v-268
h-285v268h285z" />
    <glyph glyph-name="uni04DF" unicode="&#x4df;" horiz-adv-x="1130" 
d="M389 670l-330 59q30 134 125 219q138 121 412 121q152 0 264 -45q79 -31 128 -79.5t64 -87.5t15 -77q0 -94 -68 -162q-56 -56 -139 -67v-4q95 -18 152 -72q67 -64 67 -170q0 -75 -44 -146t-111 -112q-108 -67 -346 -67q-239 0 -367 86q-145 97 -160 253l346 50
q4 -62 39 -97q43 -43 109 -43q61 0 92 35q29 29 29 74q0 51 -37 74q-27 18 -97 18h-94v205h94q63 0 97 29q28 25 28 65q0 46 -34 70q-26 20 -72 20q-66 0 -111 -45q-42 -42 -51 -104zM475 1495v-256h-272v256h272zM920 1495v-256h-273v256h273z" />
    <glyph glyph-name="uni04E2" unicode="&#x4e2;" horiz-adv-x="1441" 
d="M125 1405h430v-586q0 -131 -12 -205q16 72 55 150l289 539v102h430v-1405h-430v586q0 131 12 205q-16 -72 -55 -150l-289 -535v-106h-430v1405zM1047 1710v-170h-652v170h652z" />
    <glyph glyph-name="uni04E3" unicode="&#x4e3;" horiz-adv-x="1265" 
d="M111 1049h405v-400q0 -55 -8 -88q11 14 16.5 22.5t8.5 14.5l4 8l213 369v74h405v-1049h-405v430q0 32 10 80q-6 -12 -9.5 -18.5t-6 -10t-8.5 -13.5t-15 -26l-205 -368v-74h-405v1049zM958 1411v-151h-651v151h651z" />
    <glyph glyph-name="uni04E4" unicode="&#x4e4;" horiz-adv-x="1441" 
d="M125 1405h430v-586q0 -131 -12 -205q16 72 55 150l289 539v102h430v-1405h-430v586q0 131 12 205q-16 -72 -55 -150l-289 -535v-106h-430v1405zM631 1808v-268h-285v268h285zM1096 1808v-268h-285v268h285z" />
    <glyph glyph-name="uni04E5" unicode="&#x4e5;" horiz-adv-x="1265" 
d="M111 1049h405v-400q0 -55 -8 -88q11 14 16.5 22.5t8.5 14.5l4 8l213 369v74h405v-1049h-405v430q0 32 10 80q-6 -12 -9.5 -18.5t-6 -10t-8.5 -13.5t-15 -26l-205 -368v-74h-405v1049zM547 1495v-256h-273v256h273zM991 1495v-256h-272v256h272z" />
    <glyph glyph-name="uni04E6" unicode="&#x4e6;" horiz-adv-x="1462" 
d="M731 1425q273 0 455 -161q98 -88 156.5 -232t58.5 -330q0 -160 -47.5 -299.5t-134.5 -232.5q-78 -83 -199.5 -136.5t-288.5 -53.5q-282 0 -455 165q-215 203 -215 557q0 384 242 582q171 141 428 141zM731 1118q-108 0 -164 -114q-47 -94 -47 -293q0 -205 47 -299
q55 -117 164 -117t164 117q47 94 47 299q0 199 -47 293q-56 114 -164 114zM641 1808v-268h-285v268h285zM1106 1808v-268h-285v268h285z" />
    <glyph glyph-name="uni04E7" unicode="&#x4e7;" horiz-adv-x="1220" 
d="M610 1069q231 0 383 -141q82 -75 126 -182t44 -222t-44 -221.5t-126 -181.5q-152 -141 -383 -141t-383 141q-82 75 -126 181.5t-44 221.5t44 222t126 182q152 141 383 141zM610 229q75 0 111 76q18 35 23.5 83.5t5.5 135.5t-5.5 135.5t-23.5 83.5q-37 76 -111 76
q-73 0 -110 -76q-18 -35 -23.5 -83.5t-5.5 -135.5q0 -158 29 -219q37 -76 110 -76zM524 1495v-256h-272v256h272zM969 1495v-256h-273v256h273z" />
    <glyph glyph-name="uni04E8" unicode="&#x4e8;" horiz-adv-x="1525" 
d="M731 1425q273 0 455 -161q98 -88 156.5 -232t58.5 -330q0 -160 -47.5 -299.5t-134.5 -232.5q-78 -83 -199.5 -136.5t-288.5 -53.5q-282 0 -455 165q-215 203 -215 557q0 384 242 582q171 141 428 141zM731 1118q-108 0 -164 -114q-34 -69 -39 -154h406q-5 85 -39 154
q-56 114 -164 114zM936 584h-410q8 -105 41 -172q59 -117 164 -117t164 117q34 70 41 172z" />
    <glyph glyph-name="uni04E9" unicode="&#x4e9;" horiz-adv-x="1220" 
d="M610 1069q231 0 383 -141q82 -75 126 -182t44 -222t-44 -221.5t-126 -181.5q-152 -141 -383 -141t-383 141q-82 75 -126 181.5t-44 221.5t44 222t126 182q152 141 383 141zM610 229q75 0 111 76q27 61 27 135h-275q0 -74 27 -135q37 -76 110 -76zM473 627h275
q-7 75 -27 116q-37 76 -111 76q-73 0 -110 -76q-20 -41 -27 -116z" />
    <glyph glyph-name="uni04EA" unicode="&#x4ea;" horiz-adv-x="1525" 
d="M731 1425q273 0 455 -161q98 -88 156.5 -232t58.5 -330q0 -160 -47.5 -299.5t-134.5 -232.5q-78 -83 -199.5 -136.5t-288.5 -53.5q-282 0 -455 165q-215 203 -215 557q0 384 242 582q171 141 428 141zM731 1118q-108 0 -164 -114q-34 -69 -39 -154h406q-5 85 -39 154
q-56 114 -164 114zM936 584h-410q8 -105 41 -172q59 -117 164 -117t164 117q34 70 41 172zM672 1808v-268h-285v268h285zM1137 1808v-268h-285v268h285z" />
    <glyph glyph-name="uni04EB" unicode="&#x4eb;" horiz-adv-x="1220" 
d="M610 1069q231 0 383 -141q82 -75 126 -182t44 -222t-44 -221.5t-126 -181.5q-152 -141 -383 -141t-383 141q-82 75 -126 181.5t-44 221.5t44 222t126 182q152 141 383 141zM610 229q75 0 111 76q27 61 27 135h-275q0 -74 27 -135q37 -76 110 -76zM473 627h275
q-7 75 -27 116q-37 76 -111 76q-73 0 -110 -76q-20 -41 -27 -116zM524 1495v-256h-272v256h272zM969 1495v-256h-273v256h273z" />
    <glyph glyph-name="uni04EE" unicode="&#x4ee;" horiz-adv-x="1308" 
d="M0 1405h475l252 -555h4l230 555h378l-436 -993q-57 -129 -93 -194t-73 -105q-68 -76 -153 -104.5t-197 -28.5q-98 0 -213 24v313q88 -22 172 -22q60 0 100 29q39 28 56 69zM1004 1710v-170h-652v170h652z" />
    <glyph glyph-name="uni04EF" unicode="&#x4ef;" horiz-adv-x="1077" 
d="M1085 1049l-403 -1112q-20 -52 -34.5 -83.5t-45 -73.5t-70.5 -73q-61 -46 -127.5 -61t-146.5 -15q-114 0 -199 17v295q84 -17 166 -17q94 0 129 23q27 19 29 43l2 18l-393 1039h440l172 -560l182 560h299zM864 1411v-151h-651v151h651z" />
    <glyph glyph-name="uni04F0" unicode="&#x4f0;" horiz-adv-x="1308" 
d="M0 1405h475l252 -555h4l230 555h378l-436 -993q-57 -129 -93 -194t-73 -105q-68 -76 -153 -104.5t-197 -28.5q-98 0 -213 24v313q88 -22 172 -22q60 0 100 29q39 28 56 69zM602 1808v-268h-285v268h285zM1067 1808v-268h-285v268h285z" />
    <glyph glyph-name="uni04F1" unicode="&#x4f1;" horiz-adv-x="1077" 
d="M1085 1049l-403 -1112q-20 -52 -34.5 -83.5t-45 -73.5t-70.5 -73q-61 -46 -127.5 -61t-146.5 -15q-114 0 -199 17v295q84 -17 166 -17q94 0 129 23q27 19 29 43l2 18l-393 1039h440l172 -560l182 560h299zM483 1495v-256h-272v256h272zM928 1495v-256h-273v256h273z" />
    <glyph glyph-name="uni04F2" unicode="&#x4f2;" horiz-adv-x="1308" 
d="M0 1405h475l252 -555h4l230 555h378l-436 -993q-57 -129 -93 -194t-73 -105q-68 -76 -153 -104.5t-197 -28.5q-98 0 -213 24v313q88 -22 172 -22q60 0 100 29q39 28 56 69zM707 1991l135 -164l-414 -301l-98 114zM1155 1991l135 -164l-413 -301l-99 114z" />
    <glyph glyph-name="uni04F3" unicode="&#x4f3;" horiz-adv-x="1077" 
d="M1085 1049l-403 -1112q-20 -52 -34.5 -83.5t-45 -73.5t-70.5 -73q-61 -46 -127.5 -61t-146.5 -15q-114 0 -199 17v295q84 -17 166 -17q94 0 129 23q27 19 29 43l2 18l-393 1039h440l172 -560l182 560h299zM555 1683l135 -163l-414 -301l-98 114zM1004 1683l135 -163
l-414 -301l-98 114z" />
    <glyph glyph-name="uni04F4" unicode="&#x4f4;" horiz-adv-x="1368" 
d="M92 1405h410v-371v-40t3 -36.5t9 -39t19 -29t32 -25.5q31 -16 121 -16q70 0 127 8v549h430v-1405h-430v545q-127 -13 -250 -13q-169 0 -246 25q-139 45 -192 178q-9 24 -16 52t-10 47t-5 54t-2 46v50.5v41.5v379zM594 1808v-268h-285v268h285zM1059 1808v-268h-285v268
h285z" />
    <glyph glyph-name="uni04F5" unicode="&#x4f5;" horiz-adv-x="1193" 
d="M72 1049h405v-261q0 -36 1.5 -57.5t11 -46t26.5 -37.5q23 -16 76 -16q6 0 86 8v410h405v-1049h-405v393q-118 -12 -213 -12q-223 0 -311 86q-82 79 -82 268v314zM510 1495v-256h-272v256h272zM954 1495v-256h-272v256h272z" />
    <glyph glyph-name="uni04F8" unicode="&#x4f8;" horiz-adv-x="1966" 
d="M125 1405h430v-528h305q74 0 154.5 -20.5t140.5 -63.5q154 -110 154 -338q0 -67 -11.5 -126.5t-44.5 -121.5t-85 -106.5t-139.5 -72.5t-201.5 -28h-702v1405zM555 569v-254h193q65 0 100 37q31 33 31 88q0 59 -35.5 94t-95.5 35h-193zM1411 1405h430v-1405h-430v1405z
M893 1808v-268h-285v268h285zM1358 1808v-268h-285v268h285z" />
    <glyph glyph-name="uni04F9" unicode="&#x4f9;" horiz-adv-x="1714" 
d="M111 1049h405v-361h229q196 0 293 -86q44 -39 72.5 -100t28.5 -135q0 -79 -31 -158t-84 -125q-32 -30 -70 -48.5t-80 -25.5t-66 -8.5t-60 -1.5h-637v1049zM516 483v-233h78q61 0 94 29q37 31 37 90q0 58 -37 88q-33 26 -90 26h-82zM1198 1049h406v-1049h-406v1049z
M770 1495v-256h-272v256h272zM1214 1495v-256h-272v256h272z" />
    <glyph glyph-name="uni1E9E" unicode="&#x1e9e;" horiz-adv-x="1474" 
d="M125 0v952q0 241 188 369q152 104 428 104q340 0 535 -165l-170 -431q121 -14 209 -92q108 -98 108 -282q0 -232 -141 -357q-135 -118 -405 -118q-119 0 -226 26l23 293q54 -12 131 -12q92 0 137 37q51 44 51 118q0 65 -41 101q-21 19 -51 28.5t-49 11t-51 1.5h-127
l182 493q-57 41 -141 41q-76 0 -121 -45q-39 -39 -39 -119v-954h-430z" />
    <glyph glyph-name="uni2010" unicode="&#x2010;" horiz-adv-x="561" 
d="M541 725v-324h-521v324h521z" />
    <glyph glyph-name="uni2011" unicode="&#x2011;" horiz-adv-x="561" 
d="M541 725v-324h-521v324h521z" />
    <glyph glyph-name="figuredash" unicode="&#x2012;" horiz-adv-x="1249" 
d="M1137 874v-323h-1024v323h1024z" />
    <glyph glyph-name="endash" unicode="&#x2013;" horiz-adv-x="1249" 
d="M1137 725v-324h-1024v324h1024z" />
    <glyph glyph-name="emdash" unicode="&#x2014;" horiz-adv-x="1966" 
d="M1905 725v-324h-1844v324h1844z" />
    <glyph glyph-name="quoteleft" unicode="&#x2018;" horiz-adv-x="557" 
d="M109 799v307l182 293h158l-140 -275h140v-325h-340z" />
    <glyph glyph-name="quoteright" unicode="&#x2019;" horiz-adv-x="557" 
d="M449 1405v-307l-183 -293h-157l139 274h-139v326h340z" />
    <glyph glyph-name="quotesinglbase" unicode="&#x201a;" horiz-adv-x="557" 
d="M449 326v-308l-183 -292h-157l139 274h-139v326h340z" />
    <glyph glyph-name="quotedblleft" unicode="&#x201c;" horiz-adv-x="968" 
d="M109 799v307l182 293h158l-140 -275h140v-325h-340zM520 799v307l182 293h158l-139 -275h139v-325h-340z" />
    <glyph glyph-name="quotedblright" unicode="&#x201d;" horiz-adv-x="968" 
d="M449 1405v-307l-183 -293h-157l139 274h-139v326h340zM860 1405v-307l-182 -293h-158l139 274h-139v326h340z" />
    <glyph glyph-name="quotedblbase" unicode="&#x201e;" horiz-adv-x="968" 
d="M449 326v-308l-183 -292h-157l139 274h-139v326h340zM860 326v-308l-182 -292h-158l139 274h-139v326h340z" />
    <glyph glyph-name="dagger" unicode="&#x2020;" horiz-adv-x="1269" 
d="M721 -330h-172v119q0 254 -21.5 445t-74.5 499q67 62 96 115l-440 -76l30 160l-30 160l440 -84l-76 397l162 -23l162 23l-76 -397l440 84l-31 -160l31 -160l-440 76q29 -53 96 -115q-53 -308 -74.5 -499t-21.5 -445v-119z" />
    <glyph glyph-name="daggerdbl" unicode="&#x2021;" horiz-adv-x="1269" 
d="M721 -330h-172l-6 74q-6 103 -90 653q60 55 88 113l-437 -76l29 160l-29 158l437 -84l-47 110l47 121l-437 -76l29 160l-29 158l437 -84l-66 348l160 -25l160 25l-66 -348l436 84l-28 -158l28 -160l-436 76l47 -121l-47 -110l436 84l-28 -158l28 -160l-436 76
q28 -58 88 -113q-84 -550 -90 -653z" />
    <glyph glyph-name="bullet" unicode="&#x2022;" horiz-adv-x="1546" 
d="M772 1053q146 0 249 -102.5t103 -248.5t-103 -249t-249 -103t-248 103t-102 249t102 248.5t248 102.5z" />
    <glyph glyph-name="ellipsis" unicode="&#x2026;" horiz-adv-x="1972" 
d="M500 375v-375h-391v375h391zM1182 375v-375h-391v375h391zM1864 375v-375h-391v375h391z" />
    <glyph glyph-name="perthousand" unicode="&#x2030;" horiz-adv-x="2138" 
d="M1253 1405l-858 -1405h-194l858 1405h194zM328 680q-32 0 -63.5 7t-70.5 25t-73 58.5t-55 99.5q-25 64 -25 172t25 172q21 59 55 99.5t73 59t70.5 25.5t63.5 7t63.5 -7t70.5 -25.5t73 -59t55 -99.5q24 -62 24 -172t-24 -172q-21 -59 -55 -99.5t-73 -58.5t-70.5 -25
t-63.5 -7zM328 1249q-41 0 -58 -51q-16 -47 -16 -156q0 -108 16 -155q17 -51 58 -51q40 0 57 51q16 47 16 155q0 109 -16 156q-17 51 -57 51zM1122 0q-32 0 -63.5 7t-70.5 25t-73 58.5t-55 99.5q-24 62 -24 172q0 111 24 173q21 59 55 99.5t73 58.5t70.5 25t63.5 7t63.5 -7
t70.5 -25t73 -58.5t55 -99.5q25 -64 25 -173q0 -108 -25 -172q-21 -59 -55 -99.5t-73 -58.5t-70.5 -25t-63.5 -7zM1122 569q-40 0 -57 -51q-16 -47 -16 -156q0 -33 1 -56t5 -54t11 -49.5t21.5 -32.5t34.5 -14q41 0 58 51q16 47 16 155q0 109 -16 156q-17 51 -58 51zM1810 0
q-32 0 -63.5 7t-70.5 25t-73 58.5t-55 99.5q-24 62 -24 172q0 111 24 173q21 59 55 99.5t73 58.5t70.5 25t63.5 7q25 0 49 -3.5t56.5 -15.5t60 -32t54 -56t43.5 -83q24 -62 24 -173q0 -110 -24 -172q-17 -47 -43.5 -83t-54 -56t-60 -32t-56.5 -15.5t-49 -3.5zM1810 569
q-40 0 -57 -51q-16 -47 -16 -156q0 -33 1 -56t5 -54t11 -49.5t21.5 -32.5t34.5 -14q41 0 58 51q16 47 16 155q0 109 -16 156q-17 51 -58 51z" />
    <glyph glyph-name="guilsinglleft" unicode="&#x2039;" horiz-adv-x="468" 
d="M281 526l108 -280h-145l-178 280l178 299h145z" />
    <glyph glyph-name="guilsinglright" unicode="&#x203a;" horiz-adv-x="468" 
d="M188 526l-108 299h145l178 -299l-178 -280h-145z" />
    <glyph glyph-name="fraction" unicode="&#x2044;" horiz-adv-x="303" 
d="M678 1405l-856 -1405h-217l856 1405h217z" />
    <glyph glyph-name="Euro" unicode="&#x20ac;" 
d="M1192 1366l-111 -303q-45 29 -102 49q-70 23 -158 23q-108 0 -178 -48q-62 -43 -82 -106h492l-78 -211h-443q-7 -64 -2 -102h408l-76 -211h-313q10 -77 57 -127q55 -60 148 -60q77 0 129 41q51 39 67 97l283 -129q-43 -113 -146 -195q-79 -62 -162.5 -83t-185.5 -21
q-129 0 -230 34t-187 119q-134 128 -166 324h-176l77 211h80q-5 47 2 102h-159l77 211h115q44 188 186 307q71 59 164 91.5t156.5 39t142.5 6.5q100 0 209 -16q100 -17 162 -43z" />
    <glyph glyph-name="uni20B4" unicode="&#x20b4;" 
d="M422 1053l-340 55q31 116 123 197q45 40 95 65.5t104.5 36.5t98 14.5t103.5 3.5q112 0 193.5 -13t150.5 -54q144 -85 144 -234q0 -45 -16 -81t-52 -78h180v-209h-346l-100 -103h446v-209h-602q-45 -52 -45 -96q0 -49 35 -76q33 -26 98 -26q66 0 103 37q34 34 45 84
l366 -48q-50 -165 -198 -258q-78 -49 -164 -65t-193 -16q-232 0 -352 69q-79 44 -116.5 108t-37.5 128q0 82 66 159h-158v209h316l102 103h-418v209h584q47 38 47 94q0 38 -29 67q-37 33 -98 33q-52 0 -88 -29q-35 -28 -47 -77z" />
    <glyph glyph-name="uni20B6" unicode="&#x20b6;" 
d="M197 1405h512q239 0 366 -105q135 -115 135 -333q0 -206 -131 -322q-76 -68 -166.5 -90.5t-197.5 -22.5h-113v-102h266v-209h-266v-221h-405v221h-144v209h144v102h-144v209h144v664zM602 1102v-320h66q83 0 123 49q30 37 30 113q0 84 -37 121t-116 37h-66z" />
    <glyph glyph-name="uni20B6" unicode="&#x20cf;" 
d="M197 1405h512q239 0 366 -105q135 -115 135 -333q0 -206 -131 -322q-76 -68 -166.5 -90.5t-197.5 -22.5h-113v-102h266v-209h-266v-221h-405v221h-144v209h144v102h-144v209h144v664zM602 1102v-320h66q83 0 123 49q30 37 30 113q0 84 -37 121t-116 37h-66z" />
    <glyph glyph-name="uni20B6" unicode="&#x20ce;" 
d="M197 1405h512q239 0 366 -105q135 -115 135 -333q0 -206 -131 -322q-76 -68 -166.5 -90.5t-197.5 -22.5h-113v-102h266v-209h-266v-221h-405v221h-144v209h144v102h-144v209h144v664zM602 1102v-320h66q83 0 123 49q30 37 30 113q0 84 -37 121t-116 37h-66z" />
    <glyph glyph-name="uni20B6" unicode="&#x20cd;" 
d="M197 1405h512q239 0 366 -105q135 -115 135 -333q0 -206 -131 -322q-76 -68 -166.5 -90.5t-197.5 -22.5h-113v-102h266v-209h-266v-221h-405v221h-144v209h144v102h-144v209h144v664zM602 1102v-320h66q83 0 123 49q30 37 30 113q0 84 -37 121t-116 37h-66z" />
    <glyph glyph-name="uni20B6" unicode="&#x20cc;" 
d="M197 1405h512q239 0 366 -105q135 -115 135 -333q0 -206 -131 -322q-76 -68 -166.5 -90.5t-197.5 -22.5h-113v-102h266v-209h-266v-221h-405v221h-144v209h144v102h-144v209h144v664zM602 1102v-320h66q83 0 123 49q30 37 30 113q0 84 -37 121t-116 37h-66z" />
    <glyph glyph-name="uni20B6" unicode="&#x20cb;" 
d="M197 1405h512q239 0 366 -105q135 -115 135 -333q0 -206 -131 -322q-76 -68 -166.5 -90.5t-197.5 -22.5h-113v-102h266v-209h-266v-221h-405v221h-144v209h144v102h-144v209h144v664zM602 1102v-320h66q83 0 123 49q30 37 30 113q0 84 -37 121t-116 37h-66z" />
    <glyph glyph-name="uni20B6" unicode="&#x20ca;" 
d="M197 1405h512q239 0 366 -105q135 -115 135 -333q0 -206 -131 -322q-76 -68 -166.5 -90.5t-197.5 -22.5h-113v-102h266v-209h-266v-221h-405v221h-144v209h144v102h-144v209h144v664zM602 1102v-320h66q83 0 123 49q30 37 30 113q0 84 -37 121t-116 37h-66z" />
    <glyph glyph-name="uni20B6" unicode="&#x20c9;" 
d="M197 1405h512q239 0 366 -105q135 -115 135 -333q0 -206 -131 -322q-76 -68 -166.5 -90.5t-197.5 -22.5h-113v-102h266v-209h-266v-221h-405v221h-144v209h144v102h-144v209h144v664zM602 1102v-320h66q83 0 123 49q30 37 30 113q0 84 -37 121t-116 37h-66z" />
    <glyph glyph-name="uni20B6" unicode="&#x20c8;" 
d="M197 1405h512q239 0 366 -105q135 -115 135 -333q0 -206 -131 -322q-76 -68 -166.5 -90.5t-197.5 -22.5h-113v-102h266v-209h-266v-221h-405v221h-144v209h144v102h-144v209h144v664zM602 1102v-320h66q83 0 123 49q30 37 30 113q0 84 -37 121t-116 37h-66z" />
    <glyph glyph-name="uni20B6" unicode="&#x20c7;" 
d="M197 1405h512q239 0 366 -105q135 -115 135 -333q0 -206 -131 -322q-76 -68 -166.5 -90.5t-197.5 -22.5h-113v-102h266v-209h-266v-221h-405v221h-144v209h144v102h-144v209h144v664zM602 1102v-320h66q83 0 123 49q30 37 30 113q0 84 -37 121t-116 37h-66z" />
    <glyph glyph-name="uni20B6" unicode="&#x20c6;" 
d="M197 1405h512q239 0 366 -105q135 -115 135 -333q0 -206 -131 -322q-76 -68 -166.5 -90.5t-197.5 -22.5h-113v-102h266v-209h-266v-221h-405v221h-144v209h144v102h-144v209h144v664zM602 1102v-320h66q83 0 123 49q30 37 30 113q0 84 -37 121t-116 37h-66z" />
    <glyph glyph-name="uni20B6" unicode="&#x20c5;" 
d="M197 1405h512q239 0 366 -105q135 -115 135 -333q0 -206 -131 -322q-76 -68 -166.5 -90.5t-197.5 -22.5h-113v-102h266v-209h-266v-221h-405v221h-144v209h144v102h-144v209h144v664zM602 1102v-320h66q83 0 123 49q30 37 30 113q0 84 -37 121t-116 37h-66z" />
    <glyph glyph-name="uni20B6" unicode="&#x20c4;" 
d="M197 1405h512q239 0 366 -105q135 -115 135 -333q0 -206 -131 -322q-76 -68 -166.5 -90.5t-197.5 -22.5h-113v-102h266v-209h-266v-221h-405v221h-144v209h144v102h-144v209h144v664zM602 1102v-320h66q83 0 123 49q30 37 30 113q0 84 -37 121t-116 37h-66z" />
    <glyph glyph-name="uni20B6" unicode="&#x20c3;" 
d="M197 1405h512q239 0 366 -105q135 -115 135 -333q0 -206 -131 -322q-76 -68 -166.5 -90.5t-197.5 -22.5h-113v-102h266v-209h-266v-221h-405v221h-144v209h144v102h-144v209h144v664zM602 1102v-320h66q83 0 123 49q30 37 30 113q0 84 -37 121t-116 37h-66z" />
    <glyph glyph-name="uni20B6" unicode="&#x20c2;" 
d="M197 1405h512q239 0 366 -105q135 -115 135 -333q0 -206 -131 -322q-76 -68 -166.5 -90.5t-197.5 -22.5h-113v-102h266v-209h-266v-221h-405v221h-144v209h144v102h-144v209h144v664zM602 1102v-320h66q83 0 123 49q30 37 30 113q0 84 -37 121t-116 37h-66z" />
    <glyph glyph-name="uni20B6" unicode="&#x20c1;" 
d="M197 1405h512q239 0 366 -105q135 -115 135 -333q0 -206 -131 -322q-76 -68 -166.5 -90.5t-197.5 -22.5h-113v-102h266v-209h-266v-221h-405v221h-144v209h144v102h-144v209h144v664zM602 1102v-320h66q83 0 123 49q30 37 30 113q0 84 -37 121t-116 37h-66z" />
    <glyph glyph-name="uni20B6" unicode="&#x20c0;" 
d="M197 1405h512q239 0 366 -105q135 -115 135 -333q0 -206 -131 -322q-76 -68 -166.5 -90.5t-197.5 -22.5h-113v-102h266v-209h-266v-221h-405v221h-144v209h144v102h-144v209h144v664zM602 1102v-320h66q83 0 123 49q30 37 30 113q0 84 -37 121t-116 37h-66z" />
    <glyph glyph-name="uni20B6" unicode="&#x20bf;" 
d="M197 1405h512q239 0 366 -105q135 -115 135 -333q0 -206 -131 -322q-76 -68 -166.5 -90.5t-197.5 -22.5h-113v-102h266v-209h-266v-221h-405v221h-144v209h144v102h-144v209h144v664zM602 1102v-320h66q83 0 123 49q30 37 30 113q0 84 -37 121t-116 37h-66z" />
    <glyph glyph-name="uni20B6" unicode="&#x20be;" 
d="M197 1405h512q239 0 366 -105q135 -115 135 -333q0 -206 -131 -322q-76 -68 -166.5 -90.5t-197.5 -22.5h-113v-102h266v-209h-266v-221h-405v221h-144v209h144v102h-144v209h144v664zM602 1102v-320h66q83 0 123 49q30 37 30 113q0 84 -37 121t-116 37h-66z" />
    <glyph glyph-name="uni20B6" unicode="&#x20bd;" 
d="M197 1405h512q239 0 366 -105q135 -115 135 -333q0 -206 -131 -322q-76 -68 -166.5 -90.5t-197.5 -22.5h-113v-102h266v-209h-266v-221h-405v221h-144v209h144v102h-144v209h144v664zM602 1102v-320h66q83 0 123 49q30 37 30 113q0 84 -37 121t-116 37h-66z" />
    <glyph glyph-name="uni20B6" unicode="&#x20bc;" 
d="M197 1405h512q239 0 366 -105q135 -115 135 -333q0 -206 -131 -322q-76 -68 -166.5 -90.5t-197.5 -22.5h-113v-102h266v-209h-266v-221h-405v221h-144v209h144v102h-144v209h144v664zM602 1102v-320h66q83 0 123 49q30 37 30 113q0 84 -37 121t-116 37h-66z" />
    <glyph glyph-name="uni20B6" unicode="&#x20bb;" 
d="M197 1405h512q239 0 366 -105q135 -115 135 -333q0 -206 -131 -322q-76 -68 -166.5 -90.5t-197.5 -22.5h-113v-102h266v-209h-266v-221h-405v221h-144v209h144v102h-144v209h144v664zM602 1102v-320h66q83 0 123 49q30 37 30 113q0 84 -37 121t-116 37h-66z" />
    <glyph glyph-name="uni20B6" unicode="&#x20ba;" 
d="M197 1405h512q239 0 366 -105q135 -115 135 -333q0 -206 -131 -322q-76 -68 -166.5 -90.5t-197.5 -22.5h-113v-102h266v-209h-266v-221h-405v221h-144v209h144v102h-144v209h144v664zM602 1102v-320h66q83 0 123 49q30 37 30 113q0 84 -37 121t-116 37h-66z" />
    <glyph glyph-name="uni20B6" unicode="&#x20b9;" 
d="M197 1405h512q239 0 366 -105q135 -115 135 -333q0 -206 -131 -322q-76 -68 -166.5 -90.5t-197.5 -22.5h-113v-102h266v-209h-266v-221h-405v221h-144v209h144v102h-144v209h144v664zM602 1102v-320h66q83 0 123 49q30 37 30 113q0 84 -37 121t-116 37h-66z" />
    <glyph glyph-name="uni20B6" unicode="&#x20b7;" 
d="M197 1405h512q239 0 366 -105q135 -115 135 -333q0 -206 -131 -322q-76 -68 -166.5 -90.5t-197.5 -22.5h-113v-102h266v-209h-266v-221h-405v221h-144v209h144v102h-144v209h144v664zM602 1102v-320h66q83 0 123 49q30 37 30 113q0 84 -37 121t-116 37h-66z" />
    <glyph glyph-name="uni20B8" unicode="&#x20b8;" 
d="M125 1077h1012v-327h-306v-750h-401v750h-305v327zM1137 1159h-1012v246h1012v-246z" />
    <glyph glyph-name="afii61352" unicode="&#x2116;" horiz-adv-x="2136" 
d="M535 1405l477 -784h4q-31 131 -31 227v557h352v-1405h-356l-457 750l-75 161h-5q23 -115 28 -150.5t5 -105.5v-655h-352v1405h410zM1747 1405q103 0 174 -59q113 -94 113 -304q0 -211 -113 -303q-74 -59 -174 -59t-174 59q-113 92 -113 303q0 210 113 304q71 59 174 59z
M1747 1249q-40 0 -57 -51q-17 -50 -17 -156q0 -105 17 -155q17 -51 57 -51t57 51q17 50 17 155q0 106 -17 156q-17 51 -57 51zM1481 557h532v-205h-532v205z" />
    <glyph glyph-name="uni2117" unicode="&#x2117;" horiz-adv-x="1560" 
d="M780 1425q143 0 277 -55.5t235 -157.5t156 -234t55 -276q0 -143 -55 -275t-156 -234t-235 -157.5t-277 -55.5t-277 55.5t-235 157.5t-156 234t-55 275q0 144 55 276t156 234t235 157.5t277 55.5zM780 141q112 0 214 43t180 123q161 161 161 395q0 235 -161 396
q-78 80 -180 123t-214 43t-213.5 -43t-179.5 -123q-162 -162 -162 -396q0 -233 162 -395q78 -80 179.5 -123t213.5 -43zM479 1096h414q139 0 217 -64q78 -63 78 -176q0 -67 -35.5 -123t-101.5 -84q-54 -23 -80.5 -29t-91.5 -12h-146v-299h-254v787zM733 776h98q49 0 74 25
q19 19 19 49q0 34 -25 55q-25 19 -63 19h-103v-148z" />
    <glyph glyph-name="trademark" unicode="&#x2122;" horiz-adv-x="1720" 
d="M629 1405v-207h-183v-610h-276v610h-182v207h641zM1053 588l-148 502v-502h-223v817h371l116 -393l113 393h373v-817h-273v499l-141 -499h-188z" />
    <glyph glyph-name="Omega" unicode="&#x2126;" horiz-adv-x="1650" 
d="M1559 0h-615v543q98 23 156 98q29 36 45 86q14 51 14 88q0 67 -26 127t-68 98q-44 38 -110 58t-130 20t-129.5 -20t-109.5 -58q-42 -38 -68 -98t-26 -127q0 -37 14 -88q16 -50 45 -86q58 -75 156 -98v-543h-615v336h357v22q-133 27 -232 109q-101 84 -137 213
q-19 64 -19 147q0 305 232 467q188 131 532 131q345 0 533 -131q231 -162 231 -467q0 -87 -18 -147q-36 -129 -137 -213q-99 -82 -232 -109v-22h357v-336z" />
    <glyph glyph-name="partialdiff" unicode="&#x2202;" horiz-adv-x="1249" 
d="M131 1343l182 62q104 -23 204 -66t175 -93t112 -78.5t66 -55.5q308 -275 308 -588q0 -72 -19.5 -146t-63 -146t-106 -127.5t-157 -90t-207.5 -34.5q-163 0 -290.5 73t-195 196.5t-67.5 274.5q0 117 38 214t102.5 161t140.5 104.5t161 57.5q-54 81 -164.5 161t-218.5 121z
M625 819q-33 0 -58 -13t-39.5 -38.5t-24 -51t-13 -65t-4.5 -64.5t-1 -63q0 -31 0.5 -52.5t3.5 -55t8 -56.5t15.5 -50t25 -43t37 -27t50.5 -11t50.5 10.5t37 26.5t24.5 42.5t15.5 49t8 57t3 55t0.5 54.5q0 33 -0.5 54t-3 55t-8 56.5t-15.5 49.5t-24.5 42.5t-37 26.5t-50.5 11
z" />
    <glyph glyph-name="Delta" unicode="&#x2206;" horiz-adv-x="1413" 
d="M471 1405h447l452 -1405h-1343zM649 899l-166 -563h332z" />
    <glyph glyph-name="product" unicode="&#x220f;" horiz-adv-x="1441" 
d="M125 1405h1192v-1405h-430v1077h-332v-1077h-430v1405z" />
    <glyph glyph-name="summation" unicode="&#x2211;" horiz-adv-x="1042" 
d="M954 1405v-328h-446l274 -332l-274 -409h479v-336h-897v287l328 434l-305 397v287h841z" />
    <glyph glyph-name="minus" unicode="&#x2212;" 
d="M106 743h1049v-307h-1049v307z" />
    <glyph glyph-name="uni2215" unicode="&#x2215;" horiz-adv-x="1193" 
d="M1143 1405l-1004 -1755h-270l1003 1755h271z" />
    <glyph glyph-name="radical" unicode="&#x221a;" horiz-adv-x="1527" 
d="M-10 1024h592l258 -600l319 1292h379v-190h-209l-450 -1833h-209l-498 1153h-182v178z" />
    <glyph glyph-name="infinity" unicode="&#x221e;" horiz-adv-x="1452" 
d="M854 754l-18 -29q29 -33 43 -46.5t38.5 -34t47 -28.5t49.5 -8q50 0 89.5 36t39.5 93q0 49 -39.5 81t-95.5 32q-45 0 -88.5 -30.5t-65.5 -65.5zM598 707l16 22q-32 39 -50 58.5t-54 41t-72 21.5q-53 0 -92 -36t-39 -93q0 -45 37.5 -79t91.5 -34q88 0 162 99zM731 549
q-57 -69 -142.5 -119.5t-193.5 -50.5q-66 0 -127 22t-111.5 63t-81 109.5t-30.5 153.5q0 162 101 257t245 95q60 0 115 -17t96.5 -45.5t68.5 -53.5t48 -52q55 70 141 119t191 49q68 0 131 -22.5t113.5 -64.5t81 -110.5t30.5 -152.5q0 -85 -31.5 -153.5t-83 -110.5t-113 -64
t-126.5 -22q-178 0 -322 170z" />
    <glyph glyph-name="integral" unicode="&#x222b;" horiz-adv-x="1239" 
d="M1219 1405l-45 -252q-44 8 -99 8q-54 0 -89 -12.5t-53 -39.5t-24.5 -48.5t-13.5 -61.5l-172 -968q-8 -43 -15.5 -74.5t-25 -75.5t-40 -75t-61 -65t-87.5 -55t-120 -34.5t-157 -13.5q-91 0 -197 24l48 279q42 -9 108 -9q35 0 55 4.5t43.5 21t39 54t26.5 99.5l172 960
q4 24 7.5 39.5t12.5 46t19.5 52.5t29.5 52t41.5 51.5t57 44.5t74.5 37.5t94 23.5t117 9q115 0 254 -22z" />
    <glyph glyph-name="approxequal" unicode="&#x2248;" 
d="M231 664l-176 102q54 121 121 190q91 99 238 99q90 0 190 -41q34 -13 78 -30t62.5 -24t43.5 -15t41 -10.5t33 -2.5q68 0 117 49q30 30 51 74l176 -103q-42 -99 -119 -176q-112 -112 -249 -112q-58 0 -144 28q-49 18 -110.5 41.5t-84 31.5t-50 14.5t-52.5 6.5
q-63 0 -116 -53q-33 -37 -50 -69zM231 188l-176 103q54 121 121 190q92 99 238 99q90 0 190 -41q34 -13 78 -30t62.5 -24t43.5 -15t41 -10.5t33 -2.5q68 0 117 49q30 30 51 74l176 -103q-42 -99 -119 -176q-113 -113 -249 -113q-55 0 -144 29q-49 18 -110.5 41.5t-84 31.5
t-50 14.5t-52.5 6.5q-63 0 -116 -53q-32 -36 -50 -70z" />
    <glyph glyph-name="notequal" unicode="&#x2260;" 
d="M106 991h615l149 277h215l-149 -277h219v-307h-385l-102 -188h487v-308h-653l-148 -274h-215l148 274h-181v308h347l102 188h-449v307z" />
    <glyph glyph-name="lessequal" unicode="&#x2264;" 
d="M541 868l610 -225v-340l-1042 404v323l1042 404v-340zM109 238v340l1042 -404v-340z" />
    <glyph glyph-name="greaterequal" unicode="&#x2265;" 
d="M719 868l-610 226v340l1042 -404v-323l-1042 -404v340zM1151 238l-1042 -404v340l1042 404v-340z" />
    <glyph glyph-name="lozenge" unicode="&#x25ca;" horiz-adv-x="1466" 
d="M1292 719l-559 -772l-559 772l559 772zM1016 719l-283 391l-282 -391l282 -391z" />
    <glyph glyph-name="uni2606" unicode="&#x2606;" horiz-adv-x="1568" 
d="M838 1628l213 -682h704l-567 -422l217 -678l-567 422l-570 -424l224 680l-566 422h697zM901 745l-63 201l-62 -201h-239l190 -141l-68 -215l179 135l182 -137l-66 215l189 143h-242z" />
    <glyph glyph-name="uniF400" unicode="&#xf400;" horiz-adv-x="4" 
d="M-180 1559l69 -201l-491 -139l-53 139z" />
    <glyph glyph-name="uniF401" unicode="&#xf401;" horiz-adv-x="4" 
d="M-256 1866l70 -201l-492 -139l-53 139z" />
    <glyph glyph-name="uniF406" unicode="&#xf406;" horiz-adv-x="1077" 
d="M723 1833h184q-18 -118 -98 -201q-100 -106 -270 -106q-171 0 -271 106q-80 83 -98 201h184q17 -55 58 -88q51 -43 127 -43t127 43q40 32 57 88z" />
    <glyph glyph-name="uniF407" unicode="&#xf407;" horiz-adv-x="1071" 
d="M584 0l-39 -98q87 10 141 -37q47 -42 47 -113q0 -78 -57 -123q-61 -49 -158 -49q-111 0 -248 70l37 94q34 -21 76.5 -33t73.5 -12q37 0 57.5 17.5t20.5 41.5q0 38 -43 56q-46 19 -117 12l61 174h148z" />
    <glyph glyph-name="uniF408" unicode="&#xf408;" horiz-adv-x="1077" 
d="M539 1661l-168 -121h-254l422 334l422 -334h-254z" />
    <glyph glyph-name="uniF409" unicode="&#xf409;" horiz-adv-x="675" 
d="M518 -117v-307l-182 -293h-158l139 275h-139v325h340z" />
    <glyph glyph-name="uniF40A" unicode="&#xf40a;" horiz-adv-x="675" 
d="M524 1405v-295l-192 -311h-162l141 278h-141v328h354z" />
    <glyph glyph-name="uniF40B" unicode="&#xf40b;" horiz-adv-x="696" 
d="M492 1810v-270h-287v270h287z" />
    <glyph glyph-name="uniF40C" unicode="&#xf40c;" horiz-adv-x="753" 
d="M172 1731q0 86 59.5 145t145.5 59t145.5 -59t59.5 -145t-59.5 -145.5t-145.5 -59.5t-145.5 59.5t-59.5 145.5zM307 1731q0 -28 21 -49t49 -21t48.5 21t20.5 49t-20.5 48.5t-48.5 20.5t-49 -20.5t-21 -48.5z" />
    <glyph glyph-name="uniF40D" unicode="&#xf40d;" horiz-adv-x="1050" 
d="M250 1526l-98 129q48 48 116 83.5t131 35.5q41 0 93 -21q11 -4 50.5 -20t66 -23.5t46.5 -7.5q56 0 117 57l29 27l98 -129q-44 -50 -100 -84q-74 -43 -154 -43q-25 0 -49 6q-29 6 -86 31q-4 2 -21 9t-25 10t-22.5 7.5t-26.5 6.5t-24 2q-53 0 -127 -64z" />
    <glyph glyph-name="uniF40E" unicode="&#xf40e;" horiz-adv-x="868" 
d="M479 0h174q-15 -8 -29.5 -17.5t-22.5 -16.5t-9 -7q-35 -31 -35 -63q0 -28 19 -49t65 -21q62 0 143 29l27 -99q-113 -49 -238 -49q-100 0 -149 35q-55 38 -55 106q0 56 49 105q25 25 61 47z" />
    <glyph glyph-name="uniF4C6" unicode="&#xf4c6;" horiz-adv-x="1368" 
d="M92 1405h410v-371v-40t3 -36.5t9 -39t19 -29t32 -25.5q31 -16 121 -16q70 0 127 8v549h430v-1290q0 -123 -18 -208t-62.5 -147t-122 -91t-192.5 -29q-78 0 -215 28v316q43 -17 82 -17q55 0 78 39q20 30 20 141v398q-127 -13 -250 -13q-169 0 -246 25q-139 45 -192 178
q-9 24 -16 52t-10 47t-5 54t-2 46v50.5v41.5v379z" />
    <glyph glyph-name="uniF4C7" unicode="&#xf4c7;" horiz-adv-x="1193" 
d="M72 1049h405v-261q0 -36 1.5 -57.5t11 -46t26.5 -37.5q23 -16 76 -16q6 0 86 8v410h405v-934q0 -136 -16 -222.5t-68 -146.5q-92 -106 -286 -106q-80 0 -215 28v283q42 -17 82 -17q54 0 77 39q21 31 21 142v278q-126 -12 -213 -12q-110 0 -184.5 15.5t-124.5 66.5
q-84 86 -84 295v291z" />
    <glyph glyph-name="uniF4CC" unicode="&#xf4cc;" horiz-adv-x="1308" 
d="M0 1405h475l252 -555h4l230 555h378l-436 -993q-57 -129 -93 -194t-73 -105q-68 -76 -153 -104.5t-197 -28.5q-98 0 -213 24v313q88 -22 172 -22q60 0 100 29q39 28 56 69zM901 1866l70 -201l-492 -139l-53 139z" />
    <glyph glyph-name="uniF4CD" unicode="&#xf4cd;" horiz-adv-x="1077" 
d="M1085 1049l-403 -1112q-20 -52 -34.5 -83.5t-45 -73.5t-70.5 -73q-61 -46 -127.5 -61t-146.5 -15q-114 0 -199 17v295q84 -17 166 -17q94 0 129 23q27 19 29 43l2 18l-393 1039h440l172 -560l182 560h299zM784 1559l70 -201l-492 -139l-53 139z" />
    </font>
</defs>
</svg>
