<?xml version="1.0" standalone="no"?>
<!DOCTYPE svg PUBLIC "-//W3C//DTD SVG 1.1//EN" "http://www.w3.org/Graphics/SVG/1.1/DTD/svg11.dtd" >
<svg xmlns="http://www.w3.org/2000/svg" xmlns:xlink="http://www.w3.org/1999/xlink" version="1.1">
<metadata>
Created by FontForge 20170731 at Mon Aug 31 08:25:13 2020
 By Aleksey,,,
Copyright (c) 1993 ParaType Inc., ParaType Ltd. All rights reserved.Franklin Gothic is a registered trade mark of International Typeface Corporation.
</metadata>
<defs>
<font id="FranklinGothicITC-MediumIt" horiz-adv-x="1261" >
  <font-face 
    font-family="FranklinGothicITC Medium"
    font-weight="500"
    font-style="italic"
    font-stretch="normal"
    units-per-em="2048"
    panose-1="2 11 6 4 3 5 2 9 2 4"
    ascent="1606"
    descent="-442"
    x-height="1044"
    cap-height="1405"
    bbox="-696 -618 2228 1976"
    underline-thickness="102"
    underline-position="-307"
    slope="-9"
    unicode-range="U+0020-FEFF"
  />
<missing-glyph horiz-adv-x="477" 
 />
    <glyph glyph-name="IJ" unicode="IJ" horiz-adv-x="1306" 
d="M311 1405h258l-229 -1405h-258zM1061 1405h258l-150 -905q-12 -79 -23 -130.5t-41 -126t-73 -122.5q-126 -141 -385 -141q-102 0 -213 20l35 213q70 -20 149 -20q137 0 205 73q61 65 88 234z" />
    <glyph glyph-name="ij" unicode="ij" horiz-adv-x="1040" 
d="M225 1044h238l-172 -1044h-238zM281 1409h245l-34 -213h-246zM737 1044h238l-168 -1013q-33 -208 -133 -301q-95 -88 -264 -88q-70 0 -162 18l31 184q54 -16 102 -16q87 0 131 53q43 50 57 144zM793 1409h245l-34 -213h-246z" />
    <glyph glyph-name="afii10017.var.accented" unicode="&#x410;`" horiz-adv-x="1200" 
d="M608 1405h287l231 -1405h-274l-57 365h-459l-172 -365h-225zM418 561h358l-88 582zM1053 1821l65 -156l-485 -174l-47 100z" />
    <glyph glyph-name="afii10022.var.accented" unicode="&#x415;`" horiz-adv-x="1167" 
d="M311 1405h938l-35 -209h-679l-60 -369h541l-33 -196h-541l-67 -422h696l-35 -209h-954zM1036 1821l66 -156l-486 -174l-47 100z" />
    <glyph glyph-name="afii10026.var.accented" unicode="&#x418;`" horiz-adv-x="1396" 
d="M311 1405h256l-135 -834q-4 -30 -29 -127h5q27 55 59 93l651 776l12 92h259l-230 -1405h-258l139 850q14 78 27 125h-4q-25 -44 -62 -88l-641 -770l-20 -117h-258zM1151 1821l66 -156l-486 -174l-47 100z" />
    <glyph glyph-name="afii10032.var.accented" unicode="&#x41e;`" horiz-adv-x="1392" 
d="M807 1425q193 0 323 -98q213 -164 213 -498q0 -163 -49 -328.5t-135 -277.5q-186 -243 -510 -243q-253 0 -397 163q-141 158 -141 435q0 258 100 469q181 378 596 378zM784 1221q-224 0 -327 -269q-32 -85 -52 -192t-20 -205q0 -157 55 -248q77 -123 230 -123
q61 0 112.5 20.5t85 49.5t62.5 73t44 77.5t30 76.5q65 189 65 383q0 147 -61 242q-74 115 -224 115zM1149 1821l65 -156l-485 -174l-47 100z" />
    <glyph glyph-name="afii10037.var.accented" unicode="&#x423;`" horiz-adv-x="1146" 
d="M131 1405h291l221 -752h6l420 752h246l-588 -1024q-63 -109 -111 -177.5t-108 -119.5q-118 -102 -283 -102q-75 0 -155 18l32 205q55 -17 115 -17q95 0 158 54q55 46 94 129zM1026 1821l66 -156l-486 -174l-47 100z" />
    <glyph glyph-name="afii10045.var.accented" unicode="&#x42b;`" horiz-adv-x="1740" 
d="M311 1405h258l-94 -576h297q91 0 167.5 -17t139.5 -69q113 -95 113 -270q0 -235 -166 -369q-79 -63 -165 -83.5t-189 -20.5h-590zM442 625l-69 -420h258q136 0 205 53q92 69 92 201q0 86 -60 129q-56 37 -168 37h-258zM1475 1405h258l-230 -1405h-258zM1323 1821l66 -156
l-486 -174l-47 100z" />
    <glyph glyph-name="afii10047.var.accented" unicode="&#x42d;`" horiz-adv-x="1269" 
d="M362 961l-233 40q18 58 45.5 111t54.5 87t45.5 53.5t30.5 29.5q159 143 418 143q273 0 399 -180q51 -72 75 -170t24 -198q0 -140 -39 -302.5t-109 -287.5q-44 -78 -101 -135.5t-111.5 -89.5t-118.5 -51.5t-114.5 -25t-107.5 -5.5q-223 0 -346 116q-43 40 -72.5 89.5
t-42 97t-17 72t-5.5 46.5l237 35q8 -85 54 -149q78 -103 221 -103q162 0 268 150q82 117 107 291h-459l31 196h450q6 44 6 88q0 143 -51 215q-66 97 -209 97q-124 0 -217 -84q-79 -73 -113 -176zM1087 1821l66 -156l-485 -174l-47 100z" />
    <glyph glyph-name="afii10048.var.accented" unicode="&#x42e;`" horiz-adv-x="1912" 
d="M475 829h209q20 110 72.5 222t130.5 192q179 182 459 182q189 0 311 -98q207 -163 207 -504q0 -165 -46.5 -326.5t-131.5 -273.5q-181 -243 -500 -243q-315 0 -453 251q-39 72 -59.5 164.5t-20.5 179.5q0 42 2 62h-211l-104 -637h-258l229 1405h258zM1300 1221
q-77 0 -133.5 -30t-107.5 -93q-77 -97 -115.5 -249t-38.5 -294q0 -58 9 -110t30.5 -100.5t53 -83.5t80 -56t108.5 -21q62 0 114.5 20.5t87 50t63.5 73t44 77.5t29 76q65 192 65 379q0 155 -61 246q-76 115 -228 115zM1409 1821l66 -156l-486 -174l-47 100z" />
    <glyph glyph-name="afii10049.var.accented" unicode="&#x42f;`" horiz-adv-x="1298" 
d="M1290 1405l-229 -1405h-258l94 584h-221l-406 -584h-311l463 625q-74 19 -125 59q-48 38 -81.5 105.5t-33.5 164.5q0 111 43 201t117 148q83 64 176.5 83t220.5 19h551zM997 1200h-266q-130 0 -196 -47q-86 -63 -86 -184q0 -88 51 -133q54 -48 196 -48h234zM1102 1821
l65 -156l-485 -174l-47 100z" />
    <glyph glyph-name="afii10023.var.accented" unicode="&#x401;`" horiz-adv-x="1167" 
d="M311 1405h938l-35 -209h-679l-60 -369h541l-33 -196h-541l-67 -422h696l-35 -209h-954zM639 1716l-33 -200h-205l33 200h205zM1241 1716l-33 -200h-204l32 200h205zM872 1864l136 -123l-275 -242l-82 70z" />
    <glyph glyph-name="afii10065.var.accented" unicode="&#x430;`" horiz-adv-x="1126" 
d="M346 748l-196 67q39 85 108 143q130 107 352 107q201 0 305 -76q113 -85 113 -246q0 -64 -41 -290q-5 -30 -13.5 -76.5t-12.5 -68t-10 -55.5t-8.5 -51t-6 -42.5t-4.5 -41.5t-2 -37.5t-1 -40.5t1 -40h-234q-6 101 17 190h-4q-49 -76 -107 -122q-106 -88 -256 -88
q-78 0 -140 27.5t-98.5 72.5t-55.5 97.5t-19 107.5q0 163 137 262q148 108 502 108q34 0 104 -4q15 67 15 97q0 77 -50 116q-45 37 -143 37q-99 0 -172 -55q-54 -42 -80 -98zM754 504q-37 4 -109 4q-192 0 -274 -51q-92 -54 -92 -156q0 -70 43 -109.5t110 -39.5
q150 0 244 149q58 87 78 203zM997 1481l66 -156l-485 -176l-48 102z" />
    <glyph glyph-name="afii10070.var.accented" unicode="&#x435;`" horiz-adv-x="1150" 
d="M1069 481h-745q-5 -50 -5 -63q0 -107 43 -172q62 -94 197 -94q108 0 176 65q47 44 80 115l207 -66q-63 -120 -166 -192q-134 -94 -317 -94q-219 0 -346 139q-119 132 -119 338q0 141 49 262t131 201q150 145 377 145q200 0 313 -104q133 -125 133 -367q0 -64 -8 -113z
M348 637h492q2 12 2 35q0 95 -45 155q-26 34 -70.5 54t-95.5 20q-103 0 -182 -70q-83 -77 -101 -194zM1010 1481l65 -156l-485 -176l-47 102z" />
    <glyph glyph-name="afii10074.var.accented" unicode="&#x438;`" horiz-adv-x="1159" 
d="M225 1044h238l-90 -544q-8 -51 -33 -123h4q41 59 64 84l438 500l14 83h238l-172 -1044h-238l92 561q9 48 25 111h-4q-21 -36 -66 -86l-428 -492l-16 -94h-238zM1014 1481l65 -156l-485 -176l-47 102z" />
    <glyph glyph-name="afii10080.var.accented" unicode="&#x43e;`" horiz-adv-x="1134" 
d="M618 1065q202 0 318 -121q125 -131 125 -344q0 -255 -160 -440q-158 -180 -395 -180q-187 0 -307 120q-125 128 -125 346q0 96 21 181.5t54.5 144.5t56.5 89.5t46 53.5q148 150 366 150zM621 893q-118 0 -197 -107q-49 -65 -74.5 -164t-25.5 -208q0 -124 47 -189
q53 -73 149 -73q153 0 230 180q28 65 44.5 150.5t16.5 152.5q0 122 -51 190q-52 68 -139 68zM1001 1481l66 -156l-485 -176l-47 102z" />
    <glyph glyph-name="afii10085.var.accented" unicode="&#x443;`" horiz-adv-x="942" 
d="M82 1044h258l127 -720l360 720h197l-586 -1132q-74 -140 -147 -197q-58 -47 -116 -62t-128 -15q-68 0 -149 18l30 182q62 -16 121 -16q84 0 133 35q28 20 56.5 60t40.5 75l12 35zM905 1481l66 -156l-486 -176l-47 102z" />
    <glyph glyph-name="afii10093.var.accented" unicode="&#x44b;`" horiz-adv-x="1474" 
d="M225 1044h238l-66 -395h226q166 0 247 -59q97 -70 97 -215q0 -89 -37.5 -171.5t-106.5 -133.5q-42 -32 -93.5 -48t-86.5 -19t-92 -3h-498zM373 498l-54 -326h187q53 0 88.5 9t67.5 40q55 55 55 141q0 77 -51 111q-36 25 -113 25h-180zM1176 1044h237l-172 -1044h-237z
M1171 1481l66 -156l-485 -176l-47 102z" />
    <glyph glyph-name="afii10095.var.accented" unicode="&#x44d;`" horiz-adv-x="1040" 
d="M289 715l-207 39q46 122 135 196q136 115 354 115q182 0 279 -90q117 -108 117 -318q0 -150 -54.5 -304t-154.5 -247q-134 -126 -342 -126q-181 0 -287 86q-116 95 -125 235l213 35q7 -64 45 -115q54 -69 152 -69q101 0 168 67q89 87 108 250h-344l25 152h342q4 40 4 61
q0 108 -45 160q-46 51 -131 51q-100 0 -172 -64q-56 -51 -80 -114zM954 1481l66 -156l-485 -176l-48 102z" />
    <glyph glyph-name="afii10096.var.accented" unicode="&#x44e;`" horiz-adv-x="1556" 
d="M395 633h150q34 171 145 285q142 147 369 147q201 0 311 -123q113 -126 113 -342q0 -115 -38 -233.5t-112 -206.5q-71 -84 -172 -132t-221 -48q-78 0 -143 20.5t-109 56t-72.5 72t-48.5 78.5q-49 105 -49 250h-151l-76 -457h-238l172 1044h238zM1049 893
q-123 0 -199 -102q-50 -66 -76 -177.5t-26 -203.5q0 -128 54.5 -193t141.5 -65q160 0 232 186q57 148 57 305q0 66 -14.5 114.5t-34 73.5t-47.5 40t-47.5 18.5t-40.5 3.5zM1212 1481l66 -156l-485 -176l-48 102z" />
    <glyph glyph-name="afii10097.var.accented" unicode="&#x44f;`" horiz-adv-x="1064" 
d="M1004 1044l-173 -1044h-237l68 410h-146l-270 -410h-262l307 432q-68 13 -117 55q-90 79 -90 209q0 66 25.5 129.5t72.5 108.5q114 110 363 110h459zM739 881h-180q-101 0 -156 -39q-69 -49 -69 -144q0 -64 43 -100q21 -17 49.5 -26t48 -10t55.5 -1h156zM967 1481
l65 -156l-485 -176l-47 102z" />
    <glyph glyph-name="afii10071.var.accented" unicode="&#x451;`" horiz-adv-x="1150" 
d="M1069 481h-745q-5 -50 -5 -63q0 -107 43 -172q62 -94 197 -94q108 0 176 65q47 44 80 115l207 -66q-63 -120 -166 -192q-134 -94 -317 -94q-219 0 -346 139q-119 132 -119 338q0 141 49 262t131 201q150 145 377 145q200 0 313 -104q133 -125 133 -367q0 -64 -8 -113z
M348 637h492q2 12 2 35q0 95 -45 155q-26 34 -70.5 54t-95.5 20q-103 0 -182 -70q-83 -77 -101 -194zM285 1409h204l-32 -201h-205zM887 1409h205l-33 -201h-205zM727 1536l131 -115l-274 -233l-86 74z" />
    <glyph glyph-name="fi" unicode="fi" horiz-adv-x="1130" 
d="M782 1415l-28 -168q-48 8 -60 8q-73 0 -119 -49q-54 -56 -59 -162h205l-29 -176h-205l-141 -868h-237l141 868h-164l29 176h164l8 54q8 54 35 113.5t65 101.5q103 114 295 114q60 0 100 -12zM823 1044h238l-172 -1044h-238zM879 1409h245l-34 -213h-246z" />
    <glyph glyph-name="fl" unicode="fl" horiz-adv-x="1130" 
d="M782 1415l-28 -168q-48 8 -60 8q-73 0 -119 -49q-54 -56 -59 -162h205l-29 -176h-205l-141 -868h-237l141 868h-164l29 176h164l8 54q8 54 35 113.5t65 101.5q103 114 295 114q60 0 100 -12zM889 1405h237l-229 -1405h-238z" />
    <glyph glyph-name=".notdef" horiz-adv-x="477" 
 />
    <glyph glyph-name=".null" horiz-adv-x="0" 
 />
    <glyph glyph-name="nonmarkingreturn" horiz-adv-x="682" 
 />
    <glyph glyph-name="space" unicode=" " horiz-adv-x="477" 
 />
    <glyph glyph-name="exclam" unicode="!" horiz-adv-x="581" 
d="M598 1405l-254 -1016h-145l75 1016h324zM391 270l-43 -270h-274l43 270h274z" />
    <glyph glyph-name="quotedbl" unicode="&#x22;" horiz-adv-x="815" 
d="M279 1405h233l-147 -535h-115zM635 1405h233l-147 -535h-115z" />
    <glyph glyph-name="numbersign" unicode="#" 
d="M754 0h-172l141 395h-258l-141 -395h-172l141 395h-223l26 160h254l105 299h-222l27 160h252l143 397h174l-145 -397h258l143 397h175l-144 -397h221l-26 -160h-252l-107 -299h222l-25 -160h-254zM780 555l105 299h-258l-105 -299h258z" />
    <glyph glyph-name="dollar" unicode="$" 
d="M1237 1096l-213 -72q-18 60 -62 105t-104 69l-63 -371q138 -31 233 -92q170 -106 170 -295q0 -111 -48.5 -202.5t-133.5 -151.5q-70 -51 -165 -78.5t-194 -27.5l-26 -162h-146l27 166q-145 12 -260 88q-22 14 -44 33.5t-54.5 55t-60.5 89t-44 115.5l236 63
q19 -71 71 -129q81 -95 191 -109l67 422q-143 31 -245 103q-160 113 -160 293q0 203 156 321q127 98 329 98q38 0 56 -2l26 166h146l-29 -180q110 -21 199 -94q108 -91 145 -221zM756 575l-64 -387q103 3 167.5 64.5t64.5 155.5q0 35 -12 63t-29.5 45.5t-42 30.5t-44 18.5
t-40.5 9.5zM655 860l60 363h-10q-66 -1 -114.5 -19t-73 -47t-35.5 -58t-11 -59q0 -43 18 -77t47.5 -54.5t59 -32t59.5 -16.5z" />
    <glyph glyph-name="percent" unicode="%" horiz-adv-x="1753" 
d="M1348 1405h163l-1024 -1405h-163zM653 1419q104 0 176 -66.5t72 -207.5q0 -96 -31.5 -190t-83.5 -156q-93 -113 -233 -113q-115 0 -186.5 72.5t-71.5 214.5q0 206 115 334q101 112 243 112zM641 1288q-99 0 -149 -125q-37 -92 -37 -202q0 -78 34 -111t76 -33
q95 0 142 127q34 90 34 213q0 131 -100 131zM1292 721q104 0 176 -67t72 -208q0 -96 -31.5 -190t-83.5 -156q-92 -112 -233 -112q-115 0 -186.5 72.5t-71.5 213.5q0 206 115 334q102 113 243 113zM1280 590q-100 0 -150 -125q-36 -89 -36 -203q0 -78 34 -110.5t76 -32.5
q95 0 142 127q34 90 34 213q0 131 -100 131z" />
    <glyph glyph-name="ampersand" unicode="&#x26;" horiz-adv-x="1392" 
d="M1186 778l194 -53q-56 -146 -168 -305q-71 -98 -149 -168q39 -74 137 -74q51 0 100 12l-30 -188q-77 -20 -133 -20q-170 0 -244 131q-79 -68 -179.5 -100.5t-201.5 -32.5q-98 0 -184.5 32t-145.5 88q-56 55 -88.5 133t-32.5 154q0 94 49 184.5t144 157.5q92 62 223 100
q-94 151 -94 285q0 37 7.5 73.5t38.5 87.5t83 87q94 63 233 63q156 0 252 -77q105 -87 105 -230q0 -144 -125 -244q-75 -62 -211 -118l182 -348q85 88 142 182q62 102 96 188zM682 899q100 39 154.5 86t54.5 119q0 61 -40.5 99t-102.5 38q-55 0 -98.5 -35.5t-43.5 -107.5
q0 -74 76 -199zM791 264l-226 424q-81 -34 -141 -80q-46 -35 -73 -77.5t-27 -110.5q0 -103 64.5 -171.5t166.5 -68.5q112 0 236 84z" />
    <glyph glyph-name="quotesingle" unicode="'" horiz-adv-x="458" 
d="M279 1405h233l-147 -535h-115z" />
    <glyph glyph-name="parenleft" unicode="(" horiz-adv-x="659" 
d="M582 1405h163q-96 -117 -179.5 -259.5t-137.5 -287.5q-48 -131 -76 -287t-28 -290q0 -164 38 -322q38 -154 107 -303h-164q-93 147 -139 311q-51 176 -51 359q0 263 114 534q125 297 353 545z" />
    <glyph glyph-name="parenright" unicode=")" horiz-adv-x="602" 
d="M37 -344h-164q96 117 179.5 259.5t137.5 287.5q48 132 76.5 287.5t28.5 289.5q0 160 -39 322q-40 158 -106 303h163q95 -150 140 -311q51 -176 51 -359q0 -261 -115 -534q-126 -299 -352 -545z" />
    <glyph glyph-name="asterisk" unicode="*" horiz-adv-x="1153" 
d="M848 1368l-109 -324l334 84l23 -155l-338 -47l268 -209l-96 -125l-248 239l-68 -333l-157 41l106 323l-330 -84l-28 158l334 49l-265 207l103 125l244 -240l69 332z" />
    <glyph glyph-name="plus" unicode="+" horiz-adv-x="1318" 
d="M606 1120h191v-434h434v-190h-434v-435h-191v435h-434v190h434v434z" />
    <glyph glyph-name="comma" unicode="," horiz-adv-x="581" 
d="M397 279l-41 -252l-229 -324h-111l181 297h-127l45 279h282z" />
    <glyph glyph-name="hyphen" unicode="-" horiz-adv-x="544" 
d="M522 635l-33 -193h-462l32 193h463z" />
    <glyph glyph-name="period" unicode="." horiz-adv-x="581" 
d="M115 279h282l-45 -279h-282z" />
    <glyph glyph-name="slash" unicode="/" horiz-adv-x="1042" 
d="M1067 1405h182l-1177 -1755h-183z" />
    <glyph glyph-name="zero" unicode="0" 
d="M774 1425q204 0 318 -137q112 -139 112 -401q0 -182 -48 -371t-155 -330q-88 -117 -187 -161.5t-236 -44.5q-181 0 -291 98q-160 145 -160 463q0 81 11 166t36 182.5t74.5 192.5t118.5 169q163 174 407 174zM745 1229q-152 0 -243 -154q-64 -110 -98.5 -286.5
t-34.5 -313.5q0 -167 75 -242q57 -57 158 -57q77 0 130 36.5t95 104.5q65 107 100.5 291t35.5 320q0 151 -50 223q-54 78 -168 78z" />
    <glyph glyph-name="one" unicode="1" 
d="M762 1405h190l-196 -1196h374l-34 -209h-1014l35 209h389l147 901q-169 -131 -395 -223l35 221q282 110 469 297z" />
    <glyph glyph-name="two" unicode="2" 
d="M401 936l-196 76q56 185 180 291q148 122 371 122q228 0 348 -120q113 -113 113 -287q0 -152 -82.5 -271.5t-225.5 -222.5q-80 -58 -249.5 -157t-284.5 -158h719l-35 -209h-1018l35 217l164 100q247 152 469 320q60 45 96.5 77.5t78 80t61.5 100.5t20 113q0 94 -64 155
q-63 58 -170 58q-145 0 -235 -99q-66 -72 -95 -186z" />
    <glyph glyph-name="three" unicode="3" 
d="M418 1047l-182 77q36 99 131 179q79 67 167 94.5t207 27.5q213 0 326 -96q117 -102 117 -256q0 -149 -111 -254q-85 -78 -186 -92l2 -6q88 -23 149 -88q82 -89 82 -215q0 -93 -41.5 -182t-120.5 -150q-136 -106 -358 -106q-233 0 -371 108q-58 45 -102.5 113.5
t-65.5 148.5l201 62q32 -97 90 -152q39 -37 99.5 -60.5t130.5 -23.5q132 0 211 72q77 70 77 174q0 46 -18 88t-51 68q-67 53 -217 53h-144l33 188h182q131 0 219 74q68 59 68 145q0 90 -57 140q-55 51 -166 51q-113 0 -203 -66q-65 -48 -98 -116z" />
    <glyph glyph-name="four" unicode="4" 
d="M815 1405h303l-145 -887h219l-33 -196h-217l-53 -322h-246l53 322h-655l29 178zM729 518l111 680l-545 -680h434z" />
    <glyph glyph-name="five" unicode="5" 
d="M1241 1405l-63 -209h-652l-90 -381q121 133 328 133q176 0 283 -90q129 -113 129 -319q0 -104 -35.5 -204.5t-102.5 -178.5q-154 -176 -420 -176q-238 0 -385 135q-92 83 -131 204l205 72q35 -102 119 -160q79 -55 176 -55q164 0 250 105q34 40 54 100t20 123
q0 118 -66 184t-178 66q-180 0 -285 -144l-200 52l174 743h870z" />
    <glyph glyph-name="six" unicode="6" 
d="M1221 1092l-220 -45q-10 58 -47 104q-63 78 -184 78q-148 0 -244 -113q-60 -69 -104 -180.5t-62 -226.5h2q39 67 91.5 111.5t107 62.5t91 24t73.5 6q113 0 194.5 -38t129.5 -93q49 -56 74.5 -132.5t25.5 -149.5q0 -94 -36 -186.5t-99 -161.5q-155 -172 -416 -172
q-200 0 -322 108q-97 85 -135.5 199t-38.5 258q0 207 63 387t173 303q95 105 198.5 147.5t239.5 42.5q93 0 172 -21t150 -87q101 -97 123 -225zM655 717q-117 0 -196 -72q-42 -39 -69.5 -100.5t-27.5 -128.5q0 -121 80 -187q63 -53 152 -53q128 0 209 74q44 41 69 101.5
t25 121.5q0 104 -64 174t-178 70z" />
    <glyph glyph-name="seven" unicode="7" 
d="M1241 1405l-27 -158q-156 -159 -278 -334q-147 -208 -234 -415q-97 -230 -141 -498h-274q66 295 202 561q169 334 465 635h-725l58 209h954z" />
    <glyph glyph-name="eight" unicode="8" 
d="M428 717v8q-88 36 -137 116.5t-49 176.5q0 85 38 161.5t105 131.5q70 57 168 85.5t201 28.5q180 0 293 -63q85 -48 125 -121t40 -151q0 -150 -112 -246q-70 -60 -174 -92l2 -4q94 -40 155 -101q91 -91 91 -233q0 -204 -179 -326q-161 -108 -411 -108q-206 0 -330 81
q-160 103 -160 287q0 164 121 266q89 75 213 103zM733 825q84 30 154 78q45 32 70.5 66.5t25.5 83.5q0 86 -70 141q-56 43 -157 43q-122 0 -189 -45q-40 -27 -62 -67t-22 -78q0 -80 64 -134q29 -25 83.5 -50t102.5 -38zM616 629q-99 -22 -174 -72q-114 -76 -114 -180
q0 -82 73.5 -145.5t223.5 -63.5q143 0 221 64t78 153q0 87 -95 156q-40 29 -100 53t-113 35z" />
    <glyph glyph-name="nine" unicode="9" 
d="M90 313l219 45q10 -59 49 -104q66 -78 185 -78q147 0 243 113q61 71 104.5 184t59.5 223h-4q-31 -55 -74 -95.5t-81.5 -60.5t-83.5 -32t-70 -14t-51 -2q-65 0 -122 13.5t-96.5 36t-63.5 41.5t-42 40q-98 110 -98 280q0 205 121 344q157 178 434 178q219 0 348 -135
q141 -146 141 -430q0 -209 -62 -388.5t-173 -301.5q-95 -105 -198.5 -147.5t-239.5 -42.5q-103 0 -188.5 27t-160.5 110q-77 90 -96 196zM657 688q115 0 195 72q96 86 96 219q0 125 -82 195q-65 55 -157 55q-113 0 -189 -66q-52 -44 -79 -106t-27 -125q0 -101 59 -170
q64 -74 184 -74z" />
    <glyph glyph-name="colon" unicode=":" horiz-adv-x="581" 
d="M524 1044l-45 -278h-282l45 278h282zM397 279l-45 -279h-282l45 279h282z" />
    <glyph glyph-name="semicolon" unicode=";" horiz-adv-x="581" 
d="M524 1044l-45 -278h-282l45 278h282zM397 279l-41 -252l-229 -324h-111l181 297h-127l45 279h282z" />
    <glyph glyph-name="less" unicode="&#x3c;" horiz-adv-x="1318" 
d="M440 592l744 -297v-197l-1016 416v156l1016 415v-196z" />
    <glyph glyph-name="equal" unicode="=" horiz-adv-x="1318" 
d="M172 711v190h1057v-190h-1057zM172 281v190h1057v-190h-1057z" />
    <glyph glyph-name="greater" unicode="&#x3e;" horiz-adv-x="1318" 
d="M911 592l-743 297v196l1016 -415v-156l-1016 -416v197z" />
    <glyph glyph-name="question" unicode="?" horiz-adv-x="1089" 
d="M332 967l-201 45q33 149 127 256q80 89 177 123t229 34q204 0 315 -94.5t111 -257.5q0 -70 -20.5 -131.5t-49.5 -103.5t-73.5 -80.5t-81 -60.5t-83.5 -46q-62 -31 -97 -53t-54.5 -47.5t-26 -46.5t-12.5 -62l-8 -53h-205l8 53q6 41 10 62t17.5 60.5t34.5 70.5
q15 21 32.5 39.5t41 36t37.5 27t42.5 26.5t36.5 22q42 26 72 48.5t62.5 55.5t49.5 75t17 90q0 83 -58 130.5t-151 47.5q-62 0 -114.5 -23t-88.5 -62.5t-59.5 -84.5t-36.5 -96zM606 270l-43 -270h-274l43 270h274z" />
    <glyph glyph-name="at" unicode="@" horiz-adv-x="1783" 
d="M1239 201l92 -76q-182 -145 -438 -145q-133 0 -266 44.5t-219 114.5q-105 86 -173.5 230.5t-68.5 310.5q0 162 57.5 303t159.5 240q102 98 243.5 152.5t307.5 54.5q172 0 303.5 -55t214.5 -140q78 -79 122 -183.5t44 -222.5q0 -92 -28 -189t-85 -165q-58 -69 -150 -118.5
t-181 -49.5q-37 0 -76.5 12.5t-59.5 30.5q-21 21 -34 64q-27 -31 -64 -58q-66 -49 -156 -49q-50 0 -101 19.5t-89 54.5q-42 40 -67 105.5t-25 136.5q0 50 12 106.5t53 131t105 124.5q104 82 239 82q94 0 146 -41q38 -28 63 -84l31 102h156l-140 -520q-8 -32 -8 -47
q0 -24 15.5 -37.5t26.5 -15.5t22 -2q103 0 178 104q40 58 56 132.5t16 129.5q0 65 -20.5 143t-61.5 138q-68 98 -199 155.5t-289 57.5q-229 0 -383 -139q-88 -79 -137 -203.5t-49 -265.5q0 -279 194 -432q152 -117 373 -117q195 0 338 76zM926 918q-96 0 -164 -76
q-39 -43 -59.5 -106t-20.5 -122q0 -77 41 -120q36 -41 98 -41q49 0 98.5 30.5t86.5 98.5q51 94 51 188q0 67 -33 104q-38 44 -98 44z" />
    <glyph glyph-name="A" unicode="A" horiz-adv-x="1200" 
d="M608 1405h287l231 -1405h-274l-57 365h-459l-172 -365h-225zM418 561h358l-88 582z" />
    <glyph glyph-name="B" unicode="B" horiz-adv-x="1318" 
d="M311 1405h523q65 0 100 -1.5t99 -15.5t112 -42q153 -89 153 -277q0 -136 -86 -227q-74 -80 -192 -113v-4q88 -24 141 -80q40 -41 61 -101.5t21 -123.5q0 -80 -31.5 -158.5t-87.5 -134.5q-76 -76 -170 -101.5t-213 -25.5h-659zM535 1200l-60 -377h275q154 0 223 62
q63 56 63 147q0 83 -61 127q-59 41 -191 41h-249zM442 627l-69 -422h305q52 0 85.5 3.5t78 21t76.5 51.5q59 65 59 153q0 98 -74 150q-61 43 -184 43h-277z" />
    <glyph glyph-name="C" unicode="C" horiz-adv-x="1290" 
d="M1294 936l-233 -37q-4 126 -62 213q-72 109 -208 109q-176 0 -283 -187q-55 -95 -89 -237.5t-34 -266.5q0 -153 66 -243q78 -103 208 -103q131 0 222 99q73 82 106 198l227 -53q-52 -161 -155 -270q-164 -178 -420 -178q-236 0 -381 165q-68 78 -107.5 192.5t-39.5 252.5
q0 156 51.5 320t144.5 280q189 235 486 235q239 0 374 -147q61 -68 93 -159.5t34 -182.5z" />
    <glyph glyph-name="D" unicode="D" horiz-adv-x="1404" 
d="M311 1405h410q58 0 102.5 -2.5t102.5 -12.5t104 -27.5t95 -49.5t89 -76q71 -79 106.5 -195t35.5 -245q0 -163 -57 -329t-169 -282q-60 -62 -123.5 -101.5t-132 -56.5t-122.5 -22.5t-129 -5.5h-541zM535 1200l-162 -995h227q49 0 87.5 5t88 19.5t95 49t85.5 86.5
q42 57 70.5 130.5t38.5 143t13 104t3 60.5q0 201 -92 299q-91 98 -276 98h-178z" />
    <glyph glyph-name="E" unicode="E" horiz-adv-x="1167" 
d="M311 1405h938l-35 -209h-679l-60 -369h541l-33 -196h-541l-67 -422h696l-35 -209h-954z" />
    <glyph glyph-name="F" unicode="F" horiz-adv-x="1085" 
d="M311 1405h906l-35 -209h-645l-62 -369h529l-33 -196h-529l-102 -631h-258z" />
    <glyph glyph-name="G" unicode="G" horiz-adv-x="1351" 
d="M1303 993l-244 -41q-3 102 -60 174q-71 95 -198 95q-101 0 -179.5 -61.5t-132.5 -162.5q-46 -89 -75 -216t-29 -249q0 -156 72 -247q80 -101 219 -101q172 0 264 140q56 83 80 217h-320l33 196h561l-120 -737h-132l-22 160h-6l-10 -11q-9 -11 -14 -16.5t-17 -17.5
t-22 -20.5t-24 -19.5t-28 -20q-113 -75 -278 -75q-201 0 -332 118q-178 161 -178 463q0 151 44 306.5t117 265.5q86 132 223.5 212t321.5 80q132 0 228.5 -43t152.5 -108q45 -52 73.5 -126.5t31.5 -154.5z" />
    <glyph glyph-name="H" unicode="H" horiz-adv-x="1384" 
d="M311 1405h258l-92 -565h549l92 565h258l-229 -1405h-258l104 631h-549l-104 -631h-258z" />
    <glyph glyph-name="I" unicode="I" horiz-adv-x="577" 
d="M311 1405h258l-229 -1405h-258z" />
    <glyph glyph-name="J" unicode="J" horiz-adv-x="778" 
d="M528 1405h258l-149 -905q-12 -79 -23 -130.5t-41 -126t-73 -122.5q-126 -141 -385 -141q-102 0 -213 20l35 213q70 -20 149 -20q137 0 205 73q61 65 88 234z" />
    <glyph glyph-name="K" unicode="K" horiz-adv-x="1294" 
d="M311 1405h258l-118 -727l651 727h270l-454 -508l337 -897h-282l-250 696l-326 -338l-57 -358h-258z" />
    <glyph glyph-name="L" unicode="L" horiz-adv-x="1044" 
d="M1004 209l-35 -209h-887l229 1405h258l-194 -1196h629z" />
    <glyph glyph-name="M" unicode="M" horiz-adv-x="1744" 
d="M311 1405h344l193 -1002h4l508 1002h377l-230 -1405h-250l189 1155h-4l-580 -1155h-172l-211 1153h-4l-184 -1153h-209z" />
    <glyph glyph-name="N" unicode="N" horiz-adv-x="1413" 
d="M311 1405h283l428 -1026h4q10 106 18 151l144 875h217l-229 -1405h-234l-469 1122h-4q0 -88 -14 -170l-156 -952h-217z" />
    <glyph glyph-name="O" unicode="O" horiz-adv-x="1392" 
d="M807 1425q193 0 323 -98q213 -164 213 -498q0 -163 -49 -328.5t-135 -277.5q-186 -243 -510 -243q-253 0 -397 163q-141 158 -141 435q0 258 100 469q181 378 596 378zM784 1221q-224 0 -327 -269q-32 -85 -52 -192t-20 -205q0 -157 55 -248q77 -123 230 -123
q61 0 112.5 20.5t85 49.5t62.5 73t44 77.5t30 76.5q65 189 65 383q0 147 -61 242q-74 115 -224 115z" />
    <glyph glyph-name="P" unicode="P" horiz-adv-x="1269" 
d="M311 1405h490q120 0 214 -19.5t163 -78.5q112 -97 112 -271q0 -112 -45.5 -215t-128.5 -166q-47 -36 -104.5 -59.5t-120 -33t-107.5 -12.5t-102 -3h-252l-90 -547h-258zM537 1200l-74 -448h268q155 0 232 82q61 66 61 174q0 86 -43 133q-24 27 -64.5 41t-67 16t-71.5 2
h-241z" />
    <glyph glyph-name="Q" unicode="Q" horiz-adv-x="1392" 
d="M1133 -127l-19 -188q-70 -15 -141 -15q-49 0 -84.5 3.5t-86 23t-83.5 55.5q-37 40 -55 101.5t-11 126.5q-134 -4 -235 43.5t-166 119.5q-141 160 -141 435q0 258 100 469q181 378 596 378q193 0 323 -98q213 -161 213 -498q0 -165 -48.5 -328t-135.5 -278
q-140 -185 -346 -227q0 -60 27 -94q35 -43 129 -43q93 0 164 14zM784 1221q-224 0 -327 -269q-32 -85 -52 -192t-20 -205q0 -157 55 -248q77 -123 230 -123q61 0 112.5 20.5t85 49.5t62.5 73t44 77.5t30 76.5q65 189 65 383q0 147 -61 242q-74 115 -224 115z" />
    <glyph glyph-name="R" unicode="R" horiz-adv-x="1331" 
d="M311 1405h549q48 0 83.5 -2.5t88 -11.5t101 -31t88.5 -57q118 -103 118 -277q0 -183 -122 -297q-85 -78 -197 -106l184 -623h-266l-162 580h-340l-96 -580h-258zM537 1200l-70 -424h301q157 0 231 60q74 59 74 170q0 89 -57 139q-64 55 -207 55h-272z" />
    <glyph glyph-name="S" unicode="S" horiz-adv-x="1228" 
d="M1204 1096l-213 -72q-19 67 -73 117q-87 80 -238 80q-101 0 -168 -45q-74 -53 -74 -134q0 -102 133 -161q61 -27 234 -68q32 -8 55.5 -14.5t64 -22.5t70 -34t64 -48t56.5 -65t37 -85.5t15 -109.5q0 -98 -45 -188.5t-129 -155.5q-84 -64 -182.5 -87t-216.5 -23
q-109 0 -199.5 18.5t-173.5 73.5q-159 105 -205 293l238 63q32 -99 106 -162q97 -82 240 -82q140 0 219 68q74 66 74 154q0 55 -24.5 88.5t-80.5 58.5q-18 8 -43 16t-44.5 13.5t-59 15.5t-63.5 16q-41 11 -75.5 22t-77.5 30t-76.5 40t-67 52t-55.5 66.5t-36 84t-14 103.5
q0 87 39 171.5t117 143.5q127 98 366 98q110 0 194.5 -22t164.5 -86q112 -92 147 -221z" />
    <glyph glyph-name="T" unicode="T" horiz-adv-x="1044" 
d="M182 1405h981l-35 -209h-360l-197 -1196h-258l197 1196h-363z" />
    <glyph glyph-name="U" unicode="U" horiz-adv-x="1339" 
d="M299 1405h258l-123 -752q-24 -160 -24 -217q0 -120 57 -184q61 -68 188 -68q155 0 240 92q33 36 56.5 91.5t31.5 92.5t16 91l140 854h209l-138 -844q-9 -53 -15.5 -87.5t-19.5 -87.5t-30 -92t-41.5 -82.5t-59 -79.5t-77.5 -64q-27 -18 -63.5 -35t-117 -35t-172.5 -18
q-183 0 -299 71q-172 105 -172 330q0 72 17 172z" />
    <glyph glyph-name="V" unicode="V" horiz-adv-x="1167" 
d="M135 1405h275l174 -1073l518 1073h233l-690 -1405h-262z" />
    <glyph glyph-name="W" unicode="W" horiz-adv-x="1761" 
d="M156 1405h250l94 -1030h4l430 1030h205l116 -1030h5l403 1030h225l-575 -1405h-242l-108 989h-5l-409 -989h-246z" />
    <glyph glyph-name="X" unicode="X" horiz-adv-x="1175" 
d="M180 1405h295l201 -473l356 473h246l-502 -651l334 -754h-295l-237 547l-418 -547h-250l571 731z" />
    <glyph glyph-name="Y" unicode="Y" horiz-adv-x="1126" 
d="M119 1405h295l231 -586l428 586h234l-590 -813l-96 -592h-259l97 592z" />
    <glyph glyph-name="Z" unicode="Z" horiz-adv-x="1114" 
d="M215 1405h989l-24 -168l-883 -1028h741l-34 -209h-1049l29 186l874 1010h-676z" />
    <glyph glyph-name="bracketleft" unicode="[" horiz-adv-x="696" 
d="M348 1405h406l-21 -131h-211l-246 -1487h211l-20 -131h-406z" />
    <glyph glyph-name="backslash" unicode="\" horiz-adv-x="1177" 
d="M195 1405h182l610 -1405h-182z" />
    <glyph glyph-name="bracketright" unicode="]" horiz-adv-x="696" 
d="M246 1405h405l-286 -1749h-406l21 131h210l246 1487h-211z" />
    <glyph glyph-name="asciicircum" unicode="^" horiz-adv-x="1007" 
d="M524 1130l-217 -602h-184l354 877h94l355 -877h-185z" />
    <glyph glyph-name="underscore" unicode="_" horiz-adv-x="1024" 
d="M1024 -133v-127h-1024v127h1024z" />
    <glyph glyph-name="grave" unicode="`" horiz-adv-x="821" 
d="M354 1481l398 -230l-62 -102l-430 176z" />
    <glyph glyph-name="a" unicode="a" horiz-adv-x="1126" 
d="M346 748l-196 67q39 85 108 143q130 107 352 107q201 0 305 -76q113 -85 113 -246q0 -64 -41 -290q-5 -30 -13.5 -76.5t-12.5 -68t-10 -55.5t-8.5 -51t-6 -42.5t-4.5 -41.5t-2 -37.5t-1 -40.5t1 -40h-234q-6 101 17 190h-4q-49 -76 -107 -122q-106 -88 -256 -88
q-78 0 -140 27.5t-98.5 72.5t-55.5 97.5t-19 107.5q0 163 137 262q148 108 502 108q34 0 104 -4q15 67 15 97q0 77 -50 116q-45 37 -143 37q-99 0 -172 -55q-54 -42 -80 -98zM754 504q-37 4 -109 4q-192 0 -274 -51q-92 -54 -92 -156q0 -70 43 -109.5t110 -39.5
q150 0 244 149q58 87 78 203z" />
    <glyph glyph-name="b" unicode="b" horiz-adv-x="1191" 
d="M285 1405h237l-84 -512h4q44 61 119 111q94 61 207 61q15 0 32 -1t54 -9t68.5 -22t69.5 -43t64 -68t44 -101.5t18 -140.5q0 -129 -45.5 -275.5t-118.5 -244.5q-69 -92 -154.5 -136t-203.5 -44q-227 0 -332 200l-100 -180h-111zM686 893q-141 0 -229 -152
q-42 -72 -65 -173.5t-23 -184.5q0 -116 59.5 -173.5t138.5 -57.5q129 0 217 167q41 78 62.5 174.5t21.5 178.5q0 110 -51 165.5t-131 55.5z" />
    <glyph glyph-name="c" unicode="c" horiz-adv-x="1036" 
d="M1012 686l-219 -37q4 90 -29 154q-42 90 -150 90q-161 0 -237 -205q-23 -59 -38 -140t-15 -149q0 -126 57 -186.5t139 -60.5q74 0 138.5 55.5t97.5 169.5l192 -66q-54 -132 -137 -211q-64 -64 -139.5 -92t-175.5 -28q-195 0 -308.5 122.5t-113.5 337.5q0 239 125 414
q157 211 409 211q173 0 277 -96q55 -48 89.5 -121.5t37.5 -161.5z" />
    <glyph glyph-name="d" unicode="d" horiz-adv-x="1179" 
d="M938 1405h238l-232 -1405h-221l31 182h-4q-42 -69 -101 -119q-101 -83 -227 -83q-75 0 -139.5 28t-108.5 76q-100 111 -100 317q0 188 73 353q19 42 43.5 81.5t63.5 82.5t84.5 74.5t108.5 52t133 20.5q197 0 268 -168h6zM623 893q-69 0 -136 -48.5t-108 -148.5
q-26 -64 -40.5 -149t-14.5 -154q0 -122 49 -184q45 -57 127 -57q76 0 140.5 49t102.5 139q27 64 47.5 161t20.5 161q0 119 -56 175t-132 56z" />
    <glyph glyph-name="e" unicode="e" horiz-adv-x="1150" 
d="M1069 481h-745q-5 -50 -5 -63q0 -107 43 -172q62 -94 197 -94q108 0 176 65q47 44 80 115l207 -66q-63 -120 -166 -192q-134 -94 -317 -94q-219 0 -346 139q-119 132 -119 338q0 141 49 262t131 201q150 145 377 145q200 0 313 -104q133 -125 133 -367q0 -64 -8 -113z
M348 637h492q2 12 2 35q0 95 -45 155q-26 34 -70.5 54t-95.5 20q-103 0 -182 -70q-83 -77 -101 -194z" />
    <glyph glyph-name="f" unicode="f" horiz-adv-x="716" 
d="M893 1415l-27 -168q-46 8 -102 8q-112 0 -166 -49q-57 -49 -72 -162h260l-28 -176h-260l-142 -868h-237l141 868h-174l29 176h174l8 54q16 110 106 215q64 66 146 90t194 24q89 0 150 -12z" />
    <glyph glyph-name="g" unicode="g" horiz-adv-x="1105" 
d="M1167 1290l-12 -178q-42 10 -82 10q-68 0 -110 -26q-52 -34 -74 -97q69 -36 107 -103.5t38 -147.5q0 -149 -102 -254q-123 -123 -336 -123q-100 0 -190 35q-59 -10 -94.5 -41.5t-35.5 -67.5q0 -72 93 -72l166 -4q11 0 52 -1t54.5 -1.5t50.5 -2.5t53 -5t47 -7.5
t48.5 -11.5t41 -16.5t41 -23t33.5 -29.5q66 -69 66 -172q0 -70 -34 -134.5t-89 -105.5q-124 -94 -432 -94q-188 0 -295 29q-69 19 -117 49t-69 64t-29 60t-8 52q0 79 55 137q53 56 137 80q-41 17 -65.5 59.5t-24.5 88.5q0 89 84 159q63 51 144 76q-123 78 -123 225
q0 170 120 269q118 100 324 100q94 0 176 -23q23 105 78 166q76 88 221 88q13 0 92 -6zM610 913q-94 0 -155 -61q-62 -62 -62 -154q0 -85 45 -127q52 -49 144 -49q98 0 157 64q58 60 58 164q0 67 -45 112q-55 51 -142 51zM274 31q-54 -20 -81 -48t-27 -75q0 -63 76 -98
q97 -41 293 -41q107 0 165 18t81.5 51t23.5 66q0 26 -9 45t-28 30t-37 18t-48 9.5t-47 3t-48 0.5q-168 0 -314 21z" />
    <glyph glyph-name="h" unicode="h" horiz-adv-x="1187" 
d="M283 1405h237l-84 -528h4q29 47 80 92q110 96 254 96q124 0 205 -66q94 -77 94 -227q0 -21 -14 -133l-107 -639h-237l106 633q8 44 8 94q0 37 -5.5 62t-26.5 49q-41 47 -115 47q-128 0 -223 -148q-62 -96 -78 -200l-90 -537h-238z" />
    <glyph glyph-name="i" unicode="i" horiz-adv-x="532" 
d="M225 1044h238l-172 -1044h-238zM281 1409h245l-34 -213h-246z" />
    <glyph glyph-name="j" unicode="j" horiz-adv-x="532" 
d="M225 1044h238l-168 -1013q-33 -208 -133 -301q-95 -88 -264 -88q-70 0 -162 18l31 184q54 -16 102 -16q87 0 131 53q43 50 57 144zM281 1409h245l-34 -213h-246z" />
    <glyph glyph-name="k" unicode="k" horiz-adv-x="1114" 
d="M283 1405h237l-137 -850l500 489h239l-377 -364l252 -680h-256l-182 520l-217 -211l-51 -309h-238z" />
    <glyph glyph-name="l" unicode="l" horiz-adv-x="524" 
d="M283 1405h237l-229 -1405h-238z" />
    <glyph glyph-name="m" unicode="m" horiz-adv-x="1736" 
d="M225 1044h221l-30 -167h4q36 61 88 108q92 80 221 80q123 0 193 -70q56 -56 75 -141h4q51 83 113 131q101 80 221 80q123 0 199 -72q88 -82 88 -227q0 -34 -18 -152l-101 -614h-233l102 616q10 62 10 111q0 84 -41 125q-33 33 -88 33q-61 0 -116 -43q-117 -93 -154 -307
l-88 -535h-233l104 618q12 74 12 111q0 82 -39 121q-35 35 -90 35q-73 0 -145 -72q-98 -98 -129 -283l-88 -530h-234z" />
    <glyph glyph-name="n" unicode="n" horiz-adv-x="1191" 
d="M225 1044h221l-34 -196h4q32 59 84 108q112 109 270 109q133 0 217 -78q90 -87 90 -221q0 -45 -18 -160l-101 -606h-237l102 618q13 85 13 103q0 77 -39 119q-39 45 -111 45q-135 0 -221 -131q-65 -99 -86 -226l-88 -528h-238z" />
    <glyph glyph-name="o" unicode="o" horiz-adv-x="1134" 
d="M618 1065q202 0 318 -121q125 -131 125 -344q0 -255 -160 -440q-158 -180 -395 -180q-187 0 -307 120q-125 128 -125 346q0 96 21 181.5t54.5 144.5t56.5 89.5t46 53.5q148 150 366 150zM621 893q-118 0 -197 -107q-49 -65 -74.5 -164t-25.5 -208q0 -124 47 -189
q53 -73 149 -73q153 0 230 180q28 65 44.5 150.5t16.5 152.5q0 122 -51 190q-52 68 -139 68z" />
    <glyph glyph-name="p" unicode="p" horiz-adv-x="1159" 
d="M207 1044h221l-31 -192h4q33 67 95 121q105 92 243 92q158 0 252 -105t94 -282q0 -133 -41 -275.5t-106 -234.5q-135 -188 -348 -188q-102 0 -179 42t-110 123h-4l-80 -481h-237zM659 893q-34 0 -68.5 -10.5t-81.5 -49t-83 -102.5q-84 -148 -84 -336q0 -66 17.5 -115
t46.5 -76t61.5 -39.5t67.5 -12.5q94 0 167 92q60 76 97 205t37 225q0 101 -48.5 160t-128.5 59z" />
    <glyph glyph-name="q" unicode="q" horiz-adv-x="1175" 
d="M995 1044h119l-227 -1380h-238l78 477h-4q-54 -77 -136 -119t-169 -42q-65 0 -123.5 22.5t-109.5 70t-81 133.5t-30 200q0 232 98 401q146 258 426 258q66 0 120.5 -17t91 -46t59 -57t38.5 -60zM618 893q-71 0 -134 -49.5t-103 -141.5q-57 -129 -57 -305q0 -62 13.5 -109
t32.5 -72t46 -40.5t47.5 -19.5t42.5 -4q40 0 78.5 15.5t83 62.5t75.5 122q27 65 45.5 150.5t18.5 146.5q0 125 -57 184.5t-132 59.5z" />
    <glyph glyph-name="r" unicode="r" horiz-adv-x="774" 
d="M225 1044h221l-40 -243h4q40 87 108 155q51 51 108 80t148 29q33 0 49 -2l-28 -229q-14 2 -43 2q-135 0 -226 -80q-127 -110 -168 -350l-67 -406h-238z" />
    <glyph glyph-name="s" unicode="s" horiz-adv-x="1024" 
d="M963 813l-197 -59q-13 52 -49 88q-59 59 -166 59q-105 0 -154 -41t-49 -90q0 -68 82 -100q39 -16 120.5 -29.5t123.5 -24.5q133 -30 200 -104q68 -75 68 -180q0 -87 -40.5 -159t-108.5 -116q-113 -77 -332 -77q-220 0 -332 86q-104 78 -129 210l209 48q22 -95 100 -144
q55 -37 152 -37q96 0 157 31q78 40 78 117q0 53 -39 84q-11 8 -23.5 14.5t-34.5 12t-33.5 8t-46.5 8.5t-48 8q-173 33 -254 94q-104 78 -104 215q0 178 168 271q108 59 276 59q147 0 240 -49q130 -65 166 -203z" />
    <glyph glyph-name="t" unicode="t" horiz-adv-x="667" 
d="M311 1333l224 21l-52 -310h230l-29 -176h-229l-76 -465q-14 -96 -14 -116q0 -115 118 -115q67 0 125 10l-22 -182q-85 -14 -183 -14q-121 0 -188 47q-90 66 -90 213q0 42 16 157l76 465h-151l28 176h160z" />
    <glyph glyph-name="u" unicode="u" horiz-adv-x="1150" 
d="M205 1044h237l-88 -534q-22 -140 -22 -207q0 -73 35 -108t90 -35q104 0 188 100q48 58 81 139t46 158l80 487h238l-172 -1044h-222l33 215h-4q-65 -121 -156 -178q-86 -57 -204 -57q-111 0 -183 59q-92 79 -92 244q0 55 14 151z" />
    <glyph glyph-name="v" unicode="v" horiz-adv-x="958" 
d="M82 1044h258l133 -751h4l371 751h192l-532 -1044h-213z" />
    <glyph glyph-name="w" unicode="w" horiz-adv-x="1396" 
d="M82 1044h246l80 -692h4l295 692h188l86 -690h4l305 690h189l-480 -1044h-184l-86 705h-4l-303 -705h-184z" />
    <glyph glyph-name="x" unicode="x" horiz-adv-x="946" 
d="M98 1044h279l143 -323l250 323h217l-379 -471l273 -573h-279l-176 393l-311 -393h-217l442 545z" />
    <glyph glyph-name="y" unicode="y" horiz-adv-x="942" 
d="M82 1044h258l127 -720l360 720h197l-586 -1132q-74 -140 -147 -197q-58 -47 -116 -62t-128 -15q-68 0 -149 18l30 182q62 -16 121 -16q84 0 133 35q28 20 56.5 60t40.5 75l12 35z" />
    <glyph glyph-name="z" unicode="z" horiz-adv-x="901" 
d="M168 1044h770l-18 -135l-648 -733h537l-29 -176h-817l25 160l628 708h-477z" />
    <glyph glyph-name="braceleft" unicode="{" horiz-adv-x="983" 
d="M942 1419l-22 -143h-68q-71 0 -98 -27q-25 -25 -37 -102l-55 -328q-17 -112 -80 -180q-52 -57 -148 -94v-4q63 -22 105 -74q19 -26 28.5 -53.5t9 -62t-2 -51.5t-7.5 -56l-51 -326q-4 -24 -4 -37q0 -42 20 -59q23 -23 74 -23h70l-23 -143h-123q-117 0 -172 55
q-49 46 -49 131q0 30 10 107l48 295q10 59 10 86q0 52 -29 94q-42 49 -100 49h-23l23 139h18q71 0 121 43q60 51 78 179l53 329q21 148 117 211q67 45 180 45h127z" />
    <glyph glyph-name="bar" unicode="|" horiz-adv-x="980" 
d="M571 1405v-1405h-184v1405h184z" />
    <glyph glyph-name="braceright" unicode="}" horiz-adv-x="983" 
d="M41 -344l22 143h68q71 0 98 27q25 25 37 102l56 328q17 113 79 180q52 57 148 94v5q-65 22 -105 73q-19 26 -28.5 53.5t-9 62t2 51.5t7.5 56l51 326q4 24 4 37q0 42 -20 59q-23 23 -74 23h-70l23 143h123q117 0 172 -55q49 -46 49 -131q0 -29 -10 -107l-48 -295
q-10 -59 -10 -86q0 -52 29 -94q42 -49 100 -49h23l-23 -139h-18q-71 0 -121 -43q-60 -51 -78 -178l-53 -330q-21 -148 -117 -211q-67 -45 -180 -45h-127z" />
    <glyph glyph-name="asciitilde" unicode="~" horiz-adv-x="1462" 
d="M274 496l-122 69q69 126 135 187q89 79 217 79q66 0 160 -32q49 -16 110 -39l115 -43q67 -25 135 -25q24 0 44 4t47.5 15.5t56.5 38.5t57 69l123 -69q-62 -105 -113 -156q-98 -98 -246 -98q-59 0 -121 16q-52 13 -139 49l-121 47q-73 29 -135 29q-54 0 -101.5 -30.5
t-101.5 -110.5z" />
    <glyph glyph-name="uni00A0" unicode="&#xa0;" horiz-adv-x="477" 
 />
    <glyph glyph-name="exclamdown" unicode="&#xa1;" horiz-adv-x="581" 
d="M-49 -360l254 1015h145l-76 -1015h-323zM158 774l43 270h274l-43 -270h-274z" />
    <glyph glyph-name="cent" unicode="&#xa2;" 
d="M1116 862l-192 -33q3 75 -25 136q-21 43 -59 63l-103 -629q48 15 84 56q49 51 70 135l170 -60q-39 -112 -121 -188q-96 -89 -229 -102l-49 -299h-146l49 305q-112 20 -186 110q-92 110 -92 295q0 109 32.5 212.5t96.5 178.5q126 145 307 154l43 268h145l-45 -280
q92 -16 146 -70q48 -43 75 -113t29 -139zM594 414l100 616q-96 -37 -143 -164q-18 -50 -30.5 -121.5t-12.5 -123.5q0 -152 86 -207z" />
    <glyph glyph-name="sterling" unicode="&#xa3;" 
d="M1298 1202l-198 -94q-26 49 -72 81t-108 32q-86 0 -144 -72q-57 -71 -61 -209l-2 -131h272l-27 -160h-253l-11 -104q-13 -137 -96 -240q-51 -64 -117 -100h238q169 0 256 55q53 34 94 100l186 -77q-43 -93 -129 -164q-145 -119 -356 -119h-770l35 205h39q143 0 233 59
q60 39 93 103.5t36 130.5l8 151h-211l27 160h189l6 141q8 197 116 324q126 151 359 151q37 0 72 -4t81 -18t83.5 -37t73.5 -65.5t58 -98.5z" />
    <glyph glyph-name="currency" unicode="&#xa4;" 
d="M1065 700q0 -106 -59 -196l108 -109l-123 -123l-108 109q-83 -66 -203 -66t-203 66l-108 -109l-123 123l108 109q-59 90 -59 196q0 107 59 197l-108 109l123 122l108 -108q82 65 203 65t203 -65l108 108l123 -122l-108 -109q59 -90 59 -197zM680 492q86 0 147.5 61
t61.5 147t-61.5 147.5t-147.5 61.5t-147.5 -61.5t-61.5 -147.5t61.5 -147t147.5 -61z" />
    <glyph glyph-name="yen" unicode="&#xa5;" 
d="M438 1405l236 -586l424 586h233l-368 -510h227l-25 -152h-311l-106 -143h393l-25 -151h-397l-74 -449h-258l74 449h-398l25 151h389l-61 143h-303l24 152h219l-213 510h295z" />
    <glyph glyph-name="brokenbar" unicode="&#xa6;" horiz-adv-x="980" 
d="M571 563v-563h-184v563h184zM571 1405v-563h-184v563h184z" />
    <glyph glyph-name="section" unicode="&#xa7;" horiz-adv-x="1191" 
d="M1114 1159l-194 -35q-44 142 -240 142q-110 0 -161.5 -48.5t-51.5 -111.5q0 -95 139 -143l103 -35q118 -40 179 -66t101 -61q41 -37 57.5 -77t16.5 -93q0 -88 -45 -162q-55 -93 -164 -166q19 -9 38 -22.5t45.5 -40.5t43 -72t16.5 -100q0 -170 -139 -295
q-155 -140 -409 -140q-35 0 -67 3t-82 12t-93.5 30t-86.5 53t-75.5 85.5t-48.5 122.5l225 34q14 -49 44 -85t59 -52.5t66.5 -26t55 -11t35.5 -1.5q130 0 206.5 61t76.5 144q0 64 -57 102q-45 33 -146 62l-119 37q-188 58 -249 123q-66 66 -66 168q0 94 45 172
q64 112 176 174q-60 39 -85 97t-25 114q0 72 29.5 140t84.5 118q128 116 367 116q25 0 47.5 -1.5t60 -7t69 -16t68 -30.5t64.5 -47t51.5 -69.5t34.5 -94.5zM657 711l-155 57q-63 -22 -105 -68q-53 -56 -53 -118q0 -56 47 -97q41 -34 150 -69l155 -51q64 34 103 79
q45 53 45 107q0 66 -70 108q-43 24 -117 52z" />
    <glyph glyph-name="dieresis" unicode="&#xa8;" horiz-adv-x="759" 
d="M272 1409h205l-33 -201h-204zM664 1409h204l-32 -201h-205z" />
    <glyph glyph-name="copyright" unicode="&#xa9;" horiz-adv-x="1515" 
d="M791 -20q-140 0 -274 56.5t-230 153.5q-99 99 -156 236t-57 276t57 276t156 236q96 98 230 154.5t274 56.5t273.5 -56.5t229.5 -154.5q99 -99 156 -236t57 -276t-57 -276t-156 -236q-96 -98 -229.5 -154t-273.5 -56zM791 1309q-115 0 -226.5 -47t-193.5 -129
q-84 -84 -129 -197.5t-45 -233.5t45 -233t129 -197q82 -82 193.5 -129t226.5 -47t226 47t193 129q84 84 129 197t45 233t-45 233.5t-129 197.5q-82 82 -193 129t-226 47zM954 578l150 -50q-13 -43 -51 -95t-74 -83q-97 -82 -227 -82q-144 0 -236 92q-100 100 -100 277
q0 216 106 358q118 160 316 160q160 0 249 -111q65 -83 72 -198l-166 -33q-4 86 -51 139q-46 52 -119 52q-61 0 -104 -43q-54 -53 -83.5 -158t-29.5 -185q0 -103 39 -153q45 -57 125 -57q81 0 143 88q17 24 27 49t14 33z" />
    <glyph glyph-name="ordfeminine" unicode="&#xaa;" horiz-adv-x="774" 
d="M358 1231l-145 33q41 76 117 118q77 41 186 41q144 0 213 -53q62 -49 62 -133q0 -19 -1.5 -37t-5.5 -43.5t-6.5 -40t-11 -56t-12.5 -61.5q-27 -148 -25 -221h-160q-4 47 11 111q-43 -61 -104.5 -92t-129.5 -31q-100 0 -151.5 53t-51.5 125q0 100 90 164q98 68 281 68
q52 0 109 -5q6 27 6 52q0 47 -31 69q-29 21 -84 21q-49 0 -94 -23q-43 -24 -62 -59zM608 1075q-25 2 -76 2q-108 0 -159 -28q-27 -15 -43.5 -41.5t-16.5 -55.5q0 -31 22.5 -53t65.5 -22q101 0 160 90q30 47 47 108zM729 678l-20 -135h-635l20 135h635z" />
    <glyph glyph-name="guillemotleft" unicode="&#xab;" horiz-adv-x="753" 
d="M262 524l62 -295h-109l-133 295l225 295h107zM553 524l61 -295h-108l-133 295l225 295h107z" />
    <glyph glyph-name="logicalnot" unicode="&#xac;" horiz-adv-x="1318" 
d="M1237 856v-590h-190v400h-883v190h1073z" />
    <glyph glyph-name="uni00AD" unicode="&#xad;" horiz-adv-x="544" 
d="M522 635l-33 -193h-462l32 193h463z" />
    <glyph glyph-name="registered" unicode="&#xae;" horiz-adv-x="1521" 
d="M793 -20q-140 0 -274 56.5t-230 153.5q-99 99 -156 236t-57 276t57 276t156 236q96 98 230 154.5t274 56.5t273.5 -56.5t229.5 -154.5q99 -99 156 -236t57 -276t-57 -276t-156 -236q-96 -98 -229.5 -154t-273.5 -56zM793 1309q-115 0 -226.5 -47t-193.5 -129
q-84 -84 -129 -197.5t-45 -233.5t45 -233t129 -197q82 -82 193.5 -129t226.5 -47t226 47t193 129q84 84 129 197t45 233t-45 233.5t-129 197.5q-82 82 -193 129t-226 47zM1057 287h-168l-78 336h-164l-55 -336h-158l139 833h299q37 0 55.5 -0.5t51 -7.5t57.5 -20
q53 -28 84 -83t31 -122q0 -92 -53 -160q-47 -59 -131 -86zM672 758h180q63 0 98 33t35 88q0 53 -33 82q-14 13 -33.5 19t-31 6.5t-35.5 0.5h-143z" />
    <glyph glyph-name="macron" unicode="&#xaf;" horiz-adv-x="835" 
d="M274 1425h648l-21 -129h-647z" />
    <glyph glyph-name="degree" unicode="&#xb0;" horiz-adv-x="901" 
d="M225 1118q0 128 89.5 217.5t217.5 89.5t218 -90t90 -217t-90 -217t-218 -90t-217.5 89.5t-89.5 217.5zM369 1118q0 -68 48 -116t115 -48q68 0 116 48t48 116t-48 116t-116 48q-67 0 -115 -48t-48 -116z" />
    <glyph glyph-name="plusminus" unicode="&#xb1;" horiz-adv-x="1318" 
d="M606 1333h191v-434h434v-190h-434v-435h-191v435h-434v190h434v434zM172 0v190h1057v-190h-1057z" />
    <glyph glyph-name="twosuperior" unicode="&#xb2;" horiz-adv-x="798" 
d="M371 1130l-129 46q27 107 104 174q87 75 225 75q117 0 185 -47q96 -63 96 -192q0 -99 -48.5 -167.5t-135.5 -131.5q-135 -99 -320 -189h428l-22 -129h-611l21 131q154 95 354 228q172 123 172 248q0 56 -35 90t-96 34q-86 0 -137 -59q-37 -44 -51 -111z" />
    <glyph glyph-name="threesuperior" unicode="&#xb3;" horiz-adv-x="798" 
d="M369 1198l-109 47q28 59 80 105q90 75 231 75q123 0 191 -55q74 -61 74 -162q0 -87 -64 -147q-46 -43 -115 -55l2 -2q56 -17 91 -52q49 -47 49 -125q0 -130 -94 -204q-84 -64 -224 -64q-136 0 -221 64q-77 58 -104 157l125 37q21 -51 57 -84q54 -51 135 -51q72 0 118 41
t46 102q0 54 -39 89.5t-133 35.5h-86l18 113h111q85 0 128.5 36.5t43.5 92.5q0 46 -34 77t-99 31q-67 0 -121 -38q-36 -27 -57 -64z" />
    <glyph glyph-name="acute" unicode="&#xb4;" horiz-adv-x="739" 
d="M805 1481l65 -156l-485 -176l-47 102z" />
    <glyph glyph-name="mu" unicode="&#xb5;" horiz-adv-x="1175" 
d="M291 1044h237l-102 -636q-10 -63 -10 -95q0 -77 40.5 -110t96.5 -33q103 0 190 94.5t109 227.5l90 552h238l-172 -1044h-230l33 201h-4q-21 -34 -50.5 -66t-72.5 -64t-103.5 -51.5t-127.5 -19.5q-50 0 -93 16l-57 -352h-237z" />
    <glyph glyph-name="paragraph" unicode="&#xb6;" horiz-adv-x="1161" 
d="M1309 1405l-23 -143h-125l-266 -1629h-150l267 1629h-162l-266 -1629h-150l135 832q-124 7 -219 90q-127 113 -127 309q0 147 51 249.5t121 160.5q157 131 424 131h490z" />
    <glyph glyph-name="periodcentered" unicode="&#xb7;" horiz-adv-x="581" 
d="M188 729h283l-45 -278h-283z" />
    <glyph glyph-name="cedilla" unicode="&#xb8;" horiz-adv-x="528" 
d="M336 0l-37 -80q81 8 125 -18q53 -33 53 -101q0 -65 -49 -114q-64 -64 -182 -64q-68 0 -123 25l-62 28l39 72q72 -39 133 -39q50 0 86 25q29 21 29 53q0 30 -24 47q-19 19 -82 19q-15 0 -39.5 -2.5t-26.5 -2.5l76 152h84z" />
    <glyph glyph-name="onesuperior" unicode="&#xb9;" horiz-adv-x="798" 
d="M580 1417h135l-117 -717h238l-21 -131h-659l20 131h250l88 543q-116 -96 -252 -137l21 129q174 64 297 182z" />
    <glyph glyph-name="ordmasculine" unicode="&#xba;" horiz-adv-x="774" 
d="M524 1421q134 0 207 -69q76 -72 76 -195q0 -160 -100 -272q-108 -119 -281 -119q-133 0 -207 70q-76 72 -76 194q0 160 101 273q107 118 280 118zM508 1294q-68 0 -119 -63q-32 -39 -48.5 -94.5t-16.5 -108.5q0 -68 34 -102q29 -33 84 -33q68 0 119 63q32 39 49 94.5
t17 108.5q0 68 -35 103q-28 32 -84 32zM737 678l-20 -135h-651l20 135h651z" />
    <glyph glyph-name="guillemotright" unicode="&#xbb;" horiz-adv-x="753" 
d="M221 524l-61 295h108l133 -295l-225 -295h-106zM512 524l-61 295h108l133 -295l-225 -295h-107z" />
    <glyph glyph-name="onequarter" unicode="&#xbc;" horiz-adv-x="1873" 
d="M516 1405h135l-116 -717h237l-20 -131h-660l21 131h249l89 543q-116 -96 -252 -137l20 129q174 64 297 182zM1505 1405h172l-1077 -1405h-172zM1513 848h209l-86 -531h131l-20 -124h-131l-31 -193h-168l31 193h-432l18 108zM1468 317l64 383l-334 -383h270z" />
    <glyph glyph-name="onehalf" unicode="&#xbd;" horiz-adv-x="1873" 
d="M516 1405h135l-116 -717h237l-20 -131h-660l21 131h249l89 543q-116 -96 -252 -137l20 129q174 64 297 182zM1505 1405h172l-1077 -1405h-172zM1333 561l-131 45q35 112 105 174q87 76 225 76q114 0 186 -47q94 -62 94 -193q0 -97 -46.5 -165.5t-137.5 -133.5
q-122 -90 -319 -188h428l-23 -129h-610l20 131q265 161 357 227q170 121 170 248q0 56 -35 90.5t-96 34.5q-89 0 -136 -59q-37 -44 -51 -111z" />
    <glyph glyph-name="threequarters" unicode="&#xbe;" horiz-adv-x="1873" 
d="M377 1198l-109 47q28 59 80 105q90 75 232 75q122 0 190 -55q74 -61 74 -162q0 -87 -64 -147q-46 -43 -114 -55l2 -2q55 -17 90 -52q49 -47 49 -125q0 -130 -94 -204q-84 -64 -224 -64q-136 0 -221 64q-77 58 -104 157l125 37q21 -51 57 -84q54 -51 135 -51q72 0 118 41
t46 102q0 54 -39 89.5t-133 35.5h-86l19 113h110q85 0 128.5 36.5t43.5 92.5q0 46 -34 77t-99 31q-67 0 -121 -38q-36 -27 -57 -64zM1520 1405h172l-1078 -1405h-172zM1528 848h209l-86 -531h131l-21 -124h-131l-31 -193h-167l30 193h-432l19 108zM1483 317l63 383
l-334 -383h271z" />
    <glyph glyph-name="questiondown" unicode="&#xbf;" horiz-adv-x="1089" 
d="M705 78l200 -45q-33 -149 -127 -256q-80 -90 -177 -124t-228 -34q-204 0 -315 94.5t-111 257.5q0 70 20 131.5t49.5 103.5t74 80.5t80.5 61t83 45.5q62 31 97 53t54.5 47.5t26 46.5t12.5 62l9 53h204l-8 -53q-6 -43 -9.5 -62.5t-17 -59t-34.5 -70.5q-15 -21 -32.5 -39.5
t-41 -36t-37.5 -27t-43.5 -27.5t-36.5 -22q-42 -26 -72 -48t-62 -55.5t-49 -75t-17 -89.5q0 -83 58 -130.5t151 -47.5q62 0 114.5 23t88.5 62.5t59.5 84.5t36.5 96zM430 774l43 270h275l-43 -270h-275z" />
    <glyph glyph-name="Agrave" unicode="&#xc0;" horiz-adv-x="1200" 
d="M608 1405h287l231 -1405h-274l-57 365h-459l-172 -365h-225zM418 561h358l-88 582zM1004 1591l-64 -100l-428 174l94 156z" />
    <glyph glyph-name="Aacute" unicode="&#xc1;" horiz-adv-x="1200" 
d="M608 1405h287l231 -1405h-274l-57 365h-459l-172 -365h-225zM418 561h358l-88 582zM1034 1821l66 -156l-486 -174l-47 100z" />
    <glyph glyph-name="Acircumflex" unicode="&#xc2;" horiz-adv-x="1200" 
d="M608 1405h287l231 -1405h-274l-57 365h-459l-172 -365h-225zM418 561h358l-88 582zM1098 1509l-180 -12l-162 125l-209 -125l-180 12l415 279z" />
    <glyph glyph-name="Atilde" unicode="&#xc3;" horiz-adv-x="1200" 
d="M608 1405h287l231 -1405h-274l-57 365h-459l-172 -365h-225zM418 561h358l-88 582zM457 1571l-78 86q54 51 123 88q62 33 133 33q49 0 100 -21q40 -16 58 -26q32 -17 43.5 -23t31 -12t37.5 -6q46 0 119 45l27 16l69 -94q-49 -42 -90 -62q-80 -45 -151 -45q-39 0 -82 15
q-12 5 -47 22q-99 51 -146 51q-62 0 -127 -51z" />
    <glyph glyph-name="Adieresis" unicode="&#xc4;" horiz-adv-x="1200" 
d="M608 1405h287l231 -1405h-274l-57 365h-459l-172 -365h-225zM418 561h358l-88 582zM698 1718l-32 -200h-205l33 200h204zM1104 1718l-33 -200h-205l33 200h205z" />
    <glyph glyph-name="Aring" unicode="&#xc5;" horiz-adv-x="1200" 
d="M608 1405h287l231 -1405h-274l-57 365h-459l-172 -365h-225zM418 561h358l-88 582zM563 1665q0 78 57.5 135.5t135.5 57.5t135 -57.5t57 -135.5t-57 -135t-135 -57t-135.5 57t-57.5 135zM670 1665q0 -34 26 -60t60 -26t60 26t26 60t-26 60t-60 26t-60 -26t-26 -60z" />
    <glyph glyph-name="AE" unicode="&#xc6;" horiz-adv-x="1871" 
d="M905 1405h1049l-35 -209h-680l-59 -369h540l-32 -196h-541l-68 -422h697l-35 -209h-955l62 383h-432l-273 -383h-237zM541 580h340l102 616z" />
    <glyph glyph-name="Ccedilla" unicode="&#xc7;" horiz-adv-x="1290" 
d="M1294 936l-233 -37q-4 126 -62 213q-72 109 -208 109q-176 0 -283 -187q-55 -95 -89 -237.5t-34 -266.5q0 -153 66 -243q78 -103 208 -103q131 0 222 99q73 82 106 198l227 -53q-49 -155 -155 -270q-151 -163 -369 -176l-28 -62q12 2 34 2q56 0 90 -20q54 -34 54 -101
q0 -65 -49 -114q-64 -64 -183 -64q-68 0 -123 25l-61 28l39 72q72 -39 133 -39q50 0 86 25q29 21 29 53q0 29 -25 47q-19 19 -82 19q-15 0 -39 -2.5t-26 -2.5l65 132q-207 8 -346 165q-147 167 -147 445q0 156 51.5 320t144.5 280q189 235 486 235q239 0 374 -147
q61 -68 93 -159.5t34 -182.5z" />
    <glyph glyph-name="Egrave" unicode="&#xc8;" horiz-adv-x="1167" 
d="M311 1405h938l-35 -209h-679l-60 -369h541l-33 -196h-541l-67 -422h696l-35 -209h-954zM1004 1591l-64 -100l-428 174l94 156z" />
    <glyph glyph-name="Eacute" unicode="&#xc9;" horiz-adv-x="1167" 
d="M311 1405h938l-35 -209h-679l-60 -369h541l-33 -196h-541l-67 -422h696l-35 -209h-954zM1075 1821l66 -156l-486 -174l-47 100z" />
    <glyph glyph-name="Ecircumflex" unicode="&#xca;" horiz-adv-x="1167" 
d="M311 1405h938l-35 -209h-679l-60 -369h541l-33 -196h-541l-67 -422h696l-35 -209h-954zM1151 1509l-180 -12l-162 125l-209 -125l-180 12l416 279z" />
    <glyph glyph-name="Edieresis" unicode="&#xcb;" horiz-adv-x="1167" 
d="M311 1405h938l-35 -209h-679l-60 -369h541l-33 -196h-541l-67 -422h696l-35 -209h-954zM723 1718l-33 -200h-205l33 200h205zM1128 1718l-32 -200h-205l33 200h204z" />
    <glyph glyph-name="Igrave" unicode="&#xcc;" horiz-adv-x="577" 
d="M311 1405h258l-229 -1405h-258zM688 1591l-63 -100l-428 174l94 156z" />
    <glyph glyph-name="Iacute" unicode="&#xcd;" horiz-adv-x="577" 
d="M311 1405h258l-229 -1405h-258zM702 1821l66 -156l-485 -174l-47 100z" />
    <glyph glyph-name="Icircumflex" unicode="&#xce;" horiz-adv-x="577" 
d="M311 1405h258l-229 -1405h-258zM811 1509l-180 -12l-162 125l-209 -125l-180 12l416 279z" />
    <glyph glyph-name="Idieresis" unicode="&#xcf;" horiz-adv-x="577" 
d="M311 1405h258l-229 -1405h-258zM391 1718l-33 -200h-204l32 200h205zM797 1718l-33 -200h-205l33 200h205z" />
    <glyph glyph-name="Eth" unicode="&#xd0;" horiz-adv-x="1404" 
d="M311 1405h410q58 0 102.5 -2.5t102.5 -12.5t104 -27.5t95 -49.5t89 -76q71 -79 106.5 -195t35.5 -245q0 -163 -57 -329t-169 -282q-60 -62 -123.5 -101.5t-132 -56.5t-122.5 -22.5t-129 -5.5h-541l104 643h-141l31 184h141zM535 1200l-62 -373h197l-31 -184h-195
l-71 -438h227q49 0 87.5 5t88 19.5t95 49t85.5 86.5q42 57 70.5 130.5t38.5 143t13 104t3 60.5q0 201 -92 299q-91 98 -276 98h-178z" />
    <glyph glyph-name="Ntilde" unicode="&#xd1;" horiz-adv-x="1413" 
d="M311 1405h283l428 -1026h4q10 106 18 151l144 875h217l-229 -1405h-234l-469 1122h-4q0 -88 -14 -170l-156 -952h-217zM608 1571l-78 86q54 51 123 88q62 33 133 33q50 0 101 -21q36 -15 57 -26q31 -16 44 -22.5t32 -12.5t37 -6q46 0 119 45l26 16l70 -94
q-49 -42 -90 -62q-80 -45 -152 -45q-39 0 -82 15q-12 5 -47 22q-99 51 -145 51q-62 0 -127 -51z" />
    <glyph glyph-name="Ograve" unicode="&#xd2;" horiz-adv-x="1392" 
d="M807 1425q193 0 323 -98q213 -164 213 -498q0 -163 -49 -328.5t-135 -277.5q-186 -243 -510 -243q-253 0 -397 163q-141 158 -141 435q0 258 100 469q181 378 596 378zM784 1221q-224 0 -327 -269q-32 -85 -52 -192t-20 -205q0 -157 55 -248q77 -123 230 -123
q61 0 112.5 20.5t85 49.5t62.5 73t44 77.5t30 76.5q65 189 65 383q0 147 -61 242q-74 115 -224 115zM1065 1591l-64 -100l-428 174l95 156z" />
    <glyph glyph-name="Oacute" unicode="&#xd3;" horiz-adv-x="1392" 
d="M807 1425q193 0 323 -98q213 -164 213 -498q0 -163 -49 -328.5t-135 -277.5q-186 -243 -510 -243q-253 0 -397 163q-141 158 -141 435q0 258 100 469q181 378 596 378zM784 1221q-224 0 -327 -269q-32 -85 -52 -192t-20 -205q0 -157 55 -248q77 -123 230 -123
q61 0 112.5 20.5t85 49.5t62.5 73t44 77.5t30 76.5q65 189 65 383q0 147 -61 242q-74 115 -224 115zM1096 1821l65 -156l-485 -174l-47 100z" />
    <glyph glyph-name="Ocircumflex" unicode="&#xd4;" horiz-adv-x="1392" 
d="M807 1425q193 0 323 -98q213 -164 213 -498q0 -163 -49 -328.5t-135 -277.5q-186 -243 -510 -243q-253 0 -397 163q-141 158 -141 435q0 258 100 469q181 378 596 378zM784 1221q-224 0 -327 -269q-32 -85 -52 -192t-20 -205q0 -157 55 -248q77 -123 230 -123
q61 0 112.5 20.5t85 49.5t62.5 73t44 77.5t30 76.5q65 189 65 383q0 147 -61 242q-74 115 -224 115zM1180 1509l-181 -12l-161 125l-209 -125l-180 12l415 279z" />
    <glyph glyph-name="Otilde" unicode="&#xd5;" horiz-adv-x="1392" 
d="M807 1425q193 0 323 -98q213 -164 213 -498q0 -163 -49 -328.5t-135 -277.5q-186 -243 -510 -243q-253 0 -397 163q-141 158 -141 435q0 258 100 469q181 378 596 378zM784 1221q-224 0 -327 -269q-32 -85 -52 -192t-20 -205q0 -157 55 -248q77 -123 230 -123
q61 0 112.5 20.5t85 49.5t62.5 73t44 77.5t30 76.5q65 189 65 383q0 147 -61 242q-74 115 -224 115zM559 1571l-78 86q54 51 123 88q62 33 133 33q50 0 101 -21q36 -15 57 -26q31 -16 44 -22.5t32 -12.5t37 -6q45 0 118 45l27 16l70 -94q-49 -42 -90 -62q-80 -45 -152 -45
q-39 0 -82 15q-12 5 -47 22q-99 51 -145 51q-62 0 -127 -51z" />
    <glyph glyph-name="Odieresis" unicode="&#xd6;" horiz-adv-x="1392" 
d="M807 1425q193 0 323 -98q213 -164 213 -498q0 -163 -49 -328.5t-135 -277.5q-186 -243 -510 -243q-253 0 -397 163q-141 158 -141 435q0 258 100 469q181 378 596 378zM784 1221q-224 0 -327 -269q-32 -85 -52 -192t-20 -205q0 -157 55 -248q77 -123 230 -123
q61 0 112.5 20.5t85 49.5t62.5 73t44 77.5t30 76.5q65 189 65 383q0 147 -61 242q-74 115 -224 115zM772 1718l-33 -200h-204l32 200h205zM1178 1718l-33 -200h-205l33 200h205z" />
    <glyph glyph-name="multiply" unicode="&#xd7;" horiz-adv-x="1318" 
d="M702 455l-393 -394l-135 136l393 393l-393 393l135 135l393 -393l394 393l135 -135l-393 -393l393 -393l-135 -136z" />
    <glyph glyph-name="Oslash" unicode="&#xd8;" horiz-adv-x="1392" 
d="M-25 -96l238 291q-102 168 -102 383q0 258 100 469q181 378 596 378q99 0 175.5 -22.5t152.5 -77.5l149 184h162l-223 -274q120 -165 120 -406q0 -163 -49 -328.5t-135 -277.5q-186 -243 -510 -243q-208 0 -352 118l-158 -194h-164zM397 422l584 717q-73 82 -197 82
q-224 0 -327 -269q-35 -90 -53.5 -199.5t-18.5 -197.5q0 -47 12 -133zM1047 1020l-594 -731q82 -105 217 -105q235 0 334 297q65 195 65 383q0 95 -22 156z" />
    <glyph glyph-name="Ugrave" unicode="&#xd9;" horiz-adv-x="1339" 
d="M299 1405h258l-123 -752q-24 -160 -24 -217q0 -120 57 -184q61 -68 188 -68q155 0 240 92q33 36 56.5 91.5t31.5 92.5t16 91l140 854h209l-138 -844q-9 -53 -15.5 -87.5t-19.5 -87.5t-30 -92t-41.5 -82.5t-59 -79.5t-77.5 -64q-27 -18 -63.5 -35t-117 -35t-172.5 -18
q-183 0 -299 71q-172 105 -172 330q0 72 17 172zM1065 1591l-64 -100l-428 174l95 156z" />
    <glyph glyph-name="Uacute" unicode="&#xda;" horiz-adv-x="1339" 
d="M299 1405h258l-123 -752q-24 -160 -24 -217q0 -120 57 -184q61 -68 188 -68q155 0 240 92q33 36 56.5 91.5t31.5 92.5t16 91l140 854h209l-138 -844q-9 -53 -15.5 -87.5t-19.5 -87.5t-30 -92t-41.5 -82.5t-59 -79.5t-77.5 -64q-27 -18 -63.5 -35t-117 -35t-172.5 -18
q-183 0 -299 71q-172 105 -172 330q0 72 17 172zM1122 1821l66 -156l-486 -174l-47 100z" />
    <glyph glyph-name="Ucircumflex" unicode="&#xdb;" horiz-adv-x="1339" 
d="M299 1405h258l-123 -752q-24 -160 -24 -217q0 -120 57 -184q61 -68 188 -68q155 0 240 92q33 36 56.5 91.5t31.5 92.5t16 91l140 854h209l-138 -844q-9 -53 -15.5 -87.5t-19.5 -87.5t-30 -92t-41.5 -82.5t-59 -79.5t-77.5 -64q-27 -18 -63.5 -35t-117 -35t-172.5 -18
q-183 0 -299 71q-172 105 -172 330q0 72 17 172zM1200 1509l-180 -12l-162 125l-209 -125l-180 12l416 279z" />
    <glyph glyph-name="Udieresis" unicode="&#xdc;" horiz-adv-x="1339" 
d="M299 1405h258l-123 -752q-24 -160 -24 -217q0 -120 57 -184q61 -68 188 -68q155 0 240 92q33 36 56.5 91.5t31.5 92.5t16 91l140 854h209l-138 -844q-9 -53 -15.5 -87.5t-19.5 -87.5t-30 -92t-41.5 -82.5t-59 -79.5t-77.5 -64q-27 -18 -63.5 -35t-117 -35t-172.5 -18
q-183 0 -299 71q-172 105 -172 330q0 72 17 172zM788 1718l-32 -200h-205l33 200h204zM1194 1718l-33 -200h-205l33 200h205z" />
    <glyph glyph-name="Yacute" unicode="&#xdd;" horiz-adv-x="1126" 
d="M119 1405h295l231 -586l428 586h234l-590 -813l-96 -592h-259l97 592zM1016 1821l65 -156l-485 -174l-47 100z" />
    <glyph glyph-name="Thorn" unicode="&#xde;" horiz-adv-x="1232" 
d="M311 1405h258l-41 -256h205q58 0 92.5 -1.5t98 -9.5t116.5 -29.5t93 -55.5q49 -42 80.5 -114.5t31.5 -168.5q0 -118 -47 -214t-127 -157q-47 -36 -103 -59.5t-116.5 -34t-107 -13.5t-107.5 -3h-250l-47 -289h-258zM496 944l-74 -450h274q146 0 224 86q59 65 59 174
q0 88 -47 135q-55 55 -182 55h-254z" />
    <glyph glyph-name="germandbls" unicode="&#xdf;" horiz-adv-x="1269" 
d="M125 913h98l8 45q33 184 187 320q166 147 413 147q176 0 269 -73q42 -33 67 -82t25 -105q0 -25 -5 -50.5t-21 -60.5t-41.5 -65t-71.5 -60.5t-107 -51.5q-119 -40 -190 -35h-4h-5h-4.5t-4.5 -0.5t-4.5 -1.5t-3.5 -3t-2 -4.5t-1 -5.5q0 -9 15 -17t61 -27q8 -3 12 -5
q87 -32 201 -88q96 -49 146 -112.5t50 -157.5q0 -148 -98 -260q-156 -180 -444 -180q-119 0 -213 32l88 172q82 -24 145 -24q126 0 197 71q28 28 46.5 68.5t18.5 77.5q0 95 -125 151l-165 80q-29 14 -47.5 25t-42.5 29.5t-36 41t-12 48.5q0 33 25.5 80t46.5 73q12 13 25 20
t22 8.5t29 4.5q118 12 176 43q50 25 75 65t25 82q0 52 -39 88.5t-116 36.5q-114 0 -196.5 -73t-111.5 -246l-151 -934h-258l121 745h-99z" />
    <glyph glyph-name="agrave" unicode="&#xe0;" horiz-adv-x="1126" 
d="M346 748l-196 67q39 85 108 143q130 107 352 107q201 0 305 -76q113 -85 113 -246q0 -64 -41 -290q-5 -30 -13.5 -76.5t-12.5 -68t-10 -55.5t-8.5 -51t-6 -42.5t-4.5 -41.5t-2 -37.5t-1 -40.5t1 -40h-234q-6 101 17 190h-4q-49 -76 -107 -122q-106 -88 -256 -88
q-78 0 -140 27.5t-98.5 72.5t-55.5 97.5t-19 107.5q0 163 137 262q148 108 502 108q34 0 104 -4q15 67 15 97q0 77 -50 116q-45 37 -143 37q-99 0 -172 -55q-54 -42 -80 -98zM754 504q-37 4 -109 4q-192 0 -274 -51q-92 -54 -92 -156q0 -70 43 -109.5t110 -39.5
q150 0 244 149q58 87 78 203zM506 1481l397 -230l-61 -102l-430 176z" />
    <glyph glyph-name="aacute" unicode="&#xe1;" horiz-adv-x="1126" 
d="M346 748l-196 67q39 85 108 143q130 107 352 107q201 0 305 -76q113 -85 113 -246q0 -64 -41 -290q-5 -30 -13.5 -76.5t-12.5 -68t-10 -55.5t-8.5 -51t-6 -42.5t-4.5 -41.5t-2 -37.5t-1 -40.5t1 -40h-234q-6 101 17 190h-4q-49 -76 -107 -122q-106 -88 -256 -88
q-78 0 -140 27.5t-98.5 72.5t-55.5 97.5t-19 107.5q0 163 137 262q148 108 502 108q34 0 104 -4q15 67 15 97q0 77 -50 116q-45 37 -143 37q-99 0 -172 -55q-54 -42 -80 -98zM754 504q-37 4 -109 4q-192 0 -274 -51q-92 -54 -92 -156q0 -70 43 -109.5t110 -39.5
q150 0 244 149q58 87 78 203zM997 1481l66 -156l-485 -176l-48 102z" />
    <glyph glyph-name="acircumflex" unicode="&#xe2;" horiz-adv-x="1126" 
d="M346 748l-196 67q39 85 108 143q130 107 352 107q201 0 305 -76q113 -85 113 -246q0 -64 -41 -290q-5 -30 -13.5 -76.5t-12.5 -68t-10 -55.5t-8.5 -51t-6 -42.5t-4.5 -41.5t-2 -37.5t-1 -40.5t1 -40h-234q-6 101 17 190h-4q-49 -76 -107 -122q-106 -88 -256 -88
q-78 0 -140 27.5t-98.5 72.5t-55.5 97.5t-19 107.5q0 163 137 262q148 108 502 108q34 0 104 -4q15 67 15 97q0 77 -50 116q-45 37 -143 37q-99 0 -172 -55q-54 -42 -80 -98zM754 504q-37 4 -109 4q-192 0 -274 -51q-92 -54 -92 -156q0 -70 43 -109.5t110 -39.5
q150 0 244 149q58 87 78 203zM696 1481l316 -281l-181 -12l-161 125l-209 -125l-180 12z" />
    <glyph glyph-name="atilde" unicode="&#xe3;" horiz-adv-x="1126" 
d="M346 748l-196 67q39 85 108 143q130 107 352 107q201 0 305 -76q113 -85 113 -246q0 -64 -41 -290q-5 -30 -13.5 -76.5t-12.5 -68t-10 -55.5t-8.5 -51t-6 -42.5t-4.5 -41.5t-2 -37.5t-1 -40.5t1 -40h-234q-6 101 17 190h-4q-49 -76 -107 -122q-106 -88 -256 -88
q-78 0 -140 27.5t-98.5 72.5t-55.5 97.5t-19 107.5q0 163 137 262q148 108 502 108q34 0 104 -4q15 67 15 97q0 77 -50 116q-45 37 -143 37q-99 0 -172 -55q-54 -42 -80 -98zM754 504q-37 4 -109 4q-192 0 -274 -51q-92 -54 -92 -156q0 -70 43 -109.5t110 -39.5
q150 0 244 149q58 87 78 203zM416 1274l-78 86q54 51 123 88q62 33 133 33q49 0 100 -21q40 -16 58 -26q32 -17 43.5 -23t31 -12t37.5 -6q46 0 119 45l27 16l69 -94q-49 -42 -90 -62q-80 -45 -151 -45q-39 0 -82 15q-12 4 -47 22q-99 51 -146 51q-62 0 -127 -51z" />
    <glyph glyph-name="adieresis" unicode="&#xe4;" horiz-adv-x="1126" 
d="M346 748l-196 67q39 85 108 143q130 107 352 107q201 0 305 -76q113 -85 113 -246q0 -64 -41 -290q-5 -30 -13.5 -76.5t-12.5 -68t-10 -55.5t-8.5 -51t-6 -42.5t-4.5 -41.5t-2 -37.5t-1 -40.5t1 -40h-234q-6 101 17 190h-4q-49 -76 -107 -122q-106 -88 -256 -88
q-78 0 -140 27.5t-98.5 72.5t-55.5 97.5t-19 107.5q0 163 137 262q148 108 502 108q34 0 104 -4q15 67 15 97q0 77 -50 116q-45 37 -143 37q-99 0 -172 -55q-54 -42 -80 -98zM754 504q-37 4 -109 4q-192 0 -274 -51q-92 -54 -92 -156q0 -70 43 -109.5t110 -39.5
q150 0 244 149q58 87 78 203zM375 1409h205l-33 -201h-205zM766 1409h205l-33 -201h-205z" />
    <glyph glyph-name="aring" unicode="&#xe5;" horiz-adv-x="1126" 
d="M346 748l-196 67q39 85 108 143q130 107 352 107q201 0 305 -76q113 -85 113 -246q0 -64 -41 -290q-5 -30 -13.5 -76.5t-12.5 -68t-10 -55.5t-8.5 -51t-6 -42.5t-4.5 -41.5t-2 -37.5t-1 -40.5t1 -40h-234q-6 101 17 190h-4q-49 -76 -107 -122q-106 -88 -256 -88
q-78 0 -140 27.5t-98.5 72.5t-55.5 97.5t-19 107.5q0 163 137 262q148 108 502 108q34 0 104 -4q15 67 15 97q0 77 -50 116q-45 37 -143 37q-99 0 -172 -55q-54 -42 -80 -98zM754 504q-37 4 -109 4q-192 0 -274 -51q-92 -54 -92 -156q0 -70 43 -109.5t110 -39.5
q150 0 244 149q58 87 78 203zM461 1348q0 78 57 135t135 57t135.5 -57t57.5 -135t-57.5 -135.5t-135.5 -57.5t-135 57.5t-57 135.5zM567 1348q0 -34 26 -60t60 -26t60 26t26 60t-26 60t-60 26t-60 -26t-26 -60z" />
    <glyph glyph-name="ae" unicode="&#xe6;" horiz-adv-x="1794" 
d="M346 748l-196 67q39 85 108 143q131 107 369 107q149 0 223.5 -33.5t116.5 -87.5q123 121 319 121q190 0 301 -104q133 -125 133 -367q0 -64 -8 -113h-745q-4 -40 -4 -63q0 -107 43 -172q62 -94 196 -94q108 0 176 65q47 44 80 115l207 -66q-63 -120 -166 -192
q-131 -94 -317 -94q-296 0 -410 235q-162 -235 -426 -235q-78 0 -140 27t-98.5 72t-55.5 97.5t-19 108.5q0 163 137 262q85 59 207 82t295 26h104q15 63 15 93q0 77 -50 116q-45 37 -143 37q-99 0 -172 -55q-54 -42 -80 -98zM754 508q0 2 -54 1t-55 -1q-193 -4 -274 -51
q-92 -54 -92 -156q0 -62 39 -105.5t114 -43.5q72 0 142.5 37.5t113.5 111.5q48 79 66 207zM991 637h492q2 12 2 35q0 95 -45 155q-26 34 -70.5 54t-95.5 20q-103 0 -182 -70q-83 -77 -101 -194z" />
    <glyph glyph-name="ccedilla" unicode="&#xe7;" horiz-adv-x="1036" 
d="M1012 686l-219 -37q4 90 -29 154q-42 90 -150 90q-161 0 -237 -205q-23 -59 -38 -140t-15 -149q0 -126 57 -186.5t139 -60.5q74 0 138.5 55.5t97.5 169.5l192 -66q-54 -132 -137 -211q-113 -111 -270 -118l-29 -62q12 2 35 2q56 0 90 -20q53 -33 53 -101q0 -65 -49 -114
q-64 -64 -182 -64q-68 0 -123 25l-62 28l39 72q72 -39 133 -39q50 0 86 25q29 21 29 53q0 30 -24 47q-19 19 -82 19q-15 0 -39.5 -2.5t-26.5 -2.5l66 132q-136 4 -238 94q-143 126 -143 366q0 243 125 414q157 211 409 211q173 0 277 -96q55 -48 89.5 -121.5t37.5 -161.5z
" />
    <glyph glyph-name="egrave" unicode="&#xe8;" horiz-adv-x="1150" 
d="M1069 481h-745q-5 -50 -5 -63q0 -107 43 -172q62 -94 197 -94q108 0 176 65q47 44 80 115l207 -66q-63 -120 -166 -192q-134 -94 -317 -94q-219 0 -346 139q-119 132 -119 338q0 141 49 262t131 201q150 145 377 145q200 0 313 -104q133 -125 133 -367q0 -64 -8 -113z
M348 637h492q2 12 2 35q0 95 -45 155q-26 34 -70.5 54t-95.5 20q-103 0 -182 -70q-83 -77 -101 -194zM436 1481l398 -230l-62 -102l-430 176z" />
    <glyph glyph-name="eacute" unicode="&#xe9;" horiz-adv-x="1150" 
d="M1069 481h-745q-5 -50 -5 -63q0 -107 43 -172q62 -94 197 -94q108 0 176 65q47 44 80 115l207 -66q-63 -120 -166 -192q-134 -94 -317 -94q-219 0 -346 139q-119 132 -119 338q0 141 49 262t131 201q150 145 377 145q200 0 313 -104q133 -125 133 -367q0 -64 -8 -113z
M348 637h492q2 12 2 35q0 95 -45 155q-26 34 -70.5 54t-95.5 20q-103 0 -182 -70q-83 -77 -101 -194zM948 1481l66 -156l-486 -176l-47 102z" />
    <glyph glyph-name="ecircumflex" unicode="&#xea;" horiz-adv-x="1150" 
d="M1069 481h-745q-5 -50 -5 -63q0 -107 43 -172q62 -94 197 -94q108 0 176 65q47 44 80 115l207 -66q-63 -120 -166 -192q-134 -94 -317 -94q-219 0 -346 139q-119 132 -119 338q0 141 49 262t131 201q150 145 377 145q200 0 313 -104q133 -125 133 -367q0 -64 -8 -113z
M348 637h492q2 12 2 35q0 95 -45 155q-26 34 -70.5 54t-95.5 20q-103 0 -182 -70q-83 -77 -101 -194zM700 1481l316 -281l-180 -12l-162 125l-209 -125l-180 12z" />
    <glyph glyph-name="edieresis" unicode="&#xeb;" horiz-adv-x="1150" 
d="M1069 481h-745q-5 -50 -5 -63q0 -107 43 -172q62 -94 197 -94q108 0 176 65q47 44 80 115l207 -66q-63 -120 -166 -192q-134 -94 -317 -94q-219 0 -346 139q-119 132 -119 338q0 141 49 262t131 201q150 145 377 145q200 0 313 -104q133 -125 133 -367q0 -64 -8 -113z
M348 637h492q2 12 2 35q0 95 -45 155q-26 34 -70.5 54t-95.5 20q-103 0 -182 -70q-83 -77 -101 -194zM395 1409h205l-33 -201h-205zM786 1409h205l-33 -201h-204z" />
    <glyph glyph-name="igrave" unicode="&#xec;" horiz-adv-x="532" 
d="M225 1044h238l-172 -1044h-238zM170 1481l397 -230l-61 -102l-430 176z" />
    <glyph glyph-name="iacute" unicode="&#xed;" horiz-adv-x="532" 
d="M225 1044h238l-172 -1044h-238zM662 1481l65 -156l-485 -176l-47 102z" />
    <glyph glyph-name="icircumflex" unicode="&#xee;" horiz-adv-x="532" 
d="M225 1044h238l-172 -1044h-238zM401 1481l316 -281l-180 -12l-162 125l-209 -125l-180 12z" />
    <glyph glyph-name="idieresis" unicode="&#xef;" horiz-adv-x="532" 
d="M225 1044h238l-172 -1044h-238zM160 1409h184l-33 -201h-184zM446 1409h185l-33 -201h-184z" />
    <glyph glyph-name="eth" unicode="&#xf0;" horiz-adv-x="1163" 
d="M426 1229l195 94q-26 25 -80.5 52.5t-100.5 39.5l60 90q84 -20 141 -44.5t125 -69.5l221 100l64 -82l-203 -94q106 -96 168 -242q69 -163 69 -364q0 -367 -219 -576q-163 -153 -391 -153q-217 0 -328 165q-73 110 -73 271q0 52 8 104.5t28.5 121.5t65.5 139t111 128
q155 135 356 135q61 0 102.5 -15.5t79.5 -53.5q-36 169 -131 266l-219 -100zM633 872q-127 0 -205 -106q-50 -67 -77 -165.5t-27 -201.5q0 -247 190 -247q130 0 205 106q48 64 76 168t28 205q0 241 -190 241z" />
    <glyph glyph-name="ntilde" unicode="&#xf1;" horiz-adv-x="1191" 
d="M225 1044h221l-34 -196h4q32 59 84 108q112 109 270 109q133 0 217 -78q90 -87 90 -221q0 -45 -18 -160l-101 -606h-237l102 618q13 85 13 103q0 77 -39 119q-39 45 -111 45q-135 0 -221 -131q-65 -99 -86 -226l-88 -528h-238zM498 1274l-78 86q54 51 123 88
q62 33 133 33q49 0 100 -21q40 -16 58 -26q32 -17 43.5 -23t31 -12t37.5 -6q46 0 119 45l27 16l69 -94q-49 -42 -90 -62q-80 -45 -151 -45q-39 0 -82 15q-12 4 -47 22q-99 51 -146 51q-62 0 -127 -51z" />
    <glyph glyph-name="ograve" unicode="&#xf2;" horiz-adv-x="1134" 
d="M618 1065q202 0 318 -121q125 -131 125 -344q0 -255 -160 -440q-158 -180 -395 -180q-187 0 -307 120q-125 128 -125 346q0 96 21 181.5t54.5 144.5t56.5 89.5t46 53.5q148 150 366 150zM621 893q-118 0 -197 -107q-49 -65 -74.5 -164t-25.5 -208q0 -124 47 -189
q53 -73 149 -73q153 0 230 180q28 65 44.5 150.5t16.5 152.5q0 122 -51 190q-52 68 -139 68zM469 1481l397 -230l-61 -102l-430 176z" />
    <glyph glyph-name="oacute" unicode="&#xf3;" horiz-adv-x="1134" 
d="M618 1065q202 0 318 -121q125 -131 125 -344q0 -255 -160 -440q-158 -180 -395 -180q-187 0 -307 120q-125 128 -125 346q0 96 21 181.5t54.5 144.5t56.5 89.5t46 53.5q148 150 366 150zM621 893q-118 0 -197 -107q-49 -65 -74.5 -164t-25.5 -208q0 -124 47 -189
q53 -73 149 -73q153 0 230 180q28 65 44.5 150.5t16.5 152.5q0 122 -51 190q-52 68 -139 68zM920 1481l65 -156l-485 -176l-47 102z" />
    <glyph glyph-name="ocircumflex" unicode="&#xf4;" horiz-adv-x="1134" 
d="M618 1065q202 0 318 -121q125 -131 125 -344q0 -255 -160 -440q-158 -180 -395 -180q-187 0 -307 120q-125 128 -125 346q0 96 21 181.5t54.5 144.5t56.5 89.5t46 53.5q148 150 366 150zM621 893q-118 0 -197 -107q-49 -65 -74.5 -164t-25.5 -208q0 -124 47 -189
q53 -73 149 -73q153 0 230 180q28 65 44.5 150.5t16.5 152.5q0 122 -51 190q-52 68 -139 68zM692 1481l316 -281l-181 -12l-161 125l-209 -125l-181 12z" />
    <glyph glyph-name="otilde" unicode="&#xf5;" horiz-adv-x="1134" 
d="M618 1065q202 0 318 -121q125 -131 125 -344q0 -255 -160 -440q-158 -180 -395 -180q-187 0 -307 120q-125 128 -125 346q0 96 21 181.5t54.5 144.5t56.5 89.5t46 53.5q148 150 366 150zM621 893q-118 0 -197 -107q-49 -65 -74.5 -164t-25.5 -208q0 -124 47 -189
q53 -73 149 -73q153 0 230 180q28 65 44.5 150.5t16.5 152.5q0 122 -51 190q-52 68 -139 68zM408 1274l-78 86q54 51 123 88q62 33 133 33q49 0 100 -21q36 -15 57 -26q31 -16 44 -22.5t32 -12.5t37 -6q46 0 119 45l26 16l70 -94q-49 -42 -90 -62q-80 -45 -152 -45
q-38 0 -81 15q-16 6 -48 22q-99 51 -145 51q-62 0 -127 -51z" />
    <glyph glyph-name="odieresis" unicode="&#xf6;" horiz-adv-x="1134" 
d="M618 1065q202 0 318 -121q125 -131 125 -344q0 -255 -160 -440q-158 -180 -395 -180q-187 0 -307 120q-125 128 -125 346q0 96 21 181.5t54.5 144.5t56.5 89.5t46 53.5q148 150 366 150zM621 893q-118 0 -197 -107q-49 -65 -74.5 -164t-25.5 -208q0 -124 47 -189
q53 -73 149 -73q153 0 230 180q28 65 44.5 150.5t16.5 152.5q0 122 -51 190q-52 68 -139 68zM375 1409h205l-33 -201h-205zM766 1409h205l-33 -201h-205z" />
    <glyph glyph-name="divide" unicode="&#xf7;" horiz-adv-x="1318" 
d="M172 485v191h1057v-191h-1057zM819 297v-234h-237v234h237zM819 1098v-234h-237v234h237z" />
    <glyph glyph-name="oslash" unicode="&#xf8;" horiz-adv-x="1134" 
d="M-88 -115l240 273q-78 121 -78 288q0 96 21 181.5t54.5 144.5t56.5 89.5t46 53.5q148 150 366 150q150 0 256 -70l160 179h154l-225 -259q98 -133 98 -315q0 -255 -160 -440q-158 -180 -395 -180q-167 0 -277 92l-163 -187h-154zM326 360l417 484q-46 49 -122 49
q-118 0 -197 -107q-100 -135 -100 -372q0 -36 2 -54zM803 731l-436 -502q55 -77 155 -77q46 0 86 18t67 47.5t44.5 57t30.5 57.5q28 64 44.5 151t16.5 152q0 52 -8 96z" />
    <glyph glyph-name="ugrave" unicode="&#xf9;" horiz-adv-x="1150" 
d="M205 1044h237l-88 -534q-22 -140 -22 -207q0 -73 35 -108t90 -35q104 0 188 100q48 58 81 139t46 158l80 487h238l-172 -1044h-222l33 215h-4q-65 -121 -156 -178q-86 -57 -204 -57q-111 0 -183 59q-92 79 -92 244q0 55 14 151zM477 1481l397 -230l-61 -102l-430 176z
" />
    <glyph glyph-name="uacute" unicode="&#xfa;" horiz-adv-x="1150" 
d="M205 1044h237l-88 -534q-22 -140 -22 -207q0 -73 35 -108t90 -35q104 0 188 100q48 58 81 139t46 158l80 487h238l-172 -1044h-222l33 215h-4q-65 -121 -156 -178q-86 -57 -204 -57q-111 0 -183 59q-92 79 -92 244q0 55 14 151zM969 1481l65 -156l-485 -176l-47 102z" />
    <glyph glyph-name="ucircumflex" unicode="&#xfb;" horiz-adv-x="1150" 
d="M205 1044h237l-88 -534q-22 -140 -22 -207q0 -73 35 -108t90 -35q104 0 188 100q48 58 81 139t46 158l80 487h238l-172 -1044h-222l33 215h-4q-65 -121 -156 -178q-86 -57 -204 -57q-111 0 -183 59q-92 79 -92 244q0 55 14 151zM709 1481l315 -281l-180 -12l-162 125
l-209 -125l-180 12z" />
    <glyph glyph-name="udieresis" unicode="&#xfc;" horiz-adv-x="1150" 
d="M205 1044h237l-88 -534q-22 -140 -22 -207q0 -73 35 -108t90 -35q104 0 188 100q48 58 81 139t46 158l80 487h238l-172 -1044h-222l33 215h-4q-65 -121 -156 -178q-86 -57 -204 -57q-111 0 -183 59q-92 79 -92 244q0 55 14 151zM395 1409h205l-33 -201h-205zM786 1409
h205l-33 -201h-204z" />
    <glyph glyph-name="yacute" unicode="&#xfd;" horiz-adv-x="942" 
d="M82 1044h258l127 -720l360 720h197l-586 -1132q-74 -140 -147 -197q-58 -47 -116 -62t-128 -15q-68 0 -149 18l30 182q62 -16 121 -16q84 0 133 35q28 20 56.5 60t40.5 75l12 35zM905 1481l66 -156l-486 -176l-47 102z" />
    <glyph glyph-name="thorn" unicode="&#xfe;" horiz-adv-x="1159" 
d="M266 1405h238l-84 -512h4q52 70 117 113q89 59 209 59q149 0 242 -105t93 -282q0 -132 -41 -275t-106 -235q-135 -188 -348 -188q-102 0 -179 42t-110 123h-4l-80 -481h-237zM659 893q-34 0 -68.5 -10.5t-81.5 -49t-83 -102.5q-84 -148 -84 -336q0 -66 17.5 -115
t46.5 -76t61.5 -39.5t67.5 -12.5q94 0 167 92q60 76 97 205t37 225q0 101 -48.5 160t-128.5 59z" />
    <glyph glyph-name="ydieresis" unicode="&#xff;" horiz-adv-x="942" 
d="M82 1044h258l127 -720l360 720h197l-586 -1132q-74 -140 -147 -197q-58 -47 -116 -62t-128 -15q-68 0 -149 18l30 182q62 -16 121 -16q84 0 133 35q28 20 56.5 60t40.5 75l12 35zM342 1409h205l-33 -201h-205zM733 1409h205l-33 -201h-205z" />
    <glyph glyph-name="Amacron" unicode="&#x100;" horiz-adv-x="1200" 
d="M608 1405h287l231 -1405h-274l-57 365h-459l-172 -365h-225zM418 561h358l-88 582zM1096 1645l-21 -132h-647l21 132h647z" />
    <glyph glyph-name="amacron" unicode="&#x101;" horiz-adv-x="1126" 
d="M346 748l-196 67q39 85 108 143q130 107 352 107q201 0 305 -76q113 -85 113 -246q0 -64 -41 -290q-5 -30 -13.5 -76.5t-12.5 -68t-10 -55.5t-8.5 -51t-6 -42.5t-4.5 -41.5t-2 -37.5t-1 -40.5t1 -40h-234q-6 101 17 190h-4q-49 -76 -107 -122q-106 -88 -256 -88
q-78 0 -140 27.5t-98.5 72.5t-55.5 97.5t-19 107.5q0 163 137 262q148 108 502 108q34 0 104 -4q15 67 15 97q0 77 -50 116q-45 37 -143 37q-99 0 -172 -55q-54 -42 -80 -98zM754 504q-37 4 -109 4q-192 0 -274 -51q-92 -54 -92 -156q0 -70 43 -109.5t110 -39.5
q150 0 244 149q58 87 78 203zM377 1425h647l-20 -129h-648z" />
    <glyph glyph-name="Abreve" unicode="&#x102;" horiz-adv-x="1200" 
d="M608 1405h287l231 -1405h-274l-57 365h-459l-172 -365h-225zM418 561h358l-88 582zM424 1743h151q14 -43 56 -70q51 -33 143 -33q98 0 154 33q42 25 78 70h139q-43 -104 -131 -164q-106 -70 -262 -70q-138 0 -217 52q-93 62 -111 182z" />
    <glyph glyph-name="abreve" unicode="&#x103;" horiz-adv-x="1126" 
d="M346 748l-196 67q39 85 108 143q130 107 352 107q201 0 305 -76q113 -85 113 -246q0 -64 -41 -290q-5 -30 -13.5 -76.5t-12.5 -68t-10 -55.5t-8.5 -51t-6 -42.5t-4.5 -41.5t-2 -37.5t-1 -40.5t1 -40h-234q-6 101 17 190h-4q-49 -76 -107 -122q-106 -88 -256 -88
q-78 0 -140 27.5t-98.5 72.5t-55.5 97.5t-19 107.5q0 163 137 262q148 108 502 108q34 0 104 -4q15 67 15 97q0 77 -50 116q-45 37 -143 37q-99 0 -172 -55q-54 -42 -80 -98zM754 504q-37 4 -109 4q-192 0 -274 -51q-92 -54 -92 -156q0 -70 43 -109.5t110 -39.5
q150 0 244 149q58 87 78 203zM338 1481h149q14 -43 56 -70q51 -33 143 -33q98 0 154 33q42 25 78 70h139q-43 -104 -131 -164q-106 -70 -262 -70q-141 0 -218 51q-95 64 -108 183z" />
    <glyph glyph-name="Aogonek" unicode="&#x104;" horiz-adv-x="1200" 
d="M608 1405h287l231 -1405q-25 -10 -53 -31q-53 -42 -53 -94q0 -28 22 -47q23 -18 62 -18q50 0 123 30l16 -71q-40 -22 -72 -31q-65 -21 -127 -21q-74 0 -114 27q-49 32 -49 90q0 60 55 115q32 32 76 51h-160l-57 365h-459l-172 -365h-225zM418 561h358l-88 582z" />
    <glyph glyph-name="aogonek" unicode="&#x105;" horiz-adv-x="1126" 
d="M346 748l-196 67q39 85 108 143q130 107 352 107q201 0 305 -76q113 -85 113 -246q0 -64 -41 -290q-5 -30 -13.5 -76.5t-12.5 -68t-10 -55.5t-8.5 -51t-6 -42.5t-4.5 -41.5t-2 -37.5t-1 -40.5t1 -40q-25 -10 -53 -31q-54 -43 -54 -94q0 -27 23 -47q23 -18 61 -18
q50 0 123 30l17 -71q-40 -22 -72 -31q-65 -21 -127 -21q-75 0 -115 27q-49 32 -49 90q0 60 55 115q32 32 76 51h-119q-6 101 17 190h-4q-49 -76 -107 -122q-106 -88 -256 -88q-78 0 -140 27.5t-98.5 72.5t-55.5 97.5t-19 107.5q0 163 137 262q148 108 502 108q34 0 104 -4
q15 67 15 97q0 77 -50 116q-45 37 -143 37q-99 0 -172 -55q-54 -42 -80 -98zM754 504q-37 4 -109 4q-192 0 -274 -51q-92 -54 -92 -156q0 -70 43 -109.5t110 -39.5q150 0 244 149q58 87 78 203z" />
    <glyph glyph-name="Cacute" unicode="&#x106;" horiz-adv-x="1290" 
d="M1294 936l-233 -37q-4 126 -62 213q-72 109 -208 109q-176 0 -283 -187q-55 -95 -89 -237.5t-34 -266.5q0 -153 66 -243q78 -103 208 -103q131 0 222 99q73 82 106 198l227 -53q-52 -161 -155 -270q-164 -178 -420 -178q-236 0 -381 165q-68 78 -107.5 192.5t-39.5 252.5
q0 156 51.5 320t144.5 280q189 235 486 235q239 0 374 -147q61 -68 93 -159.5t34 -182.5zM1098 1821l65 -156l-485 -174l-47 100z" />
    <glyph glyph-name="cacute" unicode="&#x107;" horiz-adv-x="1036" 
d="M1012 686l-219 -37q4 90 -29 154q-42 90 -150 90q-161 0 -237 -205q-23 -59 -38 -140t-15 -149q0 -126 57 -186.5t139 -60.5q74 0 138.5 55.5t97.5 169.5l192 -66q-54 -132 -137 -211q-64 -64 -139.5 -92t-175.5 -28q-195 0 -308.5 122.5t-113.5 337.5q0 239 125 414
q157 211 409 211q173 0 277 -96q55 -48 89.5 -121.5t37.5 -161.5zM911 1481l66 -156l-485 -176l-48 102z" />
    <glyph glyph-name="Ccircumflex" unicode="&#x108;" horiz-adv-x="1290" 
d="M1294 936l-233 -37q-4 126 -62 213q-72 109 -208 109q-176 0 -283 -187q-55 -95 -89 -237.5t-34 -266.5q0 -153 66 -243q78 -103 208 -103q131 0 222 99q73 82 106 198l227 -53q-52 -161 -155 -270q-164 -178 -420 -178q-236 0 -381 165q-68 78 -107.5 192.5t-39.5 252.5
q0 156 51.5 320t144.5 280q189 235 486 235q239 0 374 -147q61 -68 93 -159.5t34 -182.5zM1159 1509l-180 -12l-162 125l-209 -125l-180 12l416 279z" />
    <glyph glyph-name="ccircumflex" unicode="&#x109;" horiz-adv-x="1036" 
d="M1012 686l-219 -37q4 90 -29 154q-42 90 -150 90q-161 0 -237 -205q-23 -59 -38 -140t-15 -149q0 -126 57 -186.5t139 -60.5q74 0 138.5 55.5t97.5 169.5l192 -66q-54 -132 -137 -211q-64 -64 -139.5 -92t-175.5 -28q-195 0 -308.5 122.5t-113.5 337.5q0 239 125 414
q157 211 409 211q173 0 277 -96q55 -48 89.5 -121.5t37.5 -161.5zM684 1481l315 -281l-180 -12l-162 125l-208 -125l-181 12z" />
    <glyph glyph-name="Cdotaccent" unicode="&#x10a;" horiz-adv-x="1290" 
d="M1294 936l-233 -37q-4 126 -62 213q-72 109 -208 109q-176 0 -283 -187q-55 -95 -89 -237.5t-34 -266.5q0 -153 66 -243q78 -103 208 -103q131 0 222 99q73 82 106 198l227 -53q-52 -161 -155 -270q-164 -178 -420 -178q-236 0 -381 165q-68 78 -107.5 192.5t-39.5 252.5
q0 156 51.5 320t144.5 280q189 235 486 235q239 0 374 -147q61 -68 93 -159.5t34 -182.5zM942 1735l-37 -222h-225l37 222h225z" />
    <glyph glyph-name="cdotaccent" unicode="&#x10b;" horiz-adv-x="1036" 
d="M1012 686l-219 -37q4 90 -29 154q-42 90 -150 90q-161 0 -237 -205q-23 -59 -38 -140t-15 -149q0 -126 57 -186.5t139 -60.5q74 0 138.5 55.5t97.5 169.5l192 -66q-54 -132 -137 -211q-64 -64 -139.5 -92t-175.5 -28q-195 0 -308.5 122.5t-113.5 337.5q0 239 125 414
q157 211 409 211q173 0 277 -96q55 -48 89.5 -121.5t37.5 -161.5zM760 1409l-33 -201h-205l33 201h205z" />
    <glyph glyph-name="Ccaron" unicode="&#x10c;" horiz-adv-x="1290" 
d="M1294 936l-233 -37q-4 126 -62 213q-72 109 -208 109q-176 0 -283 -187q-55 -95 -89 -237.5t-34 -266.5q0 -153 66 -243q78 -103 208 -103q131 0 222 99q73 82 106 198l227 -53q-52 -161 -155 -270q-164 -178 -420 -178q-236 0 -381 165q-68 78 -107.5 192.5t-39.5 252.5
q0 156 51.5 320t144.5 280q189 235 486 235q239 0 374 -147q61 -68 93 -159.5t34 -182.5zM483 1798l187 14l159 -126l207 126l178 -14l-411 -280z" />
    <glyph glyph-name="ccaron" unicode="&#x10d;" horiz-adv-x="1036" 
d="M1012 686l-219 -37q4 90 -29 154q-42 90 -150 90q-161 0 -237 -205q-23 -59 -38 -140t-15 -149q0 -126 57 -186.5t139 -60.5q74 0 138.5 55.5t97.5 169.5l192 -66q-54 -132 -137 -211q-64 -64 -139.5 -92t-175.5 -28q-195 0 -308.5 122.5t-113.5 337.5q0 239 125 414
q157 211 409 211q173 0 277 -96q55 -48 89.5 -121.5t37.5 -161.5zM508 1481l164 -127l207 127l178 -15l-412 -280l-317 280z" />
    <glyph glyph-name="Dcaron" unicode="&#x10e;" horiz-adv-x="1404" 
d="M311 1405h410q58 0 102.5 -2.5t102.5 -12.5t104 -27.5t95 -49.5t89 -76q71 -79 106.5 -195t35.5 -245q0 -163 -57 -329t-169 -282q-60 -62 -123.5 -101.5t-132 -56.5t-122.5 -22.5t-129 -5.5h-541zM535 1200l-162 -995h227q49 0 87.5 5t88 19.5t95 49t85.5 86.5
q42 57 70.5 130.5t38.5 143t13 104t3 60.5q0 201 -92 299q-91 98 -276 98h-178zM463 1798l186 14l160 -126l207 126l178 -14l-412 -280z" />
    <glyph glyph-name="dcaron" unicode="&#x10f;" horiz-adv-x="1374" 
d="M938 1405h238l-232 -1405h-221l31 182h-4q-42 -69 -101 -119q-101 -83 -227 -83q-75 0 -139.5 28t-108.5 76q-100 111 -100 317q0 188 73 353q19 42 43.5 81.5t63.5 82.5t84.5 74.5t108.5 52t133 20.5q197 0 268 -168h6zM623 893q-69 0 -136 -48.5t-108 -148.5
q-26 -64 -40.5 -149t-14.5 -154q0 -122 49 -184q45 -57 127 -57q76 0 140.5 49t102.5 139q27 64 47.5 161t20.5 161q0 119 -56 175t-132 56zM1561 1405l-35 -219l-215 -281h-105l168 256h-102l39 244h250z" />
    <glyph glyph-name="Dcroat" unicode="&#x110;" horiz-adv-x="1404" 
d="M311 1405h410q58 0 102.5 -2.5t102.5 -12.5t104 -27.5t95 -49.5t89 -76q71 -79 106.5 -195t35.5 -245q0 -163 -57 -329t-169 -282q-60 -62 -123.5 -101.5t-132 -56.5t-122.5 -22.5t-129 -5.5h-541l104 643h-141l31 184h141zM535 1200l-62 -373h197l-31 -184h-195
l-71 -438h227q49 0 87.5 5t88 19.5t95 49t85.5 86.5q42 57 70.5 130.5t38.5 143t13 104t3 60.5q0 201 -92 299q-91 98 -276 98h-178z" />
    <glyph glyph-name="dcroat" unicode="&#x111;" horiz-adv-x="1179" 
d="M938 1405h238l-23 -139h158l-25 -148h-158l-184 -1118h-221l31 182h-4q-42 -69 -101 -119q-101 -83 -227 -83q-75 0 -139.5 28t-108.5 76q-100 111 -100 317q0 187 71 332q60 124 167.5 200.5t256.5 76.5q101 0 171.5 -42.5t97.5 -125.5h6l47 276h-340l24 148h340z
M612 838q-26 0 -53.5 -7t-61 -25t-66.5 -57t-58 -94q-49 -108 -49 -270q0 -113 51 -176q48 -57 125 -57q72 0 132 43.5t96.5 113t56.5 151.5t20 165q0 59 -18 102.5t-47.5 66.5t-61.5 33.5t-66 10.5z" />
    <glyph glyph-name="Emacron" unicode="&#x112;" horiz-adv-x="1167" 
d="M311 1405h938l-35 -209h-679l-60 -369h541l-33 -196h-541l-67 -422h696l-35 -209h-954zM1137 1645l-21 -132h-647l20 132h648z" />
    <glyph glyph-name="emacron" unicode="&#x113;" horiz-adv-x="1150" 
d="M1069 481h-745q-5 -50 -5 -63q0 -107 43 -172q62 -94 197 -94q108 0 176 65q47 44 80 115l207 -66q-63 -120 -166 -192q-134 -94 -317 -94q-219 0 -346 139q-119 132 -119 338q0 141 49 262t131 201q150 145 377 145q200 0 313 -104q133 -125 133 -367q0 -64 -8 -113z
M348 637h492q2 12 2 35q0 95 -45 155q-26 34 -70.5 54t-95.5 20q-103 0 -182 -70q-83 -77 -101 -194zM377 1425h647l-20 -129h-648z" />
    <glyph glyph-name="Edotaccent" unicode="&#x116;" horiz-adv-x="1167" 
d="M311 1405h938l-35 -209h-679l-60 -369h541l-33 -196h-541l-67 -422h696l-35 -209h-954zM940 1735l-37 -222h-225l37 222h225z" />
    <glyph glyph-name="edotaccent" unicode="&#x117;" horiz-adv-x="1150" 
d="M1069 481h-745q-5 -50 -5 -63q0 -107 43 -172q62 -94 197 -94q108 0 176 65q47 44 80 115l207 -66q-63 -120 -166 -192q-134 -94 -317 -94q-219 0 -346 139q-119 132 -119 338q0 141 49 262t131 201q150 145 377 145q200 0 313 -104q133 -125 133 -367q0 -64 -8 -113z
M348 637h492q2 12 2 35q0 95 -45 155q-26 34 -70.5 54t-95.5 20q-103 0 -182 -70q-83 -77 -101 -194zM784 1409l-32 -201h-205l33 201h204z" />
    <glyph glyph-name="Eogonek" unicode="&#x118;" horiz-adv-x="1167" 
d="M311 1405h938l-35 -209h-679l-60 -369h541l-33 -196h-541l-67 -422h696l-35 -209h-299q-25 -10 -53 -31q-53 -42 -53 -94q0 -28 22 -47q23 -18 62 -18q50 0 123 30l16 -71q-40 -22 -72 -31q-65 -21 -127 -21q-74 0 -114 27q-49 32 -49 90q0 60 55 115q32 32 76 51h-541z
" />
    <glyph glyph-name="eogonek" unicode="&#x119;" horiz-adv-x="1150" 
d="M1069 481h-745q-5 -50 -5 -63q0 -107 43 -172q62 -94 197 -94q108 0 176 65q47 44 80 115l207 -66q-63 -120 -166 -192q-107 -77 -242 -90q-28 -16 -50.5 -45t-22.5 -64q0 -28 22 -47q23 -18 62 -18q50 0 123 30l16 -71q-40 -22 -72 -31q-65 -21 -127 -21q-74 0 -114 27
q-50 33 -50 90q0 40 28.5 80.5t68.5 65.5q-101 3 -178.5 42.5t-126.5 96.5q-119 132 -119 338q0 141 49 262t131 201q150 145 377 145q200 0 313 -104q133 -125 133 -367q0 -64 -8 -113zM348 637h492q2 12 2 35q0 95 -45 155q-26 34 -70.5 54t-95.5 20q-103 0 -182 -70
q-83 -77 -101 -194z" />
    <glyph glyph-name="Ecaron" unicode="&#x11a;" horiz-adv-x="1167" 
d="M311 1405h938l-35 -209h-679l-60 -369h541l-33 -196h-541l-67 -422h696l-35 -209h-954zM483 1798l187 14l159 -126l207 126l178 -14l-411 -280z" />
    <glyph glyph-name="ecaron" unicode="&#x11b;" horiz-adv-x="1150" 
d="M1069 481h-745q-5 -50 -5 -63q0 -107 43 -172q62 -94 197 -94q108 0 176 65q47 44 80 115l207 -66q-63 -120 -166 -192q-134 -94 -317 -94q-219 0 -346 139q-119 132 -119 338q0 141 49 262t131 201q150 145 377 145q200 0 313 -104q133 -125 133 -367q0 -64 -8 -113z
M348 637h492q2 12 2 35q0 95 -45 155q-26 34 -70.5 54t-95.5 20q-103 0 -182 -70q-83 -77 -101 -194zM524 1481l164 -127l207 127l178 -15l-411 -280l-318 280z" />
    <glyph glyph-name="Gcircumflex" unicode="&#x11c;" horiz-adv-x="1351" 
d="M1303 993l-244 -41q-3 102 -60 174q-71 95 -198 95q-101 0 -179.5 -61.5t-132.5 -162.5q-46 -89 -75 -216t-29 -249q0 -156 72 -247q80 -101 219 -101q172 0 264 140q56 83 80 217h-320l33 196h561l-120 -737h-132l-22 160h-6l-10 -11q-9 -11 -14 -16.5t-17 -17.5
t-22 -20.5t-24 -19.5t-28 -20q-113 -75 -278 -75q-201 0 -332 118q-178 161 -178 463q0 151 44 306.5t117 265.5q86 132 223.5 212t321.5 80q132 0 228.5 -43t152.5 -108q45 -52 73.5 -126.5t31.5 -154.5zM1180 1509l-181 -12l-161 125l-209 -125l-180 12l415 279z" />
    <glyph glyph-name="gcircumflex" unicode="&#x11d;" horiz-adv-x="1105" 
d="M1167 1290l-12 -178q-42 10 -82 10q-68 0 -110 -26q-52 -34 -74 -97q69 -36 107 -103.5t38 -147.5q0 -149 -102 -254q-123 -123 -336 -123q-100 0 -190 35q-59 -10 -94.5 -41.5t-35.5 -67.5q0 -72 93 -72l166 -4q11 0 52 -1t54.5 -1.5t50.5 -2.5t53 -5t47 -7.5
t48.5 -11.5t41 -16.5t41 -23t33.5 -29.5q66 -69 66 -172q0 -70 -34 -134.5t-89 -105.5q-124 -94 -432 -94q-188 0 -295 29q-69 19 -117 49t-69 64t-29 60t-8 52q0 79 55 137q53 56 137 80q-41 17 -65.5 59.5t-24.5 88.5q0 89 84 159q63 51 144 76q-123 78 -123 225
q0 170 120 269q118 100 324 100q94 0 176 -23q23 105 78 166q76 88 221 88q13 0 92 -6zM610 913q-94 0 -155 -61q-62 -62 -62 -154q0 -85 45 -127q52 -49 144 -49q98 0 157 64q58 60 58 164q0 67 -45 112q-55 51 -142 51zM274 31q-54 -20 -81 -48t-27 -75q0 -63 76 -98
q97 -41 293 -41q107 0 165 18t81.5 51t23.5 66q0 26 -9 45t-28 30t-37 18t-48 9.5t-47 3t-48 0.5q-168 0 -314 21zM696 1645l316 -281l-181 -12l-161 125l-209 -125l-180 12z" />
    <glyph glyph-name="Gbreve" unicode="&#x11e;" horiz-adv-x="1351" 
d="M1303 993l-244 -41q-3 102 -60 174q-71 95 -198 95q-101 0 -179.5 -61.5t-132.5 -162.5q-46 -89 -75 -216t-29 -249q0 -156 72 -247q80 -101 219 -101q172 0 264 140q56 83 80 217h-320l33 196h561l-120 -737h-132l-22 160h-6l-10 -11q-9 -11 -14 -16.5t-17 -17.5
t-22 -20.5t-24 -19.5t-28 -20q-113 -75 -278 -75q-201 0 -332 118q-178 161 -178 463q0 151 44 306.5t117 265.5q86 132 223.5 212t321.5 80q132 0 228.5 -43t152.5 -108q45 -52 73.5 -126.5t31.5 -154.5zM506 1743h151q14 -43 56 -70q51 -33 143 -33q98 0 154 33
q40 24 77 70h140q-43 -104 -131 -164q-106 -70 -262 -70q-139 0 -218 52q-42 27 -71.5 75t-38.5 107z" />
    <glyph glyph-name="gbreve" unicode="&#x11f;" horiz-adv-x="1105" 
d="M1167 1290l-12 -178q-42 10 -82 10q-68 0 -110 -26q-52 -34 -74 -97q69 -36 107 -103.5t38 -147.5q0 -149 -102 -254q-123 -123 -336 -123q-100 0 -190 35q-59 -10 -94.5 -41.5t-35.5 -67.5q0 -72 93 -72l166 -4q11 0 52 -1t54.5 -1.5t50.5 -2.5t53 -5t47 -7.5
t48.5 -11.5t41 -16.5t41 -23t33.5 -29.5q66 -69 66 -172q0 -70 -34 -134.5t-89 -105.5q-124 -94 -432 -94q-188 0 -295 29q-69 19 -117 49t-69 64t-29 60t-8 52q0 79 55 137q53 56 137 80q-41 17 -65.5 59.5t-24.5 88.5q0 89 84 159q63 51 144 76q-123 78 -123 225
q0 170 120 269q118 100 324 100q94 0 176 -23q23 105 78 166q76 88 221 88q13 0 92 -6zM610 913q-94 0 -155 -61q-62 -62 -62 -154q0 -85 45 -127q52 -49 144 -49q98 0 157 64q58 60 58 164q0 67 -45 112q-55 51 -142 51zM274 31q-54 -20 -81 -48t-27 -75q0 -63 76 -98
q97 -41 293 -41q107 0 165 18t81.5 51t23.5 66q0 26 -9 45t-28 30t-37 18t-48 9.5t-47 3t-48 0.5q-168 0 -314 21zM305 1481h150q14 -43 55 -70q51 -33 143 -33q98 0 154 33q42 25 78 70h139q-43 -104 -131 -164q-106 -70 -262 -70q-140 0 -217 51q-96 65 -109 183z" />
    <glyph glyph-name="Gdotaccent" unicode="&#x120;" horiz-adv-x="1351" 
d="M1303 993l-244 -41q-3 102 -60 174q-71 95 -198 95q-101 0 -179.5 -61.5t-132.5 -162.5q-46 -89 -75 -216t-29 -249q0 -156 72 -247q80 -101 219 -101q172 0 264 140q56 83 80 217h-320l33 196h561l-120 -737h-132l-22 160h-6l-10 -11q-9 -11 -14 -16.5t-17 -17.5
t-22 -20.5t-24 -19.5t-28 -20q-113 -75 -278 -75q-201 0 -332 118q-178 161 -178 463q0 151 44 306.5t117 265.5q86 132 223.5 212t321.5 80q132 0 228.5 -43t152.5 -108q45 -52 73.5 -126.5t31.5 -154.5zM975 1735l-37 -222h-225l37 222h225z" />
    <glyph glyph-name="gdotaccent" unicode="&#x121;" horiz-adv-x="1105" 
d="M1167 1290l-12 -178q-42 10 -82 10q-68 0 -110 -26q-52 -34 -74 -97q69 -36 107 -103.5t38 -147.5q0 -149 -102 -254q-123 -123 -336 -123q-100 0 -190 35q-59 -10 -94.5 -41.5t-35.5 -67.5q0 -72 93 -72l166 -4q11 0 52 -1t54.5 -1.5t50.5 -2.5t53 -5t47 -7.5
t48.5 -11.5t41 -16.5t41 -23t33.5 -29.5q66 -69 66 -172q0 -70 -34 -134.5t-89 -105.5q-124 -94 -432 -94q-188 0 -295 29q-69 19 -117 49t-69 64t-29 60t-8 52q0 79 55 137q53 56 137 80q-41 17 -65.5 59.5t-24.5 88.5q0 89 84 159q63 51 144 76q-123 78 -123 225
q0 170 120 269q118 100 324 100q94 0 176 -23q23 105 78 166q76 88 221 88q13 0 92 -6zM610 913q-94 0 -155 -61q-62 -62 -62 -154q0 -85 45 -127q52 -49 144 -49q98 0 157 64q58 60 58 164q0 67 -45 112q-55 51 -142 51zM274 31q-54 -20 -81 -48t-27 -75q0 -63 76 -98
q97 -41 293 -41q107 0 165 18t81.5 51t23.5 66q0 26 -9 45t-28 30t-37 18t-48 9.5t-47 3t-48 0.5q-168 0 -314 21zM770 1409l-33 -201h-205l33 201h205z" />
    <glyph glyph-name="Gcommaaccent" unicode="&#x122;" horiz-adv-x="1351" 
d="M1303 993l-244 -41q-3 102 -60 174q-71 95 -198 95q-101 0 -179.5 -61.5t-132.5 -162.5q-46 -89 -75 -216t-29 -249q0 -156 72 -247q80 -101 219 -101q172 0 264 140q56 83 80 217h-320l33 196h561l-120 -737h-132l-22 160h-6l-10 -11q-9 -11 -14 -16.5t-17 -17.5
t-22 -20.5t-24 -19.5t-28 -20q-113 -75 -278 -75q-201 0 -332 118q-178 161 -178 463q0 151 44 306.5t117 265.5q86 132 223.5 212t321.5 80q132 0 228.5 -43t152.5 -108q45 -52 73.5 -126.5t31.5 -154.5zM731 -117l-37 -221l-213 -280h-104l166 258h-101l39 243h250z" />
    <glyph glyph-name="gcommaaccent" unicode="&#x123;" horiz-adv-x="1105" 
d="M1167 1290l-12 -178q-42 10 -82 10q-68 0 -110 -26q-52 -34 -74 -97q69 -36 107 -103.5t38 -147.5q0 -149 -102 -254q-123 -123 -336 -123q-100 0 -190 35q-59 -10 -94.5 -41.5t-35.5 -67.5q0 -72 93 -72l166 -4q11 0 52 -1t54.5 -1.5t50.5 -2.5t53 -5t47 -7.5
t48.5 -11.5t41 -16.5t41 -23t33.5 -29.5q66 -69 66 -172q0 -70 -34 -134.5t-89 -105.5q-124 -94 -432 -94q-188 0 -295 29q-69 19 -117 49t-69 64t-29 60t-8 52q0 79 55 137q53 56 137 80q-41 17 -65.5 59.5t-24.5 88.5q0 89 84 159q63 51 144 76q-123 78 -123 225
q0 170 120 269q118 100 324 100q94 0 176 -23q23 105 78 166q76 88 221 88q13 0 92 -6zM610 913q-94 0 -155 -61q-62 -62 -62 -154q0 -85 45 -127q52 -49 144 -49q98 0 157 64q58 60 58 164q0 67 -45 112q-55 51 -142 51zM274 31q-54 -20 -81 -48t-27 -75q0 -63 76 -98
q97 -41 293 -41q107 0 165 18t81.5 51t23.5 66q0 26 -9 45t-28 30t-37 18t-48 9.5t-47 3t-48 0.5q-168 0 -314 21zM432 1186l37 223l213 281h104l-168 -258h107l-41 -246h-252z" />
    <glyph glyph-name="Hcircumflex" unicode="&#x124;" horiz-adv-x="1384" 
d="M311 1405h258l-92 -565h549l92 565h258l-229 -1405h-258l104 631h-549l-104 -631h-258zM1200 1509l-180 -12l-162 125l-209 -125l-180 12l416 279z" />
    <glyph glyph-name="hcircumflex" unicode="&#x125;" horiz-adv-x="1187" 
d="M283 1405h237l-84 -528h4q29 47 80 92q110 96 254 96q124 0 205 -66q94 -77 94 -227q0 -21 -14 -133l-107 -639h-237l106 633q8 44 8 94q0 37 -5.5 62t-26.5 49q-41 47 -115 47q-128 0 -223 -148q-62 -96 -78 -200l-90 -537h-238zM471 1767l315 -280l-180 -12l-162 124
l-208 -124l-181 12z" />
    <glyph glyph-name="Hbar" unicode="&#x126;" horiz-adv-x="1384" 
d="M311 1405h258l-22 -139h549l22 139h258l-22 -139h125l-25 -148h-125l-182 -1118h-258l104 631h-549l-104 -631h-258l182 1118h-125l25 148h125zM477 840h549l45 278h-549z" />
    <glyph glyph-name="hbar" unicode="&#x127;" horiz-adv-x="1187" 
d="M283 1405h237l-22 -139h358l-25 -148h-356l-39 -241h4q29 47 80 92q110 96 254 96q124 0 205 -66q94 -77 94 -227q0 -21 -14 -133l-107 -639h-237l106 633q8 44 8 94q0 37 -5.5 62t-26.5 49q-41 47 -115 47q-128 0 -223 -148q-62 -96 -78 -200l-90 -537h-238l183 1118
h-158l24 148h158z" />
    <glyph glyph-name="Imacron" unicode="&#x12a;" horiz-adv-x="577" 
d="M311 1405h258l-229 -1405h-258zM788 1645l-20 -132h-647l20 132h647z" />
    <glyph glyph-name="imacron" unicode="&#x12b;" horiz-adv-x="532" 
d="M225 1044h238l-172 -1044h-238zM61 1425h648l-21 -129h-647z" />
    <glyph glyph-name="Iogonek" unicode="&#x12e;" horiz-adv-x="577" 
d="M311 1405h258l-229 -1405q-25 -10 -53 -31q-54 -43 -54 -94q0 -27 23 -47q23 -18 61 -18q50 0 123 30l17 -71q-40 -22 -72 -31q-65 -21 -127 -21q-75 0 -115 27q-49 32 -49 90q0 59 56 115q33 33 75 51h-143z" />
    <glyph glyph-name="iogonek" unicode="&#x12f;" horiz-adv-x="532" 
d="M225 1044h238l-172 -1044q-25 -10 -53 -31q-54 -43 -54 -94q0 -27 23 -47q23 -18 61 -18q50 0 123 30l17 -71q-40 -22 -72 -31q-65 -21 -127 -21q-75 0 -115 27q-49 32 -49 90q0 60 55 115q32 32 76 51h-123zM281 1409h245l-34 -213h-246z" />
    <glyph glyph-name="Idotaccent" unicode="&#x130;" horiz-adv-x="569" 
d="M311 1405h258l-229 -1405h-258zM365 1718h258l-33 -200h-258z" />
    <glyph glyph-name="dotlessi" unicode="&#x131;" horiz-adv-x="532" 
d="M225 1044h238l-172 -1044h-238z" />
    <glyph glyph-name="Jcircumflex" unicode="&#x134;" horiz-adv-x="778" 
d="M528 1405h258l-149 -905q-12 -79 -23 -130.5t-41 -126t-73 -122.5q-126 -141 -385 -141q-102 0 -213 20l35 213q70 -20 149 -20q137 0 205 73q61 65 88 234zM1016 1509l-180 -12l-162 125l-209 -125l-180 12l415 279z" />
    <glyph glyph-name="jcircumflex" unicode="&#x135;" horiz-adv-x="532" 
d="M225 1044h238l-168 -1013q-33 -208 -133 -301q-95 -88 -264 -88q-70 0 -162 18l31 184q54 -16 102 -16q87 0 131 53q43 50 57 144zM401 1481l316 -281l-180 -12l-162 125l-209 -125l-180 12z" />
    <glyph glyph-name="Kcommaaccent" unicode="&#x136;" horiz-adv-x="1294" 
d="M311 1405h258l-118 -727l651 727h270l-454 -508l337 -897h-282l-250 696l-326 -338l-57 -358h-258zM752 -117l-37 -221l-213 -280h-105l166 258h-100l39 243h250z" />
    <glyph glyph-name="kcommaaccent" unicode="&#x137;" horiz-adv-x="1114" 
d="M283 1405h237l-137 -850l500 489h239l-377 -364l252 -680h-256l-182 520l-217 -211l-51 -309h-238zM608 -117l-37 -221l-213 -280h-104l166 258h-101l39 243h250z" />
    <glyph glyph-name="Lacute" unicode="&#x139;" horiz-adv-x="1044" 
d="M1004 209l-35 -209h-887l229 1405h258l-194 -1196h629zM768 1821l66 -156l-486 -174l-47 100z" />
    <glyph glyph-name="lacute" unicode="&#x13a;" horiz-adv-x="524" 
d="M283 1405h237l-229 -1405h-238zM657 1788l66 -156l-485 -176l-48 103z" />
    <glyph glyph-name="Lcommaaccent" unicode="&#x13b;" horiz-adv-x="1044" 
d="M1004 209l-35 -209h-887l229 1405h258l-194 -1196h629zM649 -117l-37 -221l-213 -280h-104l166 258h-101l39 243h250z" />
    <glyph glyph-name="lcommaaccent" unicode="&#x13c;" horiz-adv-x="524" 
d="M283 1405h237l-229 -1405h-238zM281 -117l-37 -221l-213 -280h-105l166 258h-100l39 243h250z" />
    <glyph glyph-name="Lcaron" unicode="&#x13d;" horiz-adv-x="1044" 
d="M1004 209l-35 -209h-887l229 1405h258l-194 -1196h629zM1069 1405l-35 -219l-215 -281h-104l168 256h-103l39 244h250z" />
    <glyph glyph-name="lcaron" unicode="&#x13e;" horiz-adv-x="708" 
d="M283 1405h237l-229 -1405h-238zM881 1405l-35 -219l-215 -281h-105l168 256h-102l39 244h250z" />
    <glyph glyph-name="Ldot" unicode="&#x13f;" horiz-adv-x="1044" 
d="M1004 209l-35 -209h-887l229 1405h258l-194 -1196h629zM741 899h283l-45 -278h-283z" />
    <glyph glyph-name="ldot" unicode="&#x140;" horiz-adv-x="925" 
d="M283 1405h237l-229 -1405h-238zM637 899h283l-46 -278h-282z" />
    <glyph glyph-name="Lslash" unicode="&#x141;" horiz-adv-x="1044" 
d="M1004 209l-35 -209h-887l88 543l-158 -135l31 180l158 135l110 682h258l-75 -469l206 178l-30 -180l-207 -180l-88 -545h629z" />
    <glyph glyph-name="lslash" unicode="&#x142;" horiz-adv-x="524" 
d="M283 1405h237l-71 -442l137 108l-29 -190l-139 -107l-127 -774h-238l97 588l-138 -109l31 185l137 108z" />
    <glyph glyph-name="Nacute" unicode="&#x143;" horiz-adv-x="1413" 
d="M311 1405h283l428 -1026h4q10 106 18 151l144 875h217l-229 -1405h-234l-469 1122h-4q0 -88 -14 -170l-156 -952h-217zM1219 1821l65 -156l-485 -174l-47 100z" />
    <glyph glyph-name="nacute" unicode="&#x144;" horiz-adv-x="1191" 
d="M225 1044h221l-34 -196h4q32 59 84 108q112 109 270 109q133 0 217 -78q90 -87 90 -221q0 -45 -18 -160l-101 -606h-237l102 618q13 85 13 103q0 77 -39 119q-39 45 -111 45q-135 0 -221 -131q-65 -99 -86 -226l-88 -528h-238zM1051 1481l65 -156l-485 -176l-47 102z" />
    <glyph glyph-name="Ncommaaccent" unicode="&#x145;" horiz-adv-x="1413" 
d="M311 1405h283l428 -1026h4q10 106 18 151l144 875h217l-229 -1405h-234l-469 1122h-4q0 -88 -14 -170l-156 -952h-217zM731 -117l-37 -221l-213 -280h-104l166 258h-101l39 243h250z" />
    <glyph glyph-name="ncommaaccent" unicode="&#x146;" horiz-adv-x="1191" 
d="M225 1044h221l-34 -196h4q32 59 84 108q112 109 270 109q133 0 217 -78q90 -87 90 -221q0 -45 -18 -160l-101 -606h-237l102 618q13 85 13 103q0 77 -39 119q-39 45 -111 45q-135 0 -221 -131q-65 -99 -86 -226l-88 -528h-238zM608 -117l-37 -221l-213 -280h-104l166 258
h-101l39 243h250z" />
    <glyph glyph-name="Ncaron" unicode="&#x147;" horiz-adv-x="1413" 
d="M311 1405h283l428 -1026h4q10 106 18 151l144 875h217l-229 -1405h-234l-469 1122h-4q0 -88 -14 -170l-156 -952h-217zM586 1798l186 14l160 -126l207 126l178 -14l-412 -280z" />
    <glyph glyph-name="ncaron" unicode="&#x148;" horiz-adv-x="1191" 
d="M225 1044h221l-34 -196h4q32 59 84 108q112 109 270 109q133 0 217 -78q90 -87 90 -221q0 -45 -18 -160l-101 -606h-237l102 618q13 85 13 103q0 77 -39 119q-39 45 -111 45q-135 0 -221 -131q-65 -99 -86 -226l-88 -528h-238zM606 1481l164 -127l207 127l178 -15
l-412 -280l-317 280z" />
    <glyph glyph-name="Omacron" unicode="&#x14c;" horiz-adv-x="1392" 
d="M807 1425q193 0 323 -98q213 -164 213 -498q0 -163 -49 -328.5t-135 -277.5q-186 -243 -510 -243q-253 0 -397 163q-141 158 -141 435q0 258 100 469q181 378 596 378zM784 1221q-224 0 -327 -269q-32 -85 -52 -192t-20 -205q0 -157 55 -248q77 -123 230 -123
q61 0 112.5 20.5t85 49.5t62.5 73t44 77.5t30 76.5q65 189 65 383q0 147 -61 242q-74 115 -224 115zM1178 1645l-21 -132h-647l20 132h648z" />
    <glyph glyph-name="omacron" unicode="&#x14d;" horiz-adv-x="1134" 
d="M618 1065q202 0 318 -121q125 -131 125 -344q0 -255 -160 -440q-158 -180 -395 -180q-187 0 -307 120q-125 128 -125 346q0 96 21 181.5t54.5 144.5t56.5 89.5t46 53.5q148 150 366 150zM621 893q-118 0 -197 -107q-49 -65 -74.5 -164t-25.5 -208q0 -124 47 -189
q53 -73 149 -73q153 0 230 180q28 65 44.5 150.5t16.5 152.5q0 122 -51 190q-52 68 -139 68zM362 1425h648l-21 -129h-647z" />
    <glyph glyph-name="Obreve" unicode="&#x14e;" horiz-adv-x="1392" 
d="M807 1425q193 0 323 -98q213 -164 213 -498q0 -163 -49 -328.5t-135 -277.5q-186 -243 -510 -243q-253 0 -397 163q-141 158 -141 435q0 258 100 469q181 378 596 378zM784 1221q-224 0 -327 -269q-32 -85 -52 -192t-20 -205q0 -157 55 -248q77 -123 230 -123
q61 0 112.5 20.5t85 49.5t62.5 73t44 77.5t30 76.5q65 189 65 383q0 147 -61 242q-74 115 -224 115zM506 1743h151q14 -43 56 -70q51 -33 143 -33q98 0 154 33q40 24 77 70h140q-43 -104 -131 -164q-106 -70 -262 -70q-139 0 -218 52q-42 27 -71.5 75t-38.5 107z" />
    <glyph glyph-name="obreve" unicode="&#x14f;" horiz-adv-x="1134" 
d="M618 1065q202 0 318 -121q125 -131 125 -344q0 -255 -160 -440q-158 -180 -395 -180q-187 0 -307 120q-125 128 -125 346q0 96 21 181.5t54.5 144.5t56.5 89.5t46 53.5q148 150 366 150zM621 893q-118 0 -197 -107q-49 -65 -74.5 -164t-25.5 -208q0 -124 47 -189
q53 -73 149 -73q153 0 230 180q28 65 44.5 150.5t16.5 152.5q0 122 -51 190q-52 68 -139 68zM340 1481h149q14 -43 56 -70q51 -33 143 -33q98 0 154 33q42 25 78 70h139q-43 -104 -131 -164q-106 -70 -262 -70q-140 0 -217 51q-96 65 -109 183z" />
    <glyph glyph-name="Ohungarumlaut" unicode="&#x150;" horiz-adv-x="1392" 
d="M807 1425q193 0 323 -98q213 -164 213 -498q0 -163 -49 -328.5t-135 -277.5q-186 -243 -510 -243q-253 0 -397 163q-141 158 -141 435q0 258 100 469q181 378 596 378zM784 1221q-224 0 -327 -269q-32 -85 -52 -192t-20 -205q0 -157 55 -248q77 -123 230 -123
q61 0 112.5 20.5t85 49.5t62.5 73t44 77.5t30 76.5q65 189 65 383q0 147 -61 242q-74 115 -224 115zM911 1976l119 -123l-420 -321l-86 82zM1268 1976l118 -123l-419 -321l-86 82z" />
    <glyph glyph-name="ohungarumlaut" unicode="&#x151;" horiz-adv-x="1134" 
d="M618 1065q202 0 318 -121q125 -131 125 -344q0 -255 -160 -440q-158 -180 -395 -180q-187 0 -307 120q-125 128 -125 346q0 96 21 181.5t54.5 144.5t56.5 89.5t46 53.5q148 150 366 150zM621 893q-118 0 -197 -107q-49 -65 -74.5 -164t-25.5 -208q0 -124 47 -189
q53 -73 149 -73q153 0 230 180q28 65 44.5 150.5t16.5 152.5q0 122 -51 190q-52 68 -139 68zM705 1630l118 -123l-420 -321l-88 82zM1061 1630l119 -123l-420 -321l-88 82z" />
    <glyph glyph-name="OE" unicode="&#x152;" horiz-adv-x="2035" 
d="M2118 1405l-35 -209h-680l-60 -369h541l-33 -196h-540l-68 -422h696l-34 -209h-955l17 100q-147 -120 -336 -120q-212 0 -350 131q-170 162 -170 456q0 222 85 417t240 310q181 131 418 131q217 0 309 -122l17 102h938zM1036 528l70 424q5 113 -61 191t-195 78
q-122 0 -221 -68q-112 -76 -178 -232.5t-66 -347.5q0 -204 92 -305q74 -84 199 -84q124 0 226 89t134 255z" />
    <glyph glyph-name="oe" unicode="&#x153;" horiz-adv-x="1843" 
d="M1507 332l207 -66q-63 -120 -166 -192q-131 -94 -317 -94q-249 0 -344 163q-153 -163 -381 -163q-187 0 -307 120q-125 128 -125 346q0 96 21 181.5t54.5 144.5t56.5 89.5t46 53.5q148 150 366 150q224 0 347 -152q135 152 356 152q204 0 315 -104q133 -125 133 -367
q0 -64 -8 -113h-745q-4 -40 -4 -63q0 -107 43 -172q62 -94 196 -94q108 0 176 65q47 44 80 115zM621 893q-118 0 -197 -107q-49 -65 -74.5 -164t-25.5 -208q0 -124 47 -189q53 -73 149 -73q153 0 230 180q28 65 44.5 150.5t16.5 152.5q0 122 -51 190q-52 68 -139 68z
M1040 637h492q2 12 2 35q0 95 -45 155q-27 33 -72 53.5t-96 20.5q-101 0 -180 -70q-83 -77 -101 -194z" />
    <glyph glyph-name="Racute" unicode="&#x154;" horiz-adv-x="1331" 
d="M311 1405h549q48 0 83.5 -2.5t88 -11.5t101 -31t88.5 -57q118 -103 118 -277q0 -183 -122 -297q-85 -78 -197 -106l184 -623h-266l-162 580h-340l-96 -580h-258zM537 1200l-70 -424h301q157 0 231 60q74 59 74 170q0 89 -57 139q-64 55 -207 55h-272zM1118 1821l66 -156
l-486 -174l-47 100z" />
    <glyph glyph-name="racute" unicode="&#x155;" horiz-adv-x="774" 
d="M225 1044h221l-40 -243h4q40 87 108 155q51 51 108 80t148 29q33 0 49 -2l-28 -229q-14 2 -43 2q-135 0 -226 -80q-127 -110 -168 -350l-67 -406h-238zM944 1481l66 -156l-486 -176l-47 102z" />
    <glyph glyph-name="Rcommaaccent" unicode="&#x156;" horiz-adv-x="1331" 
d="M311 1405h549q48 0 83.5 -2.5t88 -11.5t101 -31t88.5 -57q118 -103 118 -277q0 -183 -122 -297q-85 -78 -197 -106l184 -623h-266l-162 580h-340l-96 -580h-258zM537 1200l-70 -424h301q157 0 231 60q74 59 74 170q0 89 -57 139q-64 55 -207 55h-272zM752 -117l-37 -221
l-213 -280h-105l166 258h-100l39 243h250z" />
    <glyph glyph-name="rcommaaccent" unicode="&#x157;" horiz-adv-x="774" 
d="M225 1044h221l-40 -243h4q40 87 108 155q51 51 108 80t148 29q33 0 49 -2l-28 -229q-14 2 -43 2q-135 0 -226 -80q-127 -110 -168 -350l-67 -406h-238zM356 -117l-37 -221l-213 -280h-104l166 258h-100l38 243h250z" />
    <glyph glyph-name="Rcaron" unicode="&#x158;" horiz-adv-x="1331" 
d="M311 1405h549q48 0 83.5 -2.5t88 -11.5t101 -31t88.5 -57q118 -103 118 -277q0 -183 -122 -297q-85 -78 -197 -106l184 -623h-266l-162 580h-340l-96 -580h-258zM537 1200l-70 -424h301q157 0 231 60q74 59 74 170q0 89 -57 139q-64 55 -207 55h-272zM483 1798l187 14
l159 -126l207 126l178 -14l-411 -280z" />
    <glyph glyph-name="rcaron" unicode="&#x159;" horiz-adv-x="774" 
d="M225 1044h221l-40 -243h4q40 87 108 155q51 51 108 80t148 29q33 0 49 -2l-28 -229q-14 2 -43 2q-135 0 -226 -80q-127 -110 -168 -350l-67 -406h-238zM397 1481l164 -127l207 127l178 -15l-411 -280l-318 280z" />
    <glyph glyph-name="Sacute" unicode="&#x15a;" horiz-adv-x="1228" 
d="M1204 1096l-213 -72q-19 67 -73 117q-87 80 -238 80q-101 0 -168 -45q-74 -53 -74 -134q0 -102 133 -161q61 -27 234 -68q32 -8 55.5 -14.5t64 -22.5t70 -34t64 -48t56.5 -65t37 -85.5t15 -109.5q0 -98 -45 -188.5t-129 -155.5q-84 -64 -182.5 -87t-216.5 -23
q-109 0 -199.5 18.5t-173.5 73.5q-159 105 -205 293l238 63q32 -99 106 -162q97 -82 240 -82q140 0 219 68q74 66 74 154q0 55 -24.5 88.5t-80.5 58.5q-18 8 -43 16t-44.5 13.5t-59 15.5t-63.5 16q-41 11 -75.5 22t-77.5 30t-76.5 40t-67 52t-55.5 66.5t-36 84t-14 103.5
q0 87 39 171.5t117 143.5q127 98 366 98q110 0 194.5 -22t164.5 -86q112 -92 147 -221zM1067 1821l66 -156l-486 -174l-47 100z" />
    <glyph glyph-name="sacute" unicode="&#x15b;" horiz-adv-x="1024" 
d="M963 813l-197 -59q-13 52 -49 88q-59 59 -166 59q-105 0 -154 -41t-49 -90q0 -68 82 -100q39 -16 120.5 -29.5t123.5 -24.5q133 -30 200 -104q68 -75 68 -180q0 -87 -40.5 -159t-108.5 -116q-113 -77 -332 -77q-220 0 -332 86q-104 78 -129 210l209 48q22 -95 100 -144
q55 -37 152 -37q96 0 157 31q78 40 78 117q0 53 -39 84q-11 8 -23.5 14.5t-34.5 12t-33.5 8t-46.5 8.5t-48 8q-173 33 -254 94q-104 78 -104 215q0 178 168 271q108 59 276 59q147 0 240 -49q130 -65 166 -203zM887 1481l65 -156l-485 -176l-47 102z" />
    <glyph glyph-name="Scircumflex" unicode="&#x15c;" horiz-adv-x="1228" 
d="M1204 1096l-213 -72q-19 67 -73 117q-87 80 -238 80q-101 0 -168 -45q-74 -53 -74 -134q0 -102 133 -161q61 -27 234 -68q32 -8 55.5 -14.5t64 -22.5t70 -34t64 -48t56.5 -65t37 -85.5t15 -109.5q0 -98 -45 -188.5t-129 -155.5q-84 -64 -182.5 -87t-216.5 -23
q-109 0 -199.5 18.5t-173.5 73.5q-159 105 -205 293l238 63q32 -99 106 -162q97 -82 240 -82q140 0 219 68q74 66 74 154q0 55 -24.5 88.5t-80.5 58.5q-18 8 -43 16t-44.5 13.5t-59 15.5t-63.5 16q-41 11 -75.5 22t-77.5 30t-76.5 40t-67 52t-55.5 66.5t-36 84t-14 103.5
q0 87 39 171.5t117 143.5q127 98 366 98q110 0 194.5 -22t164.5 -86q112 -92 147 -221zM1098 1509l-180 -12l-162 125l-209 -125l-180 12l415 279z" />
    <glyph glyph-name="scircumflex" unicode="&#x15d;" horiz-adv-x="1024" 
d="M963 813l-197 -59q-13 52 -49 88q-59 59 -166 59q-105 0 -154 -41t-49 -90q0 -68 82 -100q39 -16 120.5 -29.5t123.5 -24.5q133 -30 200 -104q68 -75 68 -180q0 -87 -40.5 -159t-108.5 -116q-113 -77 -332 -77q-220 0 -332 86q-104 78 -129 210l209 48q22 -95 100 -144
q55 -37 152 -37q96 0 157 31q78 40 78 117q0 53 -39 84q-11 8 -23.5 14.5t-34.5 12t-33.5 8t-46.5 8.5t-48 8q-173 33 -254 94q-104 78 -104 215q0 178 168 271q108 59 276 59q147 0 240 -49q130 -65 166 -203zM635 1481l315 -281l-180 -12l-162 125l-209 -125l-180 12z" />
    <glyph glyph-name="Scedilla" unicode="&#x15e;" horiz-adv-x="1228" 
d="M1204 1096l-213 -72q-19 67 -73 117q-87 80 -238 80q-106 0 -170 -45q-72 -52 -72 -134q0 -102 133 -161q70 -30 234 -68q32 -8 55 -14.5t64 -22.5t70 -34t64 -48t57 -65t37 -85.5t15 -109.5q0 -98 -45 -189t-129 -155q-68 -52 -160 -81.5t-194 -28.5l-29 -60q12 2 35 2
q56 0 90 -20q53 -33 53 -101q0 -65 -49 -114q-64 -64 -182 -64q-68 0 -123 25l-61 28l39 72q72 -39 133 -39q50 0 86 25q28 21 28 53q0 30 -24 47q-19 19 -82 19q-15 0 -39.5 -2.5t-26.5 -2.5l66 132q-92 0 -179.5 24.5t-152.5 67.5q-159 105 -205 293l238 63
q32 -99 106 -162q97 -82 240 -82q140 0 219 68q74 66 74 154q0 55 -24.5 88.5t-80.5 58.5q-18 8 -43 16t-44.5 13.5t-59 15.5t-63.5 16q-41 11 -75.5 22t-77.5 30t-76.5 40t-67 52t-55.5 66.5t-36 84t-14 103.5q0 87 39 171.5t117 143.5q127 98 366 98q110 0 194.5 -22
t164.5 -86q112 -92 147 -221z" />
    <glyph glyph-name="scedilla" unicode="&#x15f;" horiz-adv-x="1024" 
d="M963 813l-197 -59q-13 52 -49 88q-59 59 -166 59q-105 0 -154 -41t-49 -90q0 -68 82 -100q39 -16 120.5 -29.5t123.5 -24.5q133 -30 200 -104q68 -75 68 -180q0 -87 -40.5 -159t-108.5 -116q-56 -36 -136 -56.5t-157 -20.5l-27 -60q12 2 35 2q56 0 90 -20q53 -33 53 -101
q0 -65 -49 -114q-64 -64 -182 -64q-68 0 -123 25l-61 28l38 72q72 -39 134 -39q50 0 86 25q28 21 28 53q0 30 -24 47q-19 19 -82 19q-15 0 -39.5 -2.5t-26.5 -2.5l66 132q-73 -2 -151.5 20t-135.5 66q-104 80 -129 210l209 48q22 -95 100 -144q55 -37 152 -37q96 0 157 31
q78 40 78 117q0 53 -39 84q-11 8 -23.5 14.5t-34.5 12t-33.5 8t-46.5 8.5t-48 8q-173 33 -254 94q-104 78 -104 215q0 178 168 271q108 59 276 59q147 0 240 -49q130 -65 166 -203z" />
    <glyph glyph-name="Scaron" unicode="&#x160;" horiz-adv-x="1228" 
d="M1204 1096l-213 -72q-19 67 -73 117q-87 80 -238 80q-101 0 -168 -45q-74 -53 -74 -134q0 -102 133 -161q61 -27 234 -68q32 -8 55.5 -14.5t64 -22.5t70 -34t64 -48t56.5 -65t37 -85.5t15 -109.5q0 -98 -45 -188.5t-129 -155.5q-84 -64 -182.5 -87t-216.5 -23
q-109 0 -199.5 18.5t-173.5 73.5q-159 105 -205 293l238 63q32 -99 106 -162q97 -82 240 -82q140 0 219 68q74 66 74 154q0 55 -24.5 88.5t-80.5 58.5q-18 8 -43 16t-44.5 13.5t-59 15.5t-63.5 16q-41 11 -75.5 22t-77.5 30t-76.5 40t-67 52t-55.5 66.5t-36 84t-14 103.5
q0 87 39 171.5t117 143.5q127 98 366 98q110 0 194.5 -22t164.5 -86q112 -92 147 -221zM422 1798l186 14l160 -126l207 126l178 -14l-412 -280z" />
    <glyph glyph-name="scaron" unicode="&#x161;" horiz-adv-x="1024" 
d="M963 813l-197 -59q-13 52 -49 88q-59 59 -166 59q-105 0 -154 -41t-49 -90q0 -68 82 -100q39 -16 120.5 -29.5t123.5 -24.5q133 -30 200 -104q68 -75 68 -180q0 -87 -40.5 -159t-108.5 -116q-113 -77 -332 -77q-220 0 -332 86q-104 78 -129 210l209 48q22 -95 100 -144
q55 -37 152 -37q96 0 157 31q78 40 78 117q0 53 -39 84q-11 8 -23.5 14.5t-34.5 12t-33.5 8t-46.5 8.5t-48 8q-173 33 -254 94q-104 78 -104 215q0 178 168 271q108 59 276 59q147 0 240 -49q130 -65 166 -203zM436 1481l164 -127l207 127l178 -15l-412 -280l-317 280z" />
    <glyph glyph-name="Tcedilla" unicode="&#x162;" horiz-adv-x="1044" 
d="M182 1405h981l-35 -209h-360l-197 -1196h-82l-36 -80q81 8 125 -18q53 -33 53 -101q0 -65 -49 -114q-64 -64 -183 -64q-68 0 -123 25l-61 28l39 72q72 -39 133 -39q50 0 86 25q29 21 29 53q0 29 -25 47q-19 19 -82 19q-15 0 -39 -2.5t-26 -2.5l76 152h-93l197 1196h-363z
" />
    <glyph glyph-name="tcedilla" unicode="&#x163;" horiz-adv-x="667" 
d="M311 1333l224 21l-52 -310h230l-29 -176h-229l-76 -465q-14 -96 -14 -116q0 -115 118 -115q67 0 125 10l-22 -182q-62 -11 -146 -14l-30 -66q12 2 34 2q57 0 91 -20q53 -33 53 -101q0 -65 -49 -114q-64 -64 -183 -64q-68 0 -123 25l-61 28l39 72q72 -39 133 -39
q50 0 86 25q29 21 29 53q0 29 -25 47q-19 19 -82 19q-15 0 -39 -2.5t-26 -2.5l69 140q-88 4 -141 45q-90 66 -90 213q0 42 16 157l76 465h-151l28 176h160z" />
    <glyph glyph-name="Tcaron" unicode="&#x164;" horiz-adv-x="1044" 
d="M182 1405h981l-35 -209h-360l-197 -1196h-258l197 1196h-363zM352 1798l187 14l159 -126l207 126l178 -14l-411 -280z" />
    <glyph glyph-name="tcaron" unicode="&#x165;" horiz-adv-x="772" 
d="M311 1333l224 21l-52 -310h230l-29 -176h-229l-76 -465q-14 -96 -14 -116q0 -115 118 -115q67 0 125 10l-22 -182q-85 -14 -183 -14q-121 0 -188 47q-90 66 -90 213q0 42 16 157l76 465h-151l28 176h160zM938 1651l-35 -219l-215 -281h-104l168 256h-103l39 244h250z" />
    <glyph glyph-name="Umacron" unicode="&#x16a;" horiz-adv-x="1339" 
d="M299 1405h258l-123 -752q-24 -160 -24 -217q0 -120 57 -184q61 -68 188 -68q155 0 240 92q33 36 56.5 91.5t31.5 92.5t16 91l140 854h209l-138 -844q-9 -53 -15.5 -87.5t-19.5 -87.5t-30 -92t-41.5 -82.5t-59 -79.5t-77.5 -64q-27 -18 -63.5 -35t-117 -35t-172.5 -18
q-183 0 -299 71q-172 105 -172 330q0 72 17 172zM1198 1645l-20 -132h-648l21 132h647z" />
    <glyph glyph-name="umacron" unicode="&#x16b;" horiz-adv-x="1150" 
d="M205 1044h237l-88 -534q-22 -140 -22 -207q0 -73 35 -108t90 -35q104 0 188 100q48 58 81 139t46 158l80 487h238l-172 -1044h-222l33 215h-4q-65 -121 -156 -178q-86 -57 -204 -57q-111 0 -183 59q-92 79 -92 244q0 55 14 151zM377 1425h647l-20 -129h-648z" />
    <glyph glyph-name="Ubreve" unicode="&#x16c;" horiz-adv-x="1339" 
d="M299 1405h258l-123 -752q-24 -160 -24 -217q0 -120 57 -184q61 -68 188 -68q155 0 240 92q33 36 56.5 91.5t31.5 92.5t16 91l140 854h209l-138 -844q-9 -53 -15.5 -87.5t-19.5 -87.5t-30 -92t-41.5 -82.5t-59 -79.5t-77.5 -64q-27 -18 -63.5 -35t-117 -35t-172.5 -18
q-183 0 -299 71q-172 105 -172 330q0 72 17 172zM514 1743h152q14 -43 55 -70q51 -33 143 -33q98 0 154 33q42 25 78 70h139q-43 -104 -131 -164q-106 -70 -262 -70q-138 0 -217 52q-93 62 -111 182z" />
    <glyph glyph-name="ubreve" unicode="&#x16d;" horiz-adv-x="1150" 
d="M205 1044h237l-88 -534q-22 -140 -22 -207q0 -73 35 -108t90 -35q104 0 188 100q48 58 81 139t46 158l80 487h238l-172 -1044h-222l33 215h-4q-65 -121 -156 -178q-86 -57 -204 -57q-111 0 -183 59q-92 79 -92 244q0 55 14 151zM338 1481h149q14 -43 56 -70
q51 -33 143 -33q98 0 154 33q42 25 78 70h139q-43 -104 -131 -164q-106 -70 -262 -70q-141 0 -218 51q-95 64 -108 183z" />
    <glyph glyph-name="Uring" unicode="&#x16e;" horiz-adv-x="1339" 
d="M299 1405h258l-123 -752q-24 -160 -24 -217q0 -120 57 -184q61 -68 188 -68q155 0 240 92q33 36 56.5 91.5t31.5 92.5t16 91l140 854h209l-138 -844q-9 -53 -15.5 -87.5t-19.5 -87.5t-30 -92t-41.5 -82.5t-59 -79.5t-77.5 -64q-27 -18 -63.5 -35t-117 -35t-172.5 -18
q-183 0 -299 71q-172 105 -172 330q0 72 17 172zM657 1665q0 78 57.5 135.5t135.5 57.5t135 -57.5t57 -135.5t-57 -135t-135 -57t-135.5 57t-57.5 135zM764 1665q0 -34 26 -60t60 -26t60 26t26 60t-26 60t-60 26t-60 -26t-26 -60z" />
    <glyph glyph-name="uring" unicode="&#x16f;" horiz-adv-x="1150" 
d="M205 1044h237l-88 -534q-22 -140 -22 -207q0 -73 35 -108t90 -35q104 0 188 100q48 58 81 139t46 158l80 487h238l-172 -1044h-222l33 215h-4q-65 -121 -156 -178q-86 -57 -204 -57q-111 0 -183 59q-92 79 -92 244q0 55 14 151zM479 1348q0 78 57.5 135t135.5 57t135 -57
t57 -135t-57 -135.5t-135 -57.5t-135.5 57.5t-57.5 135.5zM586 1348q0 -34 26 -60t60 -26t60 26t26 60t-26 60t-60 26t-60 -26t-26 -60z" />
    <glyph glyph-name="Uhungarumlaut" unicode="&#x170;" horiz-adv-x="1339" 
d="M299 1405h258l-123 -752q-24 -160 -24 -217q0 -120 57 -184q61 -68 188 -68q155 0 240 92q33 36 56.5 91.5t31.5 92.5t16 91l140 854h209l-138 -844q-9 -53 -15.5 -87.5t-19.5 -87.5t-30 -92t-41.5 -82.5t-59 -79.5t-77.5 -64q-27 -18 -63.5 -35t-117 -35t-172.5 -18
q-183 0 -299 71q-172 105 -172 330q0 72 17 172zM932 1976l119 -123l-420 -321l-86 82zM1288 1976l119 -123l-420 -321l-86 82z" />
    <glyph glyph-name="uhungarumlaut" unicode="&#x171;" horiz-adv-x="1150" 
d="M205 1044h237l-88 -534q-22 -140 -22 -207q0 -73 35 -108t90 -35q104 0 188 100q48 58 81 139t46 158l80 487h238l-172 -1044h-222l33 215h-4q-65 -121 -156 -178q-86 -57 -204 -57q-111 0 -183 59q-92 79 -92 244q0 55 14 151zM713 1630l118 -123l-419 -321l-88 82z
M1069 1630l119 -123l-420 -321l-88 82z" />
    <glyph glyph-name="Uogonek" unicode="&#x172;" horiz-adv-x="1339" 
d="M299 1405h258l-123 -752q-24 -160 -24 -217q0 -120 57 -184q61 -68 188 -68q155 0 240 92q33 36 56.5 91.5t31.5 92.5t16 91l140 854h209l-138 -844q-9 -53 -15.5 -86.5t-19.5 -87t-30 -92.5t-41.5 -83t-59 -80t-77.5 -64q-60 -38 -141.5 -61t-161.5 -25
q-70 -46 -70 -107q0 -28 22 -47q23 -18 62 -18q50 0 123 30l16 -71q-40 -22 -72 -31q-65 -21 -127 -21q-74 0 -114 27q-49 32 -49 90q0 40 28 80.5t68 65.5q-134 8 -236 71q-172 107 -172 330q0 72 17 172z" />
    <glyph glyph-name="uogonek" unicode="&#x173;" horiz-adv-x="1150" 
d="M205 1044h237l-88 -534q-22 -140 -22 -207q0 -73 35 -108t90 -35q104 0 188 100q48 58 81 139t46 158l80 487h238l-172 -1044q-27 -11 -54 -31q-53 -42 -53 -94q0 -27 23 -47q23 -18 61 -18q50 0 123 30l16 -71q-41 -23 -71 -31q-65 -21 -127 -21q-75 0 -115 27
q-49 32 -49 90q0 60 55 115q32 32 76 51h-107l33 215h-4q-65 -121 -156 -178q-86 -57 -204 -57q-111 0 -183 59q-92 79 -92 244q0 55 14 151z" />
    <glyph glyph-name="Ydieresis" unicode="&#x178;" horiz-adv-x="1126" 
d="M119 1405h295l231 -586l428 586h234l-590 -813l-96 -592h-259l97 592zM678 1718l-33 -200h-205l33 200h205zM1083 1718l-32 -200h-205l33 200h204z" />
    <glyph glyph-name="Zacute" unicode="&#x179;" horiz-adv-x="1114" 
d="M215 1405h989l-24 -168l-883 -1028h741l-34 -209h-1049l29 186l874 1010h-676zM1010 1821l65 -156l-485 -174l-47 100z" />
    <glyph glyph-name="zacute" unicode="&#x17a;" horiz-adv-x="901" 
d="M168 1044h770l-18 -135l-648 -733h537l-29 -176h-817l25 160l628 708h-477zM885 1481l65 -156l-485 -176l-47 102z" />
    <glyph glyph-name="Zdotaccent" unicode="&#x17b;" horiz-adv-x="1114" 
d="M215 1405h989l-24 -168l-883 -1028h741l-34 -209h-1049l29 186l874 1010h-676zM866 1735l-37 -222h-225l37 222h225z" />
    <glyph glyph-name="zdotaccent" unicode="&#x17c;" horiz-adv-x="901" 
d="M168 1044h770l-18 -135l-648 -733h537l-29 -176h-817l25 160l628 708h-477zM682 1409l-33 -201h-205l33 201h205z" />
    <glyph glyph-name="Zcaron" unicode="&#x17d;" horiz-adv-x="1114" 
d="M215 1405h989l-24 -168l-883 -1028h741l-34 -209h-1049l29 186l874 1010h-676zM401 1798l187 14l160 -126l206 126l179 -14l-412 -280z" />
    <glyph glyph-name="zcaron" unicode="&#x17e;" horiz-adv-x="901" 
d="M168 1044h770l-18 -135l-648 -733h537l-29 -176h-817l25 160l628 708h-477zM436 1481l164 -127l207 127l178 -15l-412 -280l-317 280z" />
    <glyph glyph-name="uni018F" unicode="&#x18f;" horiz-adv-x="1355" 
d="M440 961l-233 40q20 58 49 110t58 87.5t45.5 53t31.5 30.5q162 143 418 143q273 0 399 -180q51 -72 75 -170t24 -198q0 -139 -39 -303t-109 -287q-44 -78 -100.5 -135.5t-110 -89.5t-117.5 -51.5t-115 -25t-110 -5.5q-103 0 -183.5 24t-152.5 92q-159 147 -159 430
q0 87 16 185l10 61h887q14 63 14 137q0 143 -51 215q-66 97 -209 97q-127 0 -221 -84q-77 -68 -117 -176zM999 571h-634q-5 -62 -5 -75q0 -133 54 -209q74 -103 221 -103q164 0 270 150q77 108 94 237z" />
    <glyph glyph-name="florin" unicode="&#x192;" 
d="M1262 1520l-45 -166q-40 4 -60 4q-106 0 -170 -53q-34 -26 -60.5 -74t-37.5 -101h248l-43 -174h-244l-254 -886q-31 -104 -67 -176t-101 -125q-62 -50 -143.5 -74.5t-159.5 -24.5q-43 0 -125 15l43 176q23 -4 68 -4q95 0 151 49q63 57 103 196l245 854h-170l41 174h178
l17 48q50 149 137 231q129 119 340 119q60 0 109 -8z" />
    <glyph glyph-name="uni01CF" unicode="&#x1cf;" horiz-adv-x="577" 
d="M311 1405h258l-229 -1405h-258zM127 1798l186 14l160 -126l207 126l178 -14l-412 -280z" />
    <glyph glyph-name="uni01D0" unicode="&#x1d0;" horiz-adv-x="532" 
d="M225 1044h238l-172 -1044h-238zM223 1481l164 -127l207 127l178 -15l-412 -280l-317 280z" />
    <glyph glyph-name="uni01DD" unicode="&#x1dd;" horiz-adv-x="1150" 
d="M82 563h745q4 40 4 64q0 107 -43 172q-62 94 -196 94q-107 0 -176 -66q-48 -44 -80 -114l-207 65q64 122 166 193q134 94 317 94q219 0 346 -139q119 -132 119 -338q0 -141 -49 -262t-131 -201q-150 -145 -377 -145q-200 0 -313 104q-133 125 -133 367q0 63 8 112z
M803 408h-492q-2 -12 -2 -35q0 -96 45 -156q26 -34 70.5 -54t95.5 -20q103 0 182 70q83 76 101 195z" />
    <glyph glyph-name="Gcaron" unicode="&#x1e6;" horiz-adv-x="1351" 
d="M1303 993l-244 -41q-3 102 -60 174q-71 95 -198 95q-101 0 -179.5 -61.5t-132.5 -162.5q-46 -89 -75 -216t-29 -249q0 -156 72 -247q80 -101 219 -101q172 0 264 140q56 83 80 217h-320l33 196h561l-120 -737h-132l-22 160h-6l-10 -11q-9 -11 -14 -16.5t-17 -17.5
t-22 -20.5t-24 -19.5t-28 -20q-113 -75 -278 -75q-201 0 -332 118q-178 161 -178 463q0 151 44 306.5t117 265.5q86 132 223.5 212t321.5 80q132 0 228.5 -43t152.5 -108q45 -52 73.5 -126.5t31.5 -154.5zM504 1798l186 14l160 -126l207 126l178 -14l-412 -280z" />
    <glyph glyph-name="gcaron" unicode="&#x1e7;" horiz-adv-x="1105" 
d="M1167 1290l-12 -178q-42 10 -82 10q-68 0 -110 -26q-52 -34 -74 -97q69 -36 107 -103.5t38 -147.5q0 -149 -102 -254q-123 -123 -336 -123q-100 0 -190 35q-59 -10 -94.5 -41.5t-35.5 -67.5q0 -72 93 -72l166 -4q11 0 52 -1t54.5 -1.5t50.5 -2.5t53 -5t47 -7.5
t48.5 -11.5t41 -16.5t41 -23t33.5 -29.5q66 -69 66 -172q0 -70 -34 -134.5t-89 -105.5q-124 -94 -432 -94q-188 0 -295 29q-69 19 -117 49t-69 64t-29 60t-8 52q0 79 55 137q53 56 137 80q-41 17 -65.5 59.5t-24.5 88.5q0 89 84 159q63 51 144 76q-123 78 -123 225
q0 170 120 269q118 100 324 100q94 0 176 -23q23 105 78 166q76 88 221 88q13 0 92 -6zM610 913q-94 0 -155 -61q-62 -62 -62 -154q0 -85 45 -127q52 -49 144 -49q98 0 157 64q58 60 58 164q0 67 -45 112q-55 51 -142 51zM274 31q-54 -20 -81 -48t-27 -75q0 -63 76 -98
q97 -41 293 -41q107 0 165 18t81.5 51t23.5 66q0 26 -9 45t-28 30t-37 18t-48 9.5t-47 3t-48 0.5q-168 0 -314 21zM481 1481l164 -127l207 127l178 -15l-412 -280l-317 280z" />
    <glyph glyph-name="Scommaaccent" unicode="&#x218;" horiz-adv-x="1228" 
d="M1204 1096l-213 -72q-19 67 -73 117q-87 80 -238 80q-101 0 -168 -45q-74 -53 -74 -134q0 -102 133 -161q61 -27 234 -68q32 -8 55.5 -14.5t64 -22.5t70 -34t64 -48t56.5 -65t37 -85.5t15 -109.5q0 -98 -45 -188.5t-129 -155.5q-84 -64 -182.5 -87t-216.5 -23
q-109 0 -199.5 18.5t-173.5 73.5q-159 105 -205 293l238 63q32 -99 106 -162q97 -82 240 -82q140 0 219 68q74 66 74 154q0 55 -24.5 88.5t-80.5 58.5q-18 8 -43 16t-44.5 13.5t-59 15.5t-63.5 16q-41 11 -75.5 22t-77.5 30t-76.5 40t-67 52t-55.5 66.5t-36 84t-14 103.5
q0 87 39 171.5t117 143.5q127 98 366 98q110 0 194.5 -22t164.5 -86q112 -92 147 -221zM711 -117l-37 -221l-213 -280h-105l166 258h-100l39 243h250z" />
    <glyph glyph-name="scommaaccent" unicode="&#x219;" horiz-adv-x="1024" 
d="M963 813l-197 -59q-13 52 -49 88q-59 59 -166 59q-105 0 -154 -41t-49 -90q0 -68 82 -100q39 -16 120.5 -29.5t123.5 -24.5q133 -30 200 -104q68 -75 68 -180q0 -87 -40.5 -159t-108.5 -116q-113 -77 -332 -77q-220 0 -332 86q-104 78 -129 210l209 48q22 -95 100 -144
q55 -37 152 -37q96 0 157 31q78 40 78 117q0 53 -39 84q-11 8 -23.5 14.5t-34.5 12t-33.5 8t-46.5 8.5t-48 8q-173 33 -254 94q-104 78 -104 215q0 178 168 271q108 59 276 59q147 0 240 -49q130 -65 166 -203zM580 -117l-37 -221l-213 -280h-105l166 258h-100l39 243h250z
" />
    <glyph glyph-name="Tcommaaccent" unicode="&#x21a;" horiz-adv-x="1044" 
d="M182 1405h981l-35 -209h-360l-197 -1196h-258l197 1196h-363zM551 -117l-37 -221l-213 -280h-104l165 258h-100l39 243h250z" />
    <glyph glyph-name="tcommaaccent" unicode="&#x21b;" horiz-adv-x="667" 
d="M311 1333l224 21l-52 -310h230l-29 -176h-229l-76 -465q-14 -96 -14 -116q0 -115 118 -115q67 0 125 10l-22 -182q-85 -14 -183 -14q-121 0 -188 47q-90 66 -90 213q0 42 16 157l76 465h-151l28 176h160zM485 -117l-36 -221l-213 -280h-105l166 258h-100l39 243h249z" />
    <glyph glyph-name="uni0228" unicode="&#x228;" horiz-adv-x="1167" 
d="M543 0h-461l229 1405h938l-35 -209h-679l-60 -369h541l-33 -196h-541l-67 -422h696l-35 -209h-409l-37 -80q3 0 16.5 1t22.5 1q52 0 86 -20q53 -33 53 -101q0 -65 -49 -114q-64 -64 -182 -64q-68 0 -123 25l-62 28l39 72q72 -39 133 -39q50 0 86 25q29 21 29 53
q0 29 -25 47q-19 19 -82 19q-15 0 -39 -2.5t-26 -2.5z" />
    <glyph glyph-name="uni0229" unicode="&#x229;" horiz-adv-x="1150" 
d="M1069 481h-745q-5 -50 -5 -63q0 -107 43 -172q62 -94 197 -94q108 0 176 65q47 44 80 115l207 -66q-63 -120 -166 -192q-125 -87 -297 -94l-27 -60q2 0 18 1t28 1q43 0 79 -20q54 -34 54 -101q0 -65 -49 -114q-64 -64 -183 -64q-68 0 -123 25l-61 28l39 72
q72 -39 133 -39q50 0 86 25q29 21 29 53q0 29 -25 47q-19 19 -82 19q-15 0 -39 -2.5t-26 -2.5l65 136q-175 16 -282 135q-119 132 -119 338q0 141 49 262t131 201q150 145 377 145q200 0 313 -104q133 -125 133 -367q0 -64 -8 -113zM348 637h492q2 12 2 35q0 95 -45 155
q-26 34 -70.5 54t-95.5 20q-103 0 -182 -70q-83 -77 -101 -194z" />
    <glyph glyph-name="uni0259" unicode="&#x259;" horiz-adv-x="1150" 
d="M82 563h745q4 40 4 64q0 107 -43 172q-62 94 -196 94q-107 0 -176 -66q-48 -44 -80 -114l-207 65q64 122 166 193q134 94 317 94q219 0 346 -139q119 -132 119 -338q0 -141 -49 -262t-131 -201q-150 -145 -377 -145q-200 0 -313 104q-133 125 -133 367q0 63 8 112z
M803 408h-492q-2 -12 -2 -35q0 -96 45 -156q26 -34 70.5 -54t95.5 -20q103 0 182 70q83 76 101 195z" />
    <glyph glyph-name="afii57929" unicode="&#x2bc;" horiz-adv-x="641" 
d="M618 1405l-34 -219l-215 -281h-105l168 256h-102l39 244h249z" />
    <glyph glyph-name="circumflex" unicode="&#x2c6;" horiz-adv-x="935" 
d="M655 1481l316 -281l-180 -12l-162 125l-209 -125l-180 12z" />
    <glyph glyph-name="caron" unicode="&#x2c7;" horiz-adv-x="933" 
d="M477 1481l164 -127l207 127l178 -15l-412 -280l-317 280z" />
    <glyph glyph-name="breve" unicode="&#x2d8;" horiz-adv-x="923" 
d="M297 1481h149q14 -43 56 -70q51 -33 143 -33q98 0 154 33q42 25 78 70h139q-43 -104 -131 -164q-106 -70 -262 -70q-140 0 -217 51q-96 65 -109 183z" />
    <glyph glyph-name="dotaccent" unicode="&#x2d9;" horiz-adv-x="368" 
d="M477 1409l-33 -201h-204l32 201h205z" />
    <glyph glyph-name="ring" unicode="&#x2da;" horiz-adv-x="589" 
d="M233 1348q0 78 57.5 135t135.5 57t135 -57t57 -135t-57 -135.5t-135 -57.5t-135.5 57.5t-57.5 135.5zM340 1348q0 -34 26 -60t60 -26t60 26t26 60t-26 60t-60 26t-60 -26t-26 -60z" />
    <glyph glyph-name="ogonek" unicode="&#x2db;" horiz-adv-x="266" 
d="M172 0h115q-27 -11 -54 -31q-53 -42 -53 -94q0 -27 23 -47q23 -18 61 -18q50 0 123 30l16 -71q-41 -23 -71 -31q-65 -21 -127 -21q-75 0 -115 27q-49 32 -49 90q0 60 55 115q32 32 76 51z" />
    <glyph glyph-name="tilde" unicode="&#x2dc;" horiz-adv-x="946" 
d="M375 1274l-78 86q54 51 123 88q62 33 133 33q49 0 100 -21q40 -16 58 -26q32 -17 43.5 -23t31 -12t37.5 -6q46 0 119 45l27 16l69 -94q-49 -42 -90 -62q-80 -45 -151 -45q-39 0 -82 15q-12 4 -47 22q-99 51 -146 51q-62 0 -127 -51z" />
    <glyph glyph-name="hungarumlaut" unicode="&#x2dd;" horiz-adv-x="1026" 
d="M649 1630l119 -123l-420 -321l-88 82zM1006 1630l118 -123l-419 -321l-89 82z" />
    <glyph glyph-name="acutecomb" unicode="&#x301;" horiz-adv-x="4" 
d="M-100 1481l65 -156l-485 -176l-47 102z" />
    <glyph glyph-name="pi" unicode="&#x3c0;" horiz-adv-x="1232" 
d="M96 0l144 872h-162l28 172h1221l-29 -172h-159l-144 -872h-237l143 872h-424l-143 -872h-238z" />
    <glyph glyph-name="afii10023" unicode="&#x401;" horiz-adv-x="1167" 
d="M311 1405h938l-35 -209h-679l-60 -369h541l-33 -196h-541l-67 -422h696l-35 -209h-954zM506 1729h225l-35 -222h-225zM915 1729h226l-35 -222h-225z" />
    <glyph glyph-name="afii10051" unicode="&#x402;" horiz-adv-x="1458" 
d="M182 1405h981l-35 -209h-360l-66 -393q127 43 279 43q200 0 309 -96q115 -101 115 -279q0 -99 -35.5 -195t-97.5 -161q-130 -135 -375 -135q-93 0 -203 26l70 195q53 -17 113 -17q116 0 186 54q84 65 84 192q0 99 -55 152q-61 59 -181 59q-122 0 -241 -45l-99 -596h-258
l197 1196h-363z" />
    <glyph glyph-name="afii10052" unicode="&#x403;" horiz-adv-x="1044" 
d="M311 1405h877l-35 -209h-616l-197 -1196h-258zM1055 1821l65 -156l-485 -174l-47 100z" />
    <glyph glyph-name="afii10053" unicode="&#x404;" horiz-adv-x="1306" 
d="M1311 1001l-250 -45q-11 101 -62 166q-75 99 -200 99q-149 0 -252 -119q-94 -113 -119 -277h455l-35 -200h-459q-8 -47 -8 -105q0 -159 68 -248q67 -88 192 -88q137 0 240 103q62 62 98 143l240 -47q-65 -171 -211 -279q-167 -124 -394 -124q-256 0 -387 170
q-116 150 -116 397q0 83 12.5 172t40.5 190.5t84.5 197.5t134.5 165q175 153 440 153q243 0 369 -139q100 -109 119 -285z" />
    <glyph glyph-name="afii10054" unicode="&#x405;" horiz-adv-x="1228" 
d="M1204 1096l-213 -72q-19 67 -73 117q-87 80 -238 80q-101 0 -168 -45q-74 -53 -74 -134q0 -102 133 -161q61 -27 234 -68q32 -8 55.5 -14.5t64 -22.5t70 -34t64 -48t56.5 -65t37 -85.5t15 -109.5q0 -98 -45 -188.5t-129 -155.5q-84 -64 -182.5 -87t-216.5 -23
q-109 0 -199.5 18.5t-173.5 73.5q-159 105 -205 293l238 63q32 -99 106 -162q97 -82 240 -82q140 0 219 68q74 66 74 154q0 55 -24.5 88.5t-80.5 58.5q-18 8 -43 16t-44.5 13.5t-59 15.5t-63.5 16q-41 11 -75.5 22t-77.5 30t-76.5 40t-67 52t-55.5 66.5t-36 84t-14 103.5
q0 87 39 171.5t117 143.5q127 98 366 98q110 0 194.5 -22t164.5 -86q112 -92 147 -221z" />
    <glyph glyph-name="afii10055" unicode="&#x406;" horiz-adv-x="577" 
d="M311 1405h258l-229 -1405h-258z" />
    <glyph glyph-name="afii10056" unicode="&#x407;" horiz-adv-x="577" 
d="M311 1405h258l-229 -1405h-258zM246 1718h184l-33 -200h-184zM553 1718h184l-32 -200h-185z" />
    <glyph glyph-name="afii10057" unicode="&#x408;" horiz-adv-x="778" 
d="M528 1405h258l-149 -905q-12 -79 -23 -130.5t-41 -126t-73 -122.5q-126 -141 -385 -141q-102 0 -213 20l35 213q70 -20 149 -20q137 0 205 73q61 65 88 234z" />
    <glyph glyph-name="afii10058" unicode="&#x409;" horiz-adv-x="1978" 
d="M1208 829h297q91 0 167.5 -17t139.5 -69q113 -95 113 -270q0 -235 -166 -369q-79 -63 -165 -83.5t-189 -20.5h-590l195 1196h-365l-16 -88q-57 -327 -131 -571q-55 -179 -120.5 -291.5t-174.5 -182.5q-109 -69 -230 -69q-27 0 -39 2l35 219q89 2 158 64q93 79 158 284
q32 99 81 332t83 418l16 92h838zM1176 625l-70 -420h258q136 0 205 53q92 69 92 201q0 87 -59 129q-56 37 -168 37h-258z" />
    <glyph glyph-name="afii10059" unicode="&#x40a;" horiz-adv-x="2052" 
d="M311 1405h258l-92 -565h549l92 565h258l-94 -576h297q91 0 167.5 -17t139.5 -69q113 -95 113 -270q0 -235 -166 -369q-79 -63 -165 -83.5t-189 -20.5h-590l104 631h-549l-104 -631h-258zM1249 625l-69 -420h258q135 0 204 53q93 70 93 201q0 86 -60 129q-56 37 -168 37
h-258z" />
    <glyph glyph-name="afii10060" unicode="&#x40b;" horiz-adv-x="1437" 
d="M182 1405h983l-35 -209h-385l-63 -395q145 45 313 45q224 0 320 -111q69 -82 69 -215q0 -53 -10 -121l-65 -399h-258l59 360q10 55 10 95q0 88 -55 135q-29 25 -76.5 38t-93.5 13q-123 0 -246 -45l-100 -596h-258l196 1196h-340z" />
    <glyph glyph-name="afii10061" unicode="&#x40c;" horiz-adv-x="1282" 
d="M311 1405h258l-92 -578h125q124 0 191 80q34 40 118 207q27 53 41.5 79.5t40 67t51.5 67.5t56 46q67 43 174 43q38 0 90 -10l-31 -184q-24 4 -39 4q-43 0 -71 -18t-56 -72q-12 -25 -34 -73.5t-43 -89.5t-46 -81q-37 -58 -78.5 -93.5t-103.5 -47.5v-7q59 -13 102.5 -50.5
t67.5 -86.5q35 -72 60 -239q16 -105 27 -131q24 -53 87 -54q23 0 33 2l-33 -186q-50 -12 -104 -12q-63 0 -108 18t-76 70q-38 65 -66 227q-4 23 -11.5 67t-10.5 62.5t-10 44t-15 45.5q-15 38 -37 61.5t-53 33t-53.5 12t-59.5 2.5h-158l-104 -631h-258zM1157 1821l66 -156
l-486 -174l-47 100z" />
    <glyph glyph-name="afii10062" unicode="&#x40e;" horiz-adv-x="1146" 
d="M131 1405h291l221 -752h6l420 752h246l-588 -1024q-63 -109 -111 -177.5t-108 -119.5q-118 -102 -283 -102q-75 0 -155 18l32 205q55 -17 115 -17q95 0 158 54q55 46 94 129zM422 1755h205q-5 -49 30 -84q39 -39 107 -39q80 0 125 39q34 31 47 84h207q-27 -120 -127 -190
q-109 -76 -266 -76q-163 0 -250 78q-81 77 -78 188z" />
    <glyph glyph-name="afii10145" unicode="&#x40f;" horiz-adv-x="1372" 
d="M311 1405h258l-194 -1196h536l195 1196h258l-229 -1405h-408l-49 -301h-238l49 301h-407z" />
    <glyph glyph-name="afii10017" unicode="&#x410;" horiz-adv-x="1200" 
d="M608 1405h287l231 -1405h-274l-57 365h-459l-172 -365h-225zM418 561h358l-88 582z" />
    <glyph glyph-name="afii10018" unicode="&#x411;" horiz-adv-x="1282" 
d="M311 1405h938l-35 -209h-677l-60 -367h334q216 0 309 -81q48 -41 78.5 -110.5t30.5 -156.5q0 -98 -39 -199t-111 -167q-78 -71 -171 -93t-210 -22h-616zM442 625l-67 -420h293q143 0 211 55q37 31 60.5 83t23.5 106q0 93 -62 139q-24 18 -55 26.5t-49 9.5t-62 1h-293z
" />
    <glyph glyph-name="afii10019" unicode="&#x412;" horiz-adv-x="1318" 
d="M311 1405h523q65 0 100 -1.5t99 -15.5t112 -42q153 -89 153 -277q0 -136 -86 -227q-74 -80 -192 -113v-4q88 -24 141 -80q40 -41 61 -101.5t21 -123.5q0 -80 -31.5 -158.5t-87.5 -134.5q-76 -76 -170 -101.5t-213 -25.5h-659zM535 1200l-60 -377h275q154 0 223 62
q63 56 63 147q0 83 -61 127q-59 41 -191 41h-249zM442 627l-69 -422h305q52 0 85.5 3.5t78 21t76.5 51.5q59 65 59 153q0 98 -74 150q-61 43 -184 43h-277z" />
    <glyph glyph-name="afii10020" unicode="&#x413;" horiz-adv-x="1044" 
d="M311 1405h877l-35 -209h-616l-197 -1196h-258z" />
    <glyph glyph-name="afii10021" unicode="&#x414;" horiz-adv-x="1372" 
d="M494 1405h837l-196 -1196h147l-84 -512h-237l49 303h-846l-49 -303h-238l84 512h98q73 110 142 245t110 240q44 114 88 279t70 299zM1042 1196h-368l-21 -102q-52 -255 -141 -486q-79 -205 -207 -399h576z" />
    <glyph glyph-name="afii10022" unicode="&#x415;" horiz-adv-x="1167" 
d="M311 1405h938l-35 -209h-679l-60 -369h541l-33 -196h-541l-67 -422h696l-35 -209h-954z" />
    <glyph glyph-name="afii10024" unicode="&#x416;" horiz-adv-x="1810" 
d="M942 1405h246l-94 -578h67q47 0 83 15t69 53t55.5 75t61.5 109q16 31 37 71t31 59t23.5 42t26.5 43q45 66 101 94.5t149 28.5q50 0 94 -12l-30 -184q-6 2 -21 2q-19 0 -35.5 -3t-31 -11t-25.5 -14.5t-23 -22t-19.5 -25t-19 -31.5t-17 -32.5t-18 -38t-18.5 -39.5
q-63 -135 -127 -191q-52 -45 -118 -59v-6q92 -28 139 -78q19 -20 34.5 -47t24.5 -49.5t17.5 -61t12 -59.5t10 -67.5t9.5 -63.5q13 -82 41.5 -112t79.5 -30q17 0 25 2l-31 -184q-37 -12 -86 -12q-82 0 -133.5 19t-87.5 85q-22 40 -35 102.5t-39 229.5q-6 37 -10 57.5
t-18 52.5t-35 52q-23 22 -56 32.5t-52.5 11.5t-61.5 1h-76l-105 -631h-245l104 631h-45h-22h-25t-24 -1t-26.5 -2.5t-25.5 -4.5t-28 -7.5t-26 -11.5t-26 -16q-58 -41 -104 -144q-22 -48 -50 -117.5t-53 -117.5q-19 -36 -37 -64t-47.5 -59t-62.5 -51t-80.5 -33.5
t-103.5 -13.5q-49 0 -90 12l30 184q8 -2 23 -2q44 0 82 41q34 34 90 154q7 15 24.5 53t25.5 55.5t25 49.5t31 51.5t34.5 43t43.5 42.5q79 65 193 78v6q-56 17 -97 61q-47 54 -77 184q-5 20 -14 57t-12 50t-9.5 33t-12 30t-12.5 19q-27 33 -78 33q-22 0 -32 -2l30 184
q35 12 86 12q27 0 44.5 -1t43.5 -7.5t44 -18.5t37.5 -35.5t33.5 -56.5q6 -13 11.5 -31t9.5 -35l14 -59.5t20 -80.5q29 -127 62 -185q26 -46 58.5 -63t92.5 -17h64z" />
    <glyph glyph-name="afii10025" unicode="&#x417;" horiz-adv-x="1228" 
d="M381 989l-219 45q21 87 75 164t119 123q146 102 389 102q180 0 289 -63q162 -94 162 -279q0 -153 -109 -254q-60 -56 -161 -94v-4q93 -21 153 -90q72 -81 72 -201q0 -110 -54 -207t-153 -159q-145 -92 -397 -92q-119 0 -211 25.5t-174 103.5q-110 105 -137 258l227 47
q17 -75 78 -138q89 -92 239 -92q66 0 131.5 18.5t108.5 57.5q35 31 55.5 78t20.5 98q0 91 -62 144q-59 49 -202 49h-164l30 196h177q126 0 204 60q78 62 78 159q0 85 -57 130q-56 45 -168 45q-130 0 -221 -68q-84 -62 -119 -162z" />
    <glyph glyph-name="afii10026" unicode="&#x418;" horiz-adv-x="1396" 
d="M311 1405h256l-135 -834q-4 -30 -29 -127h5q27 55 59 93l651 776l12 92h259l-230 -1405h-258l139 850q14 78 27 125h-4q-25 -44 -62 -88l-641 -770l-20 -117h-258z" />
    <glyph glyph-name="afii10027" unicode="&#x419;" horiz-adv-x="1396" 
d="M311 1405h256l-135 -834q-4 -30 -29 -127h5q27 55 59 93l651 776l12 92h259l-230 -1405h-258l139 850q14 78 27 125h-4q-25 -44 -62 -88l-641 -770l-20 -117h-258zM514 1755h205q-5 -48 31 -84q39 -39 106 -39q80 0 125 39q34 31 47 84h207q-27 -120 -127 -190
q-109 -76 -262 -76q-172 0 -254 78q-81 77 -78 188z" />
    <glyph glyph-name="afii10028" unicode="&#x41a;" horiz-adv-x="1282" 
d="M311 1405h258l-92 -578h125q124 0 191 80q34 40 118 207q27 53 41.5 79.5t40 67t51.5 67.5t56 46q67 43 174 43q38 0 90 -10l-31 -184q-24 4 -39 4q-43 0 -71 -18t-56 -72q-12 -25 -34 -73.5t-43 -89.5t-46 -81q-37 -58 -78.5 -93.5t-103.5 -47.5v-7q59 -13 102.5 -50.5
t67.5 -86.5q35 -72 60 -239q16 -105 27 -131q24 -53 87 -54q23 0 33 2l-33 -186q-50 -12 -104 -12q-63 0 -108 18t-76 70q-38 65 -66 227q-4 23 -11.5 67t-10.5 62.5t-10 44t-15 45.5q-15 38 -37 61.5t-53 33t-53.5 12t-59.5 2.5h-158l-104 -631h-258z" />
    <glyph glyph-name="afii10029" unicode="&#x41b;" horiz-adv-x="1310" 
d="M465 1405h838l-230 -1405h-258l195 1196h-365l-16 -88q-57 -327 -131 -571q-55 -179 -120.5 -291.5t-174.5 -182.5q-109 -69 -230 -69q-27 0 -39 2l35 219q89 2 158 64q93 79 158 284q32 99 81 332t83 418z" />
    <glyph glyph-name="afii10030" unicode="&#x41c;" horiz-adv-x="1744" 
d="M311 1405h344l193 -1002h4l508 1002h377l-230 -1405h-250l189 1155h-4l-580 -1155h-172l-211 1153h-4l-184 -1153h-209z" />
    <glyph glyph-name="afii10031" unicode="&#x41d;" horiz-adv-x="1384" 
d="M311 1405h258l-92 -565h549l92 565h258l-229 -1405h-258l104 631h-549l-104 -631h-258z" />
    <glyph glyph-name="afii10032" unicode="&#x41e;" horiz-adv-x="1392" 
d="M807 1425q193 0 323 -98q213 -164 213 -498q0 -163 -49 -328.5t-135 -277.5q-186 -243 -510 -243q-253 0 -397 163q-141 158 -141 435q0 258 100 469q181 378 596 378zM784 1221q-224 0 -327 -269q-32 -85 -52 -192t-20 -205q0 -157 55 -248q77 -123 230 -123
q61 0 112.5 20.5t85 49.5t62.5 73t44 77.5t30 76.5q65 189 65 383q0 147 -61 242q-74 115 -224 115z" />
    <glyph glyph-name="afii10033" unicode="&#x41f;" horiz-adv-x="1372" 
d="M311 1405h1053l-229 -1405h-258l194 1196h-534l-197 -1196h-258z" />
    <glyph glyph-name="afii10034" unicode="&#x420;" horiz-adv-x="1269" 
d="M311 1405h490q120 0 214 -19.5t163 -78.5q112 -97 112 -271q0 -112 -45.5 -215t-128.5 -166q-47 -36 -104.5 -59.5t-120 -33t-107.5 -12.5t-102 -3h-252l-90 -547h-258zM537 1200l-74 -448h268q155 0 232 82q61 66 61 174q0 86 -43 133q-24 27 -64.5 41t-67 16t-71.5 2
h-241z" />
    <glyph glyph-name="afii10035" unicode="&#x421;" horiz-adv-x="1290" 
d="M1294 936l-233 -37q-4 126 -62 213q-72 109 -208 109q-176 0 -283 -187q-55 -95 -89 -237.5t-34 -266.5q0 -153 66 -243q78 -103 208 -103q131 0 222 99q73 82 106 198l227 -53q-52 -161 -155 -270q-164 -178 -420 -178q-236 0 -381 165q-68 78 -107.5 192.5t-39.5 252.5
q0 156 51.5 320t144.5 280q189 235 486 235q239 0 374 -147q61 -68 93 -159.5t34 -182.5z" />
    <glyph glyph-name="afii10036" unicode="&#x422;" horiz-adv-x="1044" 
d="M182 1405h981l-35 -209h-360l-197 -1196h-258l197 1196h-363z" />
    <glyph glyph-name="afii10037" unicode="&#x423;" horiz-adv-x="1146" 
d="M131 1405h291l221 -752h6l420 752h246l-588 -1024q-63 -109 -111 -177.5t-108 -119.5q-118 -102 -283 -102q-75 0 -155 18l32 205q55 -17 115 -17q95 0 158 54q55 46 94 129z" />
    <glyph glyph-name="afii10038" unicode="&#x424;" horiz-adv-x="1638" 
d="M840 1444h254l-29 -178q161 3 291 -60q120 -60 176.5 -169t56.5 -246q0 -186 -93.5 -328.5t-254.5 -214.5q-153 -68 -352 -68l-33 -196h-254l33 196q-161 -3 -291 60q-120 60 -176.5 169t-56.5 246q0 186 93.5 328.5t254.5 214.5q153 68 352 68zM674 373l114 700
q-71 0 -141.5 -19.5t-120.5 -52.5q-77 -51 -121.5 -137.5t-44.5 -197.5q0 -161 99 -236q72 -53 215 -57zM1026 1073l-115 -700q72 0 142.5 19.5t120.5 51.5q77 51 121 138t44 198q0 162 -98 236q-72 53 -215 57z" />
    <glyph glyph-name="afii10039" unicode="&#x425;" horiz-adv-x="1175" 
d="M180 1405h295l201 -473l356 473h246l-502 -651l334 -754h-295l-237 547l-418 -547h-250l571 731z" />
    <glyph glyph-name="afii10040" unicode="&#x426;" horiz-adv-x="1404" 
d="M311 1405h258l-196 -1196h536l197 1196h258l-197 -1196h148l-84 -512h-238l49 303h-960z" />
    <glyph glyph-name="afii10041" unicode="&#x427;" horiz-adv-x="1273" 
d="M227 1405h254l-63 -393q-6 -37 -6 -76q0 -82 55 -117q50 -28 160 -28t282 20l99 594h258l-230 -1405h-258l99 602q-160 -20 -302 -20q-139 0 -227 26q-103 32 -149.5 106t-46.5 169q0 39 12 129z" />
    <glyph glyph-name="afii10042" unicode="&#x428;" horiz-adv-x="1892" 
d="M311 1405h254l-196 -1196h405l197 1196h254l-197 -1196h406l196 1196h254l-231 -1405h-1571z" />
    <glyph glyph-name="afii10043" unicode="&#x429;" horiz-adv-x="1945" 
d="M311 1405h254l-196 -1196h405l197 1196h254l-197 -1196h406l196 1196h254l-196 -1196h147l-84 -512h-238l50 303h-1481z" />
    <glyph glyph-name="afii10044" unicode="&#x42a;" horiz-adv-x="1433" 
d="M121 1405h637l-94 -576h297q91 0 167.5 -17t139.5 -69q112 -94 112 -270q0 -235 -166 -369q-79 -63 -165 -83.5t-189 -20.5h-590l197 1196h-381zM631 625l-70 -420h258q136 0 205 53q92 69 92 201q0 87 -59 129q-56 37 -168 37h-258z" />
    <glyph glyph-name="afii10045" unicode="&#x42b;" horiz-adv-x="1740" 
d="M311 1405h258l-94 -576h297q91 0 167.5 -17t139.5 -69q113 -95 113 -270q0 -235 -166 -369q-79 -63 -165 -83.5t-189 -20.5h-590zM442 625l-69 -420h258q136 0 205 53q92 69 92 201q0 86 -60 129q-56 37 -168 37h-258zM1475 1405h258l-230 -1405h-258z" />
    <glyph glyph-name="afii10046" unicode="&#x42c;" horiz-adv-x="1245" 
d="M311 1405h258l-94 -576h297q91 0 167.5 -17t139.5 -69q113 -95 113 -270q0 -235 -166 -369q-79 -63 -165 -83.5t-189 -20.5h-590zM442 625l-69 -420h258q136 0 205 53q92 69 92 201q0 86 -60 129q-56 37 -168 37h-258z" />
    <glyph glyph-name="afii10047" unicode="&#x42d;" horiz-adv-x="1269" 
d="M362 961l-233 40q18 58 45.5 111t54.5 87t45.5 53.5t30.5 29.5q159 143 418 143q273 0 399 -180q51 -72 75 -170t24 -198q0 -140 -39 -302.5t-109 -287.5q-44 -78 -101 -135.5t-111.5 -89.5t-118.5 -51.5t-114.5 -25t-107.5 -5.5q-223 0 -346 116q-43 40 -72.5 89.5
t-42 97t-17 72t-5.5 46.5l237 35q8 -85 54 -149q78 -103 221 -103q162 0 268 150q82 117 107 291h-459l31 196h450q6 44 6 88q0 143 -51 215q-66 97 -209 97q-124 0 -217 -84q-79 -73 -113 -176z" />
    <glyph glyph-name="afii10048" unicode="&#x42e;" horiz-adv-x="1912" 
d="M475 829h209q20 110 72.5 222t130.5 192q179 182 459 182q189 0 311 -98q207 -163 207 -504q0 -165 -46.5 -326.5t-131.5 -273.5q-181 -243 -500 -243q-315 0 -453 251q-39 72 -59.5 164.5t-20.5 179.5q0 42 2 62h-211l-104 -637h-258l229 1405h258zM1300 1221
q-77 0 -133.5 -30t-107.5 -93q-77 -97 -115.5 -249t-38.5 -294q0 -58 9 -110t30.5 -100.5t53 -83.5t80 -56t108.5 -21q62 0 114.5 20.5t87 50t63.5 73t44 77.5t29 76q65 192 65 379q0 155 -61 246q-76 115 -228 115z" />
    <glyph glyph-name="afii10049" unicode="&#x42f;" horiz-adv-x="1298" 
d="M1290 1405l-229 -1405h-258l94 584h-221l-406 -584h-311l463 625q-74 19 -125 59q-48 38 -81.5 105.5t-33.5 164.5q0 111 43 201t117 148q83 64 176.5 83t220.5 19h551zM997 1200h-266q-130 0 -196 -47q-86 -63 -86 -184q0 -88 51 -133q54 -48 196 -48h234z" />
    <glyph glyph-name="afii10065" unicode="&#x430;" horiz-adv-x="1126" 
d="M346 748l-196 67q39 85 108 143q130 107 352 107q201 0 305 -76q113 -85 113 -246q0 -64 -41 -290q-5 -30 -13.5 -76.5t-12.5 -68t-10 -55.5t-8.5 -51t-6 -42.5t-4.5 -41.5t-2 -37.5t-1 -40.5t1 -40h-234q-6 101 17 190h-4q-49 -76 -107 -122q-106 -88 -256 -88
q-78 0 -140 27.5t-98.5 72.5t-55.5 97.5t-19 107.5q0 163 137 262q148 108 502 108q34 0 104 -4q15 67 15 97q0 77 -50 116q-45 37 -143 37q-99 0 -172 -55q-54 -42 -80 -98zM754 504q-37 4 -109 4q-192 0 -274 -51q-92 -54 -92 -156q0 -70 43 -109.5t110 -39.5
q150 0 244 149q58 87 78 203z" />
    <glyph glyph-name="afii10066" unicode="&#x431;" horiz-adv-x="1134" 
d="M1171 1430l-32 -191q-65 -37 -160 -55q-290 -53 -322 -60q-129 -26 -217 -92q-49 -36 -90.5 -94t-58.5 -133h8q119 192 369 192q160 0 260 -84q133 -110 133 -323q0 -244 -129 -416q-145 -194 -397 -194q-114 0 -203 38t-144 101q-106 120 -106 356q0 125 28.5 255.5
t73.5 234.5q92 208 269 301q64 33 158 54.5t272 47.5q67 9 100 14t83.5 17t104.5 31zM625 831q-114 0 -189 -96q-108 -136 -108 -342q0 -114 43 -170q53 -71 145 -71q151 0 232 159q32 63 49.5 145.5t17.5 153.5q0 22 -2 42.5t-13 55.5t-29.5 60t-56.5 44t-89 19z" />
    <glyph glyph-name="afii10067" unicode="&#x432;" horiz-adv-x="1114" 
d="M225 1044h486q162 0 239 -55q90 -65 90 -184q0 -114 -88 -193q-47 -42 -110 -61q86 -28 129 -78q51 -59 51 -158q0 -96 -61 -178q-35 -46 -80.5 -75.5t-99 -42t-93.5 -16t-94 -3.5h-541zM434 893l-47 -279h197q105 0 157 41q26 21 42 53t16 66q0 53 -34 86t-99 33h-232z
M365 463l-50 -311h248q93 0 137 32q29 20 48.5 57t19.5 81q0 73 -47 108q-48 33 -123 33h-233z" />
    <glyph glyph-name="afii10068" unicode="&#x433;" horiz-adv-x="860" 
d="M225 1044h705l-29 -176h-467l-143 -868h-238z" />
    <glyph glyph-name="afii10069" unicode="&#x434;" horiz-adv-x="1085" 
d="M319 1044h693l-144 -868h115l-74 -455h-217l45 279h-614l-45 -279h-217l73 455h86q125 160 195 381q24 77 52.5 202.5t39.5 201.5zM750 868h-267l-8 -45q-29 -169 -57 -260q-18 -59 -43 -125q-44 -116 -127 -262h387z" />
    <glyph glyph-name="afii10070" unicode="&#x435;" horiz-adv-x="1150" 
d="M1069 481h-745q-5 -50 -5 -63q0 -107 43 -172q62 -94 197 -94q108 0 176 65q47 44 80 115l207 -66q-63 -120 -166 -192q-134 -94 -317 -94q-219 0 -346 139q-119 132 -119 338q0 141 49 262t131 201q150 145 377 145q200 0 313 -104q133 -125 133 -367q0 -64 -8 -113z
M348 637h492q2 12 2 35q0 95 -45 155q-26 34 -70.5 54t-95.5 20q-103 0 -182 -70q-83 -77 -101 -194z" />
    <glyph glyph-name="afii10072" unicode="&#x436;" horiz-adv-x="1474" 
d="M721 1044h221l-70 -417h62q47 0 83.5 19.5t53 41t33.5 53.5q12 22 47 96t59 109q42 63 92 84t123 21q49 0 86 -9l-26 -159q-10 2 -29 2q-23 0 -38.5 -5t-27 -18t-16.5 -22t-14 -29q-5 -10 -18.5 -39.5t-21 -45t-20.5 -39t-26 -42.5q-26 -38 -59.5 -59.5t-84.5 -24.5
q34 -9 64 -29q49 -36 76 -98q20 -45 41 -162q8 -37 17.5 -59t24 -30t22 -9.5t26.5 -1.5h24l-26 -168q-49 -12 -103 -12q-95 0 -143 65q-33 48 -61 199q-20 132 -62 170q-38 33 -110 33h-74l-76 -459h-221l76 459h-70q-50 0 -89.5 -15.5t-76.5 -66.5q-31 -43 -68 -130.5
t-55 -119.5q-36 -65 -86.5 -100t-150.5 -35q-57 0 -111 12l27 168q10 -2 28 -2q41 0 63.5 25t53.5 86q63 129 103 178q73 86 172 98q-40 14 -66 43q-6 6 -11 12.5t-9 14.5t-7.5 13.5t-7 15t-5.5 14.5t-5 16.5t-4 15t-4 16.5t-4 15q-3 11 -7 26.5t-6 23.5t-5 19t-5 16.5
t-4.5 13.5t-4.5 12t-4.5 8.5t-5 7.5t-5.5 6q-23 19 -48 19q-20 0 -30 -2l26 159q44 9 80 9q101 0 142 -39q44 -38 61 -164q1 -4 3 -21t2.5 -22.5t3 -20.5t4 -21.5t4 -19.5t5.5 -20.5t6.5 -17t8.5 -17t10 -14.5q38 -47 115 -47h63z" />
    <glyph glyph-name="afii10073" unicode="&#x437;" horiz-adv-x="1044" 
d="M285 731l-199 37q16 64 63 122.5t103 94.5q128 80 330 80q148 0 237 -41q46 -21 78.5 -51t47 -63t20.5 -60t6 -55q0 -102 -66 -174q-60 -64 -137 -78l-2 -4q28 -6 53.5 -18.5t52.5 -35.5t43.5 -64t16.5 -95q0 -96 -45.5 -165t-108.5 -108q-117 -73 -327 -73
q-165 0 -252 43q-76 35 -132 107.5t-63 166.5l203 39q8 -70 45 -115q58 -74 194 -74q104 0 168 50q64 51 64 129q0 64 -39 100q-43 39 -154 39h-125l25 151h137q93 0 133 25q30 16 50 49t20 74q0 23 -6.5 43.5t-23.5 43.5t-54 36.5t-90 13.5q-107 0 -182 -55
q-62 -47 -84 -115z" />
    <glyph glyph-name="afii10074" unicode="&#x438;" horiz-adv-x="1159" 
d="M225 1044h238l-90 -544q-8 -51 -33 -123h4q41 59 64 84l438 500l14 83h238l-172 -1044h-238l92 561q9 48 25 111h-4q-21 -36 -66 -86l-428 -492l-16 -94h-238z" />
    <glyph glyph-name="afii10075" unicode="&#x439;" horiz-adv-x="1159" 
d="M225 1044h238l-90 -544q-8 -51 -33 -123h4q41 59 64 84l438 500l14 83h238l-172 -1044h-238l92 561q9 48 25 111h-4q-21 -36 -66 -86l-428 -492l-16 -94h-238zM377 1409h182q0 -47 23 -80q30 -39 96 -39q53 0 92 39q33 36 41 80h188q-23 -114 -118 -182q-90 -64 -226 -64
q-55 0 -114 16.5t-95 51.5q-31 30 -50 77.5t-19 100.5z" />
    <glyph glyph-name="afii10076" unicode="&#x43a;" horiz-adv-x="1044" 
d="M225 1044h238l-70 -417h92q71 0 109.5 27t69.5 81q22 37 45.5 87.5t44.5 88.5q44 81 96 110.5t133 29.5q45 0 98 -11l-26 -155q-8 2 -27 2q-42 0 -65 -21.5t-48 -77.5q-40 -92 -75 -143q-51 -69 -129 -86q53 -18 94 -72q21 -28 35.5 -66.5t20.5 -66t18 -94.5
q6 -31 16 -50.5t24 -28t26 -11t30 -2.5q23 0 33 2l-29 -166q-69 -12 -107 -12q-46 0 -81.5 13.5t-57 32.5t-37 50t-23 56.5t-14.5 62.5q-2 10 -6.5 35t-7.5 37.5t-7.5 32t-9.5 34.5t-12 29q-11 23 -25.5 39t-28 24.5t-34.5 12.5t-36 5t-41 1h-86l-74 -457h-238z" />
    <glyph glyph-name="afii10077" unicode="&#x43b;" horiz-adv-x="1085" 
d="M322 1044h702l-172 -1044h-238l144 870h-262l-21 -102q-48 -258 -96 -408q-64 -194 -160 -278q-96 -86 -242 -86q-19 0 -59 4l31 188q95 0 168 80q39 44 72 137t71 285q17 86 43 242z" />
    <glyph glyph-name="afii10078" unicode="&#x43c;" horiz-adv-x="1449" 
d="M225 1044h312l153 -712h4l375 712h320l-172 -1044h-226l142 836h-5l-432 -836h-135l-178 834h-4l-137 -834h-189z" />
    <glyph glyph-name="afii10079" unicode="&#x43d;" horiz-adv-x="1159" 
d="M225 1044h238l-68 -411h398l67 411h238l-172 -1044h-238l74 457h-397l-74 -457h-238z" />
    <glyph glyph-name="afii10080" unicode="&#x43e;" horiz-adv-x="1134" 
d="M618 1065q202 0 318 -121q125 -131 125 -344q0 -255 -160 -440q-158 -180 -395 -180q-187 0 -307 120q-125 128 -125 346q0 96 21 181.5t54.5 144.5t56.5 89.5t46 53.5q148 150 366 150zM621 893q-118 0 -197 -107q-49 -65 -74.5 -164t-25.5 -208q0 -124 47 -189
q53 -73 149 -73q153 0 230 180q28 65 44.5 150.5t16.5 152.5q0 122 -51 190q-52 68 -139 68z" />
    <glyph glyph-name="afii10081" unicode="&#x43f;" horiz-adv-x="1159" 
d="M225 1044h873l-172 -1044h-238l143 872h-397l-143 -872h-238z" />
    <glyph glyph-name="afii10082" unicode="&#x440;" horiz-adv-x="1159" 
d="M207 1044h221l-31 -192h4q33 67 95 121q105 92 243 92q158 0 252 -105t94 -282q0 -133 -41 -275.5t-106 -234.5q-135 -188 -348 -188q-102 0 -179 42t-110 123h-4l-80 -481h-237zM659 893q-34 0 -68.5 -10.5t-81.5 -49t-83 -102.5q-84 -148 -84 -336q0 -66 17.5 -115
t46.5 -76t61.5 -39.5t67.5 -12.5q94 0 167 92q60 76 97 205t37 225q0 101 -48.5 160t-128.5 59z" />
    <glyph glyph-name="afii10083" unicode="&#x441;" horiz-adv-x="1036" 
d="M1012 686l-219 -37q4 90 -29 154q-42 90 -150 90q-161 0 -237 -205q-23 -59 -38 -140t-15 -149q0 -126 57 -186.5t139 -60.5q74 0 138.5 55.5t97.5 169.5l192 -66q-54 -132 -137 -211q-64 -64 -139.5 -92t-175.5 -28q-195 0 -308.5 122.5t-113.5 337.5q0 239 125 414
q157 211 409 211q173 0 277 -96q55 -48 89.5 -121.5t37.5 -161.5z" />
    <glyph glyph-name="afii10084" unicode="&#x442;" horiz-adv-x="888" 
d="M74 1044h880l-28 -172h-322l-143 -872h-238l144 872h-322z" />
    <glyph glyph-name="afii10085" unicode="&#x443;" horiz-adv-x="942" 
d="M82 1044h258l127 -720l360 720h197l-586 -1132q-74 -140 -147 -197q-58 -47 -116 -62t-128 -15q-68 0 -149 18l30 182q62 -16 121 -16q84 0 133 35q28 20 56.5 60t40.5 75l12 35z" />
    <glyph glyph-name="afii10086" unicode="&#x444;" horiz-adv-x="1482" 
d="M768 1405h238l-60 -361q81 2 166 -21.5t145 -68.5q152 -116 152 -350q0 -92 -20 -172.5t-54.5 -139.5t-70.5 -100t-78 -73q-164 -122 -412 -119l-55 -336h-238l56 336q-81 -2 -166.5 21.5t-145.5 68.5q-151 115 -151 350q0 92 20 173t54.5 140t70.5 100t78 73
q162 121 412 118zM582 172l116 705q-74 4 -145 -22.5t-121 -76.5q-54 -53 -85.5 -138t-31.5 -191q0 -170 101 -236q65 -45 166 -41zM903 877l-117 -705q75 -4 146 22t121 76q54 52 85 138t31 192q0 170 -100 236q-65 45 -166 41z" />
    <glyph glyph-name="afii10087" unicode="&#x445;" horiz-adv-x="946" 
d="M98 1044h279l143 -323l250 323h217l-379 -471l273 -573h-279l-176 393l-311 -393h-217l442 545z" />
    <glyph glyph-name="afii10088" unicode="&#x446;" horiz-adv-x="1187" 
d="M225 1044h238l-144 -868h414l144 868h237l-143 -868h123l-74 -455h-217l45 279h-795z" />
    <glyph glyph-name="afii10089" unicode="&#x447;" horiz-adv-x="1024" 
d="M139 1044h238l-43 -262q-8 -58 -8 -82q0 -60 30 -84q34 -30 133 -30q89 0 162 12l74 446h238l-172 -1044h-238l70 426q-108 -12 -226 -12q-180 0 -250 75q-61 65 -61 191q0 44 10 102z" />
    <glyph glyph-name="afii10090" unicode="&#x448;" horiz-adv-x="1593" 
d="M225 1044h234l-144 -868h306l143 868h233l-143 -868h301l143 868h234l-172 -1044h-1307z" />
    <glyph glyph-name="afii10091" unicode="&#x449;" horiz-adv-x="1605" 
d="M225 1044h234l-144 -868h306l143 868h233l-143 -868h301l143 868h234l-143 -868h122l-73 -455h-217l45 279h-1213z" />
    <glyph glyph-name="afii10092" unicode="&#x44a;" horiz-adv-x="1187" 
d="M66 1044h544l-65 -395h225q167 0 248 -59q96 -69 96 -215q0 -89 -37 -171.5t-106 -133.5q-42 -32 -93.5 -48t-87 -19t-92.5 -3h-497l143 872h-307zM520 498l-53 -326h186q53 0 88.5 9t67.5 40q55 55 55 141q0 77 -51 111q-36 25 -113 25h-180z" />
    <glyph glyph-name="afii10093" unicode="&#x44b;" horiz-adv-x="1474" 
d="M225 1044h238l-66 -395h226q166 0 247 -59q97 -70 97 -215q0 -89 -37.5 -171.5t-106.5 -133.5q-42 -32 -93.5 -48t-86.5 -19t-92 -3h-498zM373 498l-54 -326h187q53 0 88.5 9t67.5 40q55 55 55 141q0 77 -51 111q-36 25 -113 25h-180zM1176 1044h237l-172 -1044h-237z
" />
    <glyph glyph-name="afii10094" unicode="&#x44c;" horiz-adv-x="1040" 
d="M225 1044h238l-66 -395h226q166 0 247 -59q97 -70 97 -215q0 -89 -37.5 -171.5t-106.5 -133.5q-42 -32 -93.5 -48t-86.5 -19t-92 -3h-498zM373 498l-54 -326h187q53 0 88.5 9t67.5 40q55 55 55 141q0 77 -51 111q-36 25 -113 25h-180z" />
    <glyph glyph-name="afii10095" unicode="&#x44d;" horiz-adv-x="1040" 
d="M289 715l-207 39q46 122 135 196q136 115 354 115q182 0 279 -90q117 -108 117 -318q0 -150 -54.5 -304t-154.5 -247q-134 -126 -342 -126q-181 0 -287 86q-116 95 -125 235l213 35q7 -64 45 -115q54 -69 152 -69q101 0 168 67q89 87 108 250h-344l25 152h342q4 40 4 61
q0 108 -45 160q-46 51 -131 51q-100 0 -172 -64q-56 -51 -80 -114z" />
    <glyph glyph-name="afii10096" unicode="&#x44e;" horiz-adv-x="1556" 
d="M395 633h150q34 171 145 285q142 147 369 147q201 0 311 -123q113 -126 113 -342q0 -115 -38 -233.5t-112 -206.5q-71 -84 -172 -132t-221 -48q-78 0 -143 20.5t-109 56t-72.5 72t-48.5 78.5q-49 105 -49 250h-151l-76 -457h-238l172 1044h238zM1049 893
q-123 0 -199 -102q-50 -66 -76 -177.5t-26 -203.5q0 -128 54.5 -193t141.5 -65q160 0 232 186q57 148 57 305q0 66 -14.5 114.5t-34 73.5t-47.5 40t-47.5 18.5t-40.5 3.5z" />
    <glyph glyph-name="afii10097" unicode="&#x44f;" horiz-adv-x="1064" 
d="M1004 1044l-173 -1044h-237l68 410h-146l-270 -410h-262l307 432q-68 13 -117 55q-90 79 -90 209q0 66 25.5 129.5t72.5 108.5q114 110 363 110h459zM739 881h-180q-101 0 -156 -39q-69 -49 -69 -144q0 -64 43 -100q21 -17 49.5 -26t48 -10t55.5 -1h156z" />
    <glyph glyph-name="afii10071" unicode="&#x451;" horiz-adv-x="1150" 
d="M1069 481h-745q-5 -50 -5 -63q0 -107 43 -172q62 -94 197 -94q108 0 176 65q47 44 80 115l207 -66q-63 -120 -166 -192q-134 -94 -317 -94q-219 0 -346 139q-119 132 -119 338q0 141 49 262t131 201q150 145 377 145q200 0 313 -104q133 -125 133 -367q0 -64 -8 -113z
M348 637h492q2 12 2 35q0 95 -45 155q-26 34 -70.5 54t-95.5 20q-103 0 -182 -70q-83 -77 -101 -194zM360 1438h226l-37 -221h-225zM770 1438h225l-37 -221h-225z" />
    <glyph glyph-name="afii10099" unicode="&#x452;" horiz-adv-x="1179" 
d="M283 1405h237l-22 -139h358l-25 -148h-356l-47 -297h4q29 47 80 92q111 97 254 97q124 0 205 -66q94 -77 94 -227q0 -37 -14 -133l-95 -553q-7 -47 -12 -72t-17.5 -70t-27.5 -73.5t-41.5 -61.5t-60.5 -55q-86 -57 -226 -57q-81 0 -174 20l27 176q16 -3 35 -7t25.5 -5.5
t18 -2.5t27.5 -1q98 0 140 53q30 36 49 150l94 553q8 44 8 94q0 73 -33 110q-41 47 -114 47q-124 0 -223 -147q-61 -94 -78 -201l-82 -481h-238l183 1118h-158l24 148h158z" />
    <glyph glyph-name="afii10100" unicode="&#x453;" horiz-adv-x="860" 
d="M225 1044h705l-29 -176h-467l-143 -868h-238zM864 1481l66 -156l-486 -176l-47 102z" />
    <glyph glyph-name="afii10101" unicode="&#x454;" horiz-adv-x="1060" 
d="M1036 758l-215 -39q-7 64 -47 110q-56 64 -145 64q-96 0 -164 -57q-43 -37 -73.5 -93.5t-37.5 -121.5h336l-22 -154h-336q-8 -41 -8 -94q0 -110 36 -160q42 -61 134 -61q109 0 180 71q48 45 74 111l208 -35q-50 -129 -143 -207q-130 -112 -340 -112q-171 0 -274 94
q-125 113 -125 336q0 312 166 493q148 162 385 162q180 0 286 -86q108 -86 125 -221z" />
    <glyph glyph-name="afii10102" unicode="&#x455;" horiz-adv-x="1024" 
d="M963 813l-197 -59q-13 52 -49 88q-59 59 -166 59q-105 0 -154 -41t-49 -90q0 -68 82 -100q39 -16 120.5 -29.5t123.5 -24.5q133 -30 200 -104q68 -75 68 -180q0 -87 -40.5 -159t-108.5 -116q-113 -77 -332 -77q-220 0 -332 86q-104 78 -129 210l209 48q22 -95 100 -144
q55 -37 152 -37q96 0 157 31q78 40 78 117q0 53 -39 84q-11 8 -23.5 14.5t-34.5 12t-33.5 8t-46.5 8.5t-48 8q-173 33 -254 94q-104 78 -104 215q0 178 168 271q108 59 276 59q147 0 240 -49q130 -65 166 -203z" />
    <glyph glyph-name="afii10103" unicode="&#x456;" horiz-adv-x="532" 
d="M225 1044h238l-172 -1044h-238zM281 1409h245l-34 -213h-246z" />
    <glyph glyph-name="afii10104" unicode="&#x457;" horiz-adv-x="532" 
d="M225 1044h238l-172 -1044h-238zM160 1409h184l-33 -201h-184zM446 1409h185l-33 -201h-184z" />
    <glyph glyph-name="afii10105" unicode="&#x458;" horiz-adv-x="532" 
d="M225 1044h238l-168 -1013q-33 -208 -133 -301q-95 -88 -264 -88q-70 0 -162 18l31 184q54 -16 102 -16q87 0 131 53q43 50 57 144zM281 1409h245l-34 -213h-246z" />
    <glyph glyph-name="afii10106" unicode="&#x459;" horiz-adv-x="1601" 
d="M322 1044h702l-66 -395h226q167 0 248 -59q96 -69 96 -215q0 -89 -37.5 -171.5t-106.5 -133.5q-42 -32 -93.5 -48t-86.5 -19t-92 -3h-498l144 870h-262l-21 -102q-48 -258 -96 -408q-64 -194 -160 -278q-96 -86 -242 -86q-19 0 -59 4l31 188q95 0 168 80q39 44 72 137
t71 285q17 86 43 242zM934 498l-53 -326h186q53 0 88.5 9t67.5 40q55 55 55 141q0 77 -51 111q-36 25 -113 25h-180z" />
    <glyph glyph-name="afii10107" unicode="&#x45a;" horiz-adv-x="1675" 
d="M225 1044h238l-68 -411h398l67 411h238l-66 -395h225q167 0 248 -59q97 -70 97 -215q0 -89 -37.5 -171.5t-106.5 -133.5q-42 -32 -93.5 -48t-86.5 -19t-92 -3h-498l74 457h-397l-74 -457h-238zM1008 498l-54 -326h187q53 0 88 9t67 40q56 56 56 141q0 76 -52 111
q-36 25 -112 25h-180z" />
    <glyph glyph-name="afii10108" unicode="&#x45b;" horiz-adv-x="1179" 
d="M283 1405h237l-22 -139h358l-25 -148h-356l-47 -297h4q29 47 80 92q111 97 254 97q124 0 205 -66q94 -77 94 -227q0 -37 -14 -133l-99 -584h-237l98 578q8 44 8 94q0 73 -33 110q-41 47 -114 47q-124 0 -223 -147q-61 -94 -78 -201l-82 -481h-238l183 1118h-158l24 148
h158z" />
    <glyph glyph-name="afii10109" unicode="&#x45c;" horiz-adv-x="1044" 
d="M225 1044h238l-70 -417h92q71 0 109.5 27t69.5 81q22 37 45.5 87.5t44.5 88.5q44 81 96 110.5t133 29.5q45 0 98 -11l-26 -155q-8 2 -27 2q-42 0 -65 -21.5t-48 -77.5q-40 -92 -75 -143q-51 -69 -129 -86q53 -18 94 -72q21 -28 35.5 -66.5t20.5 -66t18 -94.5
q6 -31 16 -50.5t24 -28t26 -11t30 -2.5q23 0 33 2l-29 -166q-69 -12 -107 -12q-46 0 -81.5 13.5t-57 32.5t-37 50t-23 56.5t-14.5 62.5q-2 10 -6.5 35t-7.5 37.5t-7.5 32t-9.5 34.5t-12 29q-11 23 -25.5 39t-28 24.5t-34.5 12.5t-36 5t-41 1h-86l-74 -457h-238zM1010 1481
l65 -156l-485 -176l-47 102z" />
    <glyph glyph-name="afii10110" unicode="&#x45e;" horiz-adv-x="942" 
d="M82 1044h258l127 -720l360 720h197l-586 -1132q-74 -140 -147 -197q-58 -47 -116 -62t-128 -15q-68 0 -149 18l30 182q62 -16 121 -16q84 0 133 35q28 20 56.5 60t40.5 75l12 35zM287 1409h182q0 -47 23 -80q30 -39 96 -39q53 0 92 39q33 36 41 80h188
q-23 -114 -118 -182q-90 -64 -226 -64q-55 0 -114 16.5t-95 51.5q-31 30 -50 77.5t-19 100.5z" />
    <glyph glyph-name="afii10193" unicode="&#x45f;" horiz-adv-x="1175" 
d="M225 1044h238l-146 -868h418l142 868h237l-172 -1044h-336l-47 -283h-217l47 283h-336z" />
    <glyph glyph-name="afii10146" unicode="&#x462;" horiz-adv-x="1409" 
d="M481 1444h258l-26 -162h530l-35 -205h-528l-41 -248h297q91 0 167.5 -17t139.5 -69q113 -95 113 -270q0 -235 -166 -369q-79 -63 -165 -83.5t-189 -20.5h-590l176 1077h-336l33 205h336zM606 625l-69 -420h258q135 0 204 53q93 70 93 201q0 86 -60 129q-56 37 -168 37
h-258z" />
    <glyph glyph-name="afii10194" unicode="&#x463;" horiz-adv-x="1114" 
d="M358 1405h238l-53 -318h391l-29 -172h-391l-43 -266h225q167 0 248 -59q96 -69 96 -215q0 -89 -37 -171.5t-106 -133.5q-42 -32 -93.5 -48t-86.5 -19t-92 -3h-498l149 915h-239l29 172h239zM446 498l-53 -326h187q53 0 88 9t67 40q56 56 56 141q0 76 -52 111
q-36 25 -112 25h-181z" />
    <glyph glyph-name="afii10147" unicode="&#x472;" horiz-adv-x="1392" 
d="M807 1425q193 0 323 -98q213 -164 213 -498q0 -163 -49 -328.5t-135 -277.5q-186 -243 -510 -243q-253 0 -397 163q-141 158 -141 435q0 258 100 469q181 378 596 378zM1004 481q25 80 38 144q-96 -41 -165 -41q-76 0 -185 34q-5 2 -37.5 14.5t-56.5 17.5t-57 5
q-15 0 -27.5 -1t-21.5 -2.5t-19.5 -5.5t-16 -6t-17 -9t-16 -10t-18.5 -13t-20 -14q0 -196 55 -287q77 -123 230 -123q61 0 112.5 20.5t85 49.5t62.5 73t44 77.5t30 76.5zM784 1221q-224 0 -327 -269q-26 -70 -43 -145q88 41 157 41q67 0 164 -33q106 -39 178 -39
q84 0 156 60v28q0 147 -61 242q-74 115 -224 115z" />
    <glyph glyph-name="afii10195" unicode="&#x473;" horiz-adv-x="1134" 
d="M618 1065q202 0 318 -121q125 -131 125 -344q0 -255 -160 -440q-158 -180 -395 -180q-187 0 -307 120q-125 128 -125 346q0 96 21 181.5t54.5 144.5t56.5 89.5t46 53.5q148 150 366 150zM750 332q19 45 36 114q-48 -20 -112 -20q-24 0 -45.5 3.5t-32 7t-30 11.5t-27.5 11
q-85 33 -113 33q-58 0 -102 -41v-37q0 -124 47 -189q52 -73 145 -73q57 0 98 20q85 43 136 160zM621 893q-118 0 -197 -107q-45 -60 -70 -145q47 23 97 23q43 0 124 -29q88 -37 136 -37q65 0 100 35v2q0 122 -51 190q-28 36 -59.5 50.5t-79.5 17.5z" />
    <glyph glyph-name="afii10148" unicode="&#x474;" horiz-adv-x="1308" 
d="M1133 981l-488 -981h-262l-248 1405h275l174 -1073l319 676q47 117 107 196.5t149 136.5q111 70 230 70q18 0 38 -4l-34 -217q-89 -2 -158 -64q-57 -49 -102 -145z" />
    <glyph glyph-name="afii10196" unicode="&#x475;" horiz-adv-x="1062" 
d="M885 709l-377 -709h-213l-213 1044h258l133 -751h4l207 442q5 10 22 47t26 53t25 44t33 48.5t37 37.5q96 86 242 86q39 0 59 -4l-30 -189q-95 0 -168 -80q-25 -28 -45 -67v-2z" />
    <glyph glyph-name="afii10050" unicode="&#x490;" horiz-adv-x="1044" 
d="M311 1405h654l32 197h220l-64 -402h-616l-197 -1200h-258z" />
    <glyph glyph-name="afii10098" unicode="&#x491;" horiz-adv-x="860" 
d="M225 1044h531l26 156h172l-53 -332h-467l-143 -868h-238z" />
    <glyph glyph-name="uni0492" unicode="&#x492;" horiz-adv-x="1044" 
d="M311 1405h877l-35 -209h-616l-62 -369h492l-33 -196h-490l-104 -631h-258l102 631h-164l33 196h164z" />
    <glyph glyph-name="uni0493" unicode="&#x493;" horiz-adv-x="860" 
d="M225 1044h705l-29 -176h-467l-43 -264h277l-27 -172h-279l-71 -432h-238l72 432h-125l27 172h127z" />
    <glyph glyph-name="uni0494" unicode="&#x494;" horiz-adv-x="1241" 
d="M311 1405h877l-35 -209h-616l-66 -393q127 43 279 43q200 0 309 -96q115 -101 115 -279q0 -99 -35.5 -194.5t-98.5 -161.5q-130 -135 -374 -135q-93 0 -203 26l69 195q53 -17 113 -17q116 0 186 54q84 65 84 192q0 99 -55 152q-61 59 -180 59q-123 0 -242 -45l-98 -596
h-258z" />
    <glyph glyph-name="uni0495" unicode="&#x495;" horiz-adv-x="1052" 
d="M225 1044h750l-29 -176h-512l-39 -233q110 47 232 47q174 0 260 -90q92 -100 92 -293q0 -71 -13 -153t-56 -189.5t-111 -179.5q-75 -79 -154.5 -107t-173.5 -28q-69 0 -139 14l30 178q51 -16 127 -16q102 0 162 102q34 59 56 171.5t22 197.5q0 111 -39 166
q-25 34 -56.5 44.5t-72.5 10.5q-87 0 -194 -51l-76 -459h-238z" />
    <glyph glyph-name="uni0496" unicode="&#x496;" horiz-adv-x="1810" 
d="M942 1405h246l-94 -578h67q47 0 83 15t69 53t55.5 75t61.5 109q16 31 37 71t31 59t23.5 42t26.5 43q45 66 101 94.5t149 28.5q50 0 94 -12l-30 -184q-6 2 -21 2q-19 0 -35.5 -3t-31 -11t-25.5 -14.5t-23 -22t-19.5 -25t-19 -31.5t-17 -32.5t-18 -38t-18.5 -39.5
q-63 -135 -127 -191q-52 -45 -118 -59v-6q92 -28 139 -78q30 -30 49 -74t26 -77.5t17 -99t16 -97.5q9 -50 30 -76.5t41 -32.5t50 -6h29l-86 -512h-238l54 319q-45 21 -72 76q-21 43 -35 109t-39 223q-6 37 -10 57.5t-18 52.5t-35 52q-23 22 -56 32.5t-52.5 11.5t-61.5 1h-76
l-105 -631h-245l104 631h-45h-22h-25t-24 -1t-26.5 -2.5t-25.5 -4.5t-28 -7.5t-26 -11.5t-26 -16q-58 -41 -104 -144q-22 -48 -50 -117.5t-53 -117.5q-19 -36 -37 -64t-47.5 -59t-62.5 -51t-80.5 -33.5t-103.5 -13.5q-49 0 -90 12l30 184q8 -2 23 -2q44 0 82 41
q34 34 90 154q7 15 24.5 53t25.5 55.5t25 49.5t31 51.5t34.5 43t43.5 42.5q79 65 193 78v6q-56 17 -97 61q-47 54 -77 184q-5 20 -14 57t-12 50t-9.5 33t-12 30t-12.5 19q-27 33 -78 33q-22 0 -32 -2l30 184q35 12 86 12q27 0 44.5 -1t43.5 -7.5t44 -18.5t37.5 -35.5
t33.5 -56.5q6 -13 11.5 -31t9.5 -35l14 -59.5t20 -80.5q29 -127 62 -185q26 -46 58.5 -63t92.5 -17h64z" />
    <glyph glyph-name="uni0497" unicode="&#x497;" horiz-adv-x="1474" 
d="M721 1044h221l-70 -417h62q47 0 83.5 19.5t53 41t33.5 53.5q12 22 47 96t59 109q42 63 92 84t123 21q49 0 86 -9l-26 -159q-10 2 -29 2q-23 0 -38.5 -5t-27 -18t-16.5 -22t-14 -29q-5 -10 -18.5 -39.5t-21 -45t-20.5 -39t-26 -42.5q-26 -38 -59.5 -59.5t-84.5 -24.5
q34 -9 64 -29q49 -36 76 -98q9 -20 16 -44.5t9.5 -35.5t8.5 -45t7 -37q6 -29 14.5 -48.5t15.5 -28.5t20.5 -13.5t19 -5t20.5 -0.5h45l-74 -455h-217l47 293q-25 16 -44 39t-29 42.5t-18.5 52.5t-11 50.5t-7.5 57.5q-16 127 -62 170q-38 33 -110 33h-74l-76 -459h-221l76 459
h-70q-50 0 -89.5 -15.5t-76.5 -66.5q-31 -43 -68 -130.5t-55 -119.5q-36 -65 -86.5 -100t-150.5 -35q-57 0 -111 12l27 168q10 -2 28 -2q41 0 63.5 25t53.5 86q63 129 103 178q73 86 172 98q-40 14 -66 43q-6 6 -11 12.5t-9 14.5t-7.5 13.5t-7 15t-5.5 14.5t-5 16.5t-4 15
t-4 16.5t-4 15q-3 11 -7 26.5t-6 23.5t-5 19t-5 16.5t-4.5 13.5t-4.5 12t-4.5 8.5t-5 7.5t-5.5 6q-23 19 -48 19q-20 0 -30 -2l26 159q44 9 80 9q101 0 142 -39q44 -38 61 -164q1 -4 3 -21t2.5 -22.5t3 -20.5t4 -21.5t4 -19.5t5.5 -20.5t6.5 -17t8.5 -17t10 -14.5
q38 -47 115 -47h63z" />
    <glyph glyph-name="uni0498" unicode="&#x498;" horiz-adv-x="1228" 
d="M381 989l-219 45q21 87 75 164t119 123q146 102 389 102q180 0 289 -63q162 -94 162 -279q0 -153 -109 -254q-60 -56 -161 -94v-4q93 -21 153 -90q72 -81 72 -201q0 -110 -54 -207t-153 -159q-116 -74 -274 -86l-47 -287h-238l47 287q-157 16 -270 123q-109 100 -137 258
l227 47q17 -75 78 -138q92 -92 237 -92q68 0 133.5 18.5t108.5 57.5q35 31 55.5 78t20.5 98q0 91 -62 144q-59 49 -202 49h-164l30 196h177q126 0 204 60q78 62 78 159q0 85 -57 130q-56 45 -168 45q-130 0 -221 -68q-84 -62 -119 -162z" />
    <glyph glyph-name="uni0499" unicode="&#x499;" horiz-adv-x="1044" 
d="M285 731l-199 37q16 64 63 122.5t103 94.5q128 80 330 80q148 0 237 -41q46 -21 78.5 -51t47 -63t20.5 -60t6 -55q0 -102 -66 -174q-60 -64 -137 -78l-2 -4q28 -6 53.5 -18.5t52.5 -35.5t43.5 -64t16.5 -95q0 -96 -45.5 -165t-108.5 -108q-97 -60 -223 -67l-45 -269h-217
l45 269q-86 11 -139 37q-76 35 -132 107.5t-63 166.5l203 39q8 -70 45 -115q58 -74 194 -74q104 0 168 50q64 54 64 133q0 61 -39 96q-45 39 -154 39h-125l25 151h137q93 0 133 25q30 16 50 49t20 74q0 23 -6.5 43.5t-23.5 43.5t-54 36.5t-90 13.5q-107 0 -182 -55
q-62 -47 -84 -115z" />
    <glyph glyph-name="uni049A" unicode="&#x49a;" horiz-adv-x="1282" 
d="M311 1405h258l-92 -578h125q124 0 191 80q34 40 118 207q27 53 41.5 79.5t40 67t51.5 67.5t56 46q67 43 174 43q38 0 90 -10l-31 -184q-28 4 -41 4q-41 0 -69.5 -18t-57.5 -74q-15 -29 -35 -75t-39.5 -85t-46.5 -82q-22 -34 -40 -56t-56.5 -48t-85.5 -37v-7
q59 -13 102.5 -50.5t67.5 -86.5q30 -62 55 -207q2 -10 5 -27t4.5 -24.5t4 -21t4 -19.5t4.5 -16t5.5 -15.5t5.5 -12.5t7 -12.5t8 -10.5q29 -33 88 -33h28l-86 -512h-237l53 317q-39 17 -63 62q-41 73 -66 227q-4 25 -11 67t-11 61.5t-10.5 45t-14.5 45.5q-15 38 -37 61.5
t-53 33t-53.5 12t-59.5 2.5h-158l-104 -631h-258z" />
    <glyph glyph-name="uni049B" unicode="&#x49b;" horiz-adv-x="1044" 
d="M393 627h92q71 0 109.5 27t69.5 81q22 37 45.5 87.5t44.5 88.5q44 81 96 110.5t133 29.5q45 0 98 -11l-26 -155q-8 2 -27 2q-42 0 -65 -21.5t-48 -77.5q-40 -92 -75 -143q-51 -69 -129 -86q53 -18 94 -72q28 -36 43 -84.5t31 -142.5q9 -49 26 -66q20 -18 56 -18h45
l-74 -455h-217l47 297q-44 29 -66 68.5t-37 120.5q-2 10 -6.5 35t-7.5 37.5t-7.5 32t-9.5 34.5t-12 29q-11 23 -25.5 39t-28 24.5t-34.5 12.5t-36 5t-41 1h-86l-74 -457h-238l172 1044h238z" />
    <glyph glyph-name="uni049C" unicode="&#x49c;" horiz-adv-x="1331" 
d="M311 1405h258l-92 -578h105l45 277h170l-45 -270q29 8 50 24t44 49q21 30 39 62.5t41.5 81t31.5 63.5q51 103 95.5 165.5t95.5 94.5q67 43 174 43q38 0 90 -10l-31 -184q-24 4 -39 4q-43 0 -70.5 -18t-55.5 -72q-12 -25 -34 -73.5t-43 -89.5t-46 -81q-37 -58 -79 -93.5
t-104 -47.5v-7q59 -13 102.5 -50.5t67.5 -86.5q35 -78 60 -239q15 -105 32 -138q26 -51 84 -47l31 2l-33 -186q-50 -12 -104 -12q-63 0 -108 18t-76 70q-37 59 -66 227q-2 14 -7 44.5t-7 43t-6.5 35t-8 35.5t-8 30t-10.5 31q-35 103 -135 105l-43 -260h-170l43 264h-105
l-104 -631h-258z" />
    <glyph glyph-name="uni049D" unicode="&#x49d;" horiz-adv-x="1085" 
d="M225 1044h238l-70 -417h86l29 178h119l-29 -180q30 5 55 27.5t54 76.5q24 44 46.5 96t41.5 86q44 81 96 110.5t133 29.5q45 0 98 -11l-26 -155q-8 2 -27 2q-42 0 -65 -21.5t-48 -77.5q-40 -92 -75 -143q-51 -69 -129 -86q53 -18 94 -72q21 -28 35.5 -66.5t20.5 -66
t18 -94.5q6 -31 16 -50.5t24 -28t26 -11t30 -2.5q23 0 33 2l-29 -166q-69 -12 -107 -12q-46 0 -81.5 13.5t-57 32.5t-37 50t-23 56.5t-14.5 62.5q-2 8 -8.5 42t-9.5 47.5t-10 37t-15 41.5q-31 69 -88 76l-32 -205h-119l35 211h-88l-74 -457h-238z" />
    <glyph glyph-name="uni04A0" unicode="&#x4a0;" horiz-adv-x="1470" 
d="M121 1405h637l-92 -578h125q123 0 190 80q36 43 119 207q28 55 41.5 80t39 66.5t51.5 68t56 45.5q67 43 174 43q38 0 90 -10l-30 -184q-24 4 -39 4q-43 0 -71 -18t-56 -72q-12 -25 -34 -73.5t-43 -89.5t-46 -81q-37 -58 -78.5 -93.5t-103.5 -47.5v-7q59 -13 102.5 -50.5
t67.5 -86.5q34 -69 59 -239q16 -105 28 -132q25 -52 87 -53q22 0 32 2l-32 -186q-50 -12 -105 -12q-63 0 -108 18t-76 70q-38 65 -66 227q-4 23 -11.5 67t-10.5 62.5t-10 44t-15 45.5q-15 38 -37 61.5t-52.5 33t-53 12t-59.5 2.5h-158l-105 -631h-258l197 1196h-381z" />
    <glyph glyph-name="uni04A1" unicode="&#x4a1;" horiz-adv-x="1191" 
d="M66 1044h544l-69 -417h92q71 0 109 27t69 81q22 37 45.5 87.5t44.5 88.5q44 81 96 110.5t133 29.5q46 0 99 -11l-27 -155q-8 2 -26 2q-42 0 -65 -21.5t-48 -77.5q-38 -88 -76 -143q-51 -69 -129 -86q53 -18 94 -72q21 -28 35.5 -66.5t20.5 -66t18 -94.5q6 -31 16 -50.5
t24 -28t26 -11t30 -2.5q23 0 33 2l-29 -166q-69 -12 -106 -12q-46 0 -81.5 13.5t-57 32.5t-37 50t-23 56.5t-14.5 62.5q-2 10 -6.5 35t-7.5 37.5t-7.5 32t-9.5 34.5t-12 29q-17 38 -45.5 57t-52.5 22t-68 3h-86l-74 -457h-237l143 872h-307z" />
    <glyph glyph-name="uni04A2" unicode="&#x4a2;" horiz-adv-x="1417" 
d="M311 1405h258l-92 -565h549l92 565h258l-196 -1196h147l-84 -512h-237l49 303h-166l104 631h-549l-104 -631h-258z" />
    <glyph glyph-name="uni04A3" unicode="&#x4a3;" horiz-adv-x="1171" 
d="M225 1044h238l-68 -411h398l67 411h238l-144 -868h123l-73 -455h-218l45 279h-143l74 457h-397l-74 -457h-238z" />
    <glyph glyph-name="uni04A4" unicode="&#x4a4;" horiz-adv-x="1851" 
d="M311 1405h258l-92 -565h549l92 565h877l-35 -209h-617l-196 -1196h-258l104 631h-549l-104 -631h-258z" />
    <glyph glyph-name="uni04A5" unicode="&#x4a5;" horiz-adv-x="1495" 
d="M225 1044h238l-68 -411h398l67 411h705l-29 -176h-467l-143 -868h-238l74 457h-397l-74 -457h-238z" />
    <glyph glyph-name="uni04AA" unicode="&#x4aa;" horiz-adv-x="1290" 
d="M1294 936l-233 -37q-4 126 -62 213q-72 109 -208 109q-176 0 -283 -187q-55 -95 -89 -237.5t-34 -266.5q0 -153 66 -243q78 -103 208 -103q131 0 222 99q73 82 106 198l227 -53q-52 -161 -155 -270q-127 -136 -293 -166l-47 -293h-238l47 291q-161 34 -270 155
q-68 78 -107.5 192.5t-39.5 252.5q0 156 51.5 320t144.5 280q189 235 486 235q239 0 374 -147q61 -68 93 -159.5t34 -182.5z" />
    <glyph glyph-name="uni04AB" unicode="&#x4ab;" horiz-adv-x="1036" 
d="M1012 686l-219 -37q4 90 -29 154q-42 90 -150 90q-161 0 -237 -205q-23 -59 -38 -140t-15 -149q0 -126 57 -186.5t139 -60.5q74 0 138.5 55.5t97.5 169.5l192 -66q-54 -132 -137 -211q-90 -88 -207 -110l-45 -273h-217l45 273q-82 17 -144 61.5t-98 107t-53.5 133
t-17.5 148.5q0 245 125 414q157 211 409 211q173 0 277 -96q55 -48 89.5 -121.5t37.5 -161.5z" />
    <glyph glyph-name="uni04AE" unicode="&#x4ae;" horiz-adv-x="1126" 
d="M119 1405h295l231 -586l428 586h234l-590 -813l-96 -592h-259l97 592z" />
    <glyph glyph-name="uni04AF" unicode="&#x4af;" horiz-adv-x="958" 
d="M82 1044h258l133 -751h4l371 751h192l-516 -1009l-59 -371h-238l62 371z" />
    <glyph glyph-name="uni04B0" unicode="&#x4b0;" horiz-adv-x="1126" 
d="M119 1405h295l231 -586l428 586h234l-590 -813h256l-27 -172h-258l-67 -420h-259l68 420h-254l27 172h256z" />
    <glyph glyph-name="uni04B1" unicode="&#x4b1;" horiz-adv-x="958" 
d="M82 1044h258l133 -751h4l371 751h192l-460 -892h196l-24 -152h-234l-53 -336h-238l56 336h-232l25 152h196z" />
    <glyph glyph-name="uni04B2" unicode="&#x4b2;" horiz-adv-x="1208" 
d="M180 1405h295l201 -473l356 473h246l-502 -651l242 -545h147l-84 -512h-237l49 303h-78l-237 547l-418 -547h-250l571 731z" />
    <glyph glyph-name="uni04B3" unicode="&#x4b3;" horiz-adv-x="962" 
d="M98 1044h279l143 -323l250 323h217l-379 -471l189 -397h123l-74 -455h-217l45 279h-72l-176 393l-311 -393h-217l442 545z" />
    <glyph glyph-name="uni04B6" unicode="&#x4b6;" horiz-adv-x="1306" 
d="M227 1405h254l-63 -393q-6 -37 -6 -76q0 -82 55 -117q50 -28 160 -28t282 20l99 594h258l-197 -1196h148l-84 -512h-238l49 303h-166l99 602q-160 -20 -302 -20q-139 0 -227 26q-103 32 -149.5 106t-46.5 169q0 39 12 129z" />
    <glyph glyph-name="uni04B7" unicode="&#x4b7;" horiz-adv-x="1036" 
d="M139 1044h238l-43 -262q-8 -58 -8 -82q0 -60 30 -84q34 -30 133 -30q89 0 162 12l74 446h238l-144 -868h123l-74 -455h-217l45 279h-143l70 426q-108 -12 -226 -12q-180 0 -250 75q-61 65 -61 191q0 44 10 102z" />
    <glyph glyph-name="uni04B8" unicode="&#x4b8;" horiz-adv-x="1273" 
d="M227 1405h254l-63 -393q-6 -37 -6 -76q0 -89 55 -125q47 -29 129 -29l43 262h170l-43 -258q61 2 143 17l99 602h258l-230 -1405h-258l99 602q-58 -12 -144 -16l-41 -250h-170l41 246q-133 0 -215 26q-59 18 -100.5 51.5t-61 74t-27 76t-7.5 73.5q0 39 12 129z" />
    <glyph glyph-name="uni04B9" unicode="&#x4b9;" horiz-adv-x="1032" 
d="M139 1044h238l-43 -262q-8 -58 -8 -86q0 -60 30 -88q31 -28 80 -28l33 194h119l-33 -194q50 0 102 10l76 454h238l-172 -1044h-238l70 426q-33 -4 -103 -8l-32 -203h-119l33 199q-184 -6 -263 75q-61 65 -61 191q0 44 10 102z" />
    <glyph glyph-name="uni04BA" unicode="&#x4ba;" horiz-adv-x="1228" 
d="M571 1405l-98 -604q145 45 313 45q224 0 320 -111q70 -84 70 -215q0 -46 -11 -121l-65 -399h-258l59 360q10 55 10 95q0 88 -55 135q-29 25 -76.5 38t-93.5 13q-123 0 -246 -45l-100 -596h-258l231 1405h258z" />
    <glyph glyph-name="uni04BB" unicode="&#x4bb;" horiz-adv-x="1187" 
d="M283 1405h237l-84 -528h4q29 47 80 92q110 96 254 96q124 0 205 -66q94 -77 94 -227q0 -21 -14 -133l-107 -639h-237l106 633q8 44 8 94q0 37 -5.5 62t-26.5 49q-41 47 -115 47q-128 0 -223 -148q-62 -96 -78 -200l-90 -537h-238z" />
    <glyph glyph-name="uni04C0" unicode="&#x4c0;" horiz-adv-x="524" 
d="M283 1405h237l-229 -1405h-238z" />
    <glyph glyph-name="uni04C3" unicode="&#x4c3;" horiz-adv-x="1282" 
d="M311 1405h258l-92 -578h125q124 0 191 80q34 40 118 207q27 53 41.5 79.5t40 67t51.5 67.5t56 46q67 43 174 43q38 0 90 -10l-31 -184q-24 4 -39 4q-43 0 -71 -18t-56 -72q-12 -25 -34 -73.5t-43 -89.5t-46 -81q-37 -58 -78.5 -93.5t-103.5 -47.5v-7q128 -30 180 -133
q32 -63 60 -180q49 -203 49 -330q0 -200 -111 -329q-118 -131 -315 -131q-67 0 -119 12l31 184q31 -8 68 -8q94 0 139 53q49 56 49 185q0 81 -39 264l-23 106q-22 108 -65 148q-30 29 -68.5 37t-95.5 8h-158l-104 -631h-258z" />
    <glyph glyph-name="uni04C4" unicode="&#x4c4;" horiz-adv-x="1044" 
d="M225 1044h238l-70 -417h92q71 0 109.5 27t69.5 81q22 37 45.5 87.5t44.5 88.5q44 81 96 110.5t133 29.5q45 0 98 -11l-26 -155q-8 2 -27 2q-42 0 -65 -21.5t-48 -77.5q-40 -92 -75 -143q-51 -69 -129 -86q112 -30 174 -133q36 -61 58 -152.5t22 -177.5q0 -195 -111 -323
q-112 -131 -315 -131q-65 0 -117 12l29 176q36 -8 86 -8q95 0 141 55q53 64 53 232q0 80 -23.5 157.5t-66.5 126.5q-34 39 -68.5 50.5t-87.5 11.5h-120l-74 -455h-238z" />
    <glyph glyph-name="uni04C7" unicode="&#x4c7;" horiz-adv-x="1384" 
d="M311 1405h258l-92 -565h549l92 565h258l-229 -1405q-24 -156 -115 -244q-57 -55 -146 -84.5t-188 -29.5q-52 0 -110 12l33 201q65 -9 98 -9q85 0 131 58q30 39 43 121l100 606h-549l-104 -631h-258z" />
    <glyph glyph-name="uni04C8" unicode="&#x4c8;" horiz-adv-x="1159" 
d="M225 1044h238l-68 -411h398l67 411h238l-168 -1013q-33 -208 -133 -301q-95 -88 -265 -88q-69 0 -161 18l30 184q54 -16 103 -16q87 0 131 53q43 52 57 144l70 432h-397l-74 -457h-238z" />
    <glyph glyph-name="uni04D0" unicode="&#x4d0;" horiz-adv-x="1200" 
d="M608 1405h287l231 -1405h-274l-57 365h-459l-172 -365h-225zM418 561h358l-88 582zM422 1755h205q-5 -49 30 -84q39 -39 107 -39q80 0 125 39q34 31 47 84h207q-27 -120 -127 -190q-109 -76 -266 -76q-163 0 -250 78q-81 77 -78 188z" />
    <glyph glyph-name="uni04D1" unicode="&#x4d1;" horiz-adv-x="1126" 
d="M346 748l-196 67q39 85 108 143q130 107 352 107q201 0 305 -76q113 -85 113 -246q0 -64 -41 -290q-5 -30 -13.5 -76.5t-12.5 -68t-10 -55.5t-8.5 -51t-6 -42.5t-4.5 -41.5t-2 -37.5t-1 -40.5t1 -40h-234q-6 101 17 190h-4q-49 -76 -107 -122q-106 -88 -256 -88
q-78 0 -140 27.5t-98.5 72.5t-55.5 97.5t-19 107.5q0 163 137 262q148 108 502 108q34 0 104 -4q15 67 15 97q0 77 -50 116q-45 37 -143 37q-99 0 -172 -55q-54 -42 -80 -98zM754 504q-37 4 -109 4q-192 0 -274 -51q-92 -54 -92 -156q0 -70 43 -109.5t110 -39.5
q150 0 244 149q58 87 78 203zM354 1409h183q0 -49 22 -80q30 -39 96 -39q54 0 93 39q32 34 40 80h189q-23 -114 -119 -182q-90 -64 -225 -64q-55 0 -114 16.5t-95 51.5q-32 30 -51 77.5t-19 100.5z" />
    <glyph glyph-name="uni04D2" unicode="&#x4d2;" horiz-adv-x="1200" 
d="M608 1405h287l231 -1405h-274l-57 365h-459l-172 -365h-225zM418 561h358l-88 582zM698 1718l-32 -200h-205l33 200h204zM1104 1718l-33 -200h-205l33 200h205z" />
    <glyph glyph-name="uni04D3" unicode="&#x4d3;" horiz-adv-x="1126" 
d="M346 748l-196 67q39 85 108 143q130 107 352 107q201 0 305 -76q113 -85 113 -246q0 -64 -41 -290q-5 -30 -13.5 -76.5t-12.5 -68t-10 -55.5t-8.5 -51t-6 -42.5t-4.5 -41.5t-2 -37.5t-1 -40.5t1 -40h-234q-6 101 17 190h-4q-49 -76 -107 -122q-106 -88 -256 -88
q-78 0 -140 27.5t-98.5 72.5t-55.5 97.5t-19 107.5q0 163 137 262q148 108 502 108q34 0 104 -4q15 67 15 97q0 77 -50 116q-45 37 -143 37q-99 0 -172 -55q-54 -42 -80 -98zM754 504q-37 4 -109 4q-192 0 -274 -51q-92 -54 -92 -156q0 -70 43 -109.5t110 -39.5
q150 0 244 149q58 87 78 203zM375 1409h205l-33 -201h-205zM766 1409h205l-33 -201h-205z" />
    <glyph glyph-name="uni04D4" unicode="&#x4d4;" horiz-adv-x="1871" 
d="M905 1405h1049l-35 -209h-680l-59 -369h540l-32 -196h-541l-68 -422h697l-35 -209h-955l62 383h-432l-273 -383h-237zM541 580h340l102 616z" />
    <glyph glyph-name="uni04D5" unicode="&#x4d5;" horiz-adv-x="1794" 
d="M346 748l-196 67q39 85 108 143q131 107 369 107q149 0 223.5 -33.5t116.5 -87.5q123 121 319 121q190 0 301 -104q133 -125 133 -367q0 -64 -8 -113h-745q-4 -40 -4 -63q0 -107 43 -172q62 -94 196 -94q108 0 176 65q47 44 80 115l207 -66q-63 -120 -166 -192
q-131 -94 -317 -94q-296 0 -410 235q-162 -235 -426 -235q-78 0 -140 27t-98.5 72t-55.5 97.5t-19 108.5q0 163 137 262q85 59 207 82t295 26h104q15 63 15 93q0 77 -50 116q-45 37 -143 37q-99 0 -172 -55q-54 -42 -80 -98zM754 508q0 2 -54 1t-55 -1q-193 -4 -274 -51
q-92 -54 -92 -156q0 -62 39 -105.5t114 -43.5q72 0 142.5 37.5t113.5 111.5q48 79 66 207zM991 637h492q2 12 2 35q0 95 -45 155q-26 34 -70.5 54t-95.5 20q-103 0 -182 -70q-83 -77 -101 -194z" />
    <glyph glyph-name="uni04D6" unicode="&#x4d6;" horiz-adv-x="1167" 
d="M311 1405h938l-35 -209h-679l-60 -369h541l-33 -196h-541l-67 -422h696l-35 -209h-954zM451 1755h204q-5 -48 31 -84q39 -39 107 -39q80 0 125 39q34 31 47 84h206q-27 -120 -127 -190q-109 -76 -266 -76q-163 0 -250 78q-80 76 -77 188z" />
    <glyph glyph-name="uni04D7" unicode="&#x4d7;" horiz-adv-x="1150" 
d="M1069 481h-745q-5 -50 -5 -63q0 -107 43 -172q62 -94 197 -94q108 0 176 65q47 44 80 115l207 -66q-63 -120 -166 -192q-134 -94 -317 -94q-219 0 -346 139q-119 132 -119 338q0 141 49 262t131 201q150 145 377 145q200 0 313 -104q133 -125 133 -367q0 -64 -8 -113z
M348 637h492q2 12 2 35q0 95 -45 155q-26 34 -70.5 54t-95.5 20q-103 0 -182 -70q-83 -77 -101 -194zM367 1409h182q0 -49 22 -80q30 -39 97 -39q53 0 92 39q33 36 41 80h188q-23 -114 -119 -182q-90 -64 -225 -64q-55 0 -114 16.5t-95 51.5q-31 30 -50 77.5t-19 100.5z" />
    <glyph glyph-name="uni04D8" unicode="&#x4d8;" horiz-adv-x="1355" 
d="M440 961l-233 40q20 58 49 110t58 87.5t45.5 53t31.5 30.5q162 143 418 143q273 0 399 -180q51 -72 75 -170t24 -198q0 -139 -39 -303t-109 -287q-44 -78 -100.5 -135.5t-110 -89.5t-117.5 -51.5t-115 -25t-110 -5.5q-103 0 -183.5 24t-152.5 92q-159 147 -159 430
q0 87 16 185l10 61h887q14 63 14 137q0 143 -51 215q-66 97 -209 97q-127 0 -221 -84q-77 -68 -117 -176zM999 571h-634q-5 -62 -5 -75q0 -133 54 -209q74 -103 221 -103q164 0 270 150q77 108 94 237z" />
    <glyph glyph-name="afii10846" unicode="&#x4d9;" horiz-adv-x="1150" 
d="M82 563h745q4 40 4 64q0 107 -43 172q-62 94 -196 94q-107 0 -176 -66q-48 -44 -80 -114l-207 65q64 122 166 193q134 94 317 94q219 0 346 -139q119 -132 119 -338q0 -141 -49 -262t-131 -201q-150 -145 -377 -145q-200 0 -313 104q-133 125 -133 367q0 63 8 112z
M803 408h-492q-2 -12 -2 -35q0 -96 45 -156q26 -34 70.5 -54t95.5 -20q103 0 182 70q83 76 101 195z" />
    <glyph glyph-name="uni04DA" unicode="&#x4da;" horiz-adv-x="1355" 
d="M440 961l-233 40q20 58 49 110t58 87.5t45.5 53t31.5 30.5q162 143 418 143q273 0 399 -180q51 -72 75 -170t24 -198q0 -139 -39 -303t-109 -287q-44 -78 -100.5 -135.5t-110 -89.5t-117.5 -51.5t-115 -25t-110 -5.5q-103 0 -183.5 24t-152.5 92q-159 147 -159 430
q0 87 16 185l10 61h887q14 63 14 137q0 143 -51 215q-66 97 -209 97q-127 0 -221 -84q-77 -68 -117 -176zM999 571h-634q-5 -62 -5 -75q0 -133 54 -209q74 -103 221 -103q164 0 270 150q77 108 94 237zM760 1718l-33 -200h-205l33 200h205zM1165 1718l-32 -200h-205l33 200
h204z" />
    <glyph glyph-name="uni04DB" unicode="&#x4db;" horiz-adv-x="1150" 
d="M82 563h745q4 40 4 64q0 107 -43 172q-62 94 -196 94q-107 0 -176 -66q-48 -44 -80 -114l-207 65q64 122 166 193q134 94 317 94q219 0 346 -139q119 -132 119 -338q0 -141 -49 -262t-131 -201q-150 -145 -377 -145q-200 0 -313 104q-133 125 -133 367q0 63 8 112z
M803 408h-492q-2 -12 -2 -35q0 -96 45 -156q26 -34 70.5 -54t95.5 -20q103 0 182 70q83 76 101 195zM383 1409h205l-33 -201h-205zM774 1409h205l-33 -201h-205z" />
    <glyph glyph-name="uni04DC" unicode="&#x4dc;" horiz-adv-x="1810" 
d="M942 1405h246l-94 -578h67q47 0 83 15t69 53t55.5 75t61.5 109q16 31 37 71t31 59t23.5 42t26.5 43q45 66 101 94.5t149 28.5q50 0 94 -12l-30 -184q-6 2 -21 2q-19 0 -35.5 -3t-31 -11t-25.5 -14.5t-23 -22t-19.5 -25t-19 -31.5t-17 -32.5t-18 -38t-18.5 -39.5
q-63 -135 -127 -191q-52 -45 -118 -59v-6q92 -28 139 -78q19 -20 34.5 -47t24.5 -49.5t17.5 -61t12 -59.5t10 -67.5t9.5 -63.5q13 -82 41.5 -112t79.5 -30q17 0 25 2l-31 -184q-37 -12 -86 -12q-82 0 -133.5 19t-87.5 85q-22 40 -35 102.5t-39 229.5q-6 37 -10 57.5
t-18 52.5t-35 52q-23 22 -56 32.5t-52.5 11.5t-61.5 1h-76l-105 -631h-245l104 631h-45h-22h-25t-24 -1t-26.5 -2.5t-25.5 -4.5t-28 -7.5t-26 -11.5t-26 -16q-58 -41 -104 -144q-22 -48 -50 -117.5t-53 -117.5q-19 -36 -37 -64t-47.5 -59t-62.5 -51t-80.5 -33.5
t-103.5 -13.5q-49 0 -90 12l30 184q8 -2 23 -2q44 0 82 41q34 34 90 154q7 15 24.5 53t25.5 55.5t25 49.5t31 51.5t34.5 43t43.5 42.5q79 65 193 78v6q-56 17 -97 61q-47 54 -77 184q-5 20 -14 57t-12 50t-9.5 33t-12 30t-12.5 19q-27 33 -78 33q-22 0 -32 -2l30 184
q35 12 86 12q27 0 44.5 -1t43.5 -7.5t44 -18.5t37.5 -35.5t33.5 -56.5q6 -13 11.5 -31t9.5 -35l14 -59.5t20 -80.5q29 -127 62 -185q26 -46 58.5 -63t92.5 -17h64zM1006 1718l-33 -200h-205l33 200h205zM1411 1718l-33 -200h-204l32 200h205z" />
    <glyph glyph-name="uni04DD" unicode="&#x4dd;" horiz-adv-x="1474" 
d="M721 1044h221l-70 -417h62q47 0 83.5 19.5t53 41t33.5 53.5q12 22 47 96t59 109q42 63 92 84t123 21q49 0 86 -9l-26 -159q-10 2 -29 2q-23 0 -38.5 -5t-27 -18t-16.5 -22t-14 -29q-5 -10 -18.5 -39.5t-21 -45t-20.5 -39t-26 -42.5q-26 -38 -59.5 -59.5t-84.5 -24.5
q34 -9 64 -29q49 -36 76 -98q20 -45 41 -162q8 -37 17.5 -59t24 -30t22 -9.5t26.5 -1.5h24l-26 -168q-49 -12 -103 -12q-95 0 -143 65q-33 48 -61 199q-20 132 -62 170q-38 33 -110 33h-74l-76 -459h-221l76 459h-70q-50 0 -89.5 -15.5t-76.5 -66.5q-31 -43 -68 -130.5
t-55 -119.5q-36 -65 -86.5 -100t-150.5 -35q-57 0 -111 12l27 168q10 -2 28 -2q41 0 63.5 25t53.5 86q63 129 103 178q73 86 172 98q-40 14 -66 43q-6 6 -11 12.5t-9 14.5t-7.5 13.5t-7 15t-5.5 14.5t-5 16.5t-4 15t-4 16.5t-4 15q-3 11 -7 26.5t-6 23.5t-5 19t-5 16.5
t-4.5 13.5t-4.5 12t-4.5 8.5t-5 7.5t-5.5 6q-23 19 -48 19q-20 0 -30 -2l26 159q44 9 80 9q101 0 142 -39q44 -38 61 -164q1 -4 3 -21t2.5 -22.5t3 -20.5t4 -21.5t4 -19.5t5.5 -20.5t6.5 -17t8.5 -17t10 -14.5q38 -47 115 -47h63zM580 1409h204l-32 -201h-205zM971 1409h205
l-33 -201h-205z" />
    <glyph glyph-name="uni04DE" unicode="&#x4de;" horiz-adv-x="1228" 
d="M381 989l-219 45q21 87 75 164t119 123q146 102 389 102q180 0 289 -63q162 -94 162 -279q0 -153 -109 -254q-60 -56 -161 -94v-4q93 -21 153 -90q72 -81 72 -201q0 -110 -54 -207t-153 -159q-145 -92 -397 -92q-119 0 -211 25.5t-174 103.5q-110 105 -137 258l227 47
q17 -75 78 -138q89 -92 239 -92q66 0 131.5 18.5t108.5 57.5q35 31 55.5 78t20.5 98q0 91 -62 144q-59 49 -202 49h-164l30 196h177q126 0 204 60q78 62 78 159q0 85 -57 130q-56 45 -168 45q-130 0 -221 -68q-84 -62 -119 -162zM698 1718l-32 -200h-205l33 200h204z
M1104 1718l-33 -200h-205l33 200h205z" />
    <glyph glyph-name="uni04DF" unicode="&#x4df;" horiz-adv-x="1044" 
d="M285 731l-199 37q16 64 63 122.5t103 94.5q128 80 330 80q148 0 237 -41q46 -21 78.5 -51t47 -63t20.5 -60t6 -55q0 -102 -66 -174q-60 -64 -137 -78l-2 -4q28 -6 53.5 -18.5t52.5 -35.5t43.5 -64t16.5 -95q0 -96 -45.5 -165t-108.5 -108q-117 -73 -327 -73
q-165 0 -252 43q-76 35 -132 107.5t-63 166.5l203 39q8 -70 45 -115q58 -74 194 -74q104 0 168 50q64 51 64 129q0 64 -39 100q-43 39 -154 39h-125l25 151h137q93 0 133 25q30 16 50 49t20 74q0 23 -6.5 43.5t-23.5 43.5t-54 36.5t-90 13.5q-107 0 -182 -55
q-62 -47 -84 -115zM346 1409h205l-33 -201h-205zM737 1409h205l-33 -201h-204z" />
    <glyph glyph-name="uni04E2" unicode="&#x4e2;" horiz-adv-x="1396" 
d="M311 1405h256l-135 -834q-4 -30 -29 -127h5q27 55 59 93l651 776l12 92h259l-230 -1405h-258l139 850q14 78 27 125h-4q-25 -44 -62 -88l-641 -770l-20 -117h-258zM1198 1645l-20 -132h-648l21 132h647z" />
    <glyph glyph-name="uni04E3" unicode="&#x4e3;" horiz-adv-x="1159" 
d="M225 1044h238l-90 -544q-8 -51 -33 -123h4q41 59 64 84l438 500l14 83h238l-172 -1044h-238l92 561q9 48 25 111h-4q-21 -36 -66 -86l-428 -492l-16 -94h-238zM377 1425h647l-20 -129h-648z" />
    <glyph glyph-name="uni04E4" unicode="&#x4e4;" horiz-adv-x="1396" 
d="M311 1405h256l-135 -834q-4 -30 -29 -127h5q27 55 59 93l651 776l12 92h259l-230 -1405h-258l139 850q14 78 27 125h-4q-25 -44 -62 -88l-641 -770l-20 -117h-258zM801 1718l-33 -200h-205l33 200h205zM1206 1718l-32 -200h-205l32 200h205z" />
    <glyph glyph-name="uni04E5" unicode="&#x4e5;" horiz-adv-x="1159" 
d="M225 1044h238l-90 -544q-8 -51 -33 -123h4q41 59 64 84l438 500l14 83h238l-172 -1044h-238l92 561q9 48 25 111h-4q-21 -36 -66 -86l-428 -492l-16 -94h-238zM416 1409h205l-33 -201h-205zM807 1409h205l-33 -201h-205z" />
    <glyph glyph-name="uni04E6" unicode="&#x4e6;" horiz-adv-x="1392" 
d="M807 1425q193 0 323 -98q213 -164 213 -498q0 -163 -49 -328.5t-135 -277.5q-186 -243 -510 -243q-253 0 -397 163q-141 158 -141 435q0 258 100 469q181 378 596 378zM784 1221q-224 0 -327 -269q-32 -85 -52 -192t-20 -205q0 -157 55 -248q77 -123 230 -123
q61 0 112.5 20.5t85 49.5t62.5 73t44 77.5t30 76.5q65 189 65 383q0 147 -61 242q-74 115 -224 115zM772 1718l-33 -200h-204l32 200h205zM1178 1718l-33 -200h-205l33 200h205z" />
    <glyph glyph-name="uni04E7" unicode="&#x4e7;" horiz-adv-x="1134" 
d="M618 1065q202 0 318 -121q125 -131 125 -344q0 -255 -160 -440q-158 -180 -395 -180q-187 0 -307 120q-125 128 -125 346q0 96 21 181.5t54.5 144.5t56.5 89.5t46 53.5q148 150 366 150zM621 893q-118 0 -197 -107q-49 -65 -74.5 -164t-25.5 -208q0 -124 47 -189
q53 -73 149 -73q153 0 230 180q28 65 44.5 150.5t16.5 152.5q0 122 -51 190q-52 68 -139 68zM375 1409h205l-33 -201h-205zM766 1409h205l-33 -201h-205z" />
    <glyph glyph-name="uni04E8" unicode="&#x4e8;" horiz-adv-x="1392" 
d="M807 1425q193 0 323 -98q213 -164 213 -498q0 -163 -49 -328.5t-135 -277.5q-186 -243 -510 -243q-253 0 -397 163q-141 158 -141 435q0 258 100 469q181 378 596 378zM418 827h651v37q-4 157 -61 242q-74 115 -224 115q-154 0 -256 -134q-81 -111 -110 -260zM1042 623
h-655q-2 -23 -2 -68q0 -159 55 -248q77 -123 230 -123q61 0 112.5 20.5t85 49.5t62.5 73t44 77.5t30 76.5q25 69 38 142z" />
    <glyph glyph-name="uni04E9" unicode="&#x4e9;" horiz-adv-x="1134" 
d="M618 1065q202 0 318 -121q125 -131 125 -344q0 -255 -160 -440q-158 -180 -395 -180q-187 0 -307 120q-125 128 -125 346q0 96 21 181.5t54.5 144.5t56.5 89.5t46 53.5q148 150 366 150zM348 621h463v18q0 119 -51 186q-52 68 -139 68q-114 0 -197 -107q-55 -72 -76 -165
zM788 457h-462q-2 -14 -2 -45q0 -121 47 -187q53 -73 149 -73q47 0 87 18t67.5 47.5t45 57t30.5 57.5q25 58 38 125z" />
    <glyph glyph-name="uni04EA" unicode="&#x4ea;" horiz-adv-x="1392" 
d="M807 1425q193 0 323 -98q213 -164 213 -498q0 -163 -49 -328.5t-135 -277.5q-186 -243 -510 -243q-253 0 -397 163q-141 158 -141 435q0 258 100 469q181 378 596 378zM418 827h651v37q-4 157 -61 242q-74 115 -224 115q-154 0 -256 -134q-81 -111 -110 -260zM1042 623
h-655q-2 -23 -2 -68q0 -159 55 -248q77 -123 230 -123q61 0 112.5 20.5t85 49.5t62.5 73t44 77.5t30 76.5q25 69 38 142zM772 1718l-33 -200h-204l32 200h205zM1178 1718l-33 -200h-205l33 200h205z" />
    <glyph glyph-name="uni04EB" unicode="&#x4eb;" horiz-adv-x="1134" 
d="M618 1065q202 0 318 -121q125 -131 125 -344q0 -255 -160 -440q-158 -180 -395 -180q-187 0 -307 120q-125 128 -125 346q0 96 21 181.5t54.5 144.5t56.5 89.5t46 53.5q148 150 366 150zM348 621h463v18q0 119 -51 186q-52 68 -139 68q-114 0 -197 -107q-55 -72 -76 -165
zM788 457h-462q-2 -14 -2 -45q0 -121 47 -187q53 -73 149 -73q47 0 87 18t67.5 47.5t45 57t30.5 57.5q25 58 38 125zM375 1409h205l-33 -201h-205zM766 1409h205l-33 -201h-205z" />
    <glyph glyph-name="uni04EE" unicode="&#x4ee;" horiz-adv-x="1146" 
d="M131 1405h291l221 -752h6l420 752h246l-588 -1024q-63 -109 -111 -177.5t-108 -119.5q-118 -102 -283 -102q-75 0 -155 18l32 205q55 -17 115 -17q95 0 158 54q55 46 94 129zM1116 1645l-20 -132h-647l20 132h647z" />
    <glyph glyph-name="uni04EF" unicode="&#x4ef;" horiz-adv-x="942" 
d="M82 1044h258l127 -720l360 720h197l-586 -1132q-74 -140 -147 -197q-58 -47 -116 -62t-128 -15q-68 0 -149 18l30 182q62 -16 121 -16q84 0 133 35q28 20 56.5 60t40.5 75l12 35zM295 1425h647l-20 -129h-648z" />
    <glyph glyph-name="uni04F0" unicode="&#x4f0;" horiz-adv-x="1146" 
d="M131 1405h291l221 -752h6l420 752h246l-588 -1024q-63 -109 -111 -177.5t-108 -119.5q-118 -102 -283 -102q-75 0 -155 18l32 205q55 -17 115 -17q95 0 158 54q55 46 94 129zM690 1718l-33 -200h-204l32 200h205zM1096 1718l-33 -200h-205l33 200h205z" />
    <glyph glyph-name="uni04F1" unicode="&#x4f1;" horiz-adv-x="942" 
d="M82 1044h258l127 -720l360 720h197l-586 -1132q-74 -140 -147 -197q-58 -47 -116 -62t-128 -15q-68 0 -149 18l30 182q62 -16 121 -16q84 0 133 35q28 20 56.5 60t40.5 75l12 35zM342 1409h205l-33 -201h-205zM733 1409h205l-33 -201h-205z" />
    <glyph glyph-name="uni04F2" unicode="&#x4f2;" horiz-adv-x="1146" 
d="M131 1405h291l221 -752h6l420 752h246l-588 -1024q-63 -109 -111 -177.5t-108 -119.5q-118 -102 -283 -102q-75 0 -155 18l32 205q55 -17 115 -17q95 0 158 54q55 46 94 129zM829 1976l119 -123l-420 -321l-86 82zM1186 1976l119 -123l-420 -321l-86 82z" />
    <glyph glyph-name="uni04F3" unicode="&#x4f3;" horiz-adv-x="942" 
d="M82 1044h258l127 -720l360 720h197l-586 -1132q-74 -140 -147 -197q-58 -47 -116 -62t-128 -15q-68 0 -149 18l30 182q62 -16 121 -16q84 0 133 35q28 20 56.5 60t40.5 75l12 35zM608 1630l119 -123l-420 -321l-88 82zM965 1630l118 -123l-419 -321l-89 82z" />
    <glyph glyph-name="uni04F4" unicode="&#x4f4;" horiz-adv-x="1273" 
d="M227 1405h254l-63 -393q-6 -37 -6 -76q0 -82 55 -117q50 -28 160 -28t282 20l99 594h258l-230 -1405h-258l99 602q-160 -20 -302 -20q-139 0 -227 26q-103 32 -149.5 106t-46.5 169q0 39 12 129zM698 1718l-32 -200h-205l33 200h204zM1104 1718l-33 -200h-205l33 200h205
z" />
    <glyph glyph-name="uni04F5" unicode="&#x4f5;" horiz-adv-x="1024" 
d="M139 1044h238l-43 -262q-8 -58 -8 -82q0 -60 30 -84q34 -30 133 -30q89 0 162 12l74 446h238l-172 -1044h-238l70 426q-108 -12 -226 -12q-180 0 -250 75q-61 65 -61 191q0 44 10 102zM313 1409h205l-33 -201h-204zM705 1409h204l-32 -201h-205z" />
    <glyph glyph-name="uni04F8" unicode="&#x4f8;" horiz-adv-x="1740" 
d="M311 1405h258l-94 -576h297q91 0 167.5 -17t139.5 -69q113 -95 113 -270q0 -235 -166 -369q-79 -63 -165 -83.5t-189 -20.5h-590zM442 625l-69 -420h258q136 0 205 53q92 69 92 201q0 86 -60 129q-56 37 -168 37h-258zM1475 1405h258l-230 -1405h-258zM965 1718l-33 -200
h-205l33 200h205zM1370 1718l-33 -200h-204l32 200h205z" />
    <glyph glyph-name="uni04F9" unicode="&#x4f9;" horiz-adv-x="1474" 
d="M225 1044h238l-66 -395h226q166 0 247 -59q97 -70 97 -215q0 -89 -37.5 -171.5t-106.5 -133.5q-42 -32 -93.5 -48t-86.5 -19t-92 -3h-498zM373 498l-54 -326h187q53 0 88.5 9t67.5 40q55 55 55 141q0 77 -51 111q-36 25 -113 25h-180zM1176 1044h237l-172 -1044h-237z
M571 1409h205l-33 -201h-204zM963 1409h204l-32 -201h-205z" />
    <glyph glyph-name="uni1E9E" unicode="&#x1e9e;" horiz-adv-x="1298" 
d="M82 0l156 952q36 236 182 357q141 116 375 116q289 0 426 -165l-263 -449q125 -17 203 -106q84 -98 84 -250q0 -99 -34.5 -184.5t-94.5 -145.5q-143 -145 -414 -145q-119 0 -237 26l70 195q70 -17 143 -17q155 0 240 72q69 62 69 170q0 86 -45 137q-59 68 -190 68h-168
l323 545q-57 41 -151 41q-44 0 -91 -17.5t-81 -48.5q-66 -64 -88 -197l-156 -954h-258z" />
    <glyph glyph-name="uni2010" unicode="&#x2010;" horiz-adv-x="544" 
d="M522 635l-33 -193h-462l32 193h463z" />
    <glyph glyph-name="uni2011" unicode="&#x2011;" horiz-adv-x="544" 
d="M522 635l-33 -193h-462l32 193h463z" />
    <glyph glyph-name="figuredash" unicode="&#x2012;" horiz-adv-x="1310" 
d="M1200 799l-29 -172h-1028l29 172h1028z" />
    <glyph glyph-name="endash" unicode="&#x2013;" horiz-adv-x="1310" 
d="M1200 625l-29 -172h-1028l29 172h1028z" />
    <glyph glyph-name="emdash" unicode="&#x2014;" horiz-adv-x="2129" 
d="M2019 625l-28 -172h-1848l29 172h1847z" />
    <glyph glyph-name="quoteleft" unicode="&#x2018;" horiz-adv-x="563" 
d="M217 901l37 223l213 281h104l-168 -258h107l-41 -246h-252z" />
    <glyph glyph-name="quoteright" unicode="&#x2019;" horiz-adv-x="563" 
d="M551 1405l-37 -223l-213 -281h-104l168 258h-107l41 246h252z" />
    <glyph glyph-name="quotesinglbase" unicode="&#x201a;" horiz-adv-x="563" 
d="M362 246l-36 -223l-213 -281h-105l168 258h-106l41 246h251z" />
    <glyph glyph-name="quotedblleft" unicode="&#x201c;" horiz-adv-x="909" 
d="M563 901l37 223l213 281h105l-168 -258h106l-41 -246h-252zM217 901l37 223l213 281h104l-168 -258h107l-41 -246h-252z" />
    <glyph glyph-name="quotedblright" unicode="&#x201d;" horiz-adv-x="909" 
d="M551 1405l-37 -223l-213 -281h-104l168 258h-107l41 246h252zM897 1405l-37 -223l-213 -281h-104l168 258h-107l41 246h252z" />
    <glyph glyph-name="quotedblbase" unicode="&#x201e;" horiz-adv-x="909" 
d="M362 246l-36 -223l-213 -281h-105l168 258h-106l41 246h251zM709 246l-37 -223l-213 -281h-105l168 258h-106l41 246h252z" />
    <glyph glyph-name="dagger" unicode="&#x2020;" horiz-adv-x="1171" 
d="M739 1380l135 25l-151 -426l448 78l-41 -115l3 -115l-424 60q18 -34 73 -101q-70 -158 -141 -452q-76 -306 -119 -576l-16 -102h-98l18 102q28 151 55 413.5t27 408.5q0 41 -6 206q18 15 31.5 28t34 33t42.5 40l-446 -60l41 115l-4 115l424 -78l-15 426z" />
    <glyph glyph-name="daggerdbl" unicode="&#x2021;" horiz-adv-x="1171" 
d="M754 1374l125 31l-131 -375l448 80l-39 -117l2 -119l-424 68l27 -113l-66 -122l447 77l-41 -116l4 -117l-426 65q26 -43 76 -90q-56 -142 -107 -321q-74 -263 -114 -479l-13 -70h-98l8 70q62 535 41 800q49 31 105 90l-445 -65l39 117l-2 116l422 -77l-25 122l64 113
l-445 -68l41 119l-4 117l422 -80l-8 375z" />
    <glyph glyph-name="bullet" unicode="&#x2022;" horiz-adv-x="1308" 
d="M430 702q0 109 75.5 185t184.5 76t184.5 -76t75.5 -185t-75.5 -184.5t-184.5 -75.5t-184.5 75.5t-75.5 184.5z" />
    <glyph glyph-name="ellipsis" unicode="&#x2026;" horiz-adv-x="2113" 
d="M459 279l-45 -279h-283l45 279h283zM1163 279l-45 -279h-282l45 279h282zM1868 279l-45 -279h-283l45 279h283z" />
    <glyph glyph-name="perthousand" unicode="&#x2030;" horiz-adv-x="2441" 
d="M1348 1405h163l-1024 -1405h-163zM653 1419q104 0 176 -66.5t72 -207.5q0 -96 -31.5 -190t-83.5 -156q-93 -113 -233 -113q-115 0 -186.5 72.5t-71.5 214.5q0 206 115 334q101 112 243 112zM641 1288q-99 0 -149 -125q-37 -92 -37 -202q0 -78 34 -111t76 -33
q95 0 142 127q34 90 34 213q0 131 -100 131zM1292 721q104 0 176 -67t72 -208q0 -96 -31.5 -190t-83.5 -156q-92 -112 -233 -112q-115 0 -186.5 72.5t-71.5 213.5q0 206 115 334q102 113 243 113zM1280 590q-100 0 -150 -125q-36 -89 -36 -203q0 -78 34 -110.5t76 -32.5
q95 0 142 127q34 90 34 213q0 131 -100 131zM1980 721q104 0 176 -67t72 -208q0 -96 -31.5 -190t-82.5 -156q-92 -112 -234 -112q-115 0 -186.5 72.5t-71.5 213.5q0 206 115 334q102 113 243 113zM1968 590q-99 0 -149 -125q-37 -92 -37 -203q0 -78 34 -110.5t76 -32.5
q95 0 142 127q34 90 34 213q0 131 -100 131z" />
    <glyph glyph-name="guilsinglleft" unicode="&#x2039;" horiz-adv-x="462" 
d="M262 524l62 -295h-109l-133 295l225 295h107z" />
    <glyph glyph-name="guilsinglright" unicode="&#x203a;" horiz-adv-x="462" 
d="M221 524l-61 295h108l133 -295l-225 -295h-106z" />
    <glyph glyph-name="fraction" unicode="&#x2044;" horiz-adv-x="274" 
d="M-270 0h-172l1077 1405h172z" />
    <glyph glyph-name="uni2081" unicode="&#x2081;" horiz-adv-x="798" 
d="M487 848h136l-119 -717h237l-20 -131h-660l21 131h250l90 543q-116 -96 -252 -137l20 129q168 62 297 182z" />
    <glyph glyph-name="uni2082" unicode="&#x2082;" horiz-adv-x="798" 
d="M279 561l-132 45q35 112 105 174q87 76 225 76q115 0 187 -47q94 -62 94 -193q0 -97 -47 -165.5t-138 -133.5q-122 -90 -319 -188h428l-23 -129h-610l21 131q259 157 356 227q170 121 170 248q0 56 -35 90.5t-96 34.5q-88 0 -135 -59q-37 -44 -51 -111z" />
    <glyph glyph-name="uni2083" unicode="&#x2083;" horiz-adv-x="798" 
d="M274 629l-108 47q26 58 82 104q94 76 229 76q123 0 191 -55q73 -58 73 -158q0 -96 -63 -151q-51 -44 -113 -56l2 -2q56 -17 90 -51q50 -50 50 -127q0 -62 -26.5 -116t-70.5 -87q-80 -63 -223 -63q-138 0 -221 63q-78 59 -105 158l127 37q17 -50 56 -84q57 -51 135 -51
q67 0 115.5 37.5t48.5 107.5q0 123 -172 123h-86l18 113h111q92 0 133 40t41 93q0 49 -37 76.5t-98 27.5q-66 0 -121 -39q-36 -23 -58 -63z" />
    <glyph glyph-name="uni2084" unicode="&#x2084;" horiz-adv-x="798" 
d="M559 848h209l-86 -531h131l-20 -124h-131l-31 -193h-168l31 193h-433l19 108zM514 317l64 383l-334 -383h270z" />
    <glyph glyph-name="Euro" unicode="&#x20ac;" 
d="M301 940q29 89 81.5 176.5t119.5 153.5q89 87 189.5 121t232.5 34q160 0 276 -45q78 -31 160 -90l-109 -200q-62 59 -129 90q-98 49 -217 49q-67 0 -120.5 -18t-104.5 -66q-79 -74 -125 -205h614l-82 -152h-571q-15 -61 -22 -141h520l-80 -151h-453q-7 -123 45 -211
q35 -60 83.5 -84.5t119.5 -24.5q112 0 189 60q30 24 57 64.5t41 80.5l184 -78q-54 -136 -160 -219q-130 -104 -342 -104q-120 0 -211 40t-159 148q-39 64 -63 152t-25 176h-179l74 151h109q3 72 22 141h-176l76 152h135z" />
    <glyph glyph-name="uni20B4" unicode="&#x20b4;" 
d="M440 1087l-182 78q61 110 164 178q130 82 319 82q174 0 265 -73q88 -71 88 -191q0 -66 -28 -119t-87 -106h252l-25 -152h-375l-141 -131h494l-25 -151h-610q-40 -37 -65 -86t-25 -94q0 -58 35 -99q43 -47 129 -47q97 0 165 68q55 55 84 143l228 -53q-56 -151 -170 -242
q-136 -112 -338 -112q-81 0 -160 21t-131 65q-92 80 -92 213q0 128 90 223h-197l25 151h313l142 131h-432l24 152h551q119 89 119 170q0 55 -41 90q-38 33 -109 33q-98 0 -164 -47q-49 -34 -90 -95z" />
    <glyph glyph-name="uni20B6" unicode="&#x20b6;" 
d="M414 1405h342q53 0 87.5 -2t93 -9.5t108 -28.5t88.5 -54q48 -42 80 -109.5t32 -157.5q0 -102 -45.5 -201t-128.5 -163q-83 -65 -180 -86t-213 -21h-154l-24 -143h307l-25 -151h-307l-45 -279h-246l45 279h-168l25 151h168l25 143h-168l26 172h168zM627 1208l-76 -463h151
q157 0 232 84q61 68 61 181q0 88 -43 137q-25 28 -63 42.5t-64.5 16.5t-74.5 2h-123z" />
    <glyph glyph-name="uni20B6" unicode="&#x20cf;" 
d="M414 1405h342q53 0 87.5 -2t93 -9.5t108 -28.5t88.5 -54q48 -42 80 -109.5t32 -157.5q0 -102 -45.5 -201t-128.5 -163q-83 -65 -180 -86t-213 -21h-154l-24 -143h307l-25 -151h-307l-45 -279h-246l45 279h-168l25 151h168l25 143h-168l26 172h168zM627 1208l-76 -463h151
q157 0 232 84q61 68 61 181q0 88 -43 137q-25 28 -63 42.5t-64.5 16.5t-74.5 2h-123z" />
    <glyph glyph-name="uni20B6" unicode="&#x20ce;" 
d="M414 1405h342q53 0 87.5 -2t93 -9.5t108 -28.5t88.5 -54q48 -42 80 -109.5t32 -157.5q0 -102 -45.5 -201t-128.5 -163q-83 -65 -180 -86t-213 -21h-154l-24 -143h307l-25 -151h-307l-45 -279h-246l45 279h-168l25 151h168l25 143h-168l26 172h168zM627 1208l-76 -463h151
q157 0 232 84q61 68 61 181q0 88 -43 137q-25 28 -63 42.5t-64.5 16.5t-74.5 2h-123z" />
    <glyph glyph-name="uni20B6" unicode="&#x20cd;" 
d="M414 1405h342q53 0 87.5 -2t93 -9.5t108 -28.5t88.5 -54q48 -42 80 -109.5t32 -157.5q0 -102 -45.5 -201t-128.5 -163q-83 -65 -180 -86t-213 -21h-154l-24 -143h307l-25 -151h-307l-45 -279h-246l45 279h-168l25 151h168l25 143h-168l26 172h168zM627 1208l-76 -463h151
q157 0 232 84q61 68 61 181q0 88 -43 137q-25 28 -63 42.5t-64.5 16.5t-74.5 2h-123z" />
    <glyph glyph-name="uni20B6" unicode="&#x20cc;" 
d="M414 1405h342q53 0 87.5 -2t93 -9.5t108 -28.5t88.5 -54q48 -42 80 -109.5t32 -157.5q0 -102 -45.5 -201t-128.5 -163q-83 -65 -180 -86t-213 -21h-154l-24 -143h307l-25 -151h-307l-45 -279h-246l45 279h-168l25 151h168l25 143h-168l26 172h168zM627 1208l-76 -463h151
q157 0 232 84q61 68 61 181q0 88 -43 137q-25 28 -63 42.5t-64.5 16.5t-74.5 2h-123z" />
    <glyph glyph-name="uni20B6" unicode="&#x20cb;" 
d="M414 1405h342q53 0 87.5 -2t93 -9.5t108 -28.5t88.5 -54q48 -42 80 -109.5t32 -157.5q0 -102 -45.5 -201t-128.5 -163q-83 -65 -180 -86t-213 -21h-154l-24 -143h307l-25 -151h-307l-45 -279h-246l45 279h-168l25 151h168l25 143h-168l26 172h168zM627 1208l-76 -463h151
q157 0 232 84q61 68 61 181q0 88 -43 137q-25 28 -63 42.5t-64.5 16.5t-74.5 2h-123z" />
    <glyph glyph-name="uni20B6" unicode="&#x20ca;" 
d="M414 1405h342q53 0 87.5 -2t93 -9.5t108 -28.5t88.5 -54q48 -42 80 -109.5t32 -157.5q0 -102 -45.5 -201t-128.5 -163q-83 -65 -180 -86t-213 -21h-154l-24 -143h307l-25 -151h-307l-45 -279h-246l45 279h-168l25 151h168l25 143h-168l26 172h168zM627 1208l-76 -463h151
q157 0 232 84q61 68 61 181q0 88 -43 137q-25 28 -63 42.5t-64.5 16.5t-74.5 2h-123z" />
    <glyph glyph-name="uni20B6" unicode="&#x20c9;" 
d="M414 1405h342q53 0 87.5 -2t93 -9.5t108 -28.5t88.5 -54q48 -42 80 -109.5t32 -157.5q0 -102 -45.5 -201t-128.5 -163q-83 -65 -180 -86t-213 -21h-154l-24 -143h307l-25 -151h-307l-45 -279h-246l45 279h-168l25 151h168l25 143h-168l26 172h168zM627 1208l-76 -463h151
q157 0 232 84q61 68 61 181q0 88 -43 137q-25 28 -63 42.5t-64.5 16.5t-74.5 2h-123z" />
    <glyph glyph-name="uni20B6" unicode="&#x20c8;" 
d="M414 1405h342q53 0 87.5 -2t93 -9.5t108 -28.5t88.5 -54q48 -42 80 -109.5t32 -157.5q0 -102 -45.5 -201t-128.5 -163q-83 -65 -180 -86t-213 -21h-154l-24 -143h307l-25 -151h-307l-45 -279h-246l45 279h-168l25 151h168l25 143h-168l26 172h168zM627 1208l-76 -463h151
q157 0 232 84q61 68 61 181q0 88 -43 137q-25 28 -63 42.5t-64.5 16.5t-74.5 2h-123z" />
    <glyph glyph-name="uni20B6" unicode="&#x20c7;" 
d="M414 1405h342q53 0 87.5 -2t93 -9.5t108 -28.5t88.5 -54q48 -42 80 -109.5t32 -157.5q0 -102 -45.5 -201t-128.5 -163q-83 -65 -180 -86t-213 -21h-154l-24 -143h307l-25 -151h-307l-45 -279h-246l45 279h-168l25 151h168l25 143h-168l26 172h168zM627 1208l-76 -463h151
q157 0 232 84q61 68 61 181q0 88 -43 137q-25 28 -63 42.5t-64.5 16.5t-74.5 2h-123z" />
    <glyph glyph-name="uni20B6" unicode="&#x20c6;" 
d="M414 1405h342q53 0 87.5 -2t93 -9.5t108 -28.5t88.5 -54q48 -42 80 -109.5t32 -157.5q0 -102 -45.5 -201t-128.5 -163q-83 -65 -180 -86t-213 -21h-154l-24 -143h307l-25 -151h-307l-45 -279h-246l45 279h-168l25 151h168l25 143h-168l26 172h168zM627 1208l-76 -463h151
q157 0 232 84q61 68 61 181q0 88 -43 137q-25 28 -63 42.5t-64.5 16.5t-74.5 2h-123z" />
    <glyph glyph-name="uni20B6" unicode="&#x20c5;" 
d="M414 1405h342q53 0 87.5 -2t93 -9.5t108 -28.5t88.5 -54q48 -42 80 -109.5t32 -157.5q0 -102 -45.5 -201t-128.5 -163q-83 -65 -180 -86t-213 -21h-154l-24 -143h307l-25 -151h-307l-45 -279h-246l45 279h-168l25 151h168l25 143h-168l26 172h168zM627 1208l-76 -463h151
q157 0 232 84q61 68 61 181q0 88 -43 137q-25 28 -63 42.5t-64.5 16.5t-74.5 2h-123z" />
    <glyph glyph-name="uni20B6" unicode="&#x20c4;" 
d="M414 1405h342q53 0 87.5 -2t93 -9.5t108 -28.5t88.5 -54q48 -42 80 -109.5t32 -157.5q0 -102 -45.5 -201t-128.5 -163q-83 -65 -180 -86t-213 -21h-154l-24 -143h307l-25 -151h-307l-45 -279h-246l45 279h-168l25 151h168l25 143h-168l26 172h168zM627 1208l-76 -463h151
q157 0 232 84q61 68 61 181q0 88 -43 137q-25 28 -63 42.5t-64.5 16.5t-74.5 2h-123z" />
    <glyph glyph-name="uni20B6" unicode="&#x20c3;" 
d="M414 1405h342q53 0 87.5 -2t93 -9.5t108 -28.5t88.5 -54q48 -42 80 -109.5t32 -157.5q0 -102 -45.5 -201t-128.5 -163q-83 -65 -180 -86t-213 -21h-154l-24 -143h307l-25 -151h-307l-45 -279h-246l45 279h-168l25 151h168l25 143h-168l26 172h168zM627 1208l-76 -463h151
q157 0 232 84q61 68 61 181q0 88 -43 137q-25 28 -63 42.5t-64.5 16.5t-74.5 2h-123z" />
    <glyph glyph-name="uni20B6" unicode="&#x20c2;" 
d="M414 1405h342q53 0 87.5 -2t93 -9.5t108 -28.5t88.5 -54q48 -42 80 -109.5t32 -157.5q0 -102 -45.5 -201t-128.5 -163q-83 -65 -180 -86t-213 -21h-154l-24 -143h307l-25 -151h-307l-45 -279h-246l45 279h-168l25 151h168l25 143h-168l26 172h168zM627 1208l-76 -463h151
q157 0 232 84q61 68 61 181q0 88 -43 137q-25 28 -63 42.5t-64.5 16.5t-74.5 2h-123z" />
    </font>
</defs>
</svg>
