<?xml version="1.0" encoding="utf-8"?>
<!-- Generator: Adobe Illustrator 24.0.2, SVG Export Plug-In . SVG Version: 6.00 Build 0)  -->
<svg version="1.1" id="Layer_1" xmlns="http://www.w3.org/2000/svg" xmlns:xlink="http://www.w3.org/1999/xlink" x="0px" y="0px"
	 viewBox="0 0 256.9 42.24" style="enable-background:new 0 0 256.9 42.24;" xml:space="preserve">
<style type="text/css">
	.st0{fill:#CCCCCB;}
	.st1{fill:#010101;}
	.st2{fill:#708A86;}
</style>
<g>
	<path class="st0" d="M8.22,22.62V7.12h4.23v1.7h0.05c0.28-0.48,0.67-0.92,1.1-1.24c0.64-0.46,1.54-0.69,2.46-0.69
		c1.43,0,2.35,0.6,3.06,1.59c1.01,1.4,1.15,3.15,1.15,4.42c0,1.52-0.23,3.22-1.22,4.55c-1.01,1.36-2.23,1.68-3.24,1.68
		c-0.64,0-1.29-0.16-1.77-0.39c-0.62-0.3-0.97-0.67-1.22-1.1h-0.05v4.99H8.22z M12.77,14.18c0,0.64,0.05,1.15,0.25,1.52
		c0.12,0.18,0.41,0.62,1.03,0.62c0.51,0,0.99-0.25,1.29-0.99c0.21-0.51,0.28-1.2,0.28-2.35c0-1.24-0.12-1.86-0.32-2.3
		c-0.3-0.64-0.78-0.85-1.24-0.85c-0.34,0-0.67,0.14-0.87,0.34c-0.39,0.39-0.41,0.99-0.41,1.43V14.18z"/>
	<path class="st0" d="M28.57,19.6c-0.34,0.92-0.71,1.84-1.68,2.58c-1.01,0.76-2.12,0.85-3.08,0.85c-1.1,0-2-0.14-2.23-0.18v-3.31
		c0.67,0.14,1.17,0.18,1.86,0.18c0.44,0,1.06,0,1.45-0.25c0.16-0.11,0.3-0.25,0.32-0.48l0.02-0.21L20.82,7.12h4.94l1.93,6.28
		l2.05-6.28h3.36L28.57,19.6z"/>
	<path class="st0" d="M41.08,11.88c0-0.48-0.12-1.24-0.34-1.61c-0.16-0.28-0.48-0.58-1.04-0.58c-0.58,0-0.9,0.35-1.08,0.64
		c-0.25,0.44-0.32,1.1-0.32,2.64s0.14,2.16,0.34,2.58c0.3,0.6,0.69,0.76,1.13,0.76c0.32,0,0.74-0.09,1.03-0.62
		c0.21-0.37,0.3-1.1,0.32-1.54l4.02,0.32c-0.14,1.45-0.87,2.67-1.79,3.45c-1.22,1.01-2.62,1.2-3.77,1.2c-1.13,0-2.83-0.23-4.23-1.61
		c-0.83-0.8-1.7-2.23-1.7-4.46c0-2,0.69-3.52,1.61-4.48c0.8-0.83,2.16-1.68,4.3-1.68c2.09,0,3.27,0.69,3.79,1.15
		c0.85,0.71,1.61,1.98,1.75,3.52L41.08,11.88z"/>
	<path class="st0" d="M53.46,11.88c0-0.48-0.12-1.24-0.34-1.61c-0.16-0.28-0.48-0.58-1.04-0.58c-0.58,0-0.9,0.35-1.08,0.64
		c-0.25,0.44-0.32,1.1-0.32,2.64s0.14,2.16,0.34,2.58c0.3,0.6,0.69,0.76,1.13,0.76c0.32,0,0.74-0.09,1.03-0.62
		c0.21-0.37,0.3-1.1,0.32-1.54l4.02,0.32c-0.14,1.45-0.87,2.67-1.79,3.45c-1.22,1.01-2.62,1.2-3.77,1.2c-1.13,0-2.83-0.23-4.23-1.61
		c-0.83-0.8-1.7-2.23-1.7-4.46c0-2,0.69-3.52,1.61-4.48c0.8-0.83,2.16-1.68,4.3-1.68c2.09,0,3.27,0.69,3.79,1.15
		c0.85,0.71,1.61,1.98,1.75,3.52L53.46,11.88z"/>
	<path class="st0" d="M63.55,7.12v4.25h0.48c0.3,0,0.64-0.14,0.83-0.3c0.32-0.28,0.46-0.8,0.55-1.2c0.16-0.67,0.28-1.22,0.46-1.7
		c0.25-0.64,0.55-0.92,0.94-1.06h4.05c-0.3,0.28-0.55,0.62-0.76,1.15c-0.14,0.34-0.02,0.23-0.6,1.93c-0.16,0.51-0.37,1.08-0.78,1.54
		c-0.44,0.46-0.9,0.55-1.52,0.64v0.05c0.69,0.14,1.2,0.32,1.72,0.87c0.57,0.58,0.8,1.22,0.99,1.86l0.37,1.29
		c0.34,1.22,0.44,1.82,1.08,2.44h-4.62c-0.28-0.12-0.44-0.28-0.6-0.58c-0.3-0.55-0.39-1.2-0.53-1.75c-0.34-1.54-0.53-1.84-0.67-2
		c-0.25-0.3-0.6-0.34-0.85-0.34h-0.55v4.67H59V7.12H63.55z"/>
	<path class="st0" d="M72.36,10.57c0.37-1.49,1.29-2.32,1.93-2.74c1.29-0.85,2.92-0.94,4.23-0.94c1.96,0,4.14,0.23,5.1,2.05
		c0.46,0.87,0.46,1.84,0.46,2.78v4.6c0,0.67,0,1.4,0.35,2.58h-4.32c-0.07-0.3-0.16-0.8-0.16-1.63c-0.46,0.71-1.5,1.86-3.84,1.86
		c-3.06,0-4.14-1.89-4.14-3.43c0-1.03,0.44-2.12,1.33-2.83c1.36-1.08,3.84-1.43,5.56-1.56l0.85-0.07v-0.18c0-0.23,0-0.71-0.28-1.01
		c-0.16-0.18-0.51-0.35-1.13-0.35c-1.26,0-1.68,0.67-1.77,1.27L72.36,10.57z M79.01,13.49c-1.1,0.18-1.59,0.48-1.75,0.6
		c-0.48,0.35-0.64,0.83-0.64,1.2c0,0.6,0.44,1.04,1.26,1.04c1.72,0,1.84-1.43,1.84-2.28v-0.67L79.01,13.49z"/>
	<path class="st0" d="M97.94,18.89h-4.55v-3.98h-0.97l-1.84,3.98h-4.83l2.67-4.58c-0.55-0.18-1.15-0.55-1.54-1.01
		c-0.39-0.46-0.76-1.22-0.76-2.25c0-1.56,0.71-2.48,1.36-2.99c1.08-0.83,2.53-0.94,3.61-0.94h6.85V18.89z M92.28,9.92
		c-0.28,0-0.78,0.02-1.13,0.35c-0.18,0.16-0.39,0.46-0.39,1.01c0,0.46,0.16,0.8,0.39,1.01c0.37,0.32,0.87,0.32,1.27,0.32h0.97V9.92
		H92.28z"/>
</g>
<g>
	<path class="st1" d="M109.03,7.16v10.3h1.17v4.58h-1.58v-3.15h-7.64v3.15H99.4v-4.58h0.86c0.38-0.57,0.77-1.26,1.08-2.09
		c0.83-2.16,0.92-4.46,0.99-7.15l0.02-1.06H109.03z M103.78,9.21c-0.07,1.72-0.27,4.58-1.01,6.6c-0.22,0.6-0.59,1.38-0.72,1.66h5.27
		V8.59h-3.52L103.78,9.21z"/>
	<path class="st1" d="M121.45,15.69c-0.32,1.01-0.9,1.86-1.87,2.55c-0.9,0.62-1.85,0.87-2.95,0.87c-1.62,0-2.91-0.55-3.9-1.7
		c-1.01-1.17-1.4-2.67-1.4-4.3c0-3.13,1.71-6.19,5.34-6.19c4.28,0,4.98,4.05,4.98,5.93v0.41h-8.34c-0.02,0.78,0.11,1.61,0.38,2.28
		c0.56,1.4,1.6,2.05,3,2.05c1.24,0,1.98-0.55,2.39-1.01c0.32-0.35,0.56-0.83,0.7-1.24L121.45,15.69z M119.67,11.85
		c-0.02-0.71-0.2-1.56-0.54-2.14c-0.36-0.6-1.08-1.36-2.43-1.36c-1.13,0-1.98,0.55-2.5,1.2c-0.47,0.62-0.77,1.47-0.79,2.3H119.67z"
		/>
	<path class="st1" d="M131.03,7.16v1.43h-3.61v10.3h-1.71V8.59h-3.61V7.16H131.03z"/>
	<path class="st1" d="M139.25,11.26c-0.09-0.64-0.34-1.33-0.63-1.77c-0.32-0.46-0.97-1.04-2.1-1.04c-0.99,0-1.71,0.48-2.21,1.31
		c-0.63,1.03-0.74,2.37-0.74,3.31c0,2.21,0.61,3.17,0.74,3.36c0.38,0.57,1.06,1.17,2.19,1.17c0.86,0,1.49-0.3,2.01-0.97
		c0.41-0.53,0.65-1.24,0.74-1.91l1.62,0.3c-0.16,1.13-0.65,2.16-1.31,2.85c-0.81,0.85-1.87,1.24-3.11,1.24
		c-1.44,0-2.48-0.53-3.16-1.15c-1.13-1.06-1.71-2.94-1.71-4.92c0-1.56,0.34-2.99,1.19-4.21c0.79-1.1,1.94-1.91,3.79-1.91
		c1.26,0,2.32,0.39,3.13,1.33c0.65,0.76,1.04,1.84,1.17,2.69L139.25,11.26z"/>
	<path class="st1" d="M146.29,12.06c1.51,0,2.28-0.32,2.77-2.48c0.14-0.62,0.27-1.38,0.68-1.86c0.5-0.6,1.22-0.62,1.58-0.62
		c0.18,0,0.36,0.02,0.54,0.05v1.38c-0.11-0.02-0.25,0-0.36,0c-0.25,0.02-0.52,0.07-0.72,0.34c-0.2,0.25-0.32,0.85-0.36,1.06
		l-0.16,0.83c-0.25,1.29-0.97,1.86-1.74,1.98v0.05c1.1,0.09,1.53,0.85,1.8,1.59c0.43,1.22,0.63,2.18,0.88,2.69
		c0.2,0.41,0.41,0.48,0.86,0.48c0.13,0,0.27,0,0.41-0.02v1.4c-0.25,0.05-0.5,0.05-0.74,0.05c-1.85,0-2.05-0.83-2.48-2.23
		c-0.45-1.45-0.56-1.91-0.77-2.25c-0.45-0.8-1.13-0.99-2.05-0.99h-1.67v5.4h-1.71V7.16h1.71v4.9H146.29z"/>
	<path class="st1" d="M153.68,10.13c0.5-2.51,2.37-3.2,4.87-3.2c0.77,0,2.25,0.02,3.27,0.85c1.24,1.01,1.26,2.62,1.26,4.14v4.51
		c0,0.64,0.07,1.43,0.29,2.46h-1.8c-0.14-0.85-0.18-1.61-0.2-2.18c-0.32,0.67-1.31,2.41-4.01,2.41c-1.46,0-2.39-0.51-2.95-1.03
		c-0.5-0.46-1.04-1.26-1.04-2.48c0-1.59,0.88-2.51,1.56-2.97c1.4-0.97,3.2-0.99,4.96-0.99h1.49v-0.48c0-0.62-0.04-1.4-0.45-1.95
		c-0.59-0.81-1.58-0.85-2.39-0.85c-0.95,0-2.93,0.14-3.2,2.05L153.68,10.13z M159.9,13.07c-1.8,0-2.84,0.23-3.47,0.58
		c-0.95,0.51-1.17,1.36-1.17,1.95c0,0.46,0.18,1.13,0.83,1.56c0.32,0.23,0.86,0.44,1.64,0.44c1.13,0,2.12-0.55,2.73-1.31
		c0.59-0.74,0.9-1.82,0.9-2.64v-0.58H159.9z"/>
	<path class="st1" d="M174.12,18.89h-1.71v-4.78h-2.48l-2.55,4.78h-1.98l2.7-4.9c-0.11-0.02-1.06-0.28-1.71-0.9
		c-0.36-0.34-0.92-1.15-0.92-2.58c0-0.6,0.13-1.36,0.63-2.07c0.79-1.13,1.92-1.29,3.29-1.29h4.73V18.89z M170.07,8.59
		c-0.95,0-1.67,0.02-2.23,0.67c-0.38,0.44-0.47,0.94-0.47,1.49c0,0.34,0.07,0.99,0.56,1.43c0.52,0.46,1.38,0.51,2.03,0.51h2.46V8.59
		H170.07z"/>
</g>
<g>
	<path class="st2" d="M183.68,11.88c0-0.48-0.12-1.24-0.34-1.61c-0.16-0.28-0.48-0.58-1.04-0.58c-0.58,0-0.9,0.35-1.08,0.64
		c-0.25,0.44-0.32,1.1-0.32,2.64s0.14,2.16,0.34,2.58c0.3,0.6,0.69,0.76,1.13,0.76c0.32,0,0.74-0.09,1.03-0.62
		c0.21-0.37,0.3-1.1,0.32-1.54l4.02,0.32c-0.14,1.45-0.87,2.67-1.79,3.45c-1.22,1.01-2.62,1.2-3.77,1.2c-1.13,0-2.83-0.23-4.23-1.61
		c-0.83-0.8-1.7-2.23-1.7-4.46c0-2,0.69-3.52,1.61-4.48c0.8-0.83,2.16-1.68,4.3-1.68c2.09,0,3.27,0.69,3.79,1.15
		c0.85,0.71,1.61,1.98,1.75,3.52L183.68,11.88z"/>
	<path class="st2" d="M198.61,7.12v3.08h-3.17v8.69h-4.55V10.2h-3.17V7.12H198.61z"/>
	<path class="st2" d="M205.99,19.6c-0.34,0.92-0.71,1.84-1.68,2.58c-1.01,0.76-2.12,0.85-3.08,0.85c-1.1,0-2-0.14-2.23-0.18v-3.31
		c0.67,0.14,1.17,0.18,1.86,0.18c0.44,0,1.06,0,1.45-0.25c0.16-0.11,0.3-0.25,0.32-0.48l0.02-0.21l-4.42-11.66h4.94l1.93,6.28
		l2.05-6.28h3.36L205.99,19.6z"/>
	<path class="st2" d="M222.04,7.12v8.69h1.38v6.16h-4.09v-3.08h-4.81v3.08h-4.09v-6.16h1.13c0.97-1.89,1.17-3.96,1.17-7.93V7.12
		H222.04z M215.95,10.54c0,2.37-0.23,3.84-0.74,5.27h2.28V10.2h-1.54V10.54z"/>
	<path class="st2" d="M229.1,7.12v4.48c0,0.32,0,0.62-0.09,0.99c0.28-0.34,0.25-0.39,0.32-0.51l2.39-4.14V7.12h4.55v11.77h-4.55
		v-4.83c0-0.21,0.05-0.57,0.12-0.9c-0.18,0.39-0.14,0.21-0.44,0.76l-2.3,4.14v0.83h-4.55V7.12H229.1z"/>
	<path class="st2" d="M249.83,18.89h-4.55v-3.98h-0.96l-1.84,3.98h-4.83l2.67-4.58c-0.55-0.18-1.15-0.55-1.54-1.01
		c-0.39-0.46-0.76-1.22-0.76-2.25c0-1.56,0.71-2.48,1.36-2.99c1.08-0.83,2.53-0.94,3.61-0.94h6.85V18.89z M244.17,9.92
		c-0.28,0-0.78,0.02-1.13,0.35c-0.18,0.16-0.39,0.46-0.39,1.01c0,0.46,0.16,0.8,0.39,1.01c0.37,0.32,0.87,0.32,1.27,0.32h0.96V9.92
		H244.17z"/>
</g>
<g>
	<path class="st1" d="M144.62,32.39h-0.68v-1.87h-0.99l-1.02,1.87h-0.79l1.08-1.92c-0.04-0.01-0.42-0.11-0.68-0.35
		c-0.14-0.14-0.37-0.45-0.37-1.01c0-0.23,0.05-0.53,0.25-0.81c0.31-0.44,0.76-0.5,1.31-0.5h1.89V32.39z M143,28.36
		c-0.38,0-0.67,0.01-0.89,0.26c-0.15,0.17-0.19,0.37-0.19,0.58c0,0.14,0.03,0.39,0.22,0.56c0.21,0.18,0.55,0.2,0.81,0.2h0.98v-1.6
		H143z"/>
	<path class="st1" d="M145.77,28.97c0.14-0.59,0.5-0.89,0.85-1.05c0.16-0.08,0.5-0.21,1.07-0.21c0.39,0,0.85,0.05,1.17,0.25
		c0.43,0.26,0.57,0.66,0.57,0.98c0,0.41-0.21,0.64-0.3,0.73c-0.14,0.14-0.38,0.26-0.65,0.29v0.02c0.27,0.02,0.58,0.14,0.78,0.35
		c0.17,0.18,0.29,0.45,0.29,0.77c0,0.53-0.31,0.88-0.58,1.06c-0.42,0.29-0.97,0.32-1.35,0.32c-0.37,0-1.01-0.02-1.47-0.42
		c-0.26-0.23-0.43-0.57-0.5-0.9l0.67-0.13c0.05,0.28,0.19,0.46,0.26,0.53c0.17,0.18,0.48,0.37,1,0.37c0.27,0,0.62-0.05,0.84-0.2
		c0.18-0.12,0.33-0.31,0.33-0.61c0-0.29-0.11-0.47-0.22-0.57c-0.25-0.23-0.61-0.26-0.91-0.26h-0.51v-0.56h0.51
		c0.19,0,0.47-0.04,0.64-0.12c0.33-0.15,0.4-0.41,0.4-0.65c0-0.26-0.14-0.41-0.25-0.5c-0.18-0.14-0.5-0.2-0.8-0.2
		c-0.26,0-0.58,0.05-0.86,0.28c-0.14,0.12-0.3,0.32-0.35,0.59L145.77,28.97z"/>
	<path class="st1" d="M151.33,27.8v1.81h1.28c0.36,0,0.81,0.04,1.13,0.35c0.15,0.15,0.37,0.46,0.37,1.01c0,0.44-0.13,0.82-0.46,1.11
		c-0.32,0.28-0.66,0.32-0.93,0.32h-2.08V27.8H151.33z M151.33,31.83h1.07c0.2,0,0.45,0,0.68-0.19c0.16-0.14,0.28-0.38,0.28-0.68
		c0-0.36-0.16-0.55-0.31-0.65c-0.17-0.11-0.44-0.14-0.62-0.14h-1.1V31.83z M155.4,27.8v4.59h-0.68V27.8H155.4z"/>
	<path class="st1" d="M158.15,29.72c0.6,0,0.91-0.13,1.11-0.97c0.05-0.24,0.11-0.54,0.27-0.73c0.2-0.23,0.49-0.24,0.63-0.24
		c0.07,0,0.14,0.01,0.22,0.02v0.54c-0.04-0.01-0.1,0-0.14,0c-0.1,0.01-0.21,0.03-0.29,0.13c-0.08,0.1-0.13,0.33-0.14,0.41
		l-0.06,0.32c-0.1,0.5-0.39,0.73-0.69,0.77V30c0.44,0.04,0.61,0.33,0.72,0.62c0.17,0.48,0.25,0.85,0.35,1.05
		c0.08,0.16,0.16,0.19,0.34,0.19c0.05,0,0.11,0,0.16-0.01v0.55c-0.1,0.02-0.2,0.02-0.3,0.02c-0.74,0-0.82-0.32-0.99-0.87
		c-0.18-0.57-0.23-0.75-0.31-0.88c-0.18-0.32-0.45-0.39-0.82-0.39h-0.67v2.12h-0.68V27.8h0.68v1.92H158.15z"/>
	<path class="st1" d="M161.24,28.96c0.2-0.98,0.95-1.25,1.94-1.25c0.31,0,0.9,0.01,1.31,0.33c0.5,0.4,0.5,1.03,0.5,1.62v1.76
		c0,0.25,0.03,0.56,0.12,0.96h-0.72c-0.05-0.33-0.07-0.63-0.08-0.86c-0.13,0.26-0.52,0.95-1.6,0.95c-0.58,0-0.95-0.2-1.18-0.41
		c-0.2-0.18-0.41-0.5-0.41-0.97c0-0.62,0.35-0.98,0.62-1.16c0.56-0.38,1.28-0.39,1.98-0.39h0.59v-0.19c0-0.24-0.02-0.55-0.18-0.76
		c-0.23-0.32-0.63-0.33-0.95-0.33c-0.38,0-1.17,0.05-1.28,0.8L161.24,28.96z M163.72,30.11c-0.72,0-1.13,0.09-1.39,0.23
		c-0.38,0.2-0.47,0.53-0.47,0.76c0,0.18,0.07,0.44,0.33,0.61c0.13,0.09,0.34,0.17,0.66,0.17c0.45,0,0.85-0.22,1.09-0.51
		c0.23-0.29,0.36-0.71,0.36-1.04v-0.23H163.72z"/>
	<path class="st1" d="M167.3,32.27l-0.72,1.21h-0.34l0.53-1.09h-0.37V31.5h0.9V32.27z"/>
	<path class="st1" d="M171.48,27.8v2.75c0,0.3-0.01,0.3-0.03,0.63c0.14-0.32,0.29-0.51,0.43-0.71l1.72-2.28v-0.4h0.68v4.59h-0.68
		v-2.71c0-0.16,0.01-0.44,0.04-0.66c-0.04,0.08-0.1,0.23-0.41,0.64l-1.75,2.29v0.44h-0.68V27.8H171.48z"/>
	<path class="st1" d="M178.43,29.4c-0.04-0.25-0.13-0.52-0.25-0.69c-0.13-0.18-0.39-0.41-0.84-0.41c-0.4,0-0.68,0.19-0.88,0.51
		c-0.25,0.41-0.3,0.93-0.3,1.3c0,0.86,0.24,1.24,0.3,1.31c0.15,0.23,0.42,0.46,0.87,0.46c0.34,0,0.59-0.12,0.8-0.38
		c0.16-0.21,0.26-0.49,0.3-0.75l0.65,0.12c-0.06,0.44-0.26,0.85-0.52,1.12c-0.32,0.33-0.75,0.49-1.24,0.49
		c-0.58,0-0.99-0.21-1.26-0.45c-0.45-0.41-0.68-1.15-0.68-1.93c0-0.61,0.13-1.17,0.48-1.65c0.32-0.43,0.77-0.75,1.51-0.75
		c0.5,0,0.93,0.15,1.25,0.52c0.26,0.3,0.42,0.72,0.47,1.05L178.43,29.4z"/>
	<path class="st1" d="M181.38,29.72c0.6,0,0.91-0.13,1.11-0.97c0.05-0.24,0.11-0.54,0.27-0.73c0.2-0.23,0.49-0.24,0.63-0.24
		c0.07,0,0.14,0.01,0.22,0.02v0.54c-0.04-0.01-0.1,0-0.14,0c-0.1,0.01-0.21,0.03-0.29,0.13c-0.08,0.1-0.13,0.33-0.14,0.41
		l-0.06,0.32c-0.1,0.5-0.39,0.73-0.69,0.77V30c0.44,0.04,0.61,0.33,0.72,0.62c0.17,0.48,0.25,0.85,0.35,1.05
		c0.08,0.16,0.16,0.19,0.34,0.19c0.05,0,0.11,0,0.16-0.01v0.55c-0.1,0.02-0.2,0.02-0.3,0.02c-0.74,0-0.82-0.32-0.99-0.87
		c-0.18-0.57-0.23-0.75-0.31-0.88c-0.18-0.32-0.45-0.39-0.82-0.39h-0.67v2.12h-0.68V27.8h0.68v1.92H181.38z"/>
	<path class="st1" d="M186.1,32.82c-0.1,0.28-0.23,0.57-0.49,0.82c-0.24,0.23-0.5,0.33-0.86,0.33c-0.18,0-0.4-0.03-0.58-0.09v-0.53
		c0.19,0.05,0.32,0.06,0.5,0.06c0.16,0,0.34-0.01,0.51-0.15c0.17-0.14,0.29-0.38,0.43-0.8l0.05-0.15l-1.61-4.51h0.79l1.19,3.53
		l1.23-3.53h0.63L186.1,32.82z"/>
	<path class="st1" d="M191.24,29.4c-0.04-0.25-0.13-0.52-0.25-0.69c-0.13-0.18-0.39-0.41-0.84-0.41c-0.4,0-0.68,0.19-0.88,0.51
		c-0.25,0.41-0.3,0.93-0.3,1.3c0,0.86,0.24,1.24,0.3,1.31c0.15,0.23,0.42,0.46,0.87,0.46c0.34,0,0.59-0.12,0.8-0.38
		c0.16-0.21,0.26-0.49,0.3-0.75l0.65,0.12c-0.06,0.44-0.26,0.85-0.52,1.12c-0.32,0.33-0.75,0.49-1.24,0.49
		c-0.58,0-0.99-0.21-1.26-0.45c-0.45-0.41-0.68-1.15-0.68-1.93c0-0.61,0.13-1.17,0.48-1.65c0.32-0.43,0.77-0.75,1.51-0.75
		c0.5,0,0.93,0.15,1.25,0.52c0.26,0.3,0.42,0.72,0.47,1.05L191.24,29.4z"/>
	<path class="st1" d="M195.58,29.4c-0.04-0.25-0.13-0.52-0.25-0.69c-0.13-0.18-0.39-0.41-0.84-0.41c-0.4,0-0.68,0.19-0.88,0.51
		c-0.25,0.41-0.3,0.93-0.3,1.3c0,0.86,0.24,1.24,0.3,1.31c0.15,0.23,0.42,0.46,0.87,0.46c0.34,0,0.59-0.12,0.8-0.38
		c0.16-0.21,0.26-0.49,0.3-0.75l0.65,0.12c-0.06,0.44-0.26,0.85-0.52,1.12c-0.32,0.33-0.75,0.49-1.24,0.49
		c-0.58,0-0.99-0.21-1.26-0.45c-0.45-0.41-0.68-1.15-0.68-1.93c0-0.61,0.13-1.17,0.48-1.65c0.32-0.43,0.77-0.75,1.51-0.75
		c0.5,0,0.93,0.15,1.25,0.52c0.26,0.3,0.42,0.72,0.47,1.05L195.58,29.4z"/>
	<path class="st1" d="M200.06,27.8v0.56h-1.44v4.03h-0.68v-4.03h-1.44V27.8H200.06z"/>
	<path class="st1" d="M202.82,27.8c0.37,0,0.77,0.02,1.07,0.2c0.17,0.1,0.49,0.35,0.49,0.88c0,0.31-0.09,0.57-0.31,0.77
		c-0.07,0.06-0.27,0.23-0.59,0.29v0.02c0.33,0.03,0.67,0.17,0.86,0.36c0.09,0.09,0.31,0.34,0.31,0.78c0,0.42-0.18,0.78-0.48,1.02
		c-0.35,0.27-0.75,0.28-1.12,0.28h-2.26V27.8H202.82z M201.47,29.72h1.28c0.22,0,0.5-0.02,0.69-0.23c0.12-0.13,0.18-0.32,0.18-0.52
		c0-0.14-0.04-0.31-0.2-0.44c-0.19-0.16-0.41-0.16-0.61-0.16h-1.34V29.72z M201.47,31.83h1.44c0.33,0,0.58-0.09,0.72-0.22
		c0.14-0.14,0.22-0.35,0.22-0.56c0-0.32-0.17-0.5-0.28-0.58c-0.22-0.17-0.55-0.19-0.72-0.19h-1.38V31.83z"/>
	<path class="st1" d="M208.65,27.8v2.75c0,0.3-0.01,0.3-0.03,0.63c0.14-0.32,0.29-0.51,0.43-0.71l1.72-2.28v-0.4h0.68v4.59h-0.68
		v-2.71c0-0.16,0.01-0.44,0.04-0.66c-0.04,0.08-0.1,0.23-0.41,0.64l-1.75,2.29v0.44h-0.68V27.8H208.65z"/>
	<path class="st1" d="M216.31,29.72c0.6,0,0.91-0.13,1.11-0.97c0.05-0.24,0.11-0.54,0.27-0.73c0.2-0.23,0.49-0.24,0.63-0.24
		c0.07,0,0.14,0.01,0.22,0.02v0.54c-0.04-0.01-0.1,0-0.14,0c-0.1,0.01-0.21,0.03-0.29,0.13c-0.08,0.1-0.13,0.33-0.14,0.41
		l-0.06,0.32c-0.1,0.5-0.39,0.73-0.69,0.77V30c0.44,0.04,0.61,0.33,0.72,0.62c0.17,0.48,0.25,0.85,0.35,1.05
		c0.08,0.16,0.16,0.19,0.34,0.19c0.05,0,0.11,0,0.16-0.01v0.55c-0.1,0.02-0.2,0.02-0.3,0.02c-0.74,0-0.82-0.32-0.99-0.87
		c-0.18-0.57-0.23-0.75-0.31-0.88c-0.18-0.32-0.45-0.39-0.82-0.39h-0.67v2.12h-0.68V27.8h0.68v1.92H216.31z"/>
	<path class="st1" d="M221.03,32.82c-0.1,0.28-0.23,0.57-0.49,0.82c-0.24,0.23-0.5,0.33-0.86,0.33c-0.18,0-0.4-0.03-0.58-0.09v-0.53
		c0.19,0.05,0.32,0.06,0.5,0.06c0.16,0,0.34-0.01,0.51-0.15c0.17-0.14,0.29-0.38,0.43-0.8l0.05-0.15L219,27.8h0.79l1.19,3.53
		l1.23-3.53h0.63L221.03,32.82z"/>
	<path class="st1" d="M226.61,27.8v4.59h-0.68v-4.03h-1.48c-0.07,2.05-0.15,2.67-0.29,3.07c-0.31,0.89-1.02,0.96-1.33,0.96
		c-0.01,0-0.03,0-0.04,0V31.8c0.03,0,0.04,0,0.07,0c0.21-0.01,0.52-0.16,0.69-0.48c0.13-0.24,0.23-0.69,0.28-3.01l0.01-0.51H226.61z
		"/>
	<path class="st1" d="M228.75,27.8v1.81h1.28c0.36,0,0.81,0.04,1.13,0.35c0.15,0.15,0.37,0.46,0.37,1.01c0,0.44-0.13,0.82-0.46,1.11
		c-0.32,0.28-0.66,0.32-0.93,0.32h-2.08V27.8H228.75z M228.75,31.83h1.07c0.2,0,0.45,0,0.68-0.19c0.16-0.14,0.28-0.38,0.28-0.68
		c0-0.36-0.16-0.55-0.31-0.65c-0.17-0.11-0.44-0.14-0.62-0.14h-1.1V31.83z"/>
</g>
<g>
	<path class="st1" d="M235.01,27.8v0.56h-1.44v4.03h-0.68v-4.03h-1.44V27.8H235.01z"/>
	<path class="st1" d="M237.13,32.82c-0.1,0.28-0.23,0.57-0.49,0.82c-0.24,0.23-0.5,0.33-0.86,0.33c-0.18,0-0.4-0.03-0.58-0.09v-0.53
		c0.19,0.05,0.32,0.06,0.5,0.06c0.16,0,0.34-0.01,0.51-0.15c0.17-0.14,0.29-0.38,0.43-0.8l0.05-0.15l-1.61-4.51h0.79l1.19,3.53
		l1.23-3.53h0.63L237.13,32.82z"/>
	<path class="st1" d="M239.58,33.89V27.8h0.63v0.86l0.01-0.01c0.18-0.43,0.61-0.95,1.37-0.95c0.57,0,0.98,0.21,1.27,0.53
		c0.4,0.44,0.58,1.17,0.58,1.83c0,0.61-0.15,1.28-0.49,1.73c-0.24,0.33-0.67,0.68-1.36,0.68c-0.73,0-1.11-0.39-1.3-0.81h-0.03v2.21
		H239.58z M240.26,30.57c0,0.23,0.04,0.6,0.32,0.93c0.25,0.28,0.58,0.39,0.87,0.39c0.26,0,0.64-0.11,0.9-0.54
		c0.22-0.35,0.28-0.85,0.28-1.27c0-0.77-0.19-1.13-0.27-1.26c-0.25-0.41-0.62-0.51-0.9-0.51c-0.32,0-0.59,0.12-0.83,0.36
		c-0.33,0.36-0.38,0.73-0.38,0.95V30.57z"/>
	<path class="st1" d="M245.2,27.8v1.81h1.28c0.36,0,0.81,0.04,1.13,0.35c0.15,0.15,0.37,0.46,0.37,1.01c0,0.44-0.13,0.82-0.46,1.11
		c-0.32,0.28-0.66,0.32-0.93,0.32h-2.08V27.8H245.2z M245.2,31.83h1.07c0.2,0,0.45,0,0.68-0.19c0.16-0.14,0.28-0.38,0.28-0.68
		c0-0.36-0.16-0.55-0.31-0.65c-0.17-0.11-0.44-0.14-0.62-0.14h-1.1V31.83z M249.27,27.8v4.59h-0.68V27.8H249.27z"/>
</g>
</svg>
