<?xml version="1.0" encoding="UTF-8" standalone="no"?><!-- Generator: Gravit.io --><svg xmlns="http://www.w3.org/2000/svg" xmlns:xlink="http://www.w3.org/1999/xlink" style="isolation:isolate" viewBox="0 0 174.725 46.783" width="174.725pt" height="46.783pt"><defs><clipPath id="_clipPath_PqCnmLTzhYQxSofPIeHOuZCXkrwHcshH"><rect width="174.725" height="46.783"/></clipPath></defs><g clip-path="url(#_clipPath_PqCnmLTzhYQxSofPIeHOuZCXkrwHcshH)"><clipPath id="_clipPath_uZ2PKinTFbyrGrrc6E4kJPXoAKPu6JYb"><path d=" M 0 0 L 0 46.783 L 174.725 46.783 L 174.725 0 L 0 0 Z " fill="rgb(255,255,255)"/></clipPath><g clip-path="url(#_clipPath_uZ2PKinTFbyrGrrc6E4kJPXoAKPu6JYb)"><path d=" M 5.3 4.515 L 5.3 7.115 L 5.349 7.115 C 5.374 6.355 5.668 5.815 5.913 5.472 C 6.551 4.588 7.483 4.27 8.588 4.27 C 8.809 4.27 9.005 4.294 9.226 4.318 L 9.226 8.71 C 8.931 8.637 8.637 8.588 8.342 8.588 C 7.533 8.588 6.895 8.784 6.429 9.471 C 6.036 10.06 5.987 10.698 5.987 11.63 L 5.987 17.077 L 1.129 17.077 L 1.129 4.515 L 5.3 4.515 Z " fill="rgb(204,205,203)"/><path d=" M 23.037 17.077 L 18.522 17.077 L 18.522 15.016 L 18.473 15.016 C 17.491 17.249 15.332 17.322 14.793 17.322 C 13.958 17.322 13.026 17.126 12.363 16.685 C 10.989 15.777 10.817 14.354 10.817 13.176 L 10.817 4.515 L 15.676 4.515 L 15.676 11.949 C 15.676 12.44 15.676 13.004 15.946 13.372 C 16.117 13.593 16.461 13.789 16.829 13.789 C 17.197 13.789 17.565 13.618 17.786 13.348 C 18.129 12.931 18.179 12.391 18.179 11.974 L 18.179 4.515 L 23.037 4.515 L 23.037 17.077 Z " fill="rgb(204,205,203)"/><path d=" M 33.068 8.269 C 32.872 7.852 32.553 7.459 32.234 7.263 C 31.743 6.968 31.056 6.968 30.762 6.968 C 30.419 6.968 29.878 7.018 29.584 7.263 C 29.412 7.385 29.315 7.606 29.315 7.827 C 29.315 8.244 29.658 8.465 30.492 8.563 L 32.774 8.857 C 33.608 8.956 35.301 9.201 36.356 10.33 C 36.92 10.919 37.313 11.802 37.313 12.881 C 37.313 14.624 36.282 15.703 35.375 16.268 C 34.222 17.003 32.504 17.322 30.737 17.322 C 29.511 17.322 27.499 17.126 26.075 15.875 C 25.438 15.31 24.873 14.452 24.554 13.52 L 28.456 13.004 C 28.603 13.421 28.823 13.716 29.216 13.985 C 29.854 14.427 30.467 14.477 30.958 14.477 C 32.234 14.477 32.602 14.305 32.749 14.157 C 32.872 14.035 32.995 13.814 32.995 13.618 C 32.995 13.299 32.774 13.127 32.602 13.053 C 32.283 12.906 32.013 12.881 31.719 12.833 L 29.977 12.611 C 28.995 12.489 27.523 12.17 26.591 11.483 C 25.781 10.894 25.143 9.863 25.143 8.539 C 25.143 7.606 25.486 6.061 27.204 5.079 C 28.504 4.318 29.83 4.27 31.007 4.27 C 32.381 4.27 33.829 4.367 35.08 5.275 C 36.185 6.085 36.626 7.165 36.773 7.557 L 33.068 8.269 Z " fill="rgb(204,205,203)"/><path d=" M 46.461 8.269 C 46.265 7.852 45.946 7.459 45.627 7.263 C 45.136 6.968 44.449 6.968 44.155 6.968 C 43.812 6.968 43.272 7.018 42.977 7.263 C 42.806 7.385 42.707 7.606 42.707 7.827 C 42.707 8.244 43.051 8.465 43.885 8.563 L 46.167 8.857 C 47.001 8.956 48.694 9.201 49.749 10.33 C 50.314 10.919 50.706 11.802 50.706 12.881 C 50.706 14.624 49.676 15.703 48.768 16.268 C 47.614 17.003 45.897 17.322 44.13 17.322 C 42.903 17.322 40.892 17.126 39.469 15.875 C 38.831 15.31 38.266 14.452 37.947 13.52 L 41.849 13.004 C 41.996 13.421 42.217 13.716 42.609 13.985 C 43.247 14.427 43.86 14.477 44.351 14.477 C 45.627 14.477 45.995 14.305 46.143 14.157 C 46.265 14.035 46.388 13.814 46.388 13.618 C 46.388 13.299 46.167 13.127 45.995 13.053 C 45.676 12.906 45.406 12.881 45.112 12.833 L 43.37 12.611 C 42.388 12.489 40.916 12.17 39.984 11.483 C 39.174 10.894 38.536 9.863 38.536 8.539 C 38.536 7.606 38.88 6.061 40.597 5.079 C 41.898 4.318 43.223 4.27 44.4 4.27 C 45.774 4.27 47.222 4.367 48.473 5.275 C 49.577 6.085 50.019 7.165 50.166 7.557 L 46.461 8.269 Z " fill="rgb(204,205,203)"/><path d=" M 57.328 17.077 L 52.47 17.077 L 52.47 4.515 L 57.328 4.515 L 57.328 17.077 Z  M 57.328 3.337 L 52.47 3.337 L 52.47 0 L 57.328 0 L 57.328 3.337 Z " fill="rgb(204,205,203)"/><path d=" M 66.796 11.311 C 65.619 11.507 65.104 11.826 64.932 11.949 C 64.417 12.317 64.245 12.833 64.245 13.225 C 64.245 13.863 64.711 14.329 65.594 14.329 C 67.435 14.329 67.557 12.808 67.557 11.9 L 67.557 11.188 L 66.796 11.311 Z  M 59.706 8.195 C 60.098 6.6 61.08 5.717 61.767 5.275 C 63.141 4.367 64.883 4.27 66.281 4.27 C 68.367 4.27 70.698 4.515 71.728 6.453 C 72.219 7.385 72.219 8.416 72.219 9.422 L 72.219 14.329 C 72.219 15.041 72.219 15.826 72.587 17.077 L 67.974 17.077 C 67.9 16.758 67.802 16.218 67.802 15.335 C 67.312 16.096 66.208 17.322 63.705 17.322 C 60.441 17.322 59.288 15.31 59.288 13.667 C 59.288 12.563 59.754 11.409 60.711 10.648 C 62.159 9.496 64.809 9.127 66.649 8.98 L 67.557 8.907 L 67.557 8.71 C 67.557 8.465 67.557 7.95 67.263 7.631 C 67.091 7.435 66.723 7.263 66.061 7.263 C 64.711 7.263 64.269 7.974 64.171 8.612 L 59.706 8.195 Z " fill="rgb(204,205,203)"/><path d=" M 74.816 17.077 L 74.816 4.515 L 79.331 4.515 L 79.331 6.281 L 79.38 6.281 C 80.46 4.441 82.202 4.27 83.011 4.27 C 83.993 4.27 84.999 4.515 85.735 5.055 C 86.863 5.913 87.035 7.115 87.035 8.023 L 87.035 17.077 L 82.177 17.077 L 82.177 8.956 C 82.177 8.465 82.177 8.023 81.784 7.655 C 81.564 7.459 81.343 7.41 81.098 7.41 C 80.656 7.41 80.313 7.582 80.091 7.827 C 79.699 8.269 79.674 8.857 79.674 9.373 L 79.674 17.077 L 74.816 17.077 Z " fill="rgb(204,205,203)"/><path d=" M 8.936 21.845 C 8.84 21.158 8.576 20.422 8.263 19.956 C 7.927 19.465 7.23 18.852 6.028 18.852 C 4.971 18.852 4.202 19.367 3.673 20.251 C 3 21.355 2.88 22.777 2.88 23.784 C 2.88 26.139 3.529 27.169 3.673 27.366 C 4.082 27.98 4.803 28.618 6.004 28.618 C 6.917 28.618 7.59 28.298 8.143 27.587 C 8.576 27.023 8.84 26.262 8.936 25.55 L 10.667 25.87 C 10.498 27.072 9.97 28.176 9.272 28.912 C 8.407 29.82 7.278 30.237 5.956 30.237 C 4.418 30.237 3.313 29.672 2.591 29.01 C 1.39 27.881 0.765 25.87 0.765 23.759 C 0.765 22.091 1.125 20.569 2.039 19.269 C 2.88 18.091 4.105 17.232 6.076 17.232 C 7.422 17.232 8.552 17.649 9.417 18.655 C 10.114 19.465 10.523 20.618 10.667 21.526 L 8.936 21.845 Z " fill="rgb(41,41,41)"/><path d=" M 14.803 19.833 C 15.501 18.312 16.846 17.232 18.769 17.232 C 20.283 17.232 21.196 17.846 21.653 18.386 C 22.494 19.343 22.59 20.643 22.59 21.772 L 22.59 29.992 L 20.764 29.992 L 20.764 22.238 C 20.764 21.306 20.764 20.349 20.259 19.662 C 19.995 19.294 19.442 18.852 18.432 18.852 C 17.063 18.852 16.221 19.612 15.789 20.152 C 15.02 21.109 14.803 22.287 14.803 23.587 L 14.803 29.992 L 12.977 29.992 L 12.977 13.159 L 14.803 13.159 L 14.803 19.833 Z " fill="rgb(41,41,41)"/><path d=" M 27.953 29.992 L 26.127 29.992 L 26.127 17.478 L 27.953 17.478 L 27.953 29.992 Z  M 28.049 15.318 L 26.03 15.318 L 26.03 13.159 L 28.049 13.159 L 28.049 15.318 Z " fill="rgb(41,41,41)"/><path d=" M 33.313 29.992 L 31.487 29.992 L 31.487 13.159 L 33.313 13.159 L 33.313 29.992 Z " fill="rgb(41,41,41)"/><path d=" M 44.418 22.287 C 44.418 21.403 44.057 20.496 43.553 19.907 C 43.072 19.343 42.279 18.852 41.197 18.852 C 40.236 18.852 39.371 19.22 38.722 20.251 C 38.193 21.109 37.977 22.287 37.977 23.686 C 37.977 25.477 38.337 26.507 38.698 27.145 C 39.227 28.078 39.996 28.618 41.101 28.618 C 42.183 28.618 43.072 28.078 43.601 27.391 C 44.057 26.777 44.418 25.771 44.418 24.913 L 44.418 22.287 Z  M 46.244 13.159 L 46.244 29.992 L 44.562 29.992 L 44.562 27.881 L 44.514 27.881 C 44.394 28.225 44.153 28.667 43.745 29.084 C 43.072 29.771 42.111 30.237 40.861 30.237 C 39.227 30.237 38.049 29.525 37.184 28.373 C 36.511 27.464 35.862 26.017 35.862 23.833 C 35.862 21.502 36.511 19.735 37.497 18.68 C 38.337 17.773 39.443 17.232 40.885 17.232 C 41.846 17.232 42.711 17.478 43.481 18.091 C 43.865 18.41 44.177 18.778 44.418 19.147 L 44.418 13.159 L 46.244 13.159 Z " fill="rgb(41,41,41)"/><path d=" M 51.463 17.478 L 51.463 20.447 L 51.511 20.447 C 51.727 19.49 52.256 18.558 52.881 18.018 C 53.41 17.551 54.179 17.208 55.044 17.208 C 55.284 17.208 55.501 17.208 55.741 17.257 L 55.741 19.073 C 55.621 19.073 55.477 19.073 55.356 19.073 C 54.659 19.097 53.481 19.22 52.496 20.496 C 51.799 21.403 51.607 22.336 51.607 23.71 L 51.607 29.992 L 49.781 29.992 L 49.781 17.478 L 51.463 17.478 Z " fill="rgb(41,41,41)"/><path d=" M 65.501 22.483 C 65.476 21.723 65.284 20.815 64.923 20.201 C 64.539 19.564 63.77 18.754 62.328 18.754 C 61.127 18.754 60.213 19.343 59.661 20.029 C 59.156 20.692 58.843 21.6 58.819 22.483 L 65.501 22.483 Z  M 67.399 26.581 C 67.063 27.661 66.438 28.569 65.404 29.304 C 64.443 29.967 63.434 30.237 62.256 30.237 C 60.525 30.237 59.156 29.648 58.098 28.421 C 57.017 27.169 56.608 25.575 56.608 23.833 C 56.608 20.496 58.435 17.232 62.304 17.232 C 66.87 17.232 67.615 21.551 67.615 23.563 L 67.615 24.004 L 58.723 24.004 C 58.699 24.839 58.843 25.722 59.132 26.434 C 59.732 27.93 60.838 28.618 62.328 28.618 C 63.65 28.618 64.443 28.029 64.876 27.538 C 65.212 27.169 65.476 26.655 65.621 26.213 L 67.399 26.581 Z " fill="rgb(41,41,41)"/><path d=" M 70.046 29.992 L 70.046 17.527 L 71.728 17.527 L 71.728 19.833 L 71.776 19.833 C 72.497 18.238 73.939 17.232 75.837 17.232 C 77.352 17.232 78.241 17.846 78.722 18.386 C 79.563 19.343 79.659 20.643 79.659 21.772 L 79.659 29.992 L 77.833 29.992 L 77.833 22.238 C 77.833 21.306 77.833 20.349 77.328 19.662 C 77.064 19.318 76.511 18.852 75.453 18.852 C 74.564 18.852 73.771 19.195 73.17 19.76 C 71.944 20.913 71.872 22.532 71.872 23.391 L 71.872 29.992 L 70.046 29.992 Z " fill="rgb(41,41,41)"/><path d=" M 8.514 35.378 C 8.318 34.961 7.999 34.569 7.68 34.373 C 7.189 34.078 6.502 34.078 6.208 34.078 C 5.864 34.078 5.324 34.127 5.03 34.373 C 4.858 34.495 4.76 34.716 4.76 34.937 C 4.76 35.354 5.104 35.575 5.938 35.672 L 8.22 35.967 C 9.054 36.065 10.747 36.311 11.802 37.439 C 12.366 38.028 12.759 38.912 12.759 39.991 C 12.759 41.733 11.729 42.813 10.82 43.377 C 9.667 44.113 7.95 44.432 6.183 44.432 C 4.956 44.432 2.944 44.236 1.521 42.985 C 0.883 42.42 0.319 41.561 0 40.629 L 3.901 40.114 C 4.048 40.531 4.27 40.826 4.662 41.095 C 5.3 41.537 5.913 41.586 6.404 41.586 C 7.68 41.586 8.048 41.415 8.195 41.267 C 8.318 41.144 8.44 40.923 8.44 40.727 C 8.44 40.409 8.22 40.237 8.048 40.163 C 7.729 40.016 7.459 39.991 7.165 39.942 L 5.422 39.721 C 4.441 39.598 2.969 39.28 2.037 38.592 C 1.227 38.003 0.589 36.973 0.589 35.648 C 0.589 34.716 0.933 33.17 2.65 32.189 C 3.95 31.428 5.275 31.379 6.453 31.379 C 7.827 31.379 9.274 31.477 10.526 32.385 C 11.63 33.195 12.072 34.274 12.219 34.667 L 8.514 35.378 Z " fill="rgb(118,142,138)"/><path d=" M 19.405 31.625 L 21.858 31.625 L 21.858 34.913 L 19.405 34.913 L 19.405 39.452 C 19.405 39.794 19.405 40.286 19.65 40.58 C 19.896 40.875 20.313 40.899 20.533 40.899 C 20.828 40.899 21.245 40.875 21.858 40.654 L 21.858 44.088 C 20.362 44.383 19.356 44.432 18.767 44.432 C 17.663 44.432 16.362 44.285 15.455 43.254 C 14.547 42.2 14.547 40.948 14.547 39.672 L 14.547 34.913 L 12.731 34.913 L 12.731 31.625 L 14.768 31.625 L 15.136 27.65 L 19.405 27.502 L 19.405 31.625 Z " fill="rgb(118,142,138)"/><path d=" M 35.375 44.187 L 30.86 44.187 L 30.86 42.126 L 30.812 42.126 C 29.83 44.359 27.671 44.432 27.131 44.432 C 26.297 44.432 25.364 44.236 24.702 43.794 C 23.328 42.886 23.156 41.463 23.156 40.286 L 23.156 31.625 L 28.014 31.625 L 28.014 39.059 C 28.014 39.549 28.014 40.114 28.284 40.482 C 28.456 40.703 28.799 40.899 29.168 40.899 C 29.535 40.899 29.903 40.727 30.124 40.458 C 30.468 40.041 30.517 39.501 30.517 39.084 L 30.517 31.625 L 35.375 31.625 L 35.375 44.187 Z " fill="rgb(118,142,138)"/><path d=" M 45.014 36.409 C 45.014 35.599 44.842 35.182 44.67 34.961 C 44.376 34.593 43.983 34.52 43.689 34.52 C 43.051 34.52 42.609 34.838 42.315 35.452 C 42.168 35.747 41.972 36.335 41.972 37.783 C 41.972 38.592 42.021 39.721 42.291 40.383 C 42.561 41.046 42.978 41.439 43.64 41.439 C 44.229 41.439 44.572 41.095 44.744 40.776 C 45.063 40.261 45.014 39.672 45.014 39.255 L 45.014 36.409 Z  M 49.872 27.355 L 49.872 44.187 L 45.357 44.187 L 45.357 42.568 L 45.309 42.568 C 45.063 43.083 44.67 43.524 44.204 43.819 C 43.615 44.211 42.683 44.432 41.849 44.432 C 40.573 44.432 39.371 43.917 38.414 42.641 C 37.358 41.243 37.015 39.377 37.015 37.783 C 37.015 35.427 37.702 33.956 38.389 33.072 C 39.395 31.796 40.548 31.379 42.021 31.379 C 42.634 31.379 43.346 31.453 44.008 31.821 C 44.4 32.042 44.769 32.385 45.014 32.655 L 45.014 27.355 L 49.872 27.355 Z " fill="rgb(118,142,138)"/><path d=" M 57.008 44.187 L 52.15 44.187 L 52.15 31.625 L 57.008 31.625 L 57.008 44.187 Z  M 57.008 30.447 L 52.15 30.447 L 52.15 27.11 L 57.008 27.11 L 57.008 30.447 Z " fill="rgb(118,142,138)"/><path d=" M 66.601 40.531 C 66.895 39.942 66.944 39.181 66.944 37.906 C 66.944 36.629 66.895 35.869 66.601 35.28 C 66.306 34.667 65.864 34.373 65.275 34.373 C 64.686 34.373 64.245 34.667 63.951 35.28 C 63.656 35.869 63.607 36.629 63.607 37.906 C 63.607 38.985 63.632 39.844 63.951 40.531 C 64.221 41.095 64.589 41.439 65.275 41.439 C 65.864 41.439 66.306 41.169 66.601 40.531 Z  M 69.864 33.072 C 71.189 34.298 71.9 36.115 71.9 37.906 C 71.9 39.697 71.189 41.512 69.864 42.739 C 68.882 43.647 67.41 44.432 65.275 44.432 C 63.141 44.432 61.669 43.647 60.688 42.739 C 59.362 41.512 58.651 39.697 58.651 37.906 C 58.651 36.115 59.362 34.298 60.688 33.072 C 61.669 32.165 63.141 31.379 65.275 31.379 C 67.41 31.379 68.882 32.165 69.864 33.072 Z " fill="rgb(118,142,138)"/><path d=" M 79.947 44.226 C 80.37 43.802 80.388 43.029 80.388 42.758 C 80.388 42.488 80.37 41.714 79.947 41.291 C 79.749 41.093 79.46 40.966 79.109 40.966 C 78.758 40.966 78.47 41.093 78.272 41.291 C 77.849 41.714 77.831 42.488 77.831 42.758 C 77.831 43.029 77.849 43.802 78.272 44.226 C 78.47 44.423 78.758 44.55 79.109 44.55 C 79.46 44.55 79.749 44.423 79.947 44.226 Z  M 77.732 40.895 C 78.011 40.633 78.47 40.373 79.109 40.373 C 79.749 40.373 80.208 40.633 80.487 40.895 C 80.892 41.282 81.18 41.939 81.18 42.758 C 81.18 43.578 80.892 44.235 80.487 44.622 C 80.208 44.883 79.749 45.144 79.109 45.144 C 78.47 45.144 78.011 44.883 77.732 44.622 C 77.327 44.235 77.039 43.578 77.039 42.758 C 77.039 41.939 77.327 41.282 77.732 40.895 Z " fill="rgb(41,41,41)"/><path d=" M 84.456 39.41 C 84.194 39.355 84.005 39.346 83.87 39.346 C 83.699 39.346 83.465 39.365 83.303 39.536 C 83.132 39.715 83.105 39.976 83.105 40.157 L 83.105 40.462 L 84.186 40.462 L 84.186 41.021 L 83.105 41.021 L 83.105 45.054 L 82.421 45.054 L 82.421 41.021 L 81.61 41.021 L 81.61 40.462 L 82.421 40.462 L 82.421 40.336 C 82.421 39.941 82.457 39.41 82.835 39.077 C 83.123 38.824 83.528 38.789 83.789 38.789 C 84.077 38.789 84.312 38.824 84.456 38.851 L 84.456 39.41 Z " fill="rgb(41,41,41)"/><path d=" M 87.74 45.054 L 87.056 45.054 L 87.056 38.878 L 87.74 38.878 L 87.74 45.054 Z " fill="rgb(41,41,41)"/><path d=" M 91.44 42.776 C 90.719 42.776 90.305 42.867 90.053 43.002 C 89.675 43.2 89.585 43.533 89.585 43.766 C 89.585 43.947 89.657 44.208 89.918 44.378 C 90.044 44.469 90.26 44.55 90.575 44.55 C 91.025 44.55 91.421 44.334 91.664 44.037 C 91.898 43.749 92.024 43.326 92.024 43.002 L 92.024 42.776 L 91.44 42.776 Z  M 88.955 41.624 C 89.152 40.643 89.9 40.373 90.899 40.373 C 91.205 40.373 91.8 40.381 92.205 40.706 C 92.7 41.102 92.709 41.732 92.709 42.326 L 92.709 44.09 C 92.709 44.342 92.735 44.649 92.826 45.054 L 92.106 45.054 C 92.052 44.721 92.033 44.423 92.024 44.199 C 91.898 44.46 91.502 45.144 90.422 45.144 C 89.837 45.144 89.468 44.946 89.243 44.739 C 89.044 44.559 88.828 44.244 88.828 43.766 C 88.828 43.145 89.18 42.786 89.45 42.605 C 90.008 42.227 90.728 42.218 91.431 42.218 L 92.024 42.218 L 92.024 42.029 C 92.024 41.786 92.007 41.48 91.845 41.264 C 91.61 40.949 91.214 40.931 90.89 40.931 C 90.512 40.931 89.72 40.985 89.612 41.732 L 88.955 41.624 Z " fill="rgb(41,41,41)"/><path d=" M 94.094 45.054 L 94.094 40.481 L 94.724 40.481 L 94.724 41.327 L 94.742 41.327 C 95.012 40.742 95.552 40.373 96.264 40.373 C 96.83 40.373 97.164 40.597 97.344 40.795 C 97.659 41.147 97.694 41.624 97.694 42.038 L 97.694 45.054 L 97.011 45.054 L 97.011 42.21 C 97.011 41.867 97.011 41.516 96.821 41.264 C 96.723 41.138 96.516 40.966 96.119 40.966 C 95.786 40.966 95.489 41.093 95.264 41.3 C 94.805 41.723 94.778 42.317 94.778 42.632 L 94.778 45.054 L 94.094 45.054 Z " fill="rgb(41,41,41)"/><path d=" M 101.699 41.921 C 101.699 41.777 101.682 41.461 101.43 41.21 C 101.24 41.012 100.988 40.931 100.719 40.931 C 100.574 40.931 100.376 40.949 100.169 41.066 C 99.845 41.254 99.692 41.606 99.692 41.93 C 99.692 42.2 99.809 42.515 99.989 42.686 C 100.16 42.848 100.439 42.938 100.709 42.938 C 101.601 42.938 101.699 42.165 101.699 41.921 Z  M 99.855 44.874 C 99.62 44.973 99.368 45.153 99.368 45.46 C 99.368 45.756 99.584 46.224 100.799 46.224 C 100.997 46.224 101.502 46.198 101.79 46.107 C 102.249 45.963 102.348 45.675 102.348 45.522 C 102.348 44.982 101.682 44.964 100.952 44.928 L 99.855 44.874 Z  M 102.879 40.336 L 102.753 40.336 C 102.699 40.336 102.636 40.328 102.582 40.328 C 102.411 40.328 102.258 40.364 102.141 40.535 C 102.078 40.625 102.023 40.787 101.997 40.868 C 102.429 41.3 102.438 41.822 102.438 41.993 C 102.438 42.425 102.239 42.786 101.997 43.029 C 101.709 43.317 101.285 43.497 100.809 43.497 C 100.691 43.497 100.565 43.478 100.448 43.46 C 100.35 43.443 100.241 43.416 100.143 43.416 C 100.016 43.416 99.855 43.443 99.755 43.514 C 99.647 43.595 99.584 43.712 99.584 43.838 C 99.584 44.009 99.674 44.235 100.188 44.262 L 101.142 44.307 C 101.682 44.334 102.023 44.342 102.348 44.469 C 102.834 44.658 103.05 45.072 103.05 45.46 C 103.05 45.801 102.896 46.243 102.366 46.512 C 101.871 46.764 101.114 46.783 100.79 46.783 C 99.44 46.783 98.666 46.369 98.666 45.594 C 98.666 45.117 98.954 44.793 99.358 44.667 C 99.242 44.604 98.918 44.388 98.918 43.947 C 98.918 43.614 99.106 43.253 99.548 43.127 L 99.548 43.11 C 98.963 42.695 98.954 42.084 98.954 41.921 C 98.954 41.498 99.143 41.102 99.422 40.832 C 99.629 40.633 100.034 40.373 100.709 40.373 C 101.168 40.373 101.492 40.499 101.637 40.562 C 101.673 40.202 101.871 39.922 102.222 39.814 C 102.393 39.76 102.501 39.76 102.663 39.76 C 102.717 39.76 102.771 39.76 102.825 39.769 L 102.879 39.779 L 102.879 40.336 Z " fill="rgb(41,41,41)"/><path d=" M 107.28 45.054 L 106.649 45.054 L 106.649 44.145 L 106.632 44.145 C 106.38 44.82 105.813 45.144 105.218 45.144 C 104.678 45.144 104.336 44.919 104.138 44.694 C 103.76 44.262 103.715 43.64 103.715 43.317 L 103.715 40.462 L 104.399 40.462 L 104.399 43.317 C 104.399 43.497 104.408 43.992 104.633 44.262 C 104.786 44.451 105.065 44.55 105.326 44.55 C 105.983 44.55 106.596 44.001 106.596 42.902 L 106.596 40.462 L 107.28 40.462 L 107.28 45.054 Z " fill="rgb(41,41,41)"/><path d=" M 110.979 42.776 C 110.258 42.776 109.844 42.867 109.592 43.002 C 109.214 43.2 109.124 43.533 109.124 43.766 C 109.124 43.947 109.196 44.208 109.457 44.378 C 109.583 44.469 109.799 44.55 110.114 44.55 C 110.564 44.55 110.96 44.334 111.203 44.037 C 111.438 43.749 111.563 43.326 111.563 43.002 L 111.563 42.776 L 110.979 42.776 Z  M 108.494 41.624 C 108.691 40.643 109.439 40.373 110.438 40.373 C 110.744 40.373 111.339 40.381 111.744 40.706 C 112.239 41.102 112.248 41.732 112.248 42.326 L 112.248 44.09 C 112.248 44.342 112.274 44.649 112.365 45.054 L 111.645 45.054 C 111.591 44.721 111.572 44.423 111.563 44.199 C 111.438 44.46 111.041 45.144 109.961 45.144 C 109.376 45.144 109.007 44.946 108.782 44.739 C 108.584 44.559 108.367 44.244 108.367 43.766 C 108.367 43.145 108.719 42.786 108.989 42.605 C 109.547 42.227 110.268 42.218 110.97 42.218 L 111.563 42.218 L 111.563 42.029 C 111.563 41.786 111.546 41.48 111.384 41.264 C 111.149 40.949 110.753 40.931 110.43 40.931 C 110.051 40.931 109.259 40.985 109.151 41.732 L 108.494 41.624 Z " fill="rgb(41,41,41)"/><path d=" M 116.181 41.921 C 116.181 41.777 116.162 41.461 115.91 41.21 C 115.722 41.012 115.47 40.931 115.199 40.931 C 115.056 40.931 114.857 40.949 114.65 41.066 C 114.326 41.254 114.173 41.606 114.173 41.93 C 114.173 42.2 114.29 42.515 114.47 42.686 C 114.641 42.848 114.92 42.938 115.19 42.938 C 116.081 42.938 116.181 42.165 116.181 41.921 Z  M 114.335 44.874 C 114.101 44.973 113.849 45.153 113.849 45.46 C 113.849 45.756 114.064 46.224 115.28 46.224 C 115.479 46.224 115.982 46.198 116.271 46.107 C 116.729 45.963 116.829 45.675 116.829 45.522 C 116.829 44.982 116.162 44.964 115.434 44.928 L 114.335 44.874 Z  M 117.36 40.336 L 117.233 40.336 C 117.18 40.336 117.117 40.328 117.063 40.328 C 116.892 40.328 116.738 40.364 116.622 40.535 C 116.559 40.625 116.505 40.787 116.478 40.868 C 116.91 41.3 116.919 41.822 116.919 41.993 C 116.919 42.425 116.721 42.786 116.478 43.029 C 116.189 43.317 115.767 43.497 115.289 43.497 C 115.172 43.497 115.046 43.478 114.929 43.46 C 114.83 43.443 114.722 43.416 114.623 43.416 C 114.497 43.416 114.335 43.443 114.236 43.514 C 114.128 43.595 114.064 43.712 114.064 43.838 C 114.064 44.009 114.155 44.235 114.668 44.262 L 115.622 44.307 C 116.162 44.334 116.505 44.342 116.829 44.469 C 117.314 44.658 117.531 45.072 117.531 45.46 C 117.531 45.801 117.378 46.243 116.847 46.512 C 116.352 46.764 115.596 46.783 115.271 46.783 C 113.921 46.783 113.146 46.369 113.146 45.594 C 113.146 45.117 113.435 44.793 113.84 44.667 C 113.723 44.604 113.398 44.388 113.398 43.947 C 113.398 43.614 113.588 43.253 114.029 43.127 L 114.029 43.11 C 113.443 42.695 113.435 42.084 113.435 41.921 C 113.435 41.498 113.624 41.102 113.903 40.832 C 114.11 40.633 114.515 40.373 115.19 40.373 C 115.649 40.373 115.974 40.499 116.117 40.562 C 116.153 40.202 116.352 39.922 116.703 39.814 C 116.874 39.76 116.981 39.76 117.144 39.76 C 117.198 39.76 117.252 39.76 117.306 39.769 L 117.36 39.779 L 117.36 40.336 Z " fill="rgb(41,41,41)"/><path d=" M 121.157 42.299 C 121.148 42.02 121.076 41.687 120.941 41.461 C 120.797 41.228 120.509 40.931 119.969 40.931 C 119.519 40.931 119.177 41.147 118.97 41.399 C 118.78 41.642 118.663 41.975 118.654 42.299 L 121.157 42.299 Z  M 121.868 43.802 C 121.742 44.199 121.508 44.532 121.121 44.802 C 120.761 45.045 120.383 45.144 119.941 45.144 C 119.294 45.144 118.78 44.928 118.385 44.478 C 117.979 44.019 117.826 43.433 117.826 42.794 C 117.826 41.57 118.511 40.373 119.96 40.373 C 121.67 40.373 121.949 41.958 121.949 42.695 L 121.949 42.857 L 118.618 42.857 C 118.609 43.164 118.663 43.488 118.771 43.749 C 118.996 44.297 119.41 44.55 119.969 44.55 C 120.464 44.55 120.761 44.334 120.923 44.154 C 121.049 44.019 121.148 43.83 121.202 43.668 L 121.868 43.802 Z " fill="rgb(41,41,41)"/><path d=" M 123.919 44.937 L 123.199 46.143 L 122.857 46.143 L 123.389 45.054 L 123.02 45.054 L 123.02 44.163 L 123.919 44.163 L 123.919 44.937 Z " fill="rgb(41,41,41)"/><path d=" M 129.652 42.776 C 128.933 42.776 128.519 42.867 128.267 43.002 C 127.889 43.2 127.798 43.533 127.798 43.766 C 127.798 43.947 127.87 44.208 128.131 44.378 C 128.258 44.469 128.474 44.55 128.788 44.55 C 129.238 44.55 129.635 44.334 129.878 44.037 C 130.112 43.749 130.238 43.326 130.238 43.002 L 130.238 42.776 L 129.652 42.776 Z  M 127.168 41.624 C 127.366 40.643 128.113 40.373 129.112 40.373 C 129.419 40.373 130.013 40.381 130.418 40.706 C 130.913 41.102 130.922 41.732 130.922 42.326 L 130.922 44.09 C 130.922 44.342 130.949 44.649 131.039 45.054 L 130.319 45.054 C 130.265 44.721 130.247 44.423 130.238 44.199 C 130.112 44.46 129.716 45.144 128.636 45.144 C 128.05 45.144 127.682 44.946 127.456 44.739 C 127.258 44.559 127.042 44.244 127.042 43.766 C 127.042 43.145 127.394 42.786 127.663 42.605 C 128.222 42.227 128.941 42.218 129.644 42.218 L 130.238 42.218 L 130.238 42.029 C 130.238 41.786 130.22 41.48 130.058 41.264 C 129.824 40.949 129.428 40.931 129.104 40.931 C 128.726 40.931 127.934 40.985 127.825 41.732 L 127.168 41.624 Z " fill="rgb(41,41,41)"/><path d=" M 132.938 40.462 L 132.938 41.552 L 132.955 41.552 C 133.036 41.201 133.234 40.859 133.469 40.661 C 133.666 40.49 133.954 40.364 134.278 40.364 C 134.369 40.364 134.45 40.364 134.54 40.381 L 134.54 41.047 C 134.495 41.047 134.44 41.047 134.396 41.047 C 134.135 41.057 133.693 41.102 133.324 41.57 C 133.063 41.903 132.991 42.246 132.991 42.75 L 132.991 45.054 L 132.307 45.054 L 132.307 40.462 L 132.938 40.462 Z " fill="rgb(41,41,41)"/><path d=" M 136.168 40.462 L 137.204 40.462 L 137.204 41.021 L 136.168 41.021 L 136.168 43.731 C 136.168 43.911 136.178 44.19 136.385 44.378 C 136.483 44.469 136.654 44.55 136.942 44.55 C 137.104 44.55 137.294 44.523 137.456 44.496 L 137.456 45.054 C 137.249 45.09 137.023 45.108 136.799 45.108 C 136.511 45.108 136.078 45.072 135.79 44.784 C 135.502 44.487 135.484 44.064 135.484 43.83 L 135.484 41.021 L 134.683 41.021 L 134.683 40.462 L 135.484 40.462 L 135.484 39.31 L 136.168 39.238 L 136.168 40.462 Z " fill="rgb(41,41,41)"/><path d=" M 142.405 41.138 C 142.648 41.002 142.91 40.904 143.09 40.661 C 143.18 40.535 143.252 40.364 143.252 40.157 C 143.252 39.733 142.9 39.455 142.415 39.455 C 141.991 39.455 141.686 39.707 141.686 40.112 C 141.686 40.481 141.92 40.769 142.108 41.057 L 142.226 41.237 L 142.405 41.138 Z  M 141.884 41.966 C 141.713 42.011 141.532 42.092 141.334 42.236 C 141.02 42.47 140.821 42.776 140.821 43.226 C 140.821 43.866 141.28 44.478 142.189 44.478 C 142.766 44.478 143.144 44.216 143.324 44.064 L 141.884 41.966 Z  M 145.341 41.813 C 145.053 43.083 144.521 43.731 144.225 44.054 C 144.468 44.388 144.656 44.406 144.944 44.406 C 145.115 44.406 145.251 44.397 145.448 44.361 L 145.448 45.009 C 145.062 45.045 145.053 45.072 144.765 45.072 C 144.251 45.072 144.08 44.838 143.855 44.63 L 143.747 44.532 C 143.117 45.081 142.469 45.144 142.072 45.144 C 140.687 45.144 139.993 44.208 139.993 43.326 C 139.993 42.948 140.119 41.966 141.551 41.471 L 141.425 41.291 C 141.146 40.885 140.911 40.499 140.911 40.093 C 140.911 39.472 141.344 38.789 142.396 38.789 C 143.54 38.789 144.026 39.436 144.026 40.093 C 144.026 40.958 143.324 41.417 142.514 41.696 L 143.783 43.595 C 144.026 43.326 144.477 42.731 144.675 41.678 L 145.341 41.813 Z " fill="rgb(41,41,41)"/><path d=" M 151.315 42.065 C 151.279 41.813 151.181 41.543 151.063 41.372 C 150.938 41.192 150.677 40.966 150.227 40.966 C 149.83 40.966 149.542 41.156 149.344 41.48 C 149.092 41.885 149.047 42.407 149.047 42.776 C 149.047 43.64 149.29 44.019 149.344 44.09 C 149.497 44.316 149.768 44.55 150.218 44.55 C 150.56 44.55 150.812 44.433 151.019 44.171 C 151.181 43.964 151.279 43.686 151.315 43.424 L 151.964 43.542 C 151.901 43.983 151.703 44.388 151.441 44.658 C 151.118 44.991 150.694 45.144 150.199 45.144 C 149.623 45.144 149.209 44.937 148.939 44.694 C 148.489 44.28 148.255 43.542 148.255 42.767 C 148.255 42.155 148.39 41.597 148.732 41.12 C 149.047 40.688 149.506 40.373 150.244 40.373 C 150.749 40.373 151.172 40.526 151.496 40.895 C 151.757 41.192 151.91 41.615 151.964 41.948 L 151.315 42.065 Z " fill="rgb(41,41,41)"/><path d=" M 156.527 45.054 L 155.896 45.054 L 155.896 44.145 L 155.879 44.145 C 155.627 44.82 155.06 45.144 154.465 45.144 C 153.925 45.144 153.583 44.919 153.385 44.694 C 153.007 44.262 152.962 43.64 152.962 43.317 L 152.962 40.462 L 153.646 40.462 L 153.646 43.317 C 153.646 43.497 153.655 43.992 153.88 44.262 C 154.033 44.451 154.313 44.55 154.573 44.55 C 155.23 44.55 155.843 44.001 155.843 42.902 L 155.843 40.462 L 156.527 40.462 L 156.527 45.054 Z " fill="rgb(41,41,41)"/><path d=" M 158.668 45.054 L 157.983 45.054 L 157.983 38.878 L 158.668 38.878 L 158.668 45.054 Z " fill="rgb(41,41,41)"/><path d=" M 160.927 40.462 L 161.962 40.462 L 161.962 41.021 L 160.927 41.021 L 160.927 43.731 C 160.927 43.911 160.936 44.19 161.143 44.378 C 161.242 44.469 161.413 44.55 161.701 44.55 C 161.863 44.55 162.052 44.523 162.214 44.496 L 162.214 45.054 C 162.007 45.09 161.782 45.108 161.557 45.108 C 161.269 45.108 160.837 45.072 160.549 44.784 C 160.261 44.487 160.242 44.064 160.242 43.83 L 160.242 41.021 L 159.441 41.021 L 159.441 40.462 L 160.242 40.462 L 160.242 39.31 L 160.927 39.238 L 160.927 40.462 Z " fill="rgb(41,41,41)"/><path d=" M 166.535 45.054 L 165.904 45.054 L 165.904 44.145 L 165.887 44.145 C 165.635 44.82 165.067 45.144 164.473 45.144 C 163.933 45.144 163.591 44.919 163.393 44.694 C 163.015 44.262 162.97 43.64 162.97 43.317 L 162.97 40.462 L 163.654 40.462 L 163.654 43.317 C 163.654 43.497 163.663 43.992 163.888 44.262 C 164.041 44.451 164.32 44.55 164.581 44.55 C 165.238 44.55 165.851 44.001 165.851 42.902 L 165.851 40.462 L 166.535 40.462 L 166.535 45.054 Z " fill="rgb(41,41,41)"/><path d=" M 168.622 40.462 L 168.622 41.552 L 168.64 41.552 C 168.721 41.201 168.919 40.859 169.153 40.661 C 169.351 40.49 169.639 40.364 169.963 40.364 C 170.054 40.364 170.135 40.364 170.225 40.381 L 170.225 41.047 C 170.18 41.047 170.125 41.047 170.08 41.047 C 169.819 41.057 169.378 41.102 169.009 41.57 C 168.748 41.903 168.676 42.246 168.676 42.75 L 168.676 45.054 L 167.991 45.054 L 167.991 40.462 L 168.622 40.462 Z " fill="rgb(41,41,41)"/><path d=" M 173.933 42.299 C 173.924 42.02 173.852 41.687 173.717 41.461 C 173.572 41.228 173.284 40.931 172.744 40.931 C 172.294 40.931 171.952 41.147 171.745 41.399 C 171.556 41.642 171.438 41.975 171.43 42.299 L 173.933 42.299 Z  M 174.644 43.802 C 174.518 44.199 174.283 44.532 173.896 44.802 C 173.536 45.045 173.158 45.144 172.717 45.144 C 172.069 45.144 171.556 44.928 171.16 44.478 C 170.755 44.019 170.602 43.433 170.602 42.794 C 170.602 41.57 171.286 40.373 172.735 40.373 C 174.445 40.373 174.725 41.958 174.725 42.695 L 174.725 42.857 L 171.394 42.857 C 171.385 43.164 171.438 43.488 171.547 43.749 C 171.771 44.297 172.186 44.55 172.744 44.55 C 173.239 44.55 173.536 44.334 173.698 44.154 C 173.824 44.019 173.924 43.83 173.978 43.668 L 174.644 43.802 Z " fill="rgb(41,41,41)"/></g></g></svg>